<svg width="40" height="40" viewBox="0 0 40 40" fill="none" xmlns="http://www.w3.org/2000/svg">
<g clip-path="url(#clip0_111_742)">
<path d="M26.7834 30.785L34.1667 28.3334C35.0705 28.0654 36.0348 28.0815 36.9291 28.3796C37.8234 28.6777 38.6045 29.2434 39.1667 30C18.785 40.1884 25.38 40.1284 7.50004 34.1667L0.833374 38.3334" stroke="black" stroke-width="2" stroke-linecap="round" stroke-linejoin="round"/>
<path d="M15.8334 31.6667H25C25.2439 31.7105 25.4943 31.7002 25.7337 31.6367C25.9732 31.5731 26.1958 31.4578 26.3858 31.2989C26.5758 31.14 26.7286 30.9413 26.8335 30.7169C26.9384 30.4924 26.9927 30.2477 26.9927 30C26.9927 29.7523 26.9384 29.5076 26.8335 29.2831C26.7286 29.0587 26.5758 28.86 26.3858 28.7011C26.1958 28.5422 25.9732 28.4269 25.7337 28.3633C25.4943 28.2998 25.2439 28.2895 25 28.3333H20C18.0245 26.2951 15.3368 25.1005 12.5 25H7.50004L0.833374 28.3333" stroke="black" stroke-width="2" stroke-linecap="round" stroke-linejoin="round"/>
<g clip-path="url(#clip1_111_742)">
<path d="M28.5595 11.0289C32.2233 13.1889 37 17.2816 37 21.9711C37 26.6605 32.0693 30 25.9914 30C19.9136 30 15 26.7174 15 21.9711C15 17.2247 19.7595 13.1889 23.4233 11.0289L19.537 6.55263C19.3624 6.25145 19.3065 5.9123 19.3772 5.58327C19.4478 5.25423 19.6415 4.95202 19.9307 4.71947C20.2051 4.48228 20.57 4.3314 20.9634 4.29253C21.3567 4.25366 21.7542 4.32921 22.0879 4.50632C22.4111 4.65929 22.7909 4.70764 23.1544 4.64205C23.5179 4.57646 23.8394 4.40157 24.0568 4.15105L24.4335 3.72474C24.6028 3.50808 24.8332 3.32889 25.1046 3.20262C25.376 3.07636 25.6804 3.00682 25.9914 3C26.2988 3.00052 26.6017 3.06129 26.8754 3.17735C27.1491 3.29341 27.3859 3.46149 27.5665 3.66789L27.9432 4.09421C28.1606 4.34473 28.4821 4.51962 28.8456 4.58521C29.2091 4.6508 29.5889 4.60245 29.9121 4.44947C30.2458 4.27237 30.6433 4.19682 31.0366 4.23569C31.43 4.27455 31.7949 4.42544 32.0693 4.66263C32.3757 4.89835 32.5791 5.21197 32.6473 5.55413C32.7155 5.89629 32.6446 6.24755 32.4459 6.55263L28.5595 11.0289Z" stroke="black" stroke-width="2" stroke-linecap="round" stroke-linejoin="round"/>
<path d="M20.0938 10.5615H32.037" stroke="black" stroke-width="2" stroke-linecap="round" stroke-linejoin="round"/>
<path d="M26.0654 23.6172V24.9917" stroke="black" stroke-width="2" stroke-linecap="round" stroke-linejoin="round"/>
<path d="M26.0654 16.7461V18.1206" stroke="black" stroke-width="2" stroke-linecap="round" stroke-linejoin="round"/>
<path d="M22.6532 23.6182H27.7717C28.2242 23.6182 28.6582 23.4734 28.9782 23.2156C29.2981 22.9579 29.4779 22.6083 29.4779 22.2437C29.4779 21.8792 29.2981 21.5295 28.9782 21.2718C28.6582 21.014 28.2242 20.8692 27.7717 20.8692H24.3594C23.9069 20.8692 23.4729 20.7244 23.1529 20.4666C22.833 20.2088 22.6532 19.8592 22.6532 19.4946C22.6532 19.1301 22.833 18.7805 23.1529 18.5227C23.4729 18.2649 23.9069 18.1201 24.3594 18.1201H29.4779" stroke="black" stroke-width="2" stroke-linecap="round" stroke-linejoin="round"/>
</g>
</g>
<defs>
<clipPath id="clip0_111_742">
<rect width="40" height="40" fill="white"/>
</clipPath>
<clipPath id="clip1_111_742">
<rect width="30" height="28" fill="white" transform="translate(10)"/>
</clipPath>
</defs>
</svg>
