<svg width="205" height="60" viewBox="0 0 205 60" fill="none" xmlns="http://www.w3.org/2000/svg">
<rect width="205" height="60" fill="#ffff"/>
<g id="Desktop_Ana Sayfa Redesign_Logo_V3">
<rect width="1440" height="809" transform="translate(-165 -55)" fill="white"/>
<g id="Group 799">
<rect id="Rectangle 225" x="-165" y="-15" width="1440" height="90" fill="white"/>
<g id="Logo &#196;&#176;lerisi Deniz">
<g id="Group 2636">
<path id="Vector" d="M163.194 19.5482C163.625 17.0489 164.581 14.7523 165.955 12.7394L164.15 10.9156C162.952 9.69979 162.938 7.75443 164.124 6.5656C165.309 5.36325 167.235 5.37676 168.433 6.59261L170.211 8.38937C172.218 6.95737 174.535 5.94416 177.053 5.48484V3.09367C177.053 1.37796 178.414 0 180.084 0C181.754 0 183.114 1.39147 183.114 3.09367V5.47133C185.66 5.91714 188.017 6.94386 190.05 8.38937L191.653 6.76824C192.852 5.55239 194.778 5.55239 195.963 6.74122C197.148 7.94356 197.135 9.88892 195.936 11.0913L194.293 12.7394C195.653 14.7388 196.609 17.0489 197.04 19.5482H198.926C200.623 19.5482 201.997 20.9126 201.997 22.6148C201.997 24.317 200.623 25.6815 198.926 25.6815H197.014C196.556 28.2213 195.559 30.5584 194.145 32.5848L195.586 34.0438C196.785 35.2597 196.798 37.205 195.613 38.3939C194.428 39.5962 192.502 39.5827 191.303 38.3669L189.821 36.8808C187.841 38.2588 185.552 39.2315 183.087 39.6638V41.9063C183.087 43.622 181.727 45 180.057 45C178.387 45 177.026 43.6085 177.026 41.9063V39.6503C174.602 39.2044 172.339 38.2453 170.386 36.8808L168.743 38.5425C167.545 39.7583 165.619 39.7583 164.433 38.5695C163.248 37.3672 163.262 35.4218 164.46 34.2195L166.076 32.5983C164.662 30.5719 163.652 28.2213 163.208 25.695H160.5C158.803 25.695 157.43 24.317 157.43 22.6283C157.43 20.9397 158.803 19.5617 160.5 19.5617H163.194V19.5482Z" fill="white"/>
<g id="Group">
<path id="Vector_2" fill-rule="evenodd" clip-rule="evenodd" d="M35.7707 31.1263C36.1074 24.0338 32.2689 19.6973 27.4068 19.6973C23.0565 19.6973 19.5547 23.615 19.5547 29.8834C19.5547 36.1518 23.5009 39.4616 27.7974 39.4616C30.9355 39.4616 34.6259 37.3541 35.5013 32.8014H29.0365C28.9018 33.6931 28.39 34.3685 27.7031 34.3685C26.3159 34.3685 26.1273 32.6528 26.1273 31.1263H35.7707ZM26.1138 27.2085C26.1138 25.8846 26.5987 24.7498 27.6088 24.7498C28.5651 24.7498 29.225 25.9251 29.225 27.2085H26.1138Z" fill="#004899"/>
<path id="Vector_3" fill-rule="evenodd" clip-rule="evenodd" d="M44.4627 20.1159H37.9844V39.0291H44.6243V29.8022C44.6243 28.6944 44.6243 27.1273 45.7287 27.1273C46.8332 27.1273 46.8601 28.6944 46.8601 29.8022V39.0291H53.5V27.384C53.5 23.2096 52.1667 19.6836 48.7591 19.6836C46.6177 19.6836 45.6479 21.0751 44.355 23.142H44.2068L44.4627 20.1159Z" fill="#004899"/>
<path id="Vector_4" fill-rule="evenodd" clip-rule="evenodd" d="M78.7089 21.1825V20.1152H64.6344V26.0864H67.8533L69.3618 25.8297V25.9783L63.9609 37.7586V39.042H78.3857V33.0168H74.5876L73.2272 33.2329V33.0168L74.6414 29.5178L78.7089 21.1825Z" fill="#004899"/>
<path id="Vector_5" fill-rule="evenodd" clip-rule="evenodd" d="M126.244 20.1159H119.227V39.0291H126.392V29.8022C126.392 28.6944 126.392 27.1273 127.496 27.1273C128.601 27.1273 128.628 28.6944 128.628 29.8022V39.0291H135.268V27.384C135.268 23.2096 133.934 19.6836 130.527 19.6836C128.385 19.6836 127.415 21.0751 126.122 23.142H125.974L126.244 20.1159Z" fill="#004899"/>
<path id="Vector_6" fill-rule="evenodd" clip-rule="evenodd" d="M137.227 39.0423H144.015L144.028 29.5452L147.207 39.0423H155.234L150.21 28.5185L155.126 20.1156H147.341L144.311 28.1132L143.88 27.1405V12.3477H137.227V39.0423Z" fill="#004899"/>
<path id="Vector_7" fill-rule="evenodd" clip-rule="evenodd" d="M87.9643 22.4661V18.6564H88.4491C89.4727 18.6564 90.7926 18.5078 90.7926 20.4667C90.7926 22.3175 89.6343 22.4661 88.6107 22.4661H87.9643ZM80.8125 39.0422H91.8836C95.2776 39.0422 98.9949 37.1509 98.9949 31.6255C98.9949 28.3832 97.6885 26.6135 95.1429 25.249C97.9713 23.6144 98.3754 22.2229 98.3754 19.8723C98.3754 14.3064 93.1092 12.1719 90.4963 12.1719H80.8125V39.0422ZM87.9643 28.1401H88.6646C89.796 28.1401 91.6007 28.0995 91.6007 30.3421C91.6007 32.5847 89.9307 32.6252 88.7724 32.6252H87.9777V28.1401H87.9643Z" fill="#004899"/>
<path id="Vector_8" fill-rule="evenodd" clip-rule="evenodd" d="M110.095 39.0428H117.219V20.1296H110.095L110.297 22.3721H110.135C109.152 20.5213 107.792 19.6973 106.148 19.6973C101.825 19.6973 100.195 24.8984 100.195 29.6672C100.195 34.4361 102.256 39.4616 105.96 39.4616C107.845 39.4616 108.923 38.3268 110.135 36.5436H110.297L110.095 39.0428ZM106.795 29.4916C106.795 28.1001 107.468 25.817 108.519 25.817C109.569 25.817 110.297 27.9651 110.297 29.4241C110.297 30.8831 109.96 33.4364 108.694 33.4364C107.495 33.4229 106.795 30.9912 106.795 29.4916Z" fill="#004899"/>
<path id="Vector_9" fill-rule="evenodd" clip-rule="evenodd" d="M0 39.0423H8.94306C14.6402 39.0423 18.7077 33.9898 18.7077 26.0057C18.7077 16.1303 13.7109 12.1855 7.19216 12.1855H0V39.0423ZM7.05747 18.7106H7.50193C10.0744 18.7106 11.6502 22.1825 11.6502 25.9652C11.6502 29.4912 9.84545 32.4092 7.50193 32.4092H7.05747V18.7106Z" fill="#004899"/>
<path id="Vector_10" fill-rule="evenodd" clip-rule="evenodd" d="M56.2465 18.3989H62.1726V12.5898H56.2465V18.3989ZM55.8828 39.0414H62.5228V20.1281H55.8828V39.0414Z" fill="#004899"/>
</g>
<path id="Vector_11" fill-rule="evenodd" clip-rule="evenodd" d="M170.014 21.3993C170.23 19.4809 170.97 17.7112 172.088 16.2657L175.725 19.9402C175.455 20.3996 175.267 20.8859 175.146 21.4128H170.014V21.3993ZM173.799 14.5094C175.173 13.4017 176.843 12.6451 178.661 12.3749V17.6031C178.217 17.7382 177.799 17.9273 177.422 18.1705L173.799 14.5094ZM181.112 12.3209C183.173 12.5236 185.045 13.3341 186.567 14.577L182.944 18.2245C182.405 17.8598 181.786 17.6031 181.126 17.4815V12.3209H181.112ZM188.264 16.3467C189.341 17.7922 190.069 19.535 190.271 21.4263H185.139C185.032 20.9129 184.856 20.4536 184.614 20.0213L188.264 16.3467ZM190.244 23.885C190.001 25.7763 189.247 27.519 188.129 28.9375L184.493 25.2765C184.762 24.8442 184.964 24.3713 185.085 23.8715H190.244V23.885ZM186.392 30.6803C184.91 31.8421 183.106 32.5986 181.139 32.8012V27.6406C181.705 27.519 182.244 27.3164 182.742 27.0192L186.392 30.6803ZM178.688 32.7472C176.924 32.4905 175.321 31.788 173.96 30.7478L177.61 27.0732C177.947 27.2624 178.297 27.411 178.674 27.5326V32.7472H178.688ZM172.21 29.0321C171.051 27.5866 170.27 25.8033 170.028 23.858H175.173C175.307 24.3984 175.536 24.9117 175.833 25.371L172.21 29.0321ZM164.627 24.3308H160.977C159.846 24.3308 158.93 23.5608 158.93 22.6151C158.93 21.6695 159.846 20.8994 160.977 20.8994H164.613C164.923 17.8463 166.108 15.0633 167.9 12.7802L165.435 10.2945C164.64 9.48393 164.533 8.29509 165.193 7.61962C165.852 6.94415 167.038 7.06573 167.832 7.86279L170.284 10.335C172.546 8.47072 175.348 7.22785 178.419 6.89011V3.55328C178.419 2.41848 179.159 1.48633 180.102 1.48633C181.045 1.48633 181.799 2.40497 181.799 3.55328V6.89011C184.897 7.21434 187.725 8.47072 190.015 10.3485L192.291 8.03841C193.086 7.22785 194.271 7.11977 194.931 7.79524C195.591 8.47072 195.483 9.65955 194.688 10.4701L192.385 12.7937C194.163 15.0768 195.348 17.8598 195.658 20.8994H198.662C199.793 20.8994 200.709 21.6695 200.709 22.6151C200.709 23.5608 199.793 24.3308 198.662 24.3308H195.645C195.308 27.411 194.082 30.2344 192.237 32.5175L194.473 34.7871C195.268 35.5977 195.389 36.7865 194.715 37.462C194.055 38.124 192.87 38.0159 192.076 37.2188L189.826 34.9357C187.577 36.7325 184.816 37.9213 181.799 38.2456V41.6094C181.799 42.7442 181.018 43.6764 180.089 43.6764C179.159 43.6764 178.392 42.7577 178.392 41.6094V38.232C175.415 37.8943 172.694 36.719 170.472 34.9357L168.048 37.3674C167.253 38.178 166.068 38.2861 165.408 37.6106C164.748 36.9487 164.856 35.7463 165.65 34.9357L168.048 32.5175C166.189 30.2344 164.964 27.411 164.627 24.3308Z" fill="#CE0538"/>
</g>
</g>
</g>
</g>
</svg>
