<svg width="205" height="60" viewBox="0 0 205 60" fill="none" xmlns="http://www.w3.org/2000/svg">
<path d="M920.625 567.5L925 568.125L928.125 571.875L928.75 585.625L940.625 588.75L949.375 592.5L956.875 597.5L959.375 596.25L961.875 593.125L968.125 588.125H973.125L976.25 591.25V595.625L972.5 600.625L966.875 606.25L967.5 608.75L972.5 616.875L976.25 626.875L977.5 631.875V635H989.375L993.75 636.875L995.625 640L995 643.75L991.875 646.875L988.75 647.5H977.5L976.25 655L972.5 665L968.125 672.5L966.25 675L966.875 677.5L971.875 681.875L975.625 686.875L976.25 689.375L974.375 692.5L972.5 694.375H967.5L961.875 690L956.875 685L952.5 687.5L943.125 692.5L934.375 695L928.125 696.25V710L925.625 713.75L923.125 715L919.375 714.375L916.25 710.625L915.625 696.25L905 693.75L897.5 690.625L890.625 686.875L887.5 685L879.375 693.125L876.25 695H871.25L868.125 691.25L868.75 686.25L873.75 680.625H875L876.25 678.125L878.125 676.875L877.5 673.75L873.125 667.5L869.375 658.75L866.875 648.125L864.375 647.5H853.125L848.75 645.625L846.875 643.125V639.375L849.375 636.25L852.5 635H866.875L868.125 627.5L870.625 620L876.25 609.375L877.5 608.125V605.625L872.5 601.25L868.125 596.25L867.5 590.625L870.625 587.5H875.625L880.625 591.25L885.625 596.25L886.25 597.5L889.375 596.25L897.5 591.25L905.625 588.125L915.625 585.625L916.25 571.25L919.375 568.125L920.625 567.5Z" fill="#D1234D"/>
<path d="M291.25 604.375H305.625L318.125 605.625L325.625 608.125L333.125 612.5L338.75 618.125L343.75 626.875L346.875 636.25L348.125 644.375V661.875L345 675L340.625 683.75L335 690L330.625 693.75L324.375 696.875L316.25 698.75H282.5L281.875 698.125V605L291.25 604.375Z" fill="#02549A"/>
<path d="M585.625 604.375H600L608.125 605L615.625 607.5L622.5 611.875L626.875 616.25L630.625 623.75L631.875 630V635L630.625 640.625L626.875 645.625L621.25 650L620.625 651.25L623.75 652.5L629.375 657.5L633.125 665L633.75 667.5V678.125L631.875 684.375L628.125 690.625L623.125 695L617.5 697.5L610.625 698.75H569.375V605L585.625 604.375Z" fill="#02549A"/>
<path d="M770 605.625H793.125L793.75 659.375L795.625 658.125L804.375 635L805.625 632.5H833.125L830 638.75L819.375 656.25L816.25 662.5L828.125 686.25L833.125 696.875V698.75H805.625L803.125 693.125L794.375 668.125L793.75 698.75H770L769.375 698.125V630L770 605.625Z" fill="#02549A"/>
<path d="M655 631.25H663.125L668.125 633.75L673.125 639.375L674.375 640L673.125 635V632.5H698.125L698.75 633.125V696.25L698.125 698.75H673.75L673.125 696.25L673.75 690.625L670.625 693.75L665 698.75L661.875 700H655L650 697.5L645.625 693.125L640.625 683.125L638.125 673.125V658.75L640 648.75L643.125 641.25L646.875 636.25L650.625 633.125L655 631.25Z" fill="#02549A"/>
<path d="M741.875 631.25H750L755 633.75L759.375 639.375L761.875 646.875L762.5 650V698.75H739.375L738.75 661.875L737.5 658.75L736.25 657.5L733.125 658.125L731.875 660L731.25 665V683.75L730.625 698.125L730 698.75H706.25L705.625 698.125V632.5H730.625L729.375 642.5H731.25L732.5 639.375L738.125 633.125L741.875 631.25Z" fill="#02549A"/>
<path d="M451.25 631.25H459.375L463.125 633.125L467.5 637.5L470.625 644.375L471.875 650.625V698.75H448.75L448.125 662.5L446.25 658.125L443.75 657.5L441.25 660L440.625 662.5L440 698.125L439.375 698.75H417.5L416.875 698.125V632.5H440L439.375 642.5L445 635L449.375 631.875L451.25 631.25Z" fill="#02549A"/>
<path d="M374.375 631.25H384.375L391.25 633.75L396.875 637.5L400 640L404.375 646.875L407.5 654.375L408.75 660V670.625L408.125 671.25H374.375L376.25 679.375L378.75 681.875L382.5 681.25L385 676.875H407.5L406.875 681.875L403.125 688.75L401.25 691.25H400V692.5L391.25 698.125L385 700H375.625L367.5 697.5L361.25 693.125L356.25 687.5L353.125 680.625L351.25 671.875V661.25L352.5 653.75L355.625 645.625L361.25 638.125L366.25 634.375L371.875 631.875L374.375 631.25Z" fill="#02549A"/>
<path d="M511.25 632.5H561.875L561.25 637.5L547.5 665L541.875 678.125L545 677.5H560L560.625 680.625L560 698.75H511.25L508.75 698.125L509.375 693.125L517.5 675.625L527.5 654.375L528.125 653.125H511.25V632.5Z" fill="#02549A"/>
<path d="M480.625 632.5H503.75V698.75H482.5L480.625 698.125V632.5Z" fill="#02549A"/>
<path d="M307.5 627.5L311.875 628.125L316.875 631.25L320.625 637.5L322.5 643.125L323.125 646.875V658.125L320.625 666.25L316.875 671.875L311.875 675L306.875 675.625V628.125L307.5 627.5Z" fill="#EDF3F6"/>
<path d="M481.875 606.25H502.5L503.125 626.25H481.875V606.25Z" fill="#02549A"/>
<path d="M666.25 652.5L670 653.125L673.125 658.125L673.75 660V671.25L671.25 677.5L668.75 679.375L665.625 678.125L662.5 673.125L661.25 668.125V661.875L663.75 655L666.25 652.5Z" fill="#EDF3F6"/>
<path d="M926.25 605L933.75 606.875L943.75 611.875L944.375 614.375L938.125 620L932.5 625.625L926.875 623.75L925.625 622.5V605.625L926.25 605Z" fill="#EDF3F6"/>
<path d="M930 656.875L932.5 657.5L941.25 666.25L943.75 668.125V670.625L936.25 674.375L928.125 676.875L925.625 676.25V660L927.5 658.125L930 656.875Z" fill="#EDF3F6"/>
<path d="M886.25 645.625H904.375L906.875 650.625L903.125 655L895 663.125L892.5 662.5L888.125 653.75L886.25 647.5V645.625Z" fill="#EDF3F6"/>
<path d="M893.125 619.375L895.625 620.625L906.25 631.25L905.625 634.375L904.375 636.875H886.25L886.875 631.25L889.375 625.625L892.5 620L893.125 619.375Z" fill="#EDF3F6"/>
<path d="M940.625 645.625H958.125L957.5 650.625L954.375 658.125L951.25 663.125L948.125 661.25L938.125 651.25L938.75 648.125L940.625 645.625Z" fill="#EDF3F6"/>
<path d="M950.625 619.375L953.125 621.875L956.875 630L958.125 633.75V636.875H940L938.125 633.75L938.75 631.25L950.625 619.375Z" fill="#EDF3F6"/>
<path d="M914.375 605.625H916.875V623.75L912.5 625.625L905.625 618.75L900.625 614.375V611.875L910 606.875L914.375 605.625Z" fill="#EDF3F6"/>
<path d="M912.5 657.5H915.625L916.875 658.75V676.25L911.25 675.625L905.625 673.125L900.625 670L901.875 667.5L909.375 660.625L912.5 657.5Z" fill="#EDF3F6"/>
<path d="M595 660.625H601.875L605.625 662.5L607.5 665.625V671.25L604.375 675L601.25 676.25H595L594.375 675.625V661.25L595 660.625Z" fill="#EDF3F6"/>
<path d="M595 627.5H600.625L603.75 629.375L604.375 630.625V636.875L601.875 640L598.125 641.25L594.375 640.625V628.125L595 627.5Z" fill="#EDF3F6"/>
<path d="M378.125 648.75L382.5 649.375L385 652.5L385.625 656.875L384.375 657.5H375L374.375 654.375L376.25 650.625L378.125 648.75Z" fill="#EDF3F6"/>
</svg>
