<?xml version="1.0" encoding="utf-8"?>
<!-- Generator: Adobe Illustrator 28.1.0, SVG Export Plug-In . SVG Version: 6.00 Build 0)  -->
<svg version="1.1" id="Layer_1" xmlns="http://www.w3.org/2000/svg" xmlns:xlink="http://www.w3.org/1999/xlink" x="0px" y="0px"
	 viewBox="0 0 334.64 79.01" style="enable-background:new 0 0 334.64 79.01;" xml:space="preserve">
<style type="text/css">
	.st0{fill:url(#SVGID_1_);}
	.st1{fill:url(#SVGID_00000005969835095285185420000006540164996114270137_);}
	.st2{fill:url(#SVGID_00000086657561915265044910000009189764551095500732_);}
	.st3{fill:url(#SVGID_00000058558292642051389060000001184789993186726568_);}
	.st4{fill:url(#SVGID_00000156579835466166716010000014884622482056471427_);}
</style>
<g>
	<g>
		
			<linearGradient id="SVGID_1_" gradientUnits="userSpaceOnUse" x1="55.5673" y1="42.5636" x2="76.672" y2="42.5636" gradientTransform="matrix(1 0 0 -1 0 80.3971)">
			<stop  offset="0" style="stop-color:#501D85"/>
			<stop  offset="0.3277" style="stop-color:#442BA6"/>
			<stop  offset="1" style="stop-color:#274BF3"/>
		</linearGradient>
		<path class="st0" d="M76.67,28.28c0,0.03,0,0.07,0,0.1l0,0c-0.44,8.59-6.01,15.83-13.71,18.7c-2.07,0.77-4.29,1.23-6.6,1.31h-0.79
			V27.28h20.11C76.22,27.28,76.67,27.73,76.67,28.28z"/>
		<g>
			
				<linearGradient id="SVGID_00000028302675613562718000000007277951682331987391_" gradientUnits="userSpaceOnUse" x1="17.8769" y1="36.0386" x2="17.8769" y2="74.1986" gradientTransform="matrix(1 0 0 -1 0 80.3971)">
				<stop  offset="0" style="stop-color:#274BF3"/>
				<stop  offset="0.6723" style="stop-color:#442BA6"/>
				<stop  offset="1" style="stop-color:#501D85"/>
			</linearGradient>
			<path style="fill:url(#SVGID_00000028302675613562718000000007277951682331987391_);" d="M28.43,7.18v16.06
				c-11.66,0-21.11,9.45-21.11,21.12V27.29c0-11.29,8.86-20.5,20-21.08c0.04,0,0.08,0,0.12-0.01C27.98,6.2,28.42,6.64,28.43,7.18z"
				/>
		</g>
		
			<linearGradient id="SVGID_00000008866102466226703020000004064293508390603680_" gradientUnits="userSpaceOnUse" x1="45.0219" y1="8.3686" x2="45.0219" y2="74.1986" gradientTransform="matrix(1 0 0 -1 0 80.3971)">
			<stop  offset="0" style="stop-color:#274BF3"/>
			<stop  offset="0.6723" style="stop-color:#442BA6"/>
			<stop  offset="1" style="stop-color:#501D85"/>
		</linearGradient>
		<path style="fill:url(#SVGID_00000008866102466226703020000004064293508390603680_);" d="M55.58,7.18v51.78
			c0,7.22-5.85,13.07-13.07,13.07c-2.84,0-5.46-0.9-7.6-2.44c-0.02-0.01-0.03-0.02-0.05-0.03c-0.24-0.18-0.4-0.47-0.4-0.8V27.28
			c0-1.05,0.08-2.08,0.23-3.09c0.77-5.22,3.45-9.82,7.31-13.07c3.4-2.86,7.72-4.66,12.45-4.91c0.04,0,0.08,0,0.12-0.01
			C55.13,6.2,55.57,6.64,55.58,7.18z"/>
		
			<linearGradient id="SVGID_00000081620559368677929650000011015077853164706697_" gradientUnits="userSpaceOnUse" x1="17.8769" y1="8.3586" x2="17.8769" y2="53.1086" gradientTransform="matrix(1 0 0 -1 0 80.3971)">
			<stop  offset="0" style="stop-color:#274BF3"/>
			<stop  offset="0.6723" style="stop-color:#442BA6"/>
			<stop  offset="1" style="stop-color:#501D85"/>
		</linearGradient>
		<path style="fill:url(#SVGID_00000081620559368677929650000011015077853164706697_);" d="M28.43,28.31v30.66
			c0,2.34-0.62,4.54-1.69,6.44c-0.77,1.36-1.77,2.56-2.96,3.56l0,0c-2.27,1.92-5.21,3.07-8.42,3.07c-2.84,0-5.46-0.9-7.6-2.44
			c-0.02-0.01-0.03-0.02-0.05-0.03c-0.23-0.19-0.39-0.48-0.39-0.81V48.39c0-0.68,0.03-1.35,0.1-2.02
			C8.4,36.03,16.84,27.86,27.3,27.3c0.05,0,0.11-0.01,0.16-0.01C28,27.32,28.43,27.76,28.43,28.31z"/>
	</g>
	
		<linearGradient id="SVGID_00000086664450133254800160000000949615755110405286_" gradientUnits="userSpaceOnUse" x1="88.092" y1="30.3386" x2="327.322" y2="30.3386" gradientTransform="matrix(1 0 0 -1 0 80.3971)">
		<stop  offset="0" style="stop-color:#501D85"/>
		<stop  offset="0.3277" style="stop-color:#442BA6"/>
		<stop  offset="1" style="stop-color:#274BF3"/>
	</linearGradient>
	<path style="fill:url(#SVGID_00000086664450133254800160000000949615755110405286_);" d="M263.86,55.84
		c0.63-0.61,0.94-1.54,0.94-2.8c0-2.7-0.63-5.11-1.89-7.22c-1.26-2.11-3-3.78-5.23-4.99c-2.23-1.21-4.8-1.82-7.73-1.82
		c-2.16,0-4.2,0.35-6.11,1.05s-3.6,1.74-5.06,3.14c-1.46,1.4-2.61,3.13-3.44,5.2s-1.25,4.48-1.25,7.22c0,3.78,0.74,6.95,2.23,9.52
		c1.48,2.56,3.57,4.49,6.24,5.77c2.68,1.28,5.75,1.92,9.21,1.92c2.25,0,4.24-0.23,5.97-0.67c1.73-0.45,3.11-1.09,4.15-1.92
		c1.03-0.83,1.55-1.81,1.55-2.94c0-0.72-0.19-1.38-0.57-1.99s-0.87-1.09-1.45-1.45c-0.99,0.67-2.28,1.29-3.88,1.86
		c-1.6,0.56-3.34,0.84-5.23,0.84c-2.83,0-5.17-0.7-7.02-2.09s-2.97-3.55-3.37-6.48l-0.06-1.01h19.36
		C262.35,56.82,263.23,56.45,263.86,55.84z M242.05,51.67c0.37-1.64,1.06-2.98,2.07-4.03c1.55-1.62,3.5-2.43,5.84-2.43
		c2.25,0,3.98,0.64,5.2,1.92c1.21,1.28,1.89,2.8,2.02,4.56L242.05,51.67z M89.44,35.12c-0.9-0.9-1.35-1.98-1.35-3.24
		c0-1.3,0.45-2.4,1.35-3.27c0.9-0.88,2.02-1.32,3.37-1.32c1.44,0,2.59,0.44,3.44,1.32c0.85,0.88,1.28,1.97,1.28,3.27
		c0,1.26-0.43,2.34-1.28,3.24c-0.86,0.9-2,1.35-3.44,1.35C91.46,36.47,90.34,36.02,89.44,35.12z M96.9,43.52v10.53v4.18v13.5
		c-0.36,0.13-0.87,0.26-1.52,0.37c-0.65,0.11-1.38,0.17-2.19,0.17c-1.48,0-2.6-0.27-3.34-0.81s-1.11-1.51-1.11-2.9V58.23v-4.18
		V40.22c0.36-0.09,0.88-0.19,1.55-0.3c0.67-0.11,1.39-0.17,2.16-0.17c1.53,0,2.65,0.27,3.37,0.81C96.54,41.09,96.9,42.08,96.9,43.52
		z M129.27,51.01v3.24v3.37v14.1c-0.36,0.13-0.88,0.26-1.55,0.37c-0.67,0.11-1.4,0.17-2.16,0.17c-1.53,0-2.66-0.27-3.37-0.81
		c-0.72-0.54-1.08-1.51-1.08-2.9V57.63v-3.37v-2.9c0-2.02-0.57-3.51-1.72-4.45c-1.15-0.94-2.69-1.42-4.62-1.42
		c-1.4,0-2.66,0.18-3.78,0.54c-1.13,0.36-2.12,0.79-2.97,1.28v6.95v3.37v14.1c-0.36,0.13-0.87,0.26-1.52,0.37
		c-0.65,0.11-1.36,0.17-2.13,0.17c-1.53,0-2.66-0.27-3.37-0.81c-0.72-0.54-1.08-1.51-1.08-2.9V57.63v-3.37v-7.49
		c0-1.08,0.21-1.96,0.64-2.63c0.43-0.67,1.11-1.33,2.06-1.96c1.3-0.85,3.03-1.6,5.16-2.23c2.14-0.63,4.49-0.94,7.05-0.94
		c4.54,0,8.09,1.01,10.63,3.04C128,44.06,129.27,47.05,129.27,51.01z M150.84,66.57c0.27,0.52,0.4,1.11,0.4,1.79
		c0,1.26-0.61,2.32-1.82,3.17s-3.13,1.28-5.74,1.28c-3.51,0-6.29-0.79-8.33-2.36c-2.05-1.57-3.07-4.16-3.07-7.76v-6.82v-1.82V31.58
		c0.36-0.13,0.88-0.27,1.55-0.4c0.67-0.14,1.39-0.2,2.16-0.2c1.48,0,2.59,0.28,3.31,0.84c0.72,0.56,1.08,1.54,1.08,2.94v4.99h10.06
		c0.18,0.27,0.36,0.7,0.54,1.28c0.18,0.59,0.27,1.19,0.27,1.82c0,1.13-0.25,1.95-0.74,2.46c-0.5,0.52-1.19,0.78-2.09,0.78h-8.03
		v7.96v1.82v6.28c0,1.48,0.45,2.54,1.35,3.17c0.9,0.63,2.14,0.94,3.71,0.94c0.72,0,1.51-0.1,2.36-0.3c0.85-0.2,1.57-0.44,2.16-0.71
		C150.28,65.62,150.57,66.05,150.84,66.57z M184.02,55.84c0.63-0.61,0.94-1.54,0.94-2.8c0-2.7-0.63-5.11-1.89-7.22
		s-3-3.78-5.23-4.99c-2.23-1.21-4.8-1.82-7.73-1.82c-2.16,0-4.2,0.35-6.11,1.05s-3.6,1.74-5.06,3.14c-1.46,1.4-2.61,3.13-3.44,5.2
		s-1.25,4.48-1.25,7.22c0,3.78,0.74,6.95,2.23,9.52c1.48,2.56,3.57,4.49,6.24,5.77c2.68,1.28,5.75,1.92,9.21,1.92
		c2.25,0,4.24-0.23,5.97-0.67c1.73-0.45,3.11-1.09,4.15-1.92c1.03-0.83,1.55-1.81,1.55-2.94c0-0.72-0.19-1.38-0.57-1.99
		s-0.87-1.09-1.45-1.45c-0.99,0.67-2.28,1.29-3.88,1.86c-1.6,0.56-3.34,0.84-5.23,0.84c-2.83,0-5.17-0.7-7.02-2.09
		s-2.97-3.55-3.37-6.48l-0.06-1.01h19.36C182.52,56.82,183.39,56.45,184.02,55.84z M162.22,51.67c0.37-1.64,1.06-2.98,2.07-4.03
		c1.55-1.62,3.5-2.43,5.84-2.43c2.25,0,3.98,0.64,5.2,1.92c1.21,1.28,1.89,2.8,2.02,4.56L162.22,51.67z M209.11,42.85
		c0,0.63-0.09,1.2-0.27,1.72c-0.18,0.52-0.4,0.98-0.67,1.38c-0.45-0.09-1.01-0.18-1.69-0.27c-0.67-0.09-1.37-0.14-2.09-0.14
		c-1.66,0-3.22,0.18-4.66,0.54s-2.66,0.83-3.64,1.42v7.02v2.29v14.91c-0.36,0.13-0.87,0.26-1.52,0.37
		c-0.65,0.11-1.36,0.17-2.13,0.17c-1.53,0-2.66-0.27-3.37-0.81c-0.72-0.54-1.08-1.51-1.08-2.9V56.82v-2.77V46.9
		c0-1.12,0.26-2.07,0.78-2.83s1.27-1.48,2.26-2.16c1.35-0.85,3.06-1.54,5.13-2.06s4.3-0.78,6.68-0.78
		C207.01,39.07,209.11,40.33,209.11,42.85z M230.68,66.57c0.27,0.52,0.4,1.11,0.4,1.79c0,1.26-0.61,2.32-1.82,3.17
		s-3.13,1.28-5.74,1.28c-3.51,0-6.29-0.79-8.33-2.36c-2.05-1.57-3.07-4.16-3.07-7.76v-6.82v-1.82V31.58
		c0.36-0.14,0.88-0.27,1.55-0.4s1.39-0.2,2.16-0.2c1.48,0,2.59,0.28,3.31,0.84c0.72,0.56,1.08,1.54,1.08,2.94v4.99h10.06
		c0.18,0.27,0.36,0.7,0.54,1.28c0.18,0.59,0.27,1.19,0.27,1.82c0,1.13-0.25,1.95-0.74,2.46c-0.5,0.52-1.19,0.78-2.09,0.78h-8.03
		v7.96v1.82v6.28c0,1.48,0.45,2.54,1.35,3.17c0.9,0.63,2.14,0.94,3.71,0.94c0.72,0,1.51-0.1,2.36-0.3c0.85-0.2,1.57-0.44,2.16-0.71
		C230.12,65.61,230.41,66.05,230.68,66.57z M295.02,67.61c0,1.53-0.91,2.78-2.73,3.75s-4.24,1.45-7.25,1.45
		c-3.42,0-6.42-0.62-9.01-1.86s-4.6-3.11-6.04-5.63c-1.44-2.52-2.16-5.62-2.16-9.31c0-3.78,0.76-6.93,2.29-9.45s3.59-4.41,6.17-5.67
		c2.59-1.26,5.41-1.89,8.47-1.89c2.97,0,5.37,0.53,7.19,1.59s2.73,2.33,2.73,3.81c0,0.67-0.18,1.29-0.54,1.86
		c-0.36,0.56-0.81,1.02-1.35,1.38c-0.86-0.54-1.86-1.02-3-1.45c-1.15-0.43-2.51-0.64-4.08-0.64c-2.7,0-4.98,0.9-6.85,2.7
		s-2.8,4.39-2.8,7.76s0.9,5.93,2.7,7.66c1.8,1.73,4.09,2.6,6.88,2.6c1.66,0,3.08-0.21,4.25-0.64s2.18-0.91,3.04-1.45
		c0.67,0.45,1.19,0.94,1.55,1.48C294.84,66.2,295.02,66.85,295.02,67.61z M327.32,51.76v2.36v4.12v13.5
		c-0.32,0.13-0.81,0.26-1.48,0.37s-1.4,0.17-2.16,0.17c-1.58,0-2.71-0.27-3.41-0.81s-1.05-1.51-1.05-2.9V58.23v-4.12v-1.96
		c0-2.34-0.63-4.04-1.89-5.1c-1.26-1.06-2.83-1.59-4.72-1.59c-1.58,0-3.01,0.3-4.32,0.91c-0.8,0.37-1.51,0.77-2.16,1.2v6.46v2.56
		v15.12c-0.36,0.13-0.87,0.26-1.52,0.37s-1.36,0.17-2.13,0.17c-1.53,0-2.66-0.27-3.37-0.81c-0.72-0.54-1.08-1.51-1.08-2.9V56.61
		v-2.56V27.83c0.31-0.09,0.81-0.2,1.48-0.34c0.67-0.13,1.42-0.2,2.23-0.2c1.53,0,2.64,0.28,3.34,0.84c0.7,0.56,1.05,1.54,1.05,2.94
		v9.88c0.69-0.34,1.47-0.68,2.33-1.01c1.64-0.63,3.48-0.94,5.5-0.94c4.05,0,7.29,1.06,9.72,3.17
		C326.11,44.29,327.32,47.48,327.32,51.76z"/>
</g>
</svg>
