<svg width="181" height="36" viewBox="0 0 181 36" fill="none" xmlns="http://www.w3.org/2000/svg">
<g clip-path="url(#clip0_1331_31)">
<path d="M29.8441 25.9991L38.6281 11.4047C38.6281 11.4047 38.6425 11.3831 38.6425 11.3687V8.87752C38.6425 8.83432 38.6065 8.80552 38.5705 8.80552H26.9353C26.9353 8.80552 26.8705 8.82712 26.8633 8.85592L26.1577 11.4623C26.1577 11.4623 26.1577 11.5055 26.1721 11.5271C26.1865 11.5415 26.2081 11.5559 26.2297 11.5559H34.7473L25.7545 26.2655C25.7545 26.2655 25.7473 26.2871 25.7473 26.3015V28.7063C25.7473 28.7495 25.7833 28.7783 25.8193 28.7783H37.9153C37.9153 28.7783 37.9729 28.7567 37.9873 28.7279L38.8009 26.0927C38.8009 26.0927 38.8009 26.0495 38.7865 26.0279C38.7721 26.0135 38.7505 25.9991 38.7289 25.9991H29.8441Z" fill="#221F20"/>
<path d="M42.1993 8.66872C40.9897 8.66872 40.0321 9.63352 40.0321 10.8647C40.0321 12.0959 40.9753 13.0319 42.1417 13.0319C43.3081 13.0319 44.3305 12.0599 44.3305 10.8647C44.3305 9.66952 43.3729 8.66872 42.1921 8.66872H42.1993Z" fill="#221F20"/>
<path d="M43.7473 13.7591C43.7473 13.7591 43.7473 13.7591 43.7329 13.7591L40.5505 14.3351C40.5505 14.3351 40.4929 14.3711 40.4929 14.4071V28.7063C40.4929 28.7495 40.5289 28.7783 40.5649 28.7783H43.7473C43.7905 28.7783 43.8193 28.7423 43.8193 28.7063V13.8311C43.8193 13.8311 43.8121 13.7879 43.7905 13.7735C43.7761 13.7591 43.7545 13.7591 43.7401 13.7591H43.7473Z" fill="#221F20"/>
<path d="M86.0329 26.4959C86.0329 26.4959 86.0113 26.4887 85.9969 26.4887C85.9897 26.4887 85.9825 26.4887 85.9681 26.4887C85.4065 26.6975 85.0465 26.7695 84.6433 26.7695C83.3041 26.7695 82.9369 26.2871 82.9369 24.5231V16.0847H85.5289C85.5289 16.0847 85.5865 16.0631 85.6009 16.0343L86.4361 13.8599C86.4361 13.8599 86.4361 13.8095 86.4289 13.7951C86.4145 13.7735 86.3929 13.7663 86.3713 13.7663H82.9729V9.85672C82.9729 9.85672 82.9657 9.81352 82.9441 9.79912C82.9297 9.78472 82.9153 9.78472 82.8937 9.78472C82.8937 9.78472 82.8865 9.78472 82.8793 9.78472L79.7545 10.3391C79.7185 10.3391 79.6969 10.3751 79.6969 10.4111V13.7663H78.1633C78.1273 13.7663 78.0913 13.8023 78.0913 13.8383V16.0199C78.0913 16.0631 78.1201 16.0919 78.1633 16.0919H79.6969V25.3655C79.6969 27.1007 80.3665 29.1671 83.5561 29.1671C84.5425 29.1671 85.4785 28.9583 86.4217 28.5335C86.4505 28.5191 86.4721 28.4831 86.4649 28.4543L86.0617 26.5607C86.0617 26.5607 86.0473 26.5247 86.0257 26.5103L86.0329 26.4959Z" fill="#221F20"/>
<path d="M64.2169 16.2143C63.5761 14.6087 62.0209 13.7591 59.7313 13.7591C58.2409 13.7591 56.9089 14.0471 55.5337 14.6591C55.5121 14.6735 55.4977 14.6879 55.4905 14.7167L54.9217 17.7551C54.9217 17.7551 54.9289 17.8127 54.9577 17.8343C54.9721 17.8343 54.9793 17.8487 54.9937 17.8487C55.0081 17.8487 55.0225 17.8487 55.0369 17.8343C55.0585 17.8199 57.2257 16.2071 59.2921 16.2071C60.9337 16.2071 61.2217 17.0063 61.2217 18.6839V19.6775H60.3217C55.5841 19.6775 53.0785 21.4487 53.0785 24.7967C53.0785 27.6119 54.8569 29.2247 57.9673 29.2247C59.2273 29.2247 60.2281 28.9151 61.1209 28.2455V29.1527C61.1209 29.1959 61.1569 29.2247 61.1929 29.2247H64.3609C64.4041 29.2247 64.4329 29.1887 64.4329 29.1527V19.8071C64.4617 17.5967 64.4617 16.8623 64.2025 16.2215L64.2169 16.2143ZM61.1209 25.3079C60.4801 26.2295 59.5369 26.7767 58.5865 26.7767C57.3769 26.7767 56.6569 25.9703 56.6569 24.6167C56.6569 23.0111 57.3409 21.9383 60.6817 21.9383C60.8401 21.9383 61.0273 21.9527 61.1281 21.9599V25.3079H61.1209Z" fill="#221F20"/>
<path d="M76.8241 16.2143C76.1833 14.6087 74.6281 13.7591 72.3457 13.7591C70.8553 13.7591 69.5233 14.0471 68.1481 14.6591C68.1265 14.6735 68.1121 14.6879 68.1049 14.7167L67.5145 18.0647C67.5145 18.0647 67.5217 18.1223 67.5505 18.1439C67.5577 18.1439 67.5721 18.1511 67.5865 18.1511C67.6009 18.1511 67.6153 18.1511 67.6297 18.1367C67.6513 18.1223 69.8401 16.4879 71.9137 16.4879C73.5625 16.4879 73.8505 17.2871 73.8505 18.9647V19.6631H72.9505C68.2129 19.6631 65.7145 21.4343 65.7145 24.7823C65.7145 27.5975 67.4929 29.2103 70.6033 29.2103C71.8561 29.2103 72.8641 28.9007 73.7497 28.2311V29.1383C73.7497 29.1815 73.7857 29.2103 73.8217 29.2103H76.9897C77.0329 29.2103 77.0617 29.1743 77.0617 29.1383V19.7927C77.0905 17.5823 77.0905 16.8479 76.8313 16.2071L76.8241 16.2143ZM73.7281 25.3079C73.0873 26.2295 72.1441 26.7767 71.1937 26.7767C69.9841 26.7767 69.2569 25.9703 69.2569 24.6167C69.2569 23.0111 69.9409 21.9383 73.2817 21.9383C73.4401 21.9383 73.6273 21.9527 73.7209 21.9599V25.3079H73.7281Z" fill="#221F20"/>
<path d="M53.4457 17.4887C53.4457 17.4887 53.4601 17.4887 53.4745 17.4887C53.4889 17.4887 53.4961 17.4887 53.5105 17.4815C53.5321 17.4671 53.5465 17.4527 53.5465 17.4311L54.0937 14.4503C54.0937 14.4503 54.0793 14.3855 54.0505 14.3711C53.7049 14.2199 53.4097 14.1623 52.9705 14.1623C51.6097 14.1623 50.4793 14.8319 49.3489 16.3367V13.8311C49.3489 13.8311 49.3345 13.7879 49.3201 13.7735C49.3057 13.7591 49.2913 13.7591 49.2769 13.7591C49.2769 13.7591 49.2697 13.7591 49.2625 13.7591L46.3393 14.2703C46.3393 14.2703 46.2817 14.3063 46.2817 14.3423V28.6991C46.2817 28.7423 46.3105 28.7711 46.3537 28.7711H49.5073C49.5505 28.7711 49.5793 28.7351 49.5793 28.6991V19.2311C49.8673 18.0359 51.0049 17.1359 52.2289 17.1359C52.5169 17.1359 53.0137 17.3159 53.3377 17.4383L53.4529 17.4815L53.4457 17.4887Z" fill="#221F20"/>
<path d="M91.6849 10.7711V8.75512H104.955L104.803 10.7711H99.3673V28.7999H97.0561V10.7711H91.6777H91.6849Z" fill="#221F20"/>
<path d="M109.923 27.2231C111.305 27.2231 112.493 26.7623 113.487 25.8479L114.365 27.3095C113.04 28.5191 111.406 29.1239 109.455 29.1239C107.287 29.1239 105.646 28.3535 104.515 26.8127C103.5 25.4303 102.996 23.6159 102.996 21.3767C102.996 19.3319 103.493 17.6039 104.487 16.1999C105.617 14.6231 107.158 13.8311 109.102 13.8311C110.722 13.8311 112.032 14.3639 113.047 15.4367C113.767 16.1999 114.25 17.1503 114.48 18.3023C114.631 19.0439 114.718 20.1311 114.718 21.5711V21.8951H105.624V22.2479C105.624 23.6879 105.847 24.7535 106.301 25.4303C107.079 26.6183 108.288 27.2159 109.923 27.2159V27.2231ZM108.987 15.6527C106.863 15.6527 105.747 17.1647 105.624 20.1815H112.284C112.263 18.7991 112.061 17.7551 111.672 17.0567C111.147 16.1207 110.247 15.6527 108.979 15.6527H108.987Z" fill="#221F20"/>
<path d="M115.942 8.98552C115.906 8.76952 115.834 8.45992 115.74 8.04952L118.023 7.49512C118.174 7.96312 118.275 8.33752 118.311 8.63272C118.426 9.48952 118.483 10.5119 118.483 11.6999V28.7927H116.201V12.1967C116.201 11.0663 116.115 9.99352 115.942 8.98552ZM118.57 20.5559L124.121 14.2415H126.979L121.255 20.5559L128.297 28.7927H125.259L118.57 20.5559Z" fill="#221F20"/>
<path d="M129.795 17.9567C129.795 16.4807 129.607 15.3287 129.24 14.5079L131.465 13.8959C131.818 14.6519 131.991 15.4151 131.991 16.1783C133.488 14.6807 135.015 13.9247 136.577 13.9247C137.34 13.9247 138.046 14.1191 138.708 14.4935C139.371 14.8751 139.846 15.3935 140.141 16.0559C140.379 16.5815 140.494 17.1503 140.494 17.7551V28.7999H138.183V18.9503C138.183 17.9567 138.067 17.2439 137.83 16.8191C137.52 16.2143 136.923 15.9119 136.051 15.9119C135.411 15.9119 134.676 16.1351 133.863 16.5815C133.121 16.9703 132.509 17.4311 132.027 17.9567V28.7999H129.802V17.9567H129.795Z" fill="#221F20"/>
<path d="M141.775 21.5495C141.775 19.3895 142.251 17.6255 143.208 16.2647C144.317 14.7023 145.908 13.9247 147.967 13.9247C150.149 13.9247 151.798 14.7455 152.907 16.3799C153.843 17.7623 154.303 19.5911 154.303 21.8735C154.303 24.5591 153.547 26.5679 152.028 27.8927C150.955 28.8287 149.631 29.2967 148.054 29.2967C145.951 29.2967 144.346 28.5119 143.23 26.9279C142.258 25.5455 141.768 23.7527 141.768 21.5495H141.775ZM147.939 15.7967C146.477 15.7967 145.462 16.3727 144.9 17.5175C144.468 18.3383 144.259 19.5551 144.259 21.1679C144.259 23.0183 144.454 24.4007 144.843 25.3151C145.447 26.6975 146.535 27.3887 148.111 27.3887C150.509 27.3887 151.704 25.6031 151.704 22.0391C151.704 20.2103 151.517 18.8351 151.15 17.9207C150.567 16.4951 149.494 15.7895 147.931 15.7895L147.939 15.7967Z" fill="#221F20"/>
<path d="M155.628 12.0527C155.628 10.1591 155.491 8.81992 155.218 8.02072L157.587 7.55272C157.817 8.22952 157.939 9.73432 157.939 12.0527V25.8767C157.939 26.3879 157.968 26.7191 158.026 26.8703C158.141 27.1799 158.386 27.3383 158.753 27.3383C158.811 27.3383 158.904 27.3167 159.048 27.2807L159.516 28.7711C159.048 28.9871 158.559 29.0951 158.055 29.0951C156.435 29.0951 155.628 28.1951 155.628 26.4023V12.0527Z" fill="#221F20"/>
<path d="M159.25 21.5495C159.25 19.3895 159.725 17.6255 160.683 16.2647C161.791 14.7023 163.375 13.9247 165.442 13.9247C167.623 13.9247 169.272 14.7455 170.381 16.3799C171.317 17.7623 171.785 19.5911 171.785 21.8735C171.785 24.5591 171.029 26.5679 169.51 27.8927C168.437 28.8287 167.112 29.2967 165.535 29.2967C163.426 29.2967 161.827 28.5119 160.711 26.9279C159.732 25.5455 159.25 23.7527 159.25 21.5495ZM165.413 15.7967C163.951 15.7967 162.936 16.3727 162.375 17.5175C161.95 18.3383 161.734 19.5551 161.734 21.1679C161.734 23.0183 161.928 24.4007 162.317 25.3151C162.922 26.6975 164.016 27.3887 165.593 27.3887C167.983 27.3887 169.186 25.6031 169.186 22.0391C169.186 20.2103 168.999 18.8351 168.631 17.9207C168.048 16.4951 166.975 15.7895 165.413 15.7895V15.7967Z" fill="#221F20"/>
<path d="M173.16 28.3031V14.3639L175.464 13.8959V28.4183C175.464 30.1319 175.263 31.3775 174.852 32.1551C174.283 33.2279 173.362 34.0343 172.073 34.5815L170.935 33.0623C171.483 32.8103 171.886 32.5511 172.159 32.2775C172.822 31.6151 173.153 30.2903 173.153 28.3031H173.16ZM172.483 9.53992C172.483 9.03592 172.656 8.60392 172.995 8.24392C173.333 7.88392 173.758 7.70392 174.262 7.70392C174.766 7.70392 175.169 7.87672 175.522 8.22952C175.875 8.58232 176.047 8.99992 176.047 9.48952C176.047 9.97912 175.875 10.4255 175.536 10.7783C175.191 11.1311 174.773 11.3039 174.262 11.3039C173.751 11.3039 173.355 11.1311 173.002 10.7927C172.649 10.4543 172.476 10.0367 172.476 9.55432L172.483 9.53992Z" fill="#221F20"/>
<path d="M176.847 9.77752C176.847 9.27352 177.012 8.84152 177.358 8.48872C177.696 8.13592 178.121 7.96312 178.632 7.96312C179.143 7.96312 179.561 8.13592 179.899 8.47432C180.238 8.81272 180.411 9.23752 180.411 9.74152C180.411 10.2455 180.238 10.6703 179.899 11.0087C179.561 11.3471 179.136 11.5199 178.632 11.5199C178.128 11.5199 177.725 11.3471 177.372 11.0087C177.019 10.6703 176.847 10.2527 176.847 9.77032V9.77752ZM177.401 28.7999V14.3063L179.827 13.9247V28.7999H177.401Z" fill="#221F20"/>
<path d="M7.38733 18.5113C7.76893 18.1729 7.56013 17.7265 7.32973 17.4313C7.20013 17.2657 7.07053 17.1505 7.02733 17.1145L5.37133 18.5113L6.38653 19.3609L7.39453 18.5257L7.38733 18.5113Z" fill="#9A4044"/>
<path d="M2.01613 21.3121L0.662533 22.4497C0.518533 22.5721 0.453733 22.7161 0.446533 22.8529V22.9753C0.446533 22.9897 0.446533 23.0041 0.446533 23.0113C0.446533 23.0545 0.468133 23.0905 0.475333 23.1337V23.1409C0.496933 23.1841 0.511333 23.2273 0.525733 23.2633L0.540133 23.2777C0.561733 23.3209 0.583333 23.3569 0.604933 23.3929V23.4001C0.640933 23.4433 0.662533 23.4793 0.691333 23.5225C0.727333 23.5585 0.748933 23.5945 0.777733 23.6161C0.777733 23.6233 0.792133 23.6305 0.792133 23.6305C0.820933 23.6665 0.849733 23.6881 0.871333 23.7169C0.936133 23.7889 0.993733 23.8321 1.00813 23.8465L3.01693 22.1617L2.00893 21.3121H2.01613Z" fill="#9A4044"/>
<path d="M10.0729 25.7689V29.1601L11.3761 28.0657V24.6889L11.2897 24.7609L10.1881 25.6825C10.1881 25.6825 10.1161 25.7473 10.0729 25.7689Z" fill="#9A4044"/>
<path d="M11.3761 16.2721L11.3041 16.3297L10.1881 17.2657C10.1881 17.2657 10.1233 17.3233 10.0873 17.3449H10.0729V20.1529L11.3761 19.0585V16.2721Z" fill="#9A4044"/>
<path d="M7.22892 25.6896C7.27212 25.7328 7.32252 25.7616 7.38012 25.7904C7.43052 25.812 7.49532 25.8264 7.56012 25.8264C7.62492 25.8264 7.68252 25.812 7.74732 25.7904C7.80492 25.7616 7.84812 25.7256 7.89132 25.6896C7.93452 25.6464 7.97052 25.596 7.99212 25.5384C8.01372 25.4808 8.02812 25.416 8.02812 25.3584V21.6432C8.02812 21.3696 7.97052 21.1176 7.87692 20.8872C7.77612 20.6496 7.63932 20.448 7.46652 20.268L0.806524 14.6808C0.770524 14.6376 0.712924 14.6016 0.662524 14.58C0.604924 14.5512 0.540124 14.5368 0.482524 14.5368C0.417724 14.5368 0.352924 14.5512 0.295324 14.58C0.237724 14.6016 0.187324 14.6376 0.144124 14.6808C0.100924 14.724 0.0649242 14.7744 0.0433242 14.8248C0.0145242 14.8824 0.00732422 14.9472 0.00732422 15.012V18.7272C0.00732422 18.9936 0.0649242 19.2456 0.158524 19.4832C0.252124 19.7136 0.403324 19.9224 0.576124 20.0952L7.23612 25.6896H7.22892Z" fill="#D74437"/>
<path d="M7.89132 29.88C7.79052 29.6496 7.65372 29.4408 7.47372 29.2608L1.00812 23.8392C1.00812 23.8392 0.950524 23.7816 0.892924 23.7312H0.885724C0.885724 23.7312 0.842524 23.6736 0.813724 23.6448C0.813724 23.6448 0.799324 23.6304 0.792124 23.6232C0.763324 23.5944 0.741724 23.5584 0.705724 23.5296C0.676924 23.4936 0.655324 23.4576 0.626524 23.4144C0.626524 23.4144 0.626524 23.4144 0.626524 23.4072C0.597724 23.3712 0.583324 23.3352 0.561724 23.292L0.547324 23.2776C0.532924 23.2416 0.511324 23.1984 0.496924 23.1552C0.496924 23.1552 0.496924 23.148 0.489724 23.1408C0.475324 23.0976 0.460924 23.0544 0.460924 23.0184C0.460924 23.0184 0.460924 22.9968 0.460924 22.9896C0.460924 22.9896 0.460924 22.968 0.460924 22.9536V22.9176C0.460924 22.9176 0.460924 22.8744 0.460924 22.8528C0.468124 22.716 0.532924 22.5792 0.676924 22.4496L0.626524 22.5C0.626524 22.5 0.604924 22.5144 0.590524 22.5288C0.518524 22.608 0.403324 22.7376 0.309724 22.9608H0.295324C0.180124 23.22 0.0721242 23.5872 0.0289242 24.0984C0.0289242 24.156 0.0145242 24.2208 0.0145242 24.2856C0.0145242 24.3504 0.0145242 24.4224 0.00732422 24.4872C0.00732422 24.5016 0.00732422 28.8432 0.00732422 28.8432C0.00732422 29.1096 0.0649242 29.3616 0.158524 29.5992C0.252124 29.8296 0.403324 30.0384 0.576124 30.2112L7.24332 35.8056C7.28652 35.8488 7.33692 35.8848 7.39452 35.9064C7.45212 35.928 7.50972 35.9424 7.57452 35.9424C7.63932 35.9424 7.70412 35.928 7.76172 35.9064C7.81932 35.8776 7.86972 35.8488 7.91292 35.8056C7.95612 35.7624 7.98492 35.712 8.01372 35.6544C8.03532 35.5968 8.04972 35.5392 8.04972 35.4744V30.636C8.04972 30.3696 7.99212 30.1104 7.89852 29.88H7.89132Z" fill="#D74437"/>
<path d="M7.89132 11.3544C7.79052 11.124 7.65372 10.9152 7.48092 10.7352L0.806524 5.148C0.770524 5.1048 0.712924 5.0688 0.662524 5.0472C0.604924 5.0256 0.540124 5.0112 0.482524 5.0112C0.417724 5.0112 0.352924 5.0256 0.295324 5.0472C0.237724 5.0688 0.187324 5.1048 0.144124 5.148C0.100924 5.1912 0.0649242 5.2416 0.0433242 5.2992C0.0145242 5.3568 0.00732422 5.4216 0.00732422 5.4792V10.3176C0.00732422 10.584 0.0649242 10.8432 0.158524 11.0736C0.252124 11.304 0.403324 11.5128 0.576124 11.6856L7.03452 17.1072C7.03452 17.1072 7.09932 17.1648 7.15692 17.2224C7.20732 17.2728 7.27932 17.3448 7.33692 17.4312C7.45212 17.5824 7.56012 17.7696 7.59612 17.9568C7.63212 18.1512 7.58892 18.3456 7.39452 18.5112C7.39452 18.5112 7.58892 18.3672 7.75452 17.9928C7.86972 17.7264 7.97772 17.3592 8.02092 16.848C8.02092 16.7904 8.02092 16.7256 8.03532 16.6608C8.03532 16.596 8.04252 16.5312 8.04252 16.4592V12.1032C8.04252 11.8368 7.98492 11.5848 7.89132 11.3544Z" fill="#D74437"/>
<path d="M17.1577 17.4744C17.3161 17.2656 17.4241 17.0136 17.4241 16.668V5.4576C17.4241 5.3928 17.4097 5.328 17.3953 5.2704C17.3665 5.2128 17.3305 5.1696 17.2945 5.1192C17.2513 5.076 17.2009 5.0472 17.1433 5.0184C17.0857 4.9896 17.0281 4.9824 16.9561 4.9824C16.8841 4.9824 16.8265 4.9896 16.7689 5.0184C16.7113 5.0472 16.6609 5.076 16.6177 5.1192L9.94332 10.7208C9.77052 10.8936 9.62652 11.1024 9.52572 11.3328C9.42492 11.5632 9.37452 11.8152 9.37452 12.0888V16.9344C9.37452 16.9992 9.38892 17.064 9.41052 17.1216C9.43212 17.1792 9.46812 17.2296 9.51132 17.2728C9.55452 17.316 9.60492 17.352 9.66252 17.3736C9.72012 17.3952 9.78492 17.4096 9.84972 17.4096C9.91452 17.4096 9.97932 17.3952 10.0297 17.3736C10.0441 17.3664 10.0585 17.3592 10.0801 17.352C10.1161 17.3304 10.1521 17.3088 10.1809 17.2728L15.2713 13.0032C15.3145 12.96 15.3649 12.924 15.4225 12.9024C15.4801 12.8808 15.5377 12.8664 15.6025 12.8664C15.6673 12.8664 15.7321 12.8736 15.7825 12.8952C15.8401 12.924 15.8905 12.9528 15.9337 12.996C15.9769 13.0392 16.0129 13.0896 16.0345 13.1472C16.0561 13.2048 16.0705 13.2624 16.0705 13.3272V14.2128C16.0705 14.4792 16.0129 14.7384 15.9193 14.9688C15.8185 15.2064 15.6745 15.4152 15.5017 15.588L10.0585 20.16L9.92892 20.2608C9.75612 20.4408 9.61212 20.6496 9.51132 20.88C9.41052 21.1104 9.36012 21.3696 9.36012 21.636V25.3584C9.36012 25.4232 9.37452 25.488 9.39612 25.5456C9.41772 25.6032 9.45372 25.6536 9.49692 25.6968C9.54012 25.74 9.59052 25.776 9.64812 25.7976C9.70572 25.8264 9.77052 25.8408 9.83532 25.8408C9.90012 25.8408 9.96492 25.8264 10.0153 25.7976C10.0153 25.7976 10.0369 25.7832 10.0513 25.7832C10.0945 25.7616 10.1305 25.7328 10.1665 25.6968L11.2681 24.7752L15.2569 21.4272C15.3001 21.384 15.3505 21.3552 15.4081 21.3264C15.4657 21.2976 15.5233 21.2904 15.5881 21.2904C15.6529 21.2904 15.7177 21.3048 15.7681 21.3264C15.8257 21.348 15.8761 21.384 15.9193 21.4272C15.9553 21.4704 15.9985 21.5208 16.0201 21.5784C16.0417 21.636 16.0561 21.6936 16.0561 21.7584V23.2272C16.0561 23.5008 16.0057 23.7456 15.9049 23.9832C15.8041 24.2136 15.6601 24.4224 15.4873 24.5952L9.91452 29.268C9.74172 29.4408 9.59772 29.6496 9.49692 29.88C9.39612 30.1104 9.34572 30.3696 9.34572 30.636V35.4816C9.34572 35.5464 9.36012 35.604 9.38172 35.6616C9.40332 35.7192 9.43932 35.7696 9.48252 35.8128C9.52572 35.856 9.57612 35.892 9.63372 35.9136C9.69132 35.9352 9.75612 35.9496 9.82092 35.9496C9.88572 35.9496 9.95052 35.9352 10.0009 35.9136C10.0585 35.8848 10.1089 35.856 10.1521 35.8128L16.8193 30.2112C16.9993 30.0312 17.1433 29.8224 17.2369 29.592C17.3305 29.3616 17.3881 29.1024 17.3881 28.8432V18.3168C17.3881 18.2592 17.3665 18.2088 17.3449 18.1656C17.3233 18.1224 17.2945 18.0792 17.2513 18.0432C17.2081 18 17.1577 17.964 17.1001 17.9424C17.0425 17.9208 16.9849 17.9064 16.9201 17.9064C16.8553 17.9064 16.7905 17.9136 16.7329 17.9424C16.6753 17.964 16.6321 17.9928 16.6321 17.9928C16.8049 17.8128 16.9633 17.6976 17.1145 17.4816L17.1577 17.4744Z" fill="#D74437"/>
<path d="M8.02092 2.736C8.02092 2.736 7.98492 2.6856 7.96332 2.664L4.84572 0.0504022C4.84572 0.0504022 4.80252 0.0216021 4.78092 0.0144021C4.75212 0.0144021 4.73052 0.00720215 4.70892 0.00720215C4.68732 0.00720215 4.67292 0.00720215 4.65852 0.00720215C4.64412 0.00720215 4.62252 0.00720215 4.62252 0.00720215C4.57212 0.0360021 4.53612 0.0648022 4.51452 0.0936022C4.49292 0.129602 4.48572 0.172802 4.48572 0.216002V2.1744C4.48572 2.1744 4.49292 2.2392 4.50732 2.268C4.52172 2.2968 4.54332 2.3256 4.56492 2.3472L5.55132 3.1608V4.9824L5.17692 4.68C5.17692 4.68 5.13372 4.6512 5.11212 4.644C5.09052 4.6368 5.06172 4.6296 5.03292 4.6296C5.01852 4.6296 4.99692 4.6296 4.98252 4.6296C4.96812 4.6296 4.94652 4.6368 4.94652 4.6368C4.89612 4.6656 4.86012 4.6944 4.83852 4.7232C4.81692 4.7592 4.80972 4.8024 4.80972 4.8456V6.6672C4.80972 6.6672 4.80972 6.732 4.83132 6.7608C4.84572 6.7896 4.86012 6.8184 4.88892 6.84L7.13532 8.712C7.13532 8.712 7.17852 8.7408 7.20012 8.748C7.22892 8.7552 7.25052 8.7624 7.27932 8.7624C7.29372 8.7624 7.30812 8.7624 7.32972 8.7624C7.34412 8.7624 7.36572 8.748 7.38012 8.7408C7.41612 8.7192 7.45212 8.6904 7.47372 8.6544C7.49532 8.6256 7.50972 8.5824 7.50972 8.5392V6.732C7.50972 6.732 7.50252 6.6672 7.48812 6.6384C7.47372 6.6024 7.45212 6.5808 7.43052 6.5592L6.99852 6.192V4.3848L7.68972 4.9608C7.68972 4.9608 7.73292 4.9896 7.75452 4.9968C7.77612 4.9968 7.80492 5.0112 7.83372 5.0112C7.85532 5.0112 7.86972 5.0112 7.88412 5.0112C7.89852 5.0112 7.91292 5.0112 7.92732 4.9968C7.97052 4.9752 7.99932 4.9536 8.02092 4.9176C8.04252 4.8816 8.05692 4.8456 8.05692 4.7952V2.8296C8.05692 2.8296 8.05692 2.7648 8.03532 2.7288L8.02092 2.736Z" fill="#D74437"/>
<path d="M12.8377 2.3832C12.8377 2.3832 12.8809 2.3328 12.8953 2.304C12.9097 2.2752 12.9169 2.2392 12.9169 2.2104V0.237602C12.9169 0.194402 12.9025 0.151202 12.8881 0.115202C12.8593 0.0792022 12.8305 0.0576021 12.7945 0.0288021C12.7801 0.0216021 12.7657 0.0144021 12.7513 0.0144021C12.7513 0.0144021 12.7153 0.0144021 12.7009 0.0144021C12.6793 0.0144021 12.6505 0.0144021 12.6289 0.0288021C12.6001 0.0360021 12.5785 0.0504021 12.5569 0.0720022L9.46812 2.6712C9.46812 2.6712 9.42492 2.7216 9.41052 2.7504C9.39612 2.7792 9.38892 2.8152 9.38892 2.8512V9.0072C9.38892 9.0504 9.40332 9.0936 9.42492 9.1296C9.44652 9.1656 9.48252 9.1944 9.51852 9.2088C9.54012 9.216 9.55452 9.2232 9.56892 9.2232C9.56892 9.2232 9.59772 9.2232 9.61932 9.2232C9.64812 9.2232 9.66972 9.2232 9.69852 9.2088C9.72732 9.2016 9.74172 9.1872 9.76332 9.1656L12.8521 6.5736C12.8521 6.5736 12.8953 6.5304 12.9097 6.4944C12.9241 6.4656 12.9313 6.4296 12.9313 6.4008V4.572C12.9313 4.5288 12.9169 4.4856 12.9025 4.4496C12.8737 4.4136 12.8449 4.3848 12.8089 4.3704C12.7945 4.3704 12.7801 4.3632 12.7657 4.356C12.7441 4.356 12.7297 4.356 12.7153 4.356C12.6937 4.356 12.6649 4.356 12.6433 4.3704C12.6145 4.3776 12.5929 4.392 12.5713 4.4136L10.8721 5.8464V4.068L12.8665 2.3976L12.8377 2.3832Z" fill="#D74437"/>
</g>
<defs>
<clipPath id="clip0_1331_31">
<rect width="180.72" height="36" fill="white"/>
</clipPath>
</defs>
</svg>
