<svg width="609" height="201" viewBox="0 0 609 201" fill="none" xmlns="http://www.w3.org/2000/svg">
<rect width="609" height="176" rx="20" fill="#312F2F"/>
<path d="M50 46.04V48.3H44.18V51.88H48.64V54.1H44.18V60H41.38V46.04H50ZM56.9055 60.18C55.8388 60.18 54.8788 59.9467 54.0255 59.48C53.1721 59 52.4988 58.3267 52.0055 57.46C51.5255 56.5933 51.2855 55.5933 51.2855 54.46C51.2855 53.3267 51.5321 52.3267 52.0255 51.46C52.5321 50.5933 53.2188 49.9267 54.0855 49.46C54.9521 48.98 55.9188 48.74 56.9855 48.74C58.0521 48.74 59.0188 48.98 59.8855 49.46C60.7521 49.9267 61.4321 50.5933 61.9255 51.46C62.4321 52.3267 62.6855 53.3267 62.6855 54.46C62.6855 55.5933 62.4255 56.5933 61.9055 57.46C61.3988 58.3267 60.7055 59 59.8255 59.48C58.9588 59.9467 57.9855 60.18 56.9055 60.18ZM56.9055 57.74C57.4121 57.74 57.8855 57.62 58.3255 57.38C58.7788 57.1267 59.1388 56.7533 59.4055 56.26C59.6721 55.7667 59.8055 55.1667 59.8055 54.46C59.8055 53.4067 59.5255 52.6 58.9655 52.04C58.4188 51.4667 57.7455 51.18 56.9455 51.18C56.1455 51.18 55.4721 51.4667 54.9255 52.04C54.3921 52.6 54.1255 53.4067 54.1255 54.46C54.1255 55.5133 54.3855 56.3267 54.9055 56.9C55.4388 57.46 56.1055 57.74 56.9055 57.74ZM67.5394 50.64C67.8994 50.0533 68.366 49.5933 68.9394 49.26C69.526 48.9267 70.1927 48.76 70.9394 48.76V51.7H70.1994C69.3194 51.7 68.6527 51.9067 68.1994 52.32C67.7594 52.7333 67.5394 53.4533 67.5394 54.48V60H64.7394V48.92H67.5394V50.64ZM82.6709 51.22H80.7309V60H77.8909V51.22H76.6309V48.92H77.8909V48.36C77.8909 47 78.2776 46 79.0509 45.36C79.8243 44.72 80.9909 44.42 82.5509 44.46V46.82C81.8709 46.8067 81.3976 46.92 81.1309 47.16C80.8643 47.4 80.7309 47.8333 80.7309 48.46V48.92H82.6709V51.22ZM83.7655 54.42C83.7655 53.3 83.9855 52.3067 84.4255 51.44C84.8788 50.5733 85.4855 49.9067 86.2455 49.44C87.0188 48.9733 87.8788 48.74 88.8255 48.74C89.6521 48.74 90.3721 48.9067 90.9855 49.24C91.6121 49.5733 92.1121 49.9933 92.4855 50.5V48.92H95.3055V60H92.4855V58.38C92.1255 58.9 91.6255 59.3333 90.9855 59.68C90.3588 60.0133 89.6321 60.18 88.8055 60.18C87.8721 60.18 87.0188 59.94 86.2455 59.46C85.4855 58.98 84.8788 58.3067 84.4255 57.44C83.9855 56.56 83.7655 55.5533 83.7655 54.42ZM92.4855 54.46C92.4855 53.78 92.3521 53.2 92.0855 52.72C91.8188 52.2267 91.4588 51.8533 91.0055 51.6C90.5521 51.3333 90.0655 51.2 89.5455 51.2C89.0255 51.2 88.5455 51.3267 88.1055 51.58C87.6655 51.8333 87.3055 52.2067 87.0255 52.7C86.7588 53.18 86.6255 53.7533 86.6255 54.42C86.6255 55.0867 86.7588 55.6733 87.0255 56.18C87.3055 56.6733 87.6655 57.0533 88.1055 57.32C88.5588 57.5867 89.0388 57.72 89.5455 57.72C90.0655 57.72 90.5521 57.5933 91.0055 57.34C91.4588 57.0733 91.8188 56.7 92.0855 56.22C92.3521 55.7267 92.4855 55.14 92.4855 54.46ZM102.28 60.18C101.373 60.18 100.56 60.02 99.8402 59.7C99.1202 59.3667 98.5468 58.92 98.1202 58.36C97.7068 57.8 97.4802 57.18 97.4402 56.5H100.26C100.313 56.9267 100.52 57.28 100.88 57.56C101.253 57.84 101.713 57.98 102.26 57.98C102.793 57.98 103.207 57.8733 103.5 57.66C103.807 57.4467 103.96 57.1733 103.96 56.84C103.96 56.48 103.773 56.2133 103.4 56.04C103.04 55.8533 102.46 55.6533 101.66 55.44C100.833 55.24 100.153 55.0333 99.6202 54.82C99.1002 54.6067 98.6468 54.28 98.2602 53.84C97.8868 53.4 97.7002 52.8067 97.7002 52.06C97.7002 51.4467 97.8735 50.8867 98.2202 50.38C98.5802 49.8733 99.0868 49.4733 99.7402 49.18C100.407 48.8867 101.187 48.74 102.08 48.74C103.4 48.74 104.453 49.0733 105.24 49.74C106.027 50.3933 106.46 51.28 106.54 52.4H103.86C103.82 51.96 103.633 51.6133 103.3 51.36C102.98 51.0933 102.547 50.96 102 50.96C101.493 50.96 101.1 51.0533 100.82 51.24C100.553 51.4267 100.42 51.6867 100.42 52.02C100.42 52.3933 100.607 52.68 100.98 52.88C101.353 53.0667 101.933 53.26 102.72 53.46C103.52 53.66 104.18 53.8667 104.7 54.08C105.22 54.2933 105.667 54.6267 106.04 55.08C106.427 55.52 106.627 56.1067 106.64 56.84C106.64 57.48 106.46 58.0533 106.1 58.56C105.753 59.0667 105.247 59.4667 104.58 59.76C103.927 60.04 103.16 60.18 102.28 60.18ZM112.199 51.22V56.58C112.199 56.9533 112.285 57.2267 112.459 57.4C112.645 57.56 112.952 57.64 113.379 57.64H114.679V60H112.919C110.559 60 109.379 58.8533 109.379 56.56V51.22H108.059V48.92H109.379V46.18H112.199V48.92H114.679V51.22H112.199ZM120.738 54.42C120.738 53.3 120.958 52.3067 121.398 51.44C121.851 50.5733 122.458 49.9067 123.218 49.44C123.991 48.9733 124.851 48.74 125.798 48.74C126.625 48.74 127.345 48.9067 127.958 49.24C128.585 49.5733 129.085 49.9933 129.458 50.5V48.92H132.278V60H129.458V58.38C129.098 58.9 128.598 59.3333 127.958 59.68C127.331 60.0133 126.605 60.18 125.778 60.18C124.845 60.18 123.991 59.94 123.218 59.46C122.458 58.98 121.851 58.3067 121.398 57.44C120.958 56.56 120.738 55.5533 120.738 54.42ZM129.458 54.46C129.458 53.78 129.325 53.2 129.058 52.72C128.791 52.2267 128.431 51.8533 127.978 51.6C127.525 51.3333 127.038 51.2 126.518 51.2C125.998 51.2 125.518 51.3267 125.078 51.58C124.638 51.8333 124.278 52.2067 123.998 52.7C123.731 53.18 123.598 53.7533 123.598 54.42C123.598 55.0867 123.731 55.6733 123.998 56.18C124.278 56.6733 124.638 57.0533 125.078 57.32C125.531 57.5867 126.011 57.72 126.518 57.72C127.038 57.72 127.525 57.5933 127.978 57.34C128.431 57.0733 128.791 56.7 129.058 56.22C129.325 55.7267 129.458 55.14 129.458 54.46ZM141.153 48.76C142.473 48.76 143.539 49.18 144.353 50.02C145.166 50.8467 145.573 52.0067 145.573 53.5V60H142.773V53.88C142.773 53 142.553 52.3267 142.113 51.86C141.673 51.38 141.073 51.14 140.313 51.14C139.539 51.14 138.926 51.38 138.473 51.86C138.033 52.3267 137.813 53 137.813 53.88V60H135.013V48.92H137.813V50.3C138.186 49.82 138.659 49.4467 139.233 49.18C139.819 48.9 140.459 48.76 141.153 48.76ZM147.515 54.42C147.515 53.3 147.735 52.3067 148.175 51.44C148.629 50.5733 149.242 49.9067 150.015 49.44C150.789 48.9733 151.649 48.74 152.595 48.74C153.315 48.74 154.002 48.9 154.655 49.22C155.309 49.5267 155.829 49.94 156.215 50.46V45.2H159.055V60H156.215V58.36C155.869 58.9067 155.382 59.3467 154.755 59.68C154.129 60.0133 153.402 60.18 152.575 60.18C151.642 60.18 150.789 59.94 150.015 59.46C149.242 58.98 148.629 58.3067 148.175 57.44C147.735 56.56 147.515 55.5533 147.515 54.42ZM156.235 54.46C156.235 53.78 156.102 53.2 155.835 52.72C155.569 52.2267 155.209 51.8533 154.755 51.6C154.302 51.3333 153.815 51.2 153.295 51.2C152.775 51.2 152.295 51.3267 151.855 51.58C151.415 51.8333 151.055 52.2067 150.775 52.7C150.509 53.18 150.375 53.7533 150.375 54.42C150.375 55.0867 150.509 55.6733 150.775 56.18C151.055 56.6733 151.415 57.0533 151.855 57.32C152.309 57.5867 152.789 57.72 153.295 57.72C153.815 57.72 154.302 57.5933 154.755 57.34C155.209 57.0733 155.569 56.7 155.835 56.22C156.102 55.7267 156.235 55.14 156.235 54.46ZM169.356 50.64C169.716 50.0533 170.182 49.5933 170.756 49.26C171.342 48.9267 172.009 48.76 172.756 48.76V51.7H172.016C171.136 51.7 170.469 51.9067 170.016 52.32C169.576 52.7333 169.356 53.4533 169.356 54.48V60H166.556V48.92H169.356V50.64ZM184.942 54.22C184.942 54.62 184.915 54.98 184.862 55.3H176.762C176.828 56.1 177.108 56.7267 177.602 57.18C178.095 57.6333 178.702 57.86 179.422 57.86C180.462 57.86 181.202 57.4133 181.642 56.52H184.662C184.342 57.5867 183.728 58.4667 182.822 59.16C181.915 59.84 180.802 60.18 179.482 60.18C178.415 60.18 177.455 59.9467 176.602 59.48C175.762 59 175.102 58.3267 174.622 57.46C174.155 56.5933 173.922 55.5933 173.922 54.46C173.922 53.3133 174.155 52.3067 174.622 51.44C175.088 50.5733 175.742 49.9067 176.582 49.44C177.422 48.9733 178.388 48.74 179.482 48.74C180.535 48.74 181.475 48.9667 182.302 49.42C183.142 49.8733 183.788 50.52 184.242 51.36C184.708 52.1867 184.942 53.14 184.942 54.22ZM182.042 53.42C182.028 52.7 181.768 52.1267 181.262 51.7C180.755 51.26 180.135 51.04 179.402 51.04C178.708 51.04 178.122 51.2533 177.642 51.68C177.175 52.0933 176.888 52.6733 176.782 53.42H182.042ZM189.785 45.2V60H186.985V45.2H189.785ZM193.972 47.6C193.479 47.6 193.065 47.4467 192.732 47.14C192.412 46.82 192.252 46.4267 192.252 45.96C192.252 45.4933 192.412 45.1067 192.732 44.8C193.065 44.48 193.479 44.32 193.972 44.32C194.465 44.32 194.872 44.48 195.192 44.8C195.525 45.1067 195.692 45.4933 195.692 45.96C195.692 46.4267 195.525 46.82 195.192 47.14C194.872 47.4467 194.465 47.6 193.972 47.6ZM195.352 48.92V60H192.552V48.92H195.352ZM197.398 54.42C197.398 53.3 197.618 52.3067 198.058 51.44C198.512 50.5733 199.118 49.9067 199.878 49.44C200.652 48.9733 201.512 48.74 202.458 48.74C203.285 48.74 204.005 48.9067 204.618 49.24C205.245 49.5733 205.745 49.9933 206.118 50.5V48.92H208.938V60H206.118V58.38C205.758 58.9 205.258 59.3333 204.618 59.68C203.992 60.0133 203.265 60.18 202.438 60.18C201.505 60.18 200.652 59.94 199.878 59.46C199.118 58.98 198.512 58.3067 198.058 57.44C197.618 56.56 197.398 55.5533 197.398 54.42ZM206.118 54.46C206.118 53.78 205.985 53.2 205.718 52.72C205.452 52.2267 205.092 51.8533 204.638 51.6C204.185 51.3333 203.698 51.2 203.178 51.2C202.658 51.2 202.178 51.3267 201.738 51.58C201.298 51.8333 200.938 52.2067 200.658 52.7C200.392 53.18 200.258 53.7533 200.258 54.42C200.258 55.0867 200.392 55.6733 200.658 56.18C200.938 56.6733 201.298 57.0533 201.738 57.32C202.192 57.5867 202.672 57.72 203.178 57.72C203.698 57.72 204.185 57.5933 204.638 57.34C205.092 57.0733 205.452 56.7 205.718 56.22C205.985 55.7267 206.118 55.14 206.118 54.46ZM214.473 50.54C214.833 50.0067 215.326 49.5733 215.953 49.24C216.593 48.9067 217.32 48.74 218.133 48.74C219.08 48.74 219.933 48.9733 220.693 49.44C221.466 49.9067 222.073 50.5733 222.513 51.44C222.966 52.2933 223.193 53.2867 223.193 54.42C223.193 55.5533 222.966 56.56 222.513 57.44C222.073 58.3067 221.466 58.98 220.693 59.46C219.933 59.94 219.08 60.18 218.133 60.18C217.306 60.18 216.58 60.02 215.953 59.7C215.34 59.3667 214.846 58.94 214.473 58.42V60H211.673V45.2H214.473V50.54ZM220.333 54.42C220.333 53.7533 220.193 53.18 219.913 52.7C219.646 52.2067 219.286 51.8333 218.833 51.58C218.393 51.3267 217.913 51.2 217.393 51.2C216.886 51.2 216.406 51.3333 215.953 51.6C215.513 51.8533 215.153 52.2267 214.873 52.72C214.606 53.2133 214.473 53.7933 214.473 54.46C214.473 55.1267 214.606 55.7067 214.873 56.2C215.153 56.6933 215.513 57.0733 215.953 57.34C216.406 57.5933 216.886 57.72 217.393 57.72C217.913 57.72 218.393 57.5867 218.833 57.32C219.286 57.0533 219.646 56.6733 219.913 56.18C220.193 55.6867 220.333 55.1 220.333 54.42ZM228.028 45.2V60H225.228V45.2H228.028ZM241.094 54.22C241.094 54.62 241.067 54.98 241.014 55.3H232.914C232.981 56.1 233.261 56.7267 233.754 57.18C234.247 57.6333 234.854 57.86 235.574 57.86C236.614 57.86 237.354 57.4133 237.794 56.52H240.814C240.494 57.5867 239.881 58.4667 238.974 59.16C238.067 59.84 236.954 60.18 235.634 60.18C234.567 60.18 233.607 59.9467 232.754 59.48C231.914 59 231.254 58.3267 230.774 57.46C230.307 56.5933 230.074 55.5933 230.074 54.46C230.074 53.3133 230.307 52.3067 230.774 51.44C231.241 50.5733 231.894 49.9067 232.734 49.44C233.574 48.9733 234.541 48.74 235.634 48.74C236.687 48.74 237.627 48.9667 238.454 49.42C239.294 49.8733 239.941 50.52 240.394 51.36C240.861 52.1867 241.094 53.14 241.094 54.22ZM238.194 53.42C238.181 52.7 237.921 52.1267 237.414 51.7C236.907 51.26 236.287 51.04 235.554 51.04C234.861 51.04 234.274 51.2533 233.794 51.68C233.327 52.0933 233.041 52.6733 232.934 53.42H238.194ZM252.143 60.18C251.237 60.18 250.423 60.02 249.703 59.7C248.983 59.3667 248.41 58.92 247.983 58.36C247.57 57.8 247.343 57.18 247.303 56.5H250.123C250.177 56.9267 250.383 57.28 250.743 57.56C251.117 57.84 251.577 57.98 252.123 57.98C252.657 57.98 253.07 57.8733 253.363 57.66C253.67 57.4467 253.823 57.1733 253.823 56.84C253.823 56.48 253.637 56.2133 253.263 56.04C252.903 55.8533 252.323 55.6533 251.523 55.44C250.697 55.24 250.017 55.0333 249.483 54.82C248.963 54.6067 248.51 54.28 248.123 53.84C247.75 53.4 247.563 52.8067 247.563 52.06C247.563 51.4467 247.737 50.8867 248.083 50.38C248.443 49.8733 248.95 49.4733 249.603 49.18C250.27 48.8867 251.05 48.74 251.943 48.74C253.263 48.74 254.317 49.0733 255.103 49.74C255.89 50.3933 256.323 51.28 256.403 52.4H253.723C253.683 51.96 253.497 51.6133 253.163 51.36C252.843 51.0933 252.41 50.96 251.863 50.96C251.357 50.96 250.963 51.0533 250.683 51.24C250.417 51.4267 250.283 51.6867 250.283 52.02C250.283 52.3933 250.47 52.68 250.843 52.88C251.217 53.0667 251.797 53.26 252.583 53.46C253.383 53.66 254.043 53.8667 254.563 54.08C255.083 54.2933 255.53 54.6267 255.903 55.08C256.29 55.52 256.49 56.1067 256.503 56.84C256.503 57.48 256.323 58.0533 255.963 58.56C255.617 59.0667 255.11 59.4667 254.443 59.76C253.79 60.04 253.023 60.18 252.143 60.18ZM263.722 60.18C262.655 60.18 261.695 59.9467 260.842 59.48C259.989 59 259.315 58.3267 258.822 57.46C258.342 56.5933 258.102 55.5933 258.102 54.46C258.102 53.3267 258.349 52.3267 258.842 51.46C259.349 50.5933 260.035 49.9267 260.902 49.46C261.769 48.98 262.735 48.74 263.802 48.74C264.869 48.74 265.835 48.98 266.702 49.46C267.569 49.9267 268.249 50.5933 268.742 51.46C269.249 52.3267 269.502 53.3267 269.502 54.46C269.502 55.5933 269.242 56.5933 268.722 57.46C268.215 58.3267 267.522 59 266.642 59.48C265.775 59.9467 264.802 60.18 263.722 60.18ZM263.722 57.74C264.229 57.74 264.702 57.62 265.142 57.38C265.595 57.1267 265.955 56.7533 266.222 56.26C266.489 55.7667 266.622 55.1667 266.622 54.46C266.622 53.4067 266.342 52.6 265.782 52.04C265.235 51.4667 264.562 51.18 263.762 51.18C262.962 51.18 262.289 51.4667 261.742 52.04C261.209 52.6 260.942 53.4067 260.942 54.46C260.942 55.5133 261.202 56.3267 261.722 56.9C262.255 57.46 262.922 57.74 263.722 57.74ZM276.636 51.22H274.696V60H271.856V51.22H270.596V48.92H271.856V48.36C271.856 47 272.242 46 273.016 45.36C273.789 44.72 274.956 44.42 276.516 44.46V46.82C275.836 46.8067 275.362 46.92 275.096 47.16C274.829 47.4 274.696 47.8333 274.696 48.46V48.92H276.636V51.22ZM281.71 51.22V56.58C281.71 56.9533 281.797 57.2267 281.97 57.4C282.157 57.56 282.464 57.64 282.89 57.64H284.19V60H282.43C280.07 60 278.89 58.8533 278.89 56.56V51.22H277.57V48.92H278.89V46.18H281.71V48.92H284.19V51.22H281.71ZM301.564 48.92L298.324 60H295.304L293.284 52.26L291.264 60H288.224L284.964 48.92H287.804L289.764 57.36L291.884 48.92H294.844L296.924 57.34L298.884 48.92H301.564ZM302.359 54.42C302.359 53.3 302.579 52.3067 303.019 51.44C303.473 50.5733 304.079 49.9067 304.839 49.44C305.613 48.9733 306.473 48.74 307.419 48.74C308.246 48.74 308.966 48.9067 309.579 49.24C310.206 49.5733 310.706 49.9933 311.079 50.5V48.92H313.899V60H311.079V58.38C310.719 58.9 310.219 59.3333 309.579 59.68C308.953 60.0133 308.226 60.18 307.399 60.18C306.466 60.18 305.613 59.94 304.839 59.46C304.079 58.98 303.473 58.3067 303.019 57.44C302.579 56.56 302.359 55.5533 302.359 54.42ZM311.079 54.46C311.079 53.78 310.946 53.2 310.679 52.72C310.413 52.2267 310.053 51.8533 309.599 51.6C309.146 51.3333 308.659 51.2 308.139 51.2C307.619 51.2 307.139 51.3267 306.699 51.58C306.259 51.8333 305.899 52.2067 305.619 52.7C305.353 53.18 305.219 53.7533 305.219 54.42C305.219 55.0867 305.353 55.6733 305.619 56.18C305.899 56.6733 306.259 57.0533 306.699 57.32C307.153 57.5867 307.633 57.72 308.139 57.72C308.659 57.72 309.146 57.5933 309.599 57.34C310.053 57.0733 310.413 56.7 310.679 56.22C310.946 55.7267 311.079 55.14 311.079 54.46ZM319.434 50.64C319.794 50.0533 320.261 49.5933 320.834 49.26C321.421 48.9267 322.087 48.76 322.834 48.76V51.7H322.094C321.214 51.7 320.547 51.9067 320.094 52.32C319.654 52.7333 319.434 53.4533 319.434 54.48V60H316.634V48.92H319.434V50.64ZM335.02 54.22C335.02 54.62 334.993 54.98 334.94 55.3H326.84C326.907 56.1 327.187 56.7267 327.68 57.18C328.173 57.6333 328.78 57.86 329.5 57.86C330.54 57.86 331.28 57.4133 331.72 56.52H334.74C334.42 57.5867 333.807 58.4667 332.9 59.16C331.993 59.84 330.88 60.18 329.56 60.18C328.493 60.18 327.533 59.9467 326.68 59.48C325.84 59 325.18 58.3267 324.7 57.46C324.233 56.5933 324 55.5933 324 54.46C324 53.3133 324.233 52.3067 324.7 51.44C325.167 50.5733 325.82 49.9067 326.66 49.44C327.5 48.9733 328.467 48.74 329.56 48.74C330.613 48.74 331.553 48.9667 332.38 49.42C333.22 49.8733 333.867 50.52 334.32 51.36C334.787 52.1867 335.02 53.14 335.02 54.22ZM332.12 53.42C332.107 52.7 331.847 52.1267 331.34 51.7C330.833 51.26 330.213 51.04 329.48 51.04C328.787 51.04 328.2 51.2533 327.72 51.68C327.253 52.0933 326.967 52.6733 326.86 53.42H332.12ZM45.62 83.18C44.7133 83.18 43.9 83.02 43.18 82.7C42.46 82.3667 41.8867 81.92 41.46 81.36C41.0467 80.8 40.82 80.18 40.78 79.5H43.6C43.6533 79.9267 43.86 80.28 44.22 80.56C44.5933 80.84 45.0533 80.98 45.6 80.98C46.1333 80.98 46.5467 80.8733 46.84 80.66C47.1467 80.4467 47.3 80.1733 47.3 79.84C47.3 79.48 47.1133 79.2133 46.74 79.04C46.38 78.8533 45.8 78.6533 45 78.44C44.1733 78.24 43.4933 78.0333 42.96 77.82C42.44 77.6067 41.9867 77.28 41.6 76.84C41.2267 76.4 41.04 75.8067 41.04 75.06C41.04 74.4467 41.2133 73.8867 41.56 73.38C41.92 72.8733 42.4267 72.4733 43.08 72.18C43.7467 71.8867 44.5267 71.74 45.42 71.74C46.74 71.74 47.7933 72.0733 48.58 72.74C49.3667 73.3933 49.8 74.28 49.88 75.4H47.2C47.16 74.96 46.9733 74.6133 46.64 74.36C46.32 74.0933 45.8867 73.96 45.34 73.96C44.8333 73.96 44.44 74.0533 44.16 74.24C43.8933 74.4267 43.76 74.6867 43.76 75.02C43.76 75.3933 43.9467 75.68 44.32 75.88C44.6933 76.0667 45.2733 76.26 46.06 76.46C46.86 76.66 47.52 76.8667 48.04 77.08C48.56 77.2933 49.0067 77.6267 49.38 78.08C49.7667 78.52 49.9667 79.1067 49.98 79.84C49.98 80.48 49.8 81.0533 49.44 81.56C49.0933 82.0667 48.5867 82.4667 47.92 82.76C47.2667 83.04 46.5 83.18 45.62 83.18ZM57.1984 83.18C56.1318 83.18 55.1718 82.9467 54.3184 82.48C53.4651 82 52.7918 81.3267 52.2984 80.46C51.8184 79.5933 51.5784 78.5933 51.5784 77.46C51.5784 76.3267 51.8251 75.3267 52.3184 74.46C52.8251 73.5933 53.5118 72.9267 54.3784 72.46C55.2451 71.98 56.2118 71.74 57.2784 71.74C58.3451 71.74 59.3118 71.98 60.1784 72.46C61.0451 72.9267 61.7251 73.5933 62.2184 74.46C62.7251 75.3267 62.9784 76.3267 62.9784 77.46C62.9784 78.5933 62.7184 79.5933 62.1984 80.46C61.6918 81.3267 60.9984 82 60.1184 82.48C59.2518 82.9467 58.2784 83.18 57.1984 83.18ZM57.1984 80.74C57.7051 80.74 58.1784 80.62 58.6184 80.38C59.0718 80.1267 59.4318 79.7533 59.6984 79.26C59.9651 78.7667 60.0984 78.1667 60.0984 77.46C60.0984 76.4067 59.8184 75.6 59.2584 75.04C58.7118 74.4667 58.0384 74.18 57.2384 74.18C56.4384 74.18 55.7651 74.4667 55.2184 75.04C54.6851 75.6 54.4184 76.4067 54.4184 77.46C54.4184 78.5133 54.6784 79.3267 55.1984 79.9C55.7318 80.46 56.3984 80.74 57.1984 80.74ZM67.8323 68.2V83H65.0323V68.2H67.8323ZM81.0588 71.92V83H78.2388V81.6C77.8788 82.08 77.4054 82.46 76.8188 82.74C76.2454 83.0067 75.6188 83.14 74.9388 83.14C74.0721 83.14 73.3054 82.96 72.6388 82.6C71.9721 82.2267 71.4454 81.6867 71.0588 80.98C70.6854 80.26 70.4988 79.4067 70.4988 78.42V71.92H73.2988V78.02C73.2988 78.9 73.5188 79.58 73.9588 80.06C74.3988 80.5267 74.9988 80.76 75.7588 80.76C76.5321 80.76 77.1388 80.5267 77.5788 80.06C78.0188 79.58 78.2388 78.9 78.2388 78.02V71.92H81.0588ZM87.0814 74.22V79.58C87.0814 79.9533 87.1681 80.2267 87.3414 80.4C87.5281 80.56 87.8347 80.64 88.2614 80.64H89.5614V83H87.8014C85.4414 83 84.2614 81.8533 84.2614 79.56V74.22H82.9414V71.92H84.2614V69.18H87.0814V71.92H89.5614V74.22H87.0814ZM92.9953 70.6C92.502 70.6 92.0886 70.4467 91.7553 70.14C91.4353 69.82 91.2753 69.4267 91.2753 68.96C91.2753 68.4933 91.4353 68.1067 91.7553 67.8C92.0886 67.48 92.502 67.32 92.9953 67.32C93.4886 67.32 93.8953 67.48 94.2153 67.8C94.5486 68.1067 94.7153 68.4933 94.7153 68.96C94.7153 69.4267 94.5486 69.82 94.2153 70.14C93.8953 70.4467 93.4886 70.6 92.9953 70.6ZM94.3753 71.92V83H91.5753V71.92H94.3753ZM102.062 83.18C100.995 83.18 100.035 82.9467 99.1817 82.48C98.3284 82 97.6551 81.3267 97.1617 80.46C96.6817 79.5933 96.4417 78.5933 96.4417 77.46C96.4417 76.3267 96.6884 75.3267 97.1817 74.46C97.6884 73.5933 98.3751 72.9267 99.2417 72.46C100.108 71.98 101.075 71.74 102.142 71.74C103.208 71.74 104.175 71.98 105.042 72.46C105.908 72.9267 106.588 73.5933 107.082 74.46C107.588 75.3267 107.842 76.3267 107.842 77.46C107.842 78.5933 107.582 79.5933 107.062 80.46C106.555 81.3267 105.862 82 104.982 82.48C104.115 82.9467 103.142 83.18 102.062 83.18ZM102.062 80.74C102.568 80.74 103.042 80.62 103.482 80.38C103.935 80.1267 104.295 79.7533 104.562 79.26C104.828 78.7667 104.962 78.1667 104.962 77.46C104.962 76.4067 104.682 75.6 104.122 75.04C103.575 74.4667 102.902 74.18 102.102 74.18C101.302 74.18 100.628 74.4667 100.082 75.04C99.5484 75.6 99.2817 76.4067 99.2817 77.46C99.2817 78.5133 99.5417 79.3267 100.062 79.9C100.595 80.46 101.262 80.74 102.062 80.74ZM116.036 71.76C117.356 71.76 118.422 72.18 119.236 73.02C120.049 73.8467 120.456 75.0067 120.456 76.5V83H117.656V76.88C117.656 76 117.436 75.3267 116.996 74.86C116.556 74.38 115.956 74.14 115.196 74.14C114.422 74.14 113.809 74.38 113.356 74.86C112.916 75.3267 112.696 76 112.696 76.88V83H109.896V71.92H112.696V73.3C113.069 72.82 113.542 72.4467 114.116 72.18C114.702 71.9 115.342 71.76 116.036 71.76ZM127.358 83.18C126.452 83.18 125.638 83.02 124.918 82.7C124.198 82.3667 123.625 81.92 123.198 81.36C122.785 80.8 122.558 80.18 122.518 79.5H125.338C125.392 79.9267 125.598 80.28 125.958 80.56C126.332 80.84 126.792 80.98 127.338 80.98C127.872 80.98 128.285 80.8733 128.578 80.66C128.885 80.4467 129.038 80.1733 129.038 79.84C129.038 79.48 128.852 79.2133 128.478 79.04C128.118 78.8533 127.538 78.6533 126.738 78.44C125.912 78.24 125.232 78.0333 124.698 77.82C124.178 77.6067 123.725 77.28 123.338 76.84C122.965 76.4 122.778 75.8067 122.778 75.06C122.778 74.4467 122.952 73.8867 123.298 73.38C123.658 72.8733 124.165 72.4733 124.818 72.18C125.485 71.8867 126.265 71.74 127.158 71.74C128.478 71.74 129.532 72.0733 130.318 72.74C131.105 73.3933 131.538 74.28 131.618 75.4H128.938C128.898 74.96 128.712 74.6133 128.378 74.36C128.058 74.0933 127.625 73.96 127.078 73.96C126.572 73.96 126.178 74.0533 125.898 74.24C125.632 74.4267 125.498 74.6867 125.498 75.02C125.498 75.3933 125.685 75.68 126.058 75.88C126.432 76.0667 127.012 76.26 127.798 76.46C128.598 76.66 129.258 76.8667 129.778 77.08C130.298 77.2933 130.745 77.6267 131.118 78.08C131.505 78.52 131.705 79.1067 131.718 79.84C131.718 80.48 131.538 81.0533 131.178 81.56C130.832 82.0667 130.325 82.4667 129.658 82.76C129.005 83.04 128.238 83.18 127.358 83.18ZM143.862 74.22H141.922V83H139.082V74.22H137.822V71.92H139.082V71.36C139.082 70 139.469 69 140.242 68.36C141.016 67.72 142.182 67.42 143.742 67.46V69.82C143.062 69.8067 142.589 69.92 142.322 70.16C142.056 70.4 141.922 70.8333 141.922 71.46V71.92H143.862V74.22ZM150.597 83.18C149.53 83.18 148.57 82.9467 147.717 82.48C146.864 82 146.19 81.3267 145.697 80.46C145.217 79.5933 144.977 78.5933 144.977 77.46C144.977 76.3267 145.224 75.3267 145.717 74.46C146.224 73.5933 146.91 72.9267 147.777 72.46C148.644 71.98 149.61 71.74 150.677 71.74C151.744 71.74 152.71 71.98 153.577 72.46C154.444 72.9267 155.124 73.5933 155.617 74.46C156.124 75.3267 156.377 76.3267 156.377 77.46C156.377 78.5933 156.117 79.5933 155.597 80.46C155.09 81.3267 154.397 82 153.517 82.48C152.65 82.9467 151.677 83.18 150.597 83.18ZM150.597 80.74C151.104 80.74 151.577 80.62 152.017 80.38C152.47 80.1267 152.83 79.7533 153.097 79.26C153.364 78.7667 153.497 78.1667 153.497 77.46C153.497 76.4067 153.217 75.6 152.657 75.04C152.11 74.4667 151.437 74.18 150.637 74.18C149.837 74.18 149.164 74.4667 148.617 75.04C148.084 75.6 147.817 76.4067 147.817 77.46C147.817 78.5133 148.077 79.3267 148.597 79.9C149.13 80.46 149.797 80.74 150.597 80.74ZM161.231 73.64C161.591 73.0533 162.057 72.5933 162.631 72.26C163.217 71.9267 163.884 71.76 164.631 71.76V74.7H163.891C163.011 74.7 162.344 74.9067 161.891 75.32C161.451 75.7333 161.231 76.4533 161.231 77.48V83H158.431V71.92H161.231V73.64ZM181.882 71.92L175.022 88.24H172.042L174.442 82.72L170.002 71.92H173.142L176.002 79.66L178.902 71.92H181.882ZM188.312 83.18C187.245 83.18 186.285 82.9467 185.432 82.48C184.578 82 183.905 81.3267 183.412 80.46C182.932 79.5933 182.692 78.5933 182.692 77.46C182.692 76.3267 182.938 75.3267 183.432 74.46C183.938 73.5933 184.625 72.9267 185.492 72.46C186.358 71.98 187.325 71.74 188.392 71.74C189.458 71.74 190.425 71.98 191.292 72.46C192.158 72.9267 192.838 73.5933 193.332 74.46C193.838 75.3267 194.092 76.3267 194.092 77.46C194.092 78.5933 193.832 79.5933 193.312 80.46C192.805 81.3267 192.112 82 191.232 82.48C190.365 82.9467 189.392 83.18 188.312 83.18ZM188.312 80.74C188.818 80.74 189.292 80.62 189.732 80.38C190.185 80.1267 190.545 79.7533 190.812 79.26C191.078 78.7667 191.212 78.1667 191.212 77.46C191.212 76.4067 190.932 75.6 190.372 75.04C189.825 74.4667 189.152 74.18 188.352 74.18C187.552 74.18 186.878 74.4667 186.332 75.04C185.798 75.6 185.532 76.4067 185.532 77.46C185.532 78.5133 185.792 79.3267 186.312 79.9C186.845 80.46 187.512 80.74 188.312 80.74ZM206.606 71.92V83H203.786V81.6C203.426 82.08 202.952 82.46 202.366 82.74C201.792 83.0067 201.166 83.14 200.486 83.14C199.619 83.14 198.852 82.96 198.186 82.6C197.519 82.2267 196.992 81.6867 196.606 80.98C196.232 80.26 196.046 79.4067 196.046 78.42V71.92H198.846V78.02C198.846 78.9 199.066 79.58 199.506 80.06C199.946 80.5267 200.546 80.76 201.306 80.76C202.079 80.76 202.686 80.5267 203.126 80.06C203.566 79.58 203.786 78.9 203.786 78.02V71.92H206.606ZM212.168 73.64C212.528 73.0533 212.995 72.5933 213.568 72.26C214.155 71.9267 214.822 71.76 215.568 71.76V74.7H214.828C213.948 74.7 213.282 74.9067 212.828 75.32C212.388 75.7333 212.168 76.4533 212.168 77.48V83H209.368V71.92H212.168V73.64ZM221.5 77.46C221.5 76.3133 221.733 75.3133 222.2 74.46C222.667 73.5933 223.313 72.9267 224.14 72.46C224.967 71.98 225.913 71.74 226.98 71.74C228.353 71.74 229.487 72.0867 230.38 72.78C231.287 73.46 231.893 74.42 232.2 75.66H229.18C229.02 75.18 228.747 74.8067 228.36 74.54C227.987 74.26 227.52 74.12 226.96 74.12C226.16 74.12 225.527 74.4133 225.06 75C224.593 75.5733 224.36 76.3933 224.36 77.46C224.36 78.5133 224.593 79.3333 225.06 79.92C225.527 80.4933 226.16 80.78 226.96 80.78C228.093 80.78 228.833 80.2733 229.18 79.26H232.2C231.893 80.46 231.287 81.4133 230.38 82.12C229.473 82.8267 228.34 83.18 226.98 83.18C225.913 83.18 224.967 82.9467 224.14 82.48C223.313 82 222.667 81.3333 222.2 80.48C221.733 79.6133 221.5 78.6067 221.5 77.46ZM239.171 83.18C238.104 83.18 237.144 82.9467 236.291 82.48C235.438 82 234.764 81.3267 234.271 80.46C233.791 79.5933 233.551 78.5933 233.551 77.46C233.551 76.3267 233.798 75.3267 234.291 74.46C234.798 73.5933 235.484 72.9267 236.351 72.46C237.218 71.98 238.184 71.74 239.251 71.74C240.318 71.74 241.284 71.98 242.151 72.46C243.018 72.9267 243.698 73.5933 244.191 74.46C244.698 75.3267 244.951 76.3267 244.951 77.46C244.951 78.5933 244.691 79.5933 244.171 80.46C243.664 81.3267 242.971 82 242.091 82.48C241.224 82.9467 240.251 83.18 239.171 83.18ZM239.171 80.74C239.678 80.74 240.151 80.62 240.591 80.38C241.044 80.1267 241.404 79.7533 241.671 79.26C241.938 78.7667 242.071 78.1667 242.071 77.46C242.071 76.4067 241.791 75.6 241.231 75.04C240.684 74.4667 240.011 74.18 239.211 74.18C238.411 74.18 237.738 74.4667 237.191 75.04C236.658 75.6 236.391 76.4067 236.391 77.46C236.391 78.5133 236.651 79.3267 237.171 79.9C237.704 80.46 238.371 80.74 239.171 80.74ZM260.765 71.76C262.125 71.76 263.218 72.18 264.045 73.02C264.885 73.8467 265.305 75.0067 265.305 76.5V83H262.505V76.88C262.505 76.0133 262.285 75.3533 261.845 74.9C261.405 74.4333 260.805 74.2 260.045 74.2C259.285 74.2 258.678 74.4333 258.225 74.9C257.785 75.3533 257.565 76.0133 257.565 76.88V83H254.765V76.88C254.765 76.0133 254.545 75.3533 254.105 74.9C253.665 74.4333 253.065 74.2 252.305 74.2C251.532 74.2 250.918 74.4333 250.465 74.9C250.025 75.3533 249.805 76.0133 249.805 76.88V83H247.005V71.92H249.805V73.26C250.165 72.7933 250.625 72.4267 251.185 72.16C251.758 71.8933 252.385 71.76 253.065 71.76C253.932 71.76 254.705 71.9467 255.385 72.32C256.065 72.68 256.592 73.2 256.965 73.88C257.325 73.24 257.845 72.7267 258.525 72.34C259.218 71.9533 259.965 71.76 260.765 71.76ZM270.762 73.52C271.122 73.0133 271.615 72.5933 272.242 72.26C272.882 71.9133 273.609 71.74 274.422 71.74C275.369 71.74 276.222 71.9733 276.982 72.44C277.755 72.9067 278.362 73.5733 278.802 74.44C279.255 75.2933 279.482 76.2867 279.482 77.42C279.482 78.5533 279.255 79.56 278.802 80.44C278.362 81.3067 277.755 81.98 276.982 82.46C276.222 82.94 275.369 83.18 274.422 83.18C273.609 83.18 272.889 83.0133 272.262 82.68C271.649 82.3467 271.149 81.9267 270.762 81.42V88.28H267.962V71.92H270.762V73.52ZM276.622 77.42C276.622 76.7533 276.482 76.18 276.202 75.7C275.935 75.2067 275.575 74.8333 275.122 74.58C274.682 74.3267 274.202 74.2 273.682 74.2C273.175 74.2 272.695 74.3333 272.242 74.6C271.802 74.8533 271.442 75.2267 271.162 75.72C270.895 76.2133 270.762 76.7933 270.762 77.46C270.762 78.1267 270.895 78.7067 271.162 79.2C271.442 79.6933 271.802 80.0733 272.242 80.34C272.695 80.5933 273.175 80.72 273.682 80.72C274.202 80.72 274.682 80.5867 275.122 80.32C275.575 80.0533 275.935 79.6733 276.202 79.18C276.482 78.6867 276.622 78.1 276.622 77.42ZM280.797 77.42C280.797 76.3 281.017 75.3067 281.457 74.44C281.91 73.5733 282.517 72.9067 283.277 72.44C284.05 71.9733 284.91 71.74 285.857 71.74C286.683 71.74 287.403 71.9067 288.017 72.24C288.643 72.5733 289.143 72.9933 289.517 73.5V71.92H292.337V83H289.517V81.38C289.157 81.9 288.657 82.3333 288.017 82.68C287.39 83.0133 286.663 83.18 285.837 83.18C284.903 83.18 284.05 82.94 283.277 82.46C282.517 81.98 281.91 81.3067 281.457 80.44C281.017 79.56 280.797 78.5533 280.797 77.42ZM289.517 77.46C289.517 76.78 289.383 76.2 289.117 75.72C288.85 75.2267 288.49 74.8533 288.037 74.6C287.583 74.3333 287.097 74.2 286.577 74.2C286.057 74.2 285.577 74.3267 285.137 74.58C284.697 74.8333 284.337 75.2067 284.057 75.7C283.79 76.18 283.657 76.7533 283.657 77.42C283.657 78.0867 283.79 78.6733 284.057 79.18C284.337 79.6733 284.697 80.0533 285.137 80.32C285.59 80.5867 286.07 80.72 286.577 80.72C287.097 80.72 287.583 80.5933 288.037 80.34C288.49 80.0733 288.85 79.7 289.117 79.22C289.383 78.7267 289.517 78.14 289.517 77.46ZM301.211 71.76C302.531 71.76 303.598 72.18 304.411 73.02C305.225 73.8467 305.631 75.0067 305.631 76.5V83H302.831V76.88C302.831 76 302.611 75.3267 302.171 74.86C301.731 74.38 301.131 74.14 300.371 74.14C299.598 74.14 298.985 74.38 298.531 74.86C298.091 75.3267 297.871 76 297.871 76.88V83H295.071V71.92H297.871V73.3C298.245 72.82 298.718 72.4467 299.291 72.18C299.878 71.9 300.518 71.76 301.211 71.76ZM318.894 71.92L312.034 88.24H309.054L311.454 82.72L307.014 71.92H310.154L313.014 79.66L315.914 71.92H318.894ZM323.463 80.06L321.123 85.68H319.323L320.623 80.06H323.463ZM335.167 83.18C334.101 83.18 333.141 82.9467 332.287 82.48C331.434 82 330.761 81.3267 330.267 80.46C329.787 79.5933 329.547 78.5933 329.547 77.46C329.547 76.3267 329.794 75.3267 330.287 74.46C330.794 73.5933 331.481 72.9267 332.347 72.46C333.214 71.98 334.181 71.74 335.247 71.74C336.314 71.74 337.281 71.98 338.147 72.46C339.014 72.9267 339.694 73.5933 340.187 74.46C340.694 75.3267 340.947 76.3267 340.947 77.46C340.947 78.5933 340.687 79.5933 340.167 80.46C339.661 81.3267 338.967 82 338.087 82.48C337.221 82.9467 336.247 83.18 335.167 83.18ZM335.167 80.74C335.674 80.74 336.147 80.62 336.587 80.38C337.041 80.1267 337.401 79.7533 337.667 79.26C337.934 78.7667 338.067 78.1667 338.067 77.46C338.067 76.4067 337.787 75.6 337.227 75.04C336.681 74.4667 336.007 74.18 335.207 74.18C334.407 74.18 333.734 74.4667 333.187 75.04C332.654 75.6 332.387 76.4067 332.387 77.46C332.387 78.5133 332.647 79.3267 333.167 79.9C333.701 80.46 334.367 80.74 335.167 80.74ZM353.461 71.92V83H350.641V81.6C350.281 82.08 349.808 82.46 349.221 82.74C348.648 83.0067 348.021 83.14 347.341 83.14C346.474 83.14 345.708 82.96 345.041 82.6C344.374 82.2267 343.848 81.6867 343.461 80.98C343.088 80.26 342.901 79.4067 342.901 78.42V71.92H345.701V78.02C345.701 78.9 345.921 79.58 346.361 80.06C346.801 80.5267 347.401 80.76 348.161 80.76C348.934 80.76 349.541 80.5267 349.981 80.06C350.421 79.58 350.641 78.9 350.641 78.02V71.92H353.461ZM359.024 73.64C359.384 73.0533 359.85 72.5933 360.424 72.26C361.01 71.9267 361.677 71.76 362.424 71.76V74.7H361.684C360.804 74.7 360.137 74.9067 359.684 75.32C359.244 75.7333 359.024 76.4533 359.024 77.48V83H356.224V71.92H359.024V73.64ZM51.68 100.22C51.68 100.62 51.6533 100.98 51.6 101.3H43.5C43.5667 102.1 43.8467 102.727 44.34 103.18C44.8333 103.633 45.44 103.86 46.16 103.86C47.2 103.86 47.94 103.413 48.38 102.52H51.4C51.08 103.587 50.4667 104.467 49.56 105.16C48.6533 105.84 47.54 106.18 46.22 106.18C45.1533 106.18 44.1933 105.947 43.34 105.48C42.5 105 41.84 104.327 41.36 103.46C40.8933 102.593 40.66 101.593 40.66 100.46C40.66 99.3133 40.8933 98.3067 41.36 97.44C41.8267 96.5733 42.48 95.9067 43.32 95.44C44.16 94.9733 45.1267 94.74 46.22 94.74C47.2733 94.74 48.2133 94.9667 49.04 95.42C49.88 95.8733 50.5267 96.52 50.98 97.36C51.4467 98.1867 51.68 99.14 51.68 100.22ZM48.78 99.42C48.7667 98.7 48.5067 98.1267 48 97.7C47.4933 97.26 46.8733 97.04 46.14 97.04C45.4467 97.04 44.86 97.2533 44.38 97.68C43.9133 98.0933 43.6267 98.6733 43.52 99.42H48.78ZM59.8438 106L57.5638 102.56L55.5438 106H52.5438L56.1638 100.44L52.5038 94.92H55.6638L57.9238 98.34L59.9638 94.92H62.9638L59.3238 100.44L63.0038 106H59.8438ZM67.3245 96.52C67.6845 96.0133 68.1779 95.5933 68.8045 95.26C69.4445 94.9133 70.1712 94.74 70.9845 94.74C71.9312 94.74 72.7845 94.9733 73.5445 95.44C74.3179 95.9067 74.9245 96.5733 75.3645 97.44C75.8179 98.2933 76.0445 99.2867 76.0445 100.42C76.0445 101.553 75.8179 102.56 75.3645 103.44C74.9245 104.307 74.3179 104.98 73.5445 105.46C72.7845 105.94 71.9312 106.18 70.9845 106.18C70.1712 106.18 69.4512 106.013 68.8245 105.68C68.2112 105.347 67.7112 104.927 67.3245 104.42V111.28H64.5245V94.92H67.3245V96.52ZM73.1845 100.42C73.1845 99.7533 73.0445 99.18 72.7645 98.7C72.4979 98.2067 72.1379 97.8333 71.6845 97.58C71.2445 97.3267 70.7645 97.2 70.2445 97.2C69.7379 97.2 69.2579 97.3333 68.8045 97.6C68.3645 97.8533 68.0045 98.2267 67.7245 98.72C67.4579 99.2133 67.3245 99.7933 67.3245 100.46C67.3245 101.127 67.4579 101.707 67.7245 102.2C68.0045 102.693 68.3645 103.073 68.8045 103.34C69.2579 103.593 69.7379 103.72 70.2445 103.72C70.7645 103.72 71.2445 103.587 71.6845 103.32C72.1379 103.053 72.4979 102.673 72.7645 102.18C73.0445 101.687 73.1845 101.1 73.1845 100.42ZM88.3792 100.22C88.3792 100.62 88.3526 100.98 88.2992 101.3H80.1992C80.2659 102.1 80.5459 102.727 81.0392 103.18C81.5326 103.633 82.1392 103.86 82.8592 103.86C83.8992 103.86 84.6392 103.413 85.0792 102.52H88.0992C87.7792 103.587 87.1659 104.467 86.2592 105.16C85.3526 105.84 84.2392 106.18 82.9192 106.18C81.8526 106.18 80.8926 105.947 80.0392 105.48C79.1992 105 78.5392 104.327 78.0592 103.46C77.5926 102.593 77.3592 101.593 77.3592 100.46C77.3592 99.3133 77.5926 98.3067 78.0592 97.44C78.5259 96.5733 79.1792 95.9067 80.0192 95.44C80.8592 94.9733 81.8259 94.74 82.9192 94.74C83.9726 94.74 84.9126 94.9667 85.7392 95.42C86.5792 95.8733 87.2259 96.52 87.6792 97.36C88.1459 98.1867 88.3792 99.14 88.3792 100.22ZM85.4792 99.42C85.4659 98.7 85.2059 98.1267 84.6992 97.7C84.1926 97.26 83.5726 97.04 82.8392 97.04C82.1459 97.04 81.5592 97.2533 81.0792 97.68C80.6126 98.0933 80.3259 98.6733 80.2192 99.42H85.4792ZM93.223 96.64C93.583 96.0533 94.0496 95.5933 94.623 95.26C95.2096 94.9267 95.8763 94.76 96.623 94.76V97.7H95.883C95.003 97.7 94.3363 97.9067 93.883 98.32C93.443 98.7333 93.223 99.4533 93.223 100.48V106H90.423V94.92H93.223V96.64ZM101.769 97.22V102.58C101.769 102.953 101.856 103.227 102.029 103.4C102.216 103.56 102.522 103.64 102.949 103.64H104.249V106H102.489C100.129 106 98.9489 104.853 98.9489 102.56V97.22H97.6289V94.92H98.9489V92.18H101.769V94.92H104.249V97.22H101.769ZM114.288 97.22V102.58C114.288 102.953 114.375 103.227 114.548 103.4C114.735 103.56 115.042 103.64 115.468 103.64H116.768V106H115.008C112.648 106 111.468 104.853 111.468 102.56V97.22H110.148V94.92H111.468V92.18H114.288V94.92H116.768V97.22H114.288ZM129.082 100.22C129.082 100.62 129.056 100.98 129.002 101.3H120.902C120.969 102.1 121.249 102.727 121.742 103.18C122.236 103.633 122.842 103.86 123.562 103.86C124.602 103.86 125.342 103.413 125.782 102.52H128.802C128.482 103.587 127.869 104.467 126.962 105.16C126.056 105.84 124.942 106.18 123.622 106.18C122.556 106.18 121.596 105.947 120.742 105.48C119.902 105 119.242 104.327 118.762 103.46C118.296 102.593 118.062 101.593 118.062 100.46C118.062 99.3133 118.296 98.3067 118.762 97.44C119.229 96.5733 119.882 95.9067 120.722 95.44C121.562 94.9733 122.529 94.74 123.622 94.74C124.676 94.74 125.616 94.9667 126.442 95.42C127.282 95.8733 127.929 96.52 128.382 97.36C128.849 98.1867 129.082 99.14 129.082 100.22ZM126.182 99.42C126.169 98.7 125.909 98.1267 125.402 97.7C124.896 97.26 124.276 97.04 123.542 97.04C122.849 97.04 122.262 97.2533 121.782 97.68C121.316 98.0933 121.029 98.6733 120.922 99.42H126.182ZM130.406 100.42C130.406 99.3 130.626 98.3067 131.066 97.44C131.519 96.5733 132.126 95.9067 132.886 95.44C133.659 94.9733 134.519 94.74 135.466 94.74C136.293 94.74 137.013 94.9067 137.626 95.24C138.253 95.5733 138.753 95.9933 139.126 96.5V94.92H141.946V106H139.126V104.38C138.766 104.9 138.266 105.333 137.626 105.68C136.999 106.013 136.273 106.18 135.446 106.18C134.513 106.18 133.659 105.94 132.886 105.46C132.126 104.98 131.519 104.307 131.066 103.44C130.626 102.56 130.406 101.553 130.406 100.42ZM139.126 100.46C139.126 99.78 138.993 99.2 138.726 98.72C138.459 98.2267 138.099 97.8533 137.646 97.6C137.193 97.3333 136.706 97.2 136.186 97.2C135.666 97.2 135.186 97.3267 134.746 97.58C134.306 97.8333 133.946 98.2067 133.666 98.7C133.399 99.18 133.266 99.7533 133.266 100.42C133.266 101.087 133.399 101.673 133.666 102.18C133.946 102.673 134.306 103.053 134.746 103.32C135.199 103.587 135.679 103.72 136.186 103.72C136.706 103.72 137.193 103.593 137.646 103.34C138.099 103.073 138.459 102.7 138.726 102.22C138.993 101.727 139.126 101.14 139.126 100.46ZM158.441 94.76C159.801 94.76 160.894 95.18 161.721 96.02C162.561 96.8467 162.981 98.0067 162.981 99.5V106H160.181V99.88C160.181 99.0133 159.961 98.3533 159.521 97.9C159.081 97.4333 158.481 97.2 157.721 97.2C156.961 97.2 156.354 97.4333 155.901 97.9C155.461 98.3533 155.241 99.0133 155.241 99.88V106H152.441V99.88C152.441 99.0133 152.221 98.3533 151.781 97.9C151.341 97.4333 150.741 97.2 149.981 97.2C149.207 97.2 148.594 97.4333 148.141 97.9C147.701 98.3533 147.481 99.0133 147.481 99.88V106H144.681V94.92H147.481V96.26C147.841 95.7933 148.301 95.4267 148.861 95.16C149.434 94.8933 150.061 94.76 150.741 94.76C151.607 94.76 152.381 94.9467 153.061 95.32C153.741 95.68 154.267 96.2 154.641 96.88C155.001 96.24 155.521 95.7267 156.201 95.34C156.894 94.9533 157.641 94.76 158.441 94.76ZM169.683 100.42C169.683 99.3 169.903 98.3067 170.343 97.44C170.797 96.5733 171.41 95.9067 172.183 95.44C172.957 94.9733 173.817 94.74 174.763 94.74C175.483 94.74 176.17 94.9 176.823 95.22C177.477 95.5267 177.997 95.94 178.383 96.46V91.2H181.223V106H178.383V104.36C178.037 104.907 177.55 105.347 176.923 105.68C176.297 106.013 175.57 106.18 174.743 106.18C173.81 106.18 172.957 105.94 172.183 105.46C171.41 104.98 170.797 104.307 170.343 103.44C169.903 102.56 169.683 101.553 169.683 100.42ZM178.403 100.46C178.403 99.78 178.27 99.2 178.003 98.72C177.737 98.2267 177.377 97.8533 176.923 97.6C176.47 97.3333 175.983 97.2 175.463 97.2C174.943 97.2 174.463 97.3267 174.023 97.58C173.583 97.8333 173.223 98.2067 172.943 98.7C172.677 99.18 172.543 99.7533 172.543 100.42C172.543 101.087 172.677 101.673 172.943 102.18C173.223 102.673 173.583 103.053 174.023 103.32C174.477 103.587 174.957 103.72 175.463 103.72C175.983 103.72 176.47 103.593 176.923 103.34C177.377 103.073 177.737 102.7 178.003 102.22C178.27 101.727 178.403 101.14 178.403 100.46ZM194.258 100.22C194.258 100.62 194.231 100.98 194.178 101.3H186.078C186.145 102.1 186.425 102.727 186.918 103.18C187.411 103.633 188.018 103.86 188.738 103.86C189.778 103.86 190.518 103.413 190.958 102.52H193.978C193.658 103.587 193.045 104.467 192.138 105.16C191.231 105.84 190.118 106.18 188.798 106.18C187.731 106.18 186.771 105.947 185.918 105.48C185.078 105 184.418 104.327 183.938 103.46C183.471 102.593 183.238 101.593 183.238 100.46C183.238 99.3133 183.471 98.3067 183.938 97.44C184.405 96.5733 185.058 95.9067 185.898 95.44C186.738 94.9733 187.705 94.74 188.798 94.74C189.851 94.74 190.791 94.9667 191.618 95.42C192.458 95.8733 193.105 96.52 193.558 97.36C194.025 98.1867 194.258 99.14 194.258 100.22ZM191.358 99.42C191.345 98.7 191.085 98.1267 190.578 97.7C190.071 97.26 189.451 97.04 188.718 97.04C188.025 97.04 187.438 97.2533 186.958 97.68C186.491 98.0933 186.205 98.6733 186.098 99.42H191.358ZM199.102 91.2V106H196.302V91.2H199.102ZM203.288 93.6C202.795 93.6 202.382 93.4467 202.048 93.14C201.728 92.82 201.568 92.4267 201.568 91.96C201.568 91.4933 201.728 91.1067 202.048 90.8C202.382 90.48 202.795 90.32 203.288 90.32C203.782 90.32 204.188 90.48 204.508 90.8C204.842 91.1067 205.008 91.4933 205.008 91.96C205.008 92.4267 204.842 92.82 204.508 93.14C204.188 93.4467 203.782 93.6 203.288 93.6ZM204.668 94.92V106H201.868V94.92H204.668ZM212.055 103.42L214.855 94.92H217.835L213.735 106H210.335L206.255 94.92H209.255L212.055 103.42ZM229.707 100.22C229.707 100.62 229.681 100.98 229.627 101.3H221.527C221.594 102.1 221.874 102.727 222.367 103.18C222.861 103.633 223.467 103.86 224.187 103.86C225.227 103.86 225.967 103.413 226.407 102.52H229.427C229.107 103.587 228.494 104.467 227.587 105.16C226.681 105.84 225.567 106.18 224.247 106.18C223.181 106.18 222.221 105.947 221.367 105.48C220.527 105 219.867 104.327 219.387 103.46C218.921 102.593 218.687 101.593 218.687 100.46C218.687 99.3133 218.921 98.3067 219.387 97.44C219.854 96.5733 220.507 95.9067 221.347 95.44C222.187 94.9733 223.154 94.74 224.247 94.74C225.301 94.74 226.241 94.9667 227.067 95.42C227.907 95.8733 228.554 96.52 229.007 97.36C229.474 98.1867 229.707 99.14 229.707 100.22ZM226.807 99.42C226.794 98.7 226.534 98.1267 226.027 97.7C225.521 97.26 224.901 97.04 224.167 97.04C223.474 97.04 222.887 97.2533 222.407 97.68C221.941 98.0933 221.654 98.6733 221.547 99.42H226.807ZM234.551 96.64C234.911 96.0533 235.378 95.5933 235.951 95.26C236.538 94.9267 237.204 94.76 237.951 94.76V97.7H237.211C236.331 97.7 235.664 97.9067 235.211 98.32C234.771 98.7333 234.551 99.4533 234.551 100.48V106H231.751V94.92H234.551V96.64ZM244.077 106.18C243.17 106.18 242.357 106.02 241.637 105.7C240.917 105.367 240.344 104.92 239.917 104.36C239.504 103.8 239.277 103.18 239.237 102.5H242.057C242.11 102.927 242.317 103.28 242.677 103.56C243.05 103.84 243.51 103.98 244.057 103.98C244.59 103.98 245.004 103.873 245.297 103.66C245.604 103.447 245.757 103.173 245.757 102.84C245.757 102.48 245.57 102.213 245.197 102.04C244.837 101.853 244.257 101.653 243.457 101.44C242.63 101.24 241.95 101.033 241.417 100.82C240.897 100.607 240.444 100.28 240.057 99.84C239.684 99.4 239.497 98.8067 239.497 98.06C239.497 97.4467 239.67 96.8867 240.017 96.38C240.377 95.8733 240.884 95.4733 241.537 95.18C242.204 94.8867 242.984 94.74 243.877 94.74C245.197 94.74 246.25 95.0733 247.037 95.74C247.824 96.3933 248.257 97.28 248.337 98.4H245.657C245.617 97.96 245.43 97.6133 245.097 97.36C244.777 97.0933 244.344 96.96 243.797 96.96C243.29 96.96 242.897 97.0533 242.617 97.24C242.35 97.4267 242.217 97.6867 242.217 98.02C242.217 98.3933 242.404 98.68 242.777 98.88C243.15 99.0667 243.73 99.26 244.517 99.46C245.317 99.66 245.977 99.8667 246.497 100.08C247.017 100.293 247.464 100.627 247.837 101.08C248.224 101.52 248.424 102.107 248.437 102.84C248.437 103.48 248.257 104.053 247.897 104.56C247.55 105.067 247.044 105.467 246.377 105.76C245.724 106.04 244.957 106.18 244.077 106.18ZM256.921 93.6C256.428 93.6 256.014 93.4467 255.681 93.14C255.361 92.82 255.201 92.4267 255.201 91.96C255.201 91.4933 255.361 91.1067 255.681 90.8C256.014 90.48 256.428 90.32 256.921 90.32C257.414 90.32 257.821 90.48 258.141 90.8C258.474 91.1067 258.641 91.4933 258.641 91.96C258.641 92.4267 258.474 92.82 258.141 93.14C257.821 93.4467 257.414 93.6 256.921 93.6ZM258.301 94.92V106H255.501V94.92H258.301ZM267.208 94.76C268.528 94.76 269.594 95.18 270.408 96.02C271.221 96.8467 271.628 98.0067 271.628 99.5V106H268.828V99.88C268.828 99 268.608 98.3267 268.168 97.86C267.728 97.38 267.128 97.14 266.368 97.14C265.594 97.14 264.981 97.38 264.528 97.86C264.088 98.3267 263.868 99 263.868 99.88V106H261.068V94.92H263.868V96.3C264.241 95.82 264.714 95.4467 265.288 95.18C265.874 94.9 266.514 94.76 267.208 94.76ZM280.43 94.76C281.75 94.76 282.817 95.18 283.63 96.02C284.443 96.8467 284.85 98.0067 284.85 99.5V106H282.05V99.88C282.05 99 281.83 98.3267 281.39 97.86C280.95 97.38 280.35 97.14 279.59 97.14C278.817 97.14 278.203 97.38 277.75 97.86C277.31 98.3267 277.09 99 277.09 99.88V106H274.29V94.92H277.09V96.3C277.463 95.82 277.937 95.4467 278.51 95.18C279.097 94.9 279.737 94.76 280.43 94.76ZM292.433 106.18C291.366 106.18 290.406 105.947 289.553 105.48C288.699 105 288.026 104.327 287.533 103.46C287.053 102.593 286.813 101.593 286.813 100.46C286.813 99.3267 287.059 98.3267 287.553 97.46C288.059 96.5933 288.746 95.9267 289.613 95.46C290.479 94.98 291.446 94.74 292.513 94.74C293.579 94.74 294.546 94.98 295.413 95.46C296.279 95.9267 296.959 96.5933 297.453 97.46C297.959 98.3267 298.213 99.3267 298.213 100.46C298.213 101.593 297.953 102.593 297.433 103.46C296.926 104.327 296.233 105 295.353 105.48C294.486 105.947 293.513 106.18 292.433 106.18ZM292.433 103.74C292.939 103.74 293.413 103.62 293.853 103.38C294.306 103.127 294.666 102.753 294.933 102.26C295.199 101.767 295.333 101.167 295.333 100.46C295.333 99.4067 295.053 98.6 294.493 98.04C293.946 97.4667 293.273 97.18 292.473 97.18C291.673 97.18 290.999 97.4667 290.453 98.04C289.919 98.6 289.653 99.4067 289.653 100.46C289.653 101.513 289.913 102.327 290.433 102.9C290.966 103.46 291.633 103.74 292.433 103.74ZM304.887 103.42L307.687 94.92H310.667L306.567 106H303.167L299.087 94.92H302.087L304.887 103.42ZM311.519 100.42C311.519 99.3 311.739 98.3067 312.179 97.44C312.633 96.5733 313.239 95.9067 313.999 95.44C314.773 94.9733 315.633 94.74 316.579 94.74C317.406 94.74 318.126 94.9067 318.739 95.24C319.366 95.5733 319.866 95.9933 320.239 96.5V94.92H323.059V106H320.239V104.38C319.879 104.9 319.379 105.333 318.739 105.68C318.113 106.013 317.386 106.18 316.559 106.18C315.626 106.18 314.773 105.94 313.999 105.46C313.239 104.98 312.633 104.307 312.179 103.44C311.739 102.56 311.519 101.553 311.519 100.42ZM320.239 100.46C320.239 99.78 320.106 99.2 319.839 98.72C319.573 98.2267 319.213 97.8533 318.759 97.6C318.306 97.3333 317.819 97.2 317.299 97.2C316.779 97.2 316.299 97.3267 315.859 97.58C315.419 97.8333 315.059 98.2067 314.779 98.7C314.513 99.18 314.379 99.7533 314.379 100.42C314.379 101.087 314.513 101.673 314.779 102.18C315.059 102.673 315.419 103.053 315.859 103.32C316.313 103.587 316.793 103.72 317.299 103.72C317.819 103.72 318.306 103.593 318.759 103.34C319.213 103.073 319.573 102.7 319.839 102.22C320.106 101.727 320.239 101.14 320.239 100.46ZM329.054 97.22V102.58C329.054 102.953 329.141 103.227 329.314 103.4C329.501 103.56 329.807 103.64 330.234 103.64H331.534V106H329.774C327.414 106 326.234 104.853 326.234 102.56V97.22H324.914V94.92H326.234V92.18H329.054V94.92H331.534V97.22H329.054ZM334.968 93.6C334.475 93.6 334.061 93.4467 333.728 93.14C333.408 92.82 333.248 92.4267 333.248 91.96C333.248 91.4933 333.408 91.1067 333.728 90.8C334.061 90.48 334.475 90.32 334.968 90.32C335.461 90.32 335.868 90.48 336.188 90.8C336.521 91.1067 336.688 91.4933 336.688 91.96C336.688 92.4267 336.521 92.82 336.188 93.14C335.868 93.4467 335.461 93.6 334.968 93.6ZM336.348 94.92V106H333.548V94.92H336.348ZM343.734 103.42L346.534 94.92H349.514L345.414 106H342.014L337.934 94.92H340.934L343.734 103.42ZM361.387 100.22C361.387 100.62 361.36 100.98 361.307 101.3H353.207C353.274 102.1 353.554 102.727 354.047 103.18C354.54 103.633 355.147 103.86 355.867 103.86C356.907 103.86 357.647 103.413 358.087 102.52H361.107C360.787 103.587 360.174 104.467 359.267 105.16C358.36 105.84 357.247 106.18 355.927 106.18C354.86 106.18 353.9 105.947 353.047 105.48C352.207 105 351.547 104.327 351.067 103.46C350.6 102.593 350.367 101.593 350.367 100.46C350.367 99.3133 350.6 98.3067 351.067 97.44C351.534 96.5733 352.187 95.9067 353.027 95.44C353.867 94.9733 354.834 94.74 355.927 94.74C356.98 94.74 357.92 94.9667 358.747 95.42C359.587 95.8733 360.234 96.52 360.687 97.36C361.154 98.1867 361.387 99.14 361.387 100.22ZM358.487 99.42C358.474 98.7 358.214 98.1267 357.707 97.7C357.2 97.26 356.58 97.04 355.847 97.04C355.154 97.04 354.567 97.2533 354.087 97.68C353.62 98.0933 353.334 98.6733 353.227 99.42H358.487ZM45.62 126.18C44.7133 126.18 43.9 126.02 43.18 125.7C42.46 125.367 41.8867 124.92 41.46 124.36C41.0467 123.8 40.82 123.18 40.78 122.5H43.6C43.6533 122.927 43.86 123.28 44.22 123.56C44.5933 123.84 45.0533 123.98 45.6 123.98C46.1333 123.98 46.5467 123.873 46.84 123.66C47.1467 123.447 47.3 123.173 47.3 122.84C47.3 122.48 47.1133 122.213 46.74 122.04C46.38 121.853 45.8 121.653 45 121.44C44.1733 121.24 43.4933 121.033 42.96 120.82C42.44 120.607 41.9867 120.28 41.6 119.84C41.2267 119.4 41.04 118.807 41.04 118.06C41.04 117.447 41.2133 116.887 41.56 116.38C41.92 115.873 42.4267 115.473 43.08 115.18C43.7467 114.887 44.5267 114.74 45.42 114.74C46.74 114.74 47.7933 115.073 48.58 115.74C49.3667 116.393 49.8 117.28 49.88 118.4H47.2C47.16 117.96 46.9733 117.613 46.64 117.36C46.32 117.093 45.8867 116.96 45.34 116.96C44.8333 116.96 44.44 117.053 44.16 117.24C43.8933 117.427 43.76 117.687 43.76 118.02C43.76 118.393 43.9467 118.68 44.32 118.88C44.6933 119.067 45.2733 119.26 46.06 119.46C46.86 119.66 47.52 119.867 48.04 120.08C48.56 120.293 49.0067 120.627 49.38 121.08C49.7667 121.52 49.9667 122.107 49.98 122.84C49.98 123.48 49.8 124.053 49.44 124.56C49.0933 125.067 48.5867 125.467 47.92 125.76C47.2667 126.04 46.5 126.18 45.62 126.18ZM57.1984 126.18C56.1318 126.18 55.1718 125.947 54.3184 125.48C53.4651 125 52.7918 124.327 52.2984 123.46C51.8184 122.593 51.5784 121.593 51.5784 120.46C51.5784 119.327 51.8251 118.327 52.3184 117.46C52.8251 116.593 53.5118 115.927 54.3784 115.46C55.2451 114.98 56.2118 114.74 57.2784 114.74C58.3451 114.74 59.3118 114.98 60.1784 115.46C61.0451 115.927 61.7251 116.593 62.2184 117.46C62.7251 118.327 62.9784 119.327 62.9784 120.46C62.9784 121.593 62.7184 122.593 62.1984 123.46C61.6918 124.327 60.9984 125 60.1184 125.48C59.2518 125.947 58.2784 126.18 57.1984 126.18ZM57.1984 123.74C57.7051 123.74 58.1784 123.62 58.6184 123.38C59.0718 123.127 59.4318 122.753 59.6984 122.26C59.9651 121.767 60.0984 121.167 60.0984 120.46C60.0984 119.407 59.8184 118.6 59.2584 118.04C58.7118 117.467 58.0384 117.18 57.2384 117.18C56.4384 117.18 55.7651 117.467 55.2184 118.04C54.6851 118.6 54.4184 119.407 54.4184 120.46C54.4184 121.513 54.6784 122.327 55.1984 122.9C55.7318 123.46 56.3984 123.74 57.1984 123.74ZM67.8323 111.2V126H65.0323V111.2H67.8323ZM81.0588 114.92V126H78.2388V124.6C77.8788 125.08 77.4054 125.46 76.8188 125.74C76.2454 126.007 75.6188 126.14 74.9388 126.14C74.0721 126.14 73.3054 125.96 72.6388 125.6C71.9721 125.227 71.4454 124.687 71.0588 123.98C70.6854 123.26 70.4988 122.407 70.4988 121.42V114.92H73.2988V121.02C73.2988 121.9 73.5188 122.58 73.9588 123.06C74.3988 123.527 74.9988 123.76 75.7588 123.76C76.5321 123.76 77.1388 123.527 77.5788 123.06C78.0188 122.58 78.2388 121.9 78.2388 121.02V114.92H81.0588ZM87.0814 117.22V122.58C87.0814 122.953 87.1681 123.227 87.3414 123.4C87.5281 123.56 87.8347 123.64 88.2614 123.64H89.5614V126H87.8014C85.4414 126 84.2614 124.853 84.2614 122.56V117.22H82.9414V114.92H84.2614V112.18H87.0814V114.92H89.5614V117.22H87.0814ZM92.9953 113.6C92.502 113.6 92.0886 113.447 91.7553 113.14C91.4353 112.82 91.2753 112.427 91.2753 111.96C91.2753 111.493 91.4353 111.107 91.7553 110.8C92.0886 110.48 92.502 110.32 92.9953 110.32C93.4886 110.32 93.8953 110.48 94.2153 110.8C94.5486 111.107 94.7153 111.493 94.7153 111.96C94.7153 112.427 94.5486 112.82 94.2153 113.14C93.8953 113.447 93.4886 113.6 92.9953 113.6ZM94.3753 114.92V126H91.5753V114.92H94.3753ZM102.062 126.18C100.995 126.18 100.035 125.947 99.1817 125.48C98.3284 125 97.6551 124.327 97.1617 123.46C96.6817 122.593 96.4417 121.593 96.4417 120.46C96.4417 119.327 96.6884 118.327 97.1817 117.46C97.6884 116.593 98.3751 115.927 99.2417 115.46C100.108 114.98 101.075 114.74 102.142 114.74C103.208 114.74 104.175 114.98 105.042 115.46C105.908 115.927 106.588 116.593 107.082 117.46C107.588 118.327 107.842 119.327 107.842 120.46C107.842 121.593 107.582 122.593 107.062 123.46C106.555 124.327 105.862 125 104.982 125.48C104.115 125.947 103.142 126.18 102.062 126.18ZM102.062 123.74C102.568 123.74 103.042 123.62 103.482 123.38C103.935 123.127 104.295 122.753 104.562 122.26C104.828 121.767 104.962 121.167 104.962 120.46C104.962 119.407 104.682 118.6 104.122 118.04C103.575 117.467 102.902 117.18 102.102 117.18C101.302 117.18 100.628 117.467 100.082 118.04C99.5484 118.6 99.2817 119.407 99.2817 120.46C99.2817 121.513 99.5417 122.327 100.062 122.9C100.595 123.46 101.262 123.74 102.062 123.74ZM116.036 114.76C117.356 114.76 118.422 115.18 119.236 116.02C120.049 116.847 120.456 118.007 120.456 119.5V126H117.656V119.88C117.656 119 117.436 118.327 116.996 117.86C116.556 117.38 115.956 117.14 115.196 117.14C114.422 117.14 113.809 117.38 113.356 117.86C112.916 118.327 112.696 119 112.696 119.88V126H109.896V114.92H112.696V116.3C113.069 115.82 113.542 115.447 114.116 115.18C114.702 114.9 115.342 114.76 116.036 114.76ZM127.358 126.18C126.452 126.18 125.638 126.02 124.918 125.7C124.198 125.367 123.625 124.92 123.198 124.36C122.785 123.8 122.558 123.18 122.518 122.5H125.338C125.392 122.927 125.598 123.28 125.958 123.56C126.332 123.84 126.792 123.98 127.338 123.98C127.872 123.98 128.285 123.873 128.578 123.66C128.885 123.447 129.038 123.173 129.038 122.84C129.038 122.48 128.852 122.213 128.478 122.04C128.118 121.853 127.538 121.653 126.738 121.44C125.912 121.24 125.232 121.033 124.698 120.82C124.178 120.607 123.725 120.28 123.338 119.84C122.965 119.4 122.778 118.807 122.778 118.06C122.778 117.447 122.952 116.887 123.298 116.38C123.658 115.873 124.165 115.473 124.818 115.18C125.485 114.887 126.265 114.74 127.158 114.74C128.478 114.74 129.532 115.073 130.318 115.74C131.105 116.393 131.538 117.28 131.618 118.4H128.938C128.898 117.96 128.712 117.613 128.378 117.36C128.058 117.093 127.625 116.96 127.078 116.96C126.572 116.96 126.178 117.053 125.898 117.24C125.632 117.427 125.498 117.687 125.498 118.02C125.498 118.393 125.685 118.68 126.058 118.88C126.432 119.067 127.012 119.26 127.798 119.46C128.598 119.66 129.258 119.867 129.778 120.08C130.298 120.293 130.745 120.627 131.118 121.08C131.505 121.52 131.705 122.107 131.718 122.84C131.718 123.48 131.538 124.053 131.178 124.56C130.832 125.067 130.325 125.467 129.658 125.76C129.005 126.04 128.238 126.18 127.358 126.18ZM138.062 120.42C138.062 119.3 138.282 118.307 138.722 117.44C139.176 116.573 139.789 115.907 140.562 115.44C141.336 114.973 142.196 114.74 143.142 114.74C143.862 114.74 144.549 114.9 145.202 115.22C145.856 115.527 146.376 115.94 146.762 116.46V111.2H149.602V126H146.762V124.36C146.416 124.907 145.929 125.347 145.302 125.68C144.676 126.013 143.949 126.18 143.122 126.18C142.189 126.18 141.336 125.94 140.562 125.46C139.789 124.98 139.176 124.307 138.722 123.44C138.282 122.56 138.062 121.553 138.062 120.42ZM146.782 120.46C146.782 119.78 146.649 119.2 146.382 118.72C146.116 118.227 145.756 117.853 145.302 117.6C144.849 117.333 144.362 117.2 143.842 117.2C143.322 117.2 142.842 117.327 142.402 117.58C141.962 117.833 141.602 118.207 141.322 118.7C141.056 119.18 140.922 119.753 140.922 120.42C140.922 121.087 141.056 121.673 141.322 122.18C141.602 122.673 141.962 123.053 142.402 123.32C142.856 123.587 143.336 123.72 143.842 123.72C144.362 123.72 144.849 123.593 145.302 123.34C145.756 123.073 146.116 122.7 146.382 122.22C146.649 121.727 146.782 121.14 146.782 120.46ZM162.637 120.22C162.637 120.62 162.61 120.98 162.557 121.3H154.457C154.524 122.1 154.804 122.727 155.297 123.18C155.79 123.633 156.397 123.86 157.117 123.86C158.157 123.86 158.897 123.413 159.337 122.52H162.357C162.037 123.587 161.424 124.467 160.517 125.16C159.61 125.84 158.497 126.18 157.177 126.18C156.11 126.18 155.15 125.947 154.297 125.48C153.457 125 152.797 124.327 152.317 123.46C151.85 122.593 151.617 121.593 151.617 120.46C151.617 119.313 151.85 118.307 152.317 117.44C152.784 116.573 153.437 115.907 154.277 115.44C155.117 114.973 156.084 114.74 157.177 114.74C158.23 114.74 159.17 114.967 159.997 115.42C160.837 115.873 161.484 116.52 161.937 117.36C162.404 118.187 162.637 119.14 162.637 120.22ZM159.737 119.42C159.724 118.7 159.464 118.127 158.957 117.7C158.45 117.26 157.83 117.04 157.097 117.04C156.404 117.04 155.817 117.253 155.337 117.68C154.87 118.093 154.584 118.673 154.477 119.42H159.737ZM168.921 126.18C168.014 126.18 167.201 126.02 166.481 125.7C165.761 125.367 165.187 124.92 164.761 124.36C164.347 123.8 164.121 123.18 164.081 122.5H166.901C166.954 122.927 167.161 123.28 167.521 123.56C167.894 123.84 168.354 123.98 168.901 123.98C169.434 123.98 169.847 123.873 170.141 123.66C170.447 123.447 170.601 123.173 170.601 122.84C170.601 122.48 170.414 122.213 170.041 122.04C169.681 121.853 169.101 121.653 168.301 121.44C167.474 121.24 166.794 121.033 166.261 120.82C165.741 120.607 165.287 120.28 164.901 119.84C164.527 119.4 164.341 118.807 164.341 118.06C164.341 117.447 164.514 116.887 164.861 116.38C165.221 115.873 165.727 115.473 166.381 115.18C167.047 114.887 167.827 114.74 168.721 114.74C170.041 114.74 171.094 115.073 171.881 115.74C172.667 116.393 173.101 117.28 173.181 118.4H170.501C170.461 117.96 170.274 117.613 169.941 117.36C169.621 117.093 169.187 116.96 168.641 116.96C168.134 116.96 167.741 117.053 167.461 117.24C167.194 117.427 167.061 117.687 167.061 118.02C167.061 118.393 167.247 118.68 167.621 118.88C167.994 119.067 168.574 119.26 169.361 119.46C170.161 119.66 170.821 119.867 171.341 120.08C171.861 120.293 172.307 120.627 172.681 121.08C173.067 121.52 173.267 122.107 173.281 122.84C173.281 123.48 173.101 124.053 172.741 124.56C172.394 125.067 171.887 125.467 171.221 125.76C170.567 126.04 169.801 126.18 168.921 126.18ZM176.999 113.6C176.506 113.6 176.093 113.447 175.759 113.14C175.439 112.82 175.279 112.427 175.279 111.96C175.279 111.493 175.439 111.107 175.759 110.8C176.093 110.48 176.506 110.32 176.999 110.32C177.493 110.32 177.899 110.48 178.219 110.8C178.553 111.107 178.719 111.493 178.719 111.96C178.719 112.427 178.553 112.82 178.219 113.14C177.899 113.447 177.493 113.6 176.999 113.6ZM178.379 114.92V126H175.579V114.92H178.379ZM185.486 114.74C186.312 114.74 187.039 114.907 187.666 115.24C188.292 115.56 188.786 115.98 189.146 116.5V114.92H191.966V126.08C191.966 127.107 191.759 128.02 191.346 128.82C190.932 129.633 190.312 130.273 189.486 130.74C188.659 131.22 187.659 131.46 186.486 131.46C184.912 131.46 183.619 131.093 182.606 130.36C181.606 129.627 181.039 128.627 180.906 127.36H183.686C183.832 127.867 184.146 128.267 184.626 128.56C185.119 128.867 185.712 129.02 186.406 129.02C187.219 129.02 187.879 128.773 188.386 128.28C188.892 127.8 189.146 127.067 189.146 126.08V124.36C188.786 124.88 188.286 125.313 187.646 125.66C187.019 126.007 186.299 126.18 185.486 126.18C184.552 126.18 183.699 125.94 182.926 125.46C182.152 124.98 181.539 124.307 181.086 123.44C180.646 122.56 180.426 121.553 180.426 120.42C180.426 119.3 180.646 118.307 181.086 117.44C181.539 116.573 182.146 115.907 182.906 115.44C183.679 114.973 184.539 114.74 185.486 114.74ZM189.146 120.46C189.146 119.78 189.012 119.2 188.746 118.72C188.479 118.227 188.119 117.853 187.666 117.6C187.212 117.333 186.726 117.2 186.206 117.2C185.686 117.2 185.206 117.327 184.766 117.58C184.326 117.833 183.966 118.207 183.686 118.7C183.419 119.18 183.286 119.753 183.286 120.42C183.286 121.087 183.419 121.673 183.686 122.18C183.966 122.673 184.326 123.053 184.766 123.32C185.219 123.587 185.699 123.72 186.206 123.72C186.726 123.72 187.212 123.593 187.666 123.34C188.119 123.073 188.479 122.7 188.746 122.22C189.012 121.727 189.146 121.14 189.146 120.46ZM200.84 114.76C202.16 114.76 203.227 115.18 204.04 116.02C204.854 116.847 205.26 118.007 205.26 119.5V126H202.46V119.88C202.46 119 202.24 118.327 201.8 117.86C201.36 117.38 200.76 117.14 200 117.14C199.227 117.14 198.614 117.38 198.16 117.86C197.72 118.327 197.5 119 197.5 119.88V126H194.7V114.92H197.5V116.3C197.874 115.82 198.347 115.447 198.92 115.18C199.507 114.9 200.147 114.76 200.84 114.76ZM218.223 120.22C218.223 120.62 218.196 120.98 218.143 121.3H210.043C210.11 122.1 210.39 122.727 210.883 123.18C211.376 123.633 211.983 123.86 212.703 123.86C213.743 123.86 214.483 123.413 214.923 122.52H217.943C217.623 123.587 217.01 124.467 216.103 125.16C215.196 125.84 214.083 126.18 212.763 126.18C211.696 126.18 210.736 125.947 209.883 125.48C209.043 125 208.383 124.327 207.903 123.46C207.436 122.593 207.203 121.593 207.203 120.46C207.203 119.313 207.436 118.307 207.903 117.44C208.37 116.573 209.023 115.907 209.863 115.44C210.703 114.973 211.67 114.74 212.763 114.74C213.816 114.74 214.756 114.967 215.583 115.42C216.423 115.873 217.07 116.52 217.523 117.36C217.99 118.187 218.223 119.14 218.223 120.22ZM215.323 119.42C215.31 118.7 215.05 118.127 214.543 117.7C214.036 117.26 213.416 117.04 212.683 117.04C211.99 117.04 211.403 117.253 210.923 117.68C210.456 118.093 210.17 118.673 210.063 119.42H215.323ZM219.547 120.42C219.547 119.3 219.767 118.307 220.207 117.44C220.66 116.573 221.273 115.907 222.047 115.44C222.82 114.973 223.68 114.74 224.627 114.74C225.347 114.74 226.033 114.9 226.687 115.22C227.34 115.527 227.86 115.94 228.247 116.46V111.2H231.087V126H228.247V124.36C227.9 124.907 227.413 125.347 226.787 125.68C226.16 126.013 225.433 126.18 224.607 126.18C223.673 126.18 222.82 125.94 222.047 125.46C221.273 124.98 220.66 124.307 220.207 123.44C219.767 122.56 219.547 121.553 219.547 120.42ZM228.267 120.46C228.267 119.78 228.133 119.2 227.867 118.72C227.6 118.227 227.24 117.853 226.787 117.6C226.333 117.333 225.847 117.2 225.327 117.2C224.807 117.2 224.327 117.327 223.887 117.58C223.447 117.833 223.087 118.207 222.807 118.7C222.54 119.18 222.407 119.753 222.407 120.42C222.407 121.087 222.54 121.673 222.807 122.18C223.087 122.673 223.447 123.053 223.887 123.32C224.34 123.587 224.82 123.72 225.327 123.72C225.847 123.72 226.333 123.593 226.787 123.34C227.24 123.073 227.6 122.7 227.867 122.22C228.133 121.727 228.267 121.14 228.267 120.46ZM241.847 117.22V122.58C241.847 122.953 241.934 123.227 242.107 123.4C242.294 123.56 242.6 123.64 243.027 123.64H244.327V126H242.567C240.207 126 239.027 124.853 239.027 122.56V117.22H237.707V114.92H239.027V112.18H241.847V114.92H244.327V117.22H241.847ZM251.261 126.18C250.194 126.18 249.234 125.947 248.381 125.48C247.528 125 246.854 124.327 246.361 123.46C245.881 122.593 245.641 121.593 245.641 120.46C245.641 119.327 245.888 118.327 246.381 117.46C246.888 116.593 247.574 115.927 248.441 115.46C249.308 114.98 250.274 114.74 251.341 114.74C252.408 114.74 253.374 114.98 254.241 115.46C255.108 115.927 255.788 116.593 256.281 117.46C256.788 118.327 257.041 119.327 257.041 120.46C257.041 121.593 256.781 122.593 256.261 123.46C255.754 124.327 255.061 125 254.181 125.48C253.314 125.947 252.341 126.18 251.261 126.18ZM251.261 123.74C251.768 123.74 252.241 123.62 252.681 123.38C253.134 123.127 253.494 122.753 253.761 122.26C254.028 121.767 254.161 121.167 254.161 120.46C254.161 119.407 253.881 118.6 253.321 118.04C252.774 117.467 252.101 117.18 251.301 117.18C250.501 117.18 249.828 117.467 249.281 118.04C248.748 118.6 248.481 119.407 248.481 120.46C248.481 121.513 248.741 122.327 249.261 122.9C249.794 123.46 250.461 123.74 251.261 123.74ZM277.62 114.76C278.98 114.76 280.074 115.18 280.9 116.02C281.74 116.847 282.16 118.007 282.16 119.5V126H279.36V119.88C279.36 119.013 279.14 118.353 278.7 117.9C278.26 117.433 277.66 117.2 276.9 117.2C276.14 117.2 275.534 117.433 275.08 117.9C274.64 118.353 274.42 119.013 274.42 119.88V126H271.62V119.88C271.62 119.013 271.4 118.353 270.96 117.9C270.52 117.433 269.92 117.2 269.16 117.2C268.387 117.2 267.774 117.433 267.32 117.9C266.88 118.353 266.66 119.013 266.66 119.88V126H263.86V114.92H266.66V116.26C267.02 115.793 267.48 115.427 268.04 115.16C268.614 114.893 269.24 114.76 269.92 114.76C270.787 114.76 271.56 114.947 272.24 115.32C272.92 115.68 273.447 116.2 273.82 116.88C274.18 116.24 274.7 115.727 275.38 115.34C276.074 114.953 276.82 114.76 277.62 114.76ZM295.118 120.22C295.118 120.62 295.091 120.98 295.038 121.3H286.938C287.004 122.1 287.284 122.727 287.778 123.18C288.271 123.633 288.878 123.86 289.598 123.86C290.638 123.86 291.378 123.413 291.818 122.52H294.838C294.518 123.587 293.904 124.467 292.998 125.16C292.091 125.84 290.978 126.18 289.658 126.18C288.591 126.18 287.631 125.947 286.778 125.48C285.938 125 285.278 124.327 284.798 123.46C284.331 122.593 284.097 121.593 284.097 120.46C284.097 119.313 284.331 118.307 284.798 117.44C285.264 116.573 285.918 115.907 286.758 115.44C287.598 114.973 288.564 114.74 289.658 114.74C290.711 114.74 291.651 114.967 292.478 115.42C293.318 115.873 293.964 116.52 294.418 117.36C294.884 118.187 295.118 119.14 295.118 120.22ZM292.218 119.42C292.204 118.7 291.944 118.127 291.438 117.7C290.931 117.26 290.311 117.04 289.578 117.04C288.884 117.04 288.298 117.253 287.818 117.68C287.351 118.093 287.064 118.673 286.958 119.42H292.218ZM307.461 120.22C307.461 120.62 307.435 120.98 307.381 121.3H299.281C299.348 122.1 299.628 122.727 300.121 123.18C300.615 123.633 301.221 123.86 301.941 123.86C302.981 123.86 303.721 123.413 304.161 122.52H307.181C306.861 123.587 306.248 124.467 305.341 125.16C304.435 125.84 303.321 126.18 302.001 126.18C300.935 126.18 299.975 125.947 299.121 125.48C298.281 125 297.621 124.327 297.141 123.46C296.675 122.593 296.441 121.593 296.441 120.46C296.441 119.313 296.675 118.307 297.141 117.44C297.608 116.573 298.261 115.907 299.101 115.44C299.941 114.973 300.908 114.74 302.001 114.74C303.055 114.74 303.995 114.967 304.821 115.42C305.661 115.873 306.308 116.52 306.761 117.36C307.228 118.187 307.461 119.14 307.461 120.22ZM304.561 119.42C304.548 118.7 304.288 118.127 303.781 117.7C303.275 117.26 302.655 117.04 301.921 117.04C301.228 117.04 300.641 117.253 300.161 117.68C299.695 118.093 299.408 118.673 299.301 119.42H304.561ZM312.765 117.22V122.58C312.765 122.953 312.852 123.227 313.025 123.4C313.212 123.56 313.518 123.64 313.945 123.64H315.245V126H313.485C311.125 126 309.945 124.853 309.945 122.56V117.22H308.625V114.92H309.945V112.18H312.765V114.92H315.245V117.22H312.765ZM332.625 114.92L325.765 131.24H322.785L325.185 125.72L320.745 114.92H323.885L326.745 122.66L329.645 114.92H332.625ZM339.054 126.18C337.987 126.18 337.027 125.947 336.174 125.48C335.321 125 334.647 124.327 334.154 123.46C333.674 122.593 333.434 121.593 333.434 120.46C333.434 119.327 333.681 118.327 334.174 117.46C334.681 116.593 335.367 115.927 336.234 115.46C337.101 114.98 338.067 114.74 339.134 114.74C340.201 114.74 341.167 114.98 342.034 115.46C342.901 115.927 343.581 116.593 344.074 117.46C344.581 118.327 344.834 119.327 344.834 120.46C344.834 121.593 344.574 122.593 344.054 123.46C343.547 124.327 342.854 125 341.974 125.48C341.107 125.947 340.134 126.18 339.054 126.18ZM339.054 123.74C339.561 123.74 340.034 123.62 340.474 123.38C340.927 123.127 341.287 122.753 341.554 122.26C341.821 121.767 341.954 121.167 341.954 120.46C341.954 119.407 341.674 118.6 341.114 118.04C340.567 117.467 339.894 117.18 339.094 117.18C338.294 117.18 337.621 117.467 337.074 118.04C336.541 118.6 336.274 119.407 336.274 120.46C336.274 121.513 336.534 122.327 337.054 122.9C337.587 123.46 338.254 123.74 339.054 123.74ZM357.348 114.92V126H354.528V124.6C354.168 125.08 353.694 125.46 353.108 125.74C352.534 126.007 351.908 126.14 351.228 126.14C350.361 126.14 349.594 125.96 348.928 125.6C348.261 125.227 347.734 124.687 347.348 123.98C346.974 123.26 346.788 122.407 346.788 121.42V114.92H349.588V121.02C349.588 121.9 349.808 122.58 350.248 123.06C350.688 123.527 351.288 123.76 352.048 123.76C352.821 123.76 353.428 123.527 353.868 123.06C354.308 122.58 354.528 121.9 354.528 121.02V114.92H357.348ZM362.91 116.64C363.27 116.053 363.737 115.593 364.31 115.26C364.897 114.927 365.564 114.76 366.31 114.76V117.7H365.57C364.69 117.7 364.024 117.907 363.57 118.32C363.13 118.733 362.91 119.453 362.91 120.48V126H360.11V114.92H362.91V116.64ZM47.52 137.76C48.84 137.76 49.9067 138.18 50.72 139.02C51.5333 139.847 51.94 141.007 51.94 142.5V149H49.14V142.88C49.14 142 48.92 141.327 48.48 140.86C48.04 140.38 47.44 140.14 46.68 140.14C45.9067 140.14 45.2933 140.38 44.84 140.86C44.4 141.327 44.18 142 44.18 142.88V149H41.38V137.92H44.18V139.3C44.5533 138.82 45.0267 138.447 45.6 138.18C46.1867 137.9 46.8267 137.76 47.52 137.76ZM64.9027 143.22C64.9027 143.62 64.876 143.98 64.8227 144.3H56.7227C56.7893 145.1 57.0693 145.727 57.5627 146.18C58.056 146.633 58.6627 146.86 59.3827 146.86C60.4227 146.86 61.1627 146.413 61.6027 145.52H64.6227C64.3027 146.587 63.6893 147.467 62.7827 148.16C61.876 148.84 60.7627 149.18 59.4427 149.18C58.376 149.18 57.416 148.947 56.5627 148.48C55.7227 148 55.0627 147.327 54.5827 146.46C54.116 145.593 53.8827 144.593 53.8827 143.46C53.8827 142.313 54.116 141.307 54.5827 140.44C55.0493 139.573 55.7027 138.907 56.5427 138.44C57.3827 137.973 58.3493 137.74 59.4427 137.74C60.496 137.74 61.436 137.967 62.2627 138.42C63.1027 138.873 63.7493 139.52 64.2027 140.36C64.6693 141.187 64.9027 142.14 64.9027 143.22ZM62.0027 142.42C61.9893 141.7 61.7293 141.127 61.2227 140.7C60.716 140.26 60.096 140.04 59.3627 140.04C58.6693 140.04 58.0827 140.253 57.6027 140.68C57.136 141.093 56.8493 141.673 56.7427 142.42H62.0027ZM77.2464 143.22C77.2464 143.62 77.2197 143.98 77.1664 144.3H69.0664C69.1331 145.1 69.4131 145.727 69.9064 146.18C70.3997 146.633 71.0064 146.86 71.7264 146.86C72.7664 146.86 73.5064 146.413 73.9464 145.52H76.9664C76.6464 146.587 76.0331 147.467 75.1264 148.16C74.2197 148.84 73.1064 149.18 71.7864 149.18C70.7197 149.18 69.7597 148.947 68.9064 148.48C68.0664 148 67.4064 147.327 66.9264 146.46C66.4597 145.593 66.2264 144.593 66.2264 143.46C66.2264 142.313 66.4597 141.307 66.9264 140.44C67.3931 139.573 68.0464 138.907 68.8864 138.44C69.7264 137.973 70.6931 137.74 71.7864 137.74C72.8397 137.74 73.7797 137.967 74.6064 138.42C75.4464 138.873 76.0931 139.52 76.5464 140.36C77.0131 141.187 77.2464 142.14 77.2464 143.22ZM74.3464 142.42C74.3331 141.7 74.0731 141.127 73.5664 140.7C73.0597 140.26 72.4397 140.04 71.7064 140.04C71.0131 140.04 70.4264 140.253 69.9464 140.68C69.4797 141.093 69.1931 141.673 69.0864 142.42H74.3464ZM78.5702 143.42C78.5702 142.3 78.7902 141.307 79.2302 140.44C79.6835 139.573 80.2968 138.907 81.0702 138.44C81.8435 137.973 82.7035 137.74 83.6502 137.74C84.3702 137.74 85.0568 137.9 85.7102 138.22C86.3635 138.527 86.8835 138.94 87.2702 139.46V134.2H90.1102V149H87.2702V147.36C86.9235 147.907 86.4368 148.347 85.8102 148.68C85.1835 149.013 84.4568 149.18 83.6302 149.18C82.6968 149.18 81.8435 148.94 81.0702 148.46C80.2968 147.98 79.6835 147.307 79.2302 146.44C78.7902 145.56 78.5702 144.553 78.5702 143.42ZM87.2902 143.46C87.2902 142.78 87.1568 142.2 86.8902 141.72C86.6235 141.227 86.2635 140.853 85.8102 140.6C85.3568 140.333 84.8702 140.2 84.3502 140.2C83.8302 140.2 83.3502 140.327 82.9102 140.58C82.4702 140.833 82.1102 141.207 81.8302 141.7C81.5635 142.18 81.4302 142.753 81.4302 143.42C81.4302 144.087 81.5635 144.673 81.8302 145.18C82.1102 145.673 82.4702 146.053 82.9102 146.32C83.3635 146.587 83.8435 146.72 84.3502 146.72C84.8702 146.72 85.3568 146.593 85.8102 146.34C86.2635 146.073 86.6235 145.7 86.8902 145.22C87.1568 144.727 87.2902 144.14 87.2902 143.46ZM97.0848 149.18C96.1782 149.18 95.3648 149.02 94.6448 148.7C93.9248 148.367 93.3515 147.92 92.9248 147.36C92.5115 146.8 92.2848 146.18 92.2448 145.5H95.0648C95.1182 145.927 95.3248 146.28 95.6848 146.56C96.0582 146.84 96.5182 146.98 97.0648 146.98C97.5982 146.98 98.0115 146.873 98.3048 146.66C98.6115 146.447 98.7648 146.173 98.7648 145.84C98.7648 145.48 98.5782 145.213 98.2048 145.04C97.8448 144.853 97.2648 144.653 96.4648 144.44C95.6382 144.24 94.9582 144.033 94.4248 143.82C93.9048 143.607 93.4515 143.28 93.0648 142.84C92.6915 142.4 92.5048 141.807 92.5048 141.06C92.5048 140.447 92.6782 139.887 93.0248 139.38C93.3848 138.873 93.8915 138.473 94.5448 138.18C95.2115 137.887 95.9915 137.74 96.8848 137.74C98.2048 137.74 99.2582 138.073 100.045 138.74C100.832 139.393 101.265 140.28 101.345 141.4H98.6648C98.6248 140.96 98.4382 140.613 98.1048 140.36C97.7848 140.093 97.3515 139.96 96.8048 139.96C96.2982 139.96 95.9048 140.053 95.6248 140.24C95.3582 140.427 95.2248 140.687 95.2248 141.02C95.2248 141.393 95.4115 141.68 95.7848 141.88C96.1582 142.067 96.7382 142.26 97.5248 142.46C98.3248 142.66 98.9848 142.867 99.5048 143.08C100.025 143.293 100.472 143.627 100.845 144.08C101.232 144.52 101.432 145.107 101.445 145.84C101.445 146.48 101.265 147.053 100.905 147.56C100.558 148.067 100.052 148.467 99.3848 148.76C98.7315 149.04 97.9648 149.18 97.0848 149.18Z" fill="white"/>
<path d="M482.394 16.9369V12.8708H459.159V16.9369V30.3073V31.5264C460.097 32.7599 461.258 33.8429 462.603 34.7124C464.909 36.2108 467.731 37.0962 470.777 37.0962C475.59 37.0962 479.847 34.894 482.394 31.5264V30.3073V16.9369Z" fill="#656D78"/>
<path d="M470.796 41.6216C460.271 41.6216 451.709 33.8142 451.709 24.2162C451.709 23.7977 452.08 23.4595 452.539 23.4595C452.998 23.4595 453.369 23.7977 453.369 24.2162C453.369 32.9787 461.187 40.1081 470.796 40.1081C471.255 40.1081 471.625 40.4464 471.625 40.8649C471.625 41.2834 471.255 41.6216 470.796 41.6216Z" fill="#CCD1D9"/>
<path d="M489.052 24.973C488.593 24.973 488.222 24.6347 488.222 24.2162C488.222 15.4537 480.404 8.32431 470.796 8.32431C470.337 8.32431 469.966 7.98604 469.966 7.56755C469.966 7.14906 470.337 6.81079 470.796 6.81079C481.32 6.81079 489.882 14.6183 489.882 24.2162C489.882 24.6347 489.511 24.973 489.052 24.973Z" fill="#CCD1D9"/>
<path d="M479.923 9.84399L482.413 12.871H459.177L461.667 9.84399H479.923Z" fill="#545C66"/>
<path d="M470.795 37.0795C467.749 37.0795 464.928 36.194 462.621 34.6957C461.277 33.8262 460.114 32.7432 459.177 31.5097V31.033H482.413V31.5097C479.865 34.8773 475.608 37.0795 470.795 37.0795Z" fill="#545C66"/>
<path d="M482.413 18.925H459.177V24.9791H482.413V18.925Z" fill="#545C66"/>
<path d="M479.95 16.6546C479.491 16.6546 479.116 16.3164 479.116 15.8979C479.116 15.4794 479.482 15.1411 479.94 15.1411H479.95C480.408 15.1411 480.779 15.4794 480.779 15.8979C480.779 16.3164 480.408 16.6546 479.95 16.6546Z" fill="#5D9CEC"/>
<path d="M462.477 17.4281C462.265 17.4281 462.053 17.3539 461.891 17.2064C461.566 16.9105 461.566 16.4322 461.891 16.1363L463.55 14.6228C463.875 14.3269 464.399 14.3269 464.724 14.6228C465.048 14.9187 465.048 15.397 464.724 15.6929L463.064 17.2064C462.901 17.3547 462.689 17.4281 462.477 17.4281Z" fill="#545C66"/>
<path d="M466.645 17.4115C466.432 17.4115 466.22 17.3373 466.058 17.1898C465.734 16.8939 465.734 16.4156 466.058 16.1197L467.718 14.6062C468.042 14.3103 468.567 14.3103 468.891 14.6062C469.216 14.9021 469.216 15.3804 468.891 15.6763L467.231 17.1898C467.07 17.3373 466.857 17.4115 466.645 17.4115Z" fill="#545C66"/>
<path d="M470.794 17.4115C470.582 17.4115 470.369 17.3373 470.207 17.1898C469.883 16.8939 469.883 16.4156 470.207 16.1197L471.867 14.6062C472.191 14.3103 472.716 14.3103 473.04 14.6062C473.365 14.9021 473.365 15.3804 473.04 15.6763L471.381 17.1898C471.219 17.3373 471.006 17.4115 470.794 17.4115Z" fill="#545C66"/>
<path d="M479.95 22.7088C479.491 22.7088 479.116 22.3706 479.116 21.9521C479.116 21.5336 479.482 21.1953 479.94 21.1953H479.95C480.408 21.1953 480.779 21.5336 480.779 21.9521C480.779 22.3706 480.408 22.7088 479.95 22.7088Z" fill="#5D9CEC"/>
<path d="M462.496 23.4654C462.283 23.4654 462.071 23.3913 461.909 23.2437C461.584 22.9478 461.584 22.4696 461.909 22.1737L463.569 20.6602C463.893 20.3643 464.418 20.3643 464.742 20.6602C465.066 20.956 465.066 21.4343 464.742 21.7302L463.082 23.2437C462.921 23.3913 462.708 23.4654 462.496 23.4654Z" fill="#434A54"/>
<path d="M466.645 23.4654C466.432 23.4654 466.22 23.3913 466.058 23.2437C465.734 22.9478 465.734 22.4696 466.058 22.1737L467.718 20.6602C468.042 20.3643 468.567 20.3643 468.891 20.6602C469.216 20.956 469.216 21.4343 468.891 21.7302L467.231 23.2437C467.07 23.3913 466.857 23.4654 466.645 23.4654Z" fill="#434A54"/>
<path d="M470.794 23.4654C470.582 23.4654 470.369 23.3913 470.207 23.2437C469.883 22.9478 469.883 22.4696 470.207 22.1737L471.867 20.6602C472.191 20.3643 472.716 20.3643 473.04 20.6602C473.365 20.956 473.365 21.4343 473.04 21.7302L471.381 23.2437C471.219 23.3913 471.006 23.4654 470.794 23.4654Z" fill="#434A54"/>
<path d="M479.95 28.7628C479.491 28.7628 479.116 28.4245 479.116 28.006C479.116 27.5875 479.482 27.2493 479.94 27.2493H479.95C480.408 27.2493 480.779 27.5875 480.779 28.006C480.779 28.4245 480.408 28.7628 479.95 28.7628Z" fill="#5D9CEC"/>
<path d="M462.496 29.5197C462.283 29.5197 462.071 29.4455 461.909 29.2979C461.584 29.002 461.584 28.5238 461.909 28.2279L463.569 26.7144C463.893 26.4185 464.418 26.4185 464.742 26.7144C465.066 27.0102 465.066 27.4885 464.742 27.7844L463.082 29.2979C462.921 29.4455 462.708 29.5197 462.496 29.5197Z" fill="#545C66"/>
<path d="M466.645 29.5197C466.432 29.5197 466.22 29.4455 466.058 29.2979C465.734 29.002 465.734 28.5238 466.058 28.2279L467.718 26.7144C468.042 26.4185 468.567 26.4185 468.891 26.7144C469.216 27.0102 469.216 27.4885 468.891 27.7844L467.231 29.2979C467.07 29.4455 466.857 29.5197 466.645 29.5197Z" fill="#545C66"/>
<path d="M470.794 29.5197C470.582 29.5197 470.369 29.4455 470.207 29.2979C469.883 29.002 469.883 28.5238 470.207 28.2279L471.867 26.7144C472.191 26.4185 472.716 26.4185 473.04 26.7144C473.365 27.0102 473.365 27.4885 473.04 27.7844L471.381 29.2979C471.219 29.4455 471.006 29.5197 470.794 29.5197Z" fill="#545C66"/>
<path d="M466.645 35.5736C466.432 35.5736 466.22 35.4994 466.058 35.3519C465.734 35.056 465.734 34.5777 466.058 34.2818L467.718 32.7683C468.042 32.4724 468.567 32.4724 468.891 32.7683C469.216 33.0642 469.216 33.5425 468.891 33.8384L467.231 35.3519C467.07 35.4994 466.857 35.5736 466.645 35.5736Z" fill="#434A54"/>
<path d="M470.794 35.5736C470.582 35.5736 470.369 35.4994 470.207 35.3519C469.883 35.056 469.883 34.5777 470.207 34.2818L471.867 32.7683C472.191 32.4724 472.716 32.4724 473.04 32.7683C473.365 33.0642 473.365 33.5425 473.04 33.8384L471.381 35.3519C471.219 35.4994 471.006 35.5736 470.794 35.5736Z" fill="#434A54"/>
<path d="M463.569 32.7684L462.038 34.1639C462.013 34.1866 462.003 34.2169 461.982 34.2426C462.193 34.3962 462.401 34.5536 462.622 34.6966C462.852 34.8465 463.092 34.9865 463.334 35.1234L464.742 33.8392C465.066 33.5433 465.066 33.0651 464.742 32.7692C464.418 32.4733 463.893 32.4725 463.569 32.7684Z" fill="#434A54"/>
<path d="M479.95 33.3035H479.94C479.482 33.3035 479.116 33.6417 479.116 34.0602C479.116 34.2214 479.184 34.3622 479.278 34.4848C479.714 34.1851 480.13 33.8627 480.525 33.5191C480.376 33.386 480.174 33.3035 479.95 33.3035Z" fill="#5D9CEC"/>
<path d="M510.482 57.5569H510.418H494.72C494.64 57.5724 494.544 57.5724 494.464 57.5724H492.867H476.897H464.105H446.554C446.474 57.5724 446.394 57.5724 446.316 57.5569H430.568C428.811 57.5569 427.373 58.9413 427.373 60.668V108.889H459.314H481.672H513.612V60.668C513.612 58.9569 512.223 57.588 510.482 57.5569Z" fill="#5D9CEC"/>
<path d="M427.376 62.2205C426.492 62.2205 425.779 61.5252 425.779 60.665C425.779 58.0921 427.928 55.9983 430.57 55.9983C431.453 55.9983 432.167 56.6936 432.167 57.5538C432.167 58.4141 431.453 59.1094 430.57 59.1094C429.688 59.1094 428.973 59.8063 428.973 60.665C428.973 61.5252 428.259 62.2205 427.376 62.2205Z" fill="#545C66"/>
<path d="M427.376 110.437C426.492 110.437 425.779 109.741 425.779 108.881V60.6649C425.779 59.8047 426.492 59.1094 427.376 59.1094C428.259 59.1094 428.973 59.8047 428.973 60.6649V108.881C428.973 109.741 428.259 110.437 427.376 110.437Z" fill="#545C66"/>
<path d="M513.614 62.2205C512.731 62.2205 512.017 61.5252 512.017 60.665C512.017 59.8063 511.301 59.1094 510.42 59.1094C509.537 59.1094 508.823 58.4141 508.823 57.5538C508.823 56.6936 509.537 55.9983 510.42 55.9983C513.061 55.9983 515.211 58.0921 515.211 60.665C515.211 61.5252 514.497 62.2205 513.614 62.2205Z" fill="#545C66"/>
<path d="M513.614 110.437C512.731 110.437 512.017 109.741 512.017 108.881V60.6649C512.017 59.8047 512.731 59.1094 513.614 59.1094C514.497 59.1094 515.211 59.8047 515.211 60.6649V108.881C515.211 109.741 514.497 110.437 513.614 110.437Z" fill="#545C66"/>
<path d="M510.486 59.1094H430.57C429.687 59.1094 428.973 58.4141 428.973 57.5538C428.973 56.6936 429.687 55.9983 430.57 55.9983H510.486C511.369 55.9983 512.083 56.6936 512.083 57.5538C512.083 58.4141 511.369 59.1094 510.486 59.1094Z" fill="#545C66"/>
<path d="M456.373 83.8542H456.394V97.4411H438V83.8542H456.373Z" fill="#E6E9ED"/>
<path d="M456.373 81.7743V83.8542H437.999H437.978V81.7639V81.7534C437.978 81.1797 438.428 80.7188 439.001 80.7188H439.011H455.33C455.913 80.7188 456.363 81.1797 456.374 81.7639V81.7743H456.373Z" fill="#CCD1D9"/>
<path d="M478.881 84.9203V86.9897H460.496H460.486V84.8994C460.486 84.3256 460.936 83.8542 461.499 83.8542H461.519H477.838C478.412 83.8542 478.871 84.3256 478.882 84.8994V84.9203H478.881Z" fill="#CCD1D9"/>
<path d="M501.389 83.8542H501.41V97.4411H483.004V83.8542H501.389Z" fill="#E6E9ED"/>
<path d="M501.389 81.7743V83.8542H483.004H482.994V81.7639V81.7534C482.994 81.1797 483.444 80.7188 484.007 80.7188H484.027H500.345C500.929 80.7188 501.379 81.1797 501.39 81.7639V81.7743H501.389Z" fill="#CCD1D9"/>
<path d="M478.881 86.9895H478.902V100.576H460.496V86.9895H478.881Z" fill="#E6E9ED"/>
<path d="M500.353 98.4882H484.033C483.468 98.4882 483.01 98.0211 483.01 97.4431C483.01 96.8651 483.468 96.3979 484.033 96.3979H500.353C500.918 96.3979 501.376 96.8651 501.376 97.4431C501.376 98.0211 500.918 98.4882 500.353 98.4882Z" fill="#E6E9ED"/>
<path d="M477.862 101.622H461.543C460.977 101.622 460.52 101.155 460.52 100.577C460.52 99.9987 460.977 99.5315 461.543 99.5315H477.862C478.428 99.5315 478.885 99.9987 478.885 100.577C478.885 101.155 478.428 101.622 477.862 101.622Z" fill="#E6E9ED"/>
<path d="M455.356 98.4882H439.037C438.471 98.4882 438.014 98.0211 438.014 97.4431C438.014 96.8651 438.471 96.3979 439.037 96.3979H455.356C455.922 96.3979 456.379 96.8651 456.379 97.4431C456.379 98.0211 455.922 98.4882 455.356 98.4882Z" fill="#E6E9ED"/>
<path d="M497.315 89.0778H487.084C486.518 89.0778 486.061 88.6107 486.061 88.0327C486.061 87.4547 486.518 86.9875 487.084 86.9875H497.315C497.881 86.9875 498.338 87.4547 498.338 88.0327C498.338 88.6107 497.881 89.0778 497.315 89.0778Z" fill="#CCD1D9"/>
<path d="M497.315 92.2133H487.084C486.518 92.2133 486.061 91.7461 486.061 91.1682C486.061 90.5902 486.518 90.123 487.084 90.123H497.315C497.881 90.123 498.338 90.5902 498.338 91.1682C498.338 91.7461 497.881 92.2133 497.315 92.2133Z" fill="#CCD1D9"/>
<path d="M494.243 95.3488H490.157C489.591 95.3488 489.133 94.8816 489.133 94.3037C489.133 93.7257 489.591 93.2585 490.157 93.2585H494.243C494.809 93.2585 495.266 93.7257 495.266 94.3037C495.266 94.8816 494.809 95.3488 494.243 95.3488Z" fill="#CCD1D9"/>
<path d="M474.807 92.2175H464.576C464.01 92.2175 463.553 91.7503 463.553 91.1723C463.553 90.5944 464.01 90.1272 464.576 90.1272H474.807C475.373 90.1272 475.83 90.5944 475.83 91.1723C475.83 91.7503 475.373 92.2175 474.807 92.2175Z" fill="#CCD1D9"/>
<path d="M474.807 95.353H464.576C464.01 95.353 463.553 94.8858 463.553 94.3078C463.553 93.7299 464.01 93.2627 464.576 93.2627H474.807C475.373 93.2627 475.83 93.7299 475.83 94.3078C475.83 94.8858 475.373 95.353 474.807 95.353Z" fill="#CCD1D9"/>
<path d="M471.735 98.4882H467.649C467.083 98.4882 466.625 98.0211 466.625 97.4431C466.625 96.8651 467.083 96.3979 467.649 96.3979H471.735C472.301 96.3979 472.758 96.8651 472.758 97.4431C472.758 98.0211 472.301 98.4882 471.735 98.4882Z" fill="#CCD1D9"/>
<path d="M452.301 89.0778H442.07C441.505 89.0778 441.047 88.6107 441.047 88.0327C441.047 87.4547 441.505 86.9875 442.07 86.9875H452.301C452.867 86.9875 453.324 87.4547 453.324 88.0327C453.324 88.6107 452.867 89.0778 452.301 89.0778Z" fill="#CCD1D9"/>
<path d="M452.301 92.2133H442.07C441.505 92.2133 441.047 91.7461 441.047 91.1682C441.047 90.5902 441.505 90.123 442.07 90.123H452.301C452.867 90.123 453.324 90.5902 453.324 91.1682C453.324 91.7461 452.867 92.2133 452.301 92.2133Z" fill="#CCD1D9"/>
<path d="M449.229 95.3488H445.143C444.577 95.3488 444.12 94.8816 444.12 94.3037C444.12 93.7257 444.577 93.2585 445.143 93.2585H449.229C449.795 93.2585 450.252 93.7257 450.252 94.3037C450.252 94.8816 449.795 95.3488 449.229 95.3488Z" fill="#CCD1D9"/>
<path d="M469.703 80.721C469.137 80.721 468.68 80.2538 468.68 79.6758V68.1814C468.68 67.6034 469.137 67.1362 469.703 67.1362C470.269 67.1362 470.726 67.6034 470.726 68.1814V79.6758C470.726 80.2538 470.269 80.721 469.703 80.721Z" fill="#656D78"/>
<path d="M492.203 77.5855C491.637 77.5855 491.18 77.1184 491.18 76.5404V72.3598C491.18 71.7819 491.637 71.3147 492.203 71.3147C492.768 71.3147 493.226 71.7819 493.226 72.3598V76.5404C493.226 77.1184 492.768 77.5855 492.203 77.5855Z" fill="#656D78"/>
<path d="M492.203 73.405H475.833C475.268 73.405 474.81 72.9378 474.81 72.3598C474.81 71.7819 475.268 71.3147 475.833 71.3147H492.203C492.769 71.3147 493.226 71.7819 493.226 72.3598C493.226 72.9378 492.769 73.405 492.203 73.405Z" fill="#656D78"/>
<path d="M475.833 73.405C475.268 73.405 474.81 72.9378 474.81 72.3598V68.1814C474.81 67.6034 475.268 67.1362 475.833 67.1362C476.399 67.1362 476.856 67.6034 476.856 68.1814V72.3598C476.856 72.9378 476.399 73.405 475.833 73.405Z" fill="#656D78"/>
<path d="M447.159 77.5855C446.593 77.5855 446.136 77.1184 446.136 76.5404V72.3598C446.136 71.7819 446.593 71.3147 447.159 71.3147C447.725 71.3147 448.182 71.7819 448.182 72.3598V76.5404C448.182 77.1184 447.724 77.5855 447.159 77.5855Z" fill="#656D78"/>
<path d="M463.529 73.405H447.159C446.593 73.405 446.136 72.9378 446.136 72.3598C446.136 71.7819 446.593 71.3147 447.159 71.3147H463.529C464.094 71.3147 464.552 71.7819 464.552 72.3598C464.552 72.9378 464.093 73.405 463.529 73.405Z" fill="#656D78"/>
<path d="M463.529 73.405C462.963 73.405 462.505 72.9378 462.505 72.3598V68.1814C462.505 67.6034 462.963 67.1362 463.529 67.1362C464.094 67.1362 464.552 67.6034 464.552 68.1814V72.3598C464.552 72.9378 464.093 73.405 463.529 73.405Z" fill="#656D78"/>
<path d="M513.612 108.889H481.672H459.313H427.373H422.585L420.985 110.438V115.111C420.985 116.838 422.422 118.222 424.179 118.222H516.806C518.579 118.222 520 116.838 520 115.111V110.438L518.403 108.889H513.612Z" fill="#656D78"/>
<path d="M481.672 108.887V110.443C481.672 111.299 480.953 111.999 480.075 111.999H460.91C460.032 111.999 459.313 111.299 459.313 110.443V108.887" fill="#545C66"/>
<path d="M464.108 66.8951C463.225 66.8951 462.511 66.1998 462.511 65.3396V46.6791C462.511 45.8189 463.225 45.1235 464.108 45.1235C464.991 45.1235 465.705 45.8189 465.705 46.6791V65.3396C465.705 66.1998 464.991 66.8951 464.108 66.8951Z" fill="#E6E9ED"/>
<path d="M467.299 51.3428C466.891 51.3428 466.482 51.1904 466.17 50.887L462.979 47.779C462.355 47.1708 462.355 46.1877 462.979 45.5795C463.604 44.9712 464.613 44.9712 465.238 45.5795L468.428 48.6875C469.053 49.2957 469.053 50.2788 468.428 50.887C468.117 51.1904 467.708 51.3428 467.299 51.3428Z" fill="#E6E9ED"/>
<path d="M460.918 51.3428C460.509 51.3428 460.1 51.1904 459.789 50.887C459.165 50.2788 459.165 49.2957 459.789 48.6875L462.98 45.5795C463.604 44.9712 464.614 44.9712 465.238 45.5795C465.863 46.1877 465.863 47.1708 465.238 47.779L462.047 50.887C461.736 51.1904 461.327 51.3428 460.918 51.3428Z" fill="#E6E9ED"/>
<path d="M476.896 66.8951C476.013 66.8951 475.299 66.1998 475.299 65.3396V46.6791C475.299 45.8189 476.013 45.1235 476.896 45.1235C477.779 45.1235 478.493 45.8189 478.493 46.6791V65.3396C478.493 66.1998 477.779 66.8951 476.896 66.8951Z" fill="#E6E9ED"/>
<path d="M476.897 66.8953C476.488 66.8953 476.079 66.7428 475.768 66.4395L472.577 63.3315C471.953 62.7233 471.953 61.7402 472.577 61.1319C473.202 60.5237 474.211 60.5237 474.835 61.1319L478.026 64.24C478.651 64.8482 478.651 65.8313 478.026 66.4395C477.713 66.7428 477.306 66.8953 476.897 66.8953Z" fill="#E6E9ED"/>
<path d="M476.897 66.8953C476.488 66.8953 476.079 66.7428 475.768 66.4395C475.143 65.8313 475.143 64.8482 475.768 64.24L478.958 61.1319C479.583 60.5237 480.592 60.5237 481.217 61.1319C481.841 61.7402 481.841 62.7233 481.217 63.3315L478.026 66.4395C477.713 66.7428 477.305 66.8953 476.897 66.8953Z" fill="#E6E9ED"/>
<path d="M422.583 111.992C423.465 111.992 424.18 111.296 424.18 110.437C424.18 109.578 423.465 108.881 422.583 108.881C421.701 108.881 420.986 109.578 420.986 110.437C420.986 111.296 421.701 111.992 422.583 111.992Z" fill="#656D78"/>
<path d="M427.376 124.444H413V166.444H427.376C428.253 166.444 428.973 165.743 428.973 164.889C428.973 164.032 428.973 162.632 428.973 161.778V129.111C428.973 128.254 428.973 126.854 428.973 126C428.973 125.143 428.253 124.444 427.376 124.444Z" fill="#656D78"/>
<path d="M473.687 138.444L504.541 133.873C504.891 133.809 505.258 133.778 505.627 133.778C509.155 133.778 512.015 136.561 512.015 140C512.015 142.302 510.736 144.309 508.821 145.384L465.701 168L428.97 163.333V127.555H443.343L468.399 132.317C471.403 132.815 473.687 135.363 473.687 138.444Z" fill="#EAC6BB"/>
<path d="M421.032 163.333C420.148 163.333 419.428 162.638 419.428 161.778C419.428 160.918 420.132 160.222 421.016 160.222H421.032C421.915 160.222 422.629 160.918 422.629 161.778C422.629 162.638 421.915 163.333 421.032 163.333Z" fill="#FFCE54"/>
<path d="M476.837 137.976L473.686 138.444C473.686 141.881 470.826 144.667 467.298 144.667C467.118 144.667 466.936 144.651 466.758 144.639C466.755 144.635 466.755 144.635 466.752 144.635L446.661 143.113C445.788 143.058 445.015 143.69 444.943 144.544C444.878 145.401 445.532 146.147 446.412 146.214L466.35 147.725V147.731C466.664 147.762 466.982 147.776 467.298 147.776C472.583 147.776 476.88 143.59 476.88 138.443C476.88 138.283 476.847 138.135 476.837 137.976Z" fill="#D3B1A9"/>
</svg>
