<svg width="609" height="201" viewBox="0 0 609 201" fill="none" xmlns="http://www.w3.org/2000/svg">
<rect width="609" height="176" rx="20" fill="#312F2F"/>
<path d="M50 23.04V25.3H44.18V28.88H48.64V31.1H44.18V37H41.38V23.04H50ZM56.9055 37.18C55.8388 37.18 54.8788 36.9467 54.0255 36.48C53.1721 36 52.4988 35.3267 52.0055 34.46C51.5255 33.5933 51.2855 32.5933 51.2855 31.46C51.2855 30.3267 51.5321 29.3267 52.0255 28.46C52.5321 27.5933 53.2188 26.9267 54.0855 26.46C54.9521 25.98 55.9188 25.74 56.9855 25.74C58.0521 25.74 59.0188 25.98 59.8855 26.46C60.7521 26.9267 61.4321 27.5933 61.9255 28.46C62.4321 29.3267 62.6855 30.3267 62.6855 31.46C62.6855 32.5933 62.4255 33.5933 61.9055 34.46C61.3988 35.3267 60.7055 36 59.8255 36.48C58.9588 36.9467 57.9855 37.18 56.9055 37.18ZM56.9055 34.74C57.4121 34.74 57.8855 34.62 58.3255 34.38C58.7788 34.1267 59.1388 33.7533 59.4055 33.26C59.6721 32.7667 59.8055 32.1667 59.8055 31.46C59.8055 30.4067 59.5255 29.6 58.9655 29.04C58.4188 28.4667 57.7455 28.18 56.9455 28.18C56.1455 28.18 55.4721 28.4667 54.9255 29.04C54.3921 29.6 54.1255 30.4067 54.1255 31.46C54.1255 32.5133 54.3855 33.3267 54.9055 33.9C55.4388 34.46 56.1055 34.74 56.9055 34.74ZM67.5394 27.64C67.8994 27.0533 68.366 26.5933 68.9394 26.26C69.526 25.9267 70.1927 25.76 70.9394 25.76V28.7H70.1994C69.3194 28.7 68.6527 28.9067 68.1994 29.32C67.7594 29.7333 67.5394 30.4533 67.5394 31.48V37H64.7394V25.92H67.5394V27.64ZM82.6709 28.22H80.7309V37H77.8909V28.22H76.6309V25.92H77.8909V25.36C77.8909 24 78.2776 23 79.0509 22.36C79.8243 21.72 80.9909 21.42 82.5509 21.46V23.82C81.8709 23.8067 81.3976 23.92 81.1309 24.16C80.8643 24.4 80.7309 24.8333 80.7309 25.46V25.92H82.6709V28.22ZM83.7655 31.42C83.7655 30.3 83.9855 29.3067 84.4255 28.44C84.8788 27.5733 85.4855 26.9067 86.2455 26.44C87.0188 25.9733 87.8788 25.74 88.8255 25.74C89.6521 25.74 90.3721 25.9067 90.9855 26.24C91.6121 26.5733 92.1121 26.9933 92.4855 27.5V25.92H95.3055V37H92.4855V35.38C92.1255 35.9 91.6255 36.3333 90.9855 36.68C90.3588 37.0133 89.6321 37.18 88.8055 37.18C87.8721 37.18 87.0188 36.94 86.2455 36.46C85.4855 35.98 84.8788 35.3067 84.4255 34.44C83.9855 33.56 83.7655 32.5533 83.7655 31.42ZM92.4855 31.46C92.4855 30.78 92.3521 30.2 92.0855 29.72C91.8188 29.2267 91.4588 28.8533 91.0055 28.6C90.5521 28.3333 90.0655 28.2 89.5455 28.2C89.0255 28.2 88.5455 28.3267 88.1055 28.58C87.6655 28.8333 87.3055 29.2067 87.0255 29.7C86.7588 30.18 86.6255 30.7533 86.6255 31.42C86.6255 32.0867 86.7588 32.6733 87.0255 33.18C87.3055 33.6733 87.6655 34.0533 88.1055 34.32C88.5588 34.5867 89.0388 34.72 89.5455 34.72C90.0655 34.72 90.5521 34.5933 91.0055 34.34C91.4588 34.0733 91.8188 33.7 92.0855 33.22C92.3521 32.7267 92.4855 32.14 92.4855 31.46ZM102.28 37.18C101.373 37.18 100.56 37.02 99.8402 36.7C99.1202 36.3667 98.5468 35.92 98.1202 35.36C97.7068 34.8 97.4802 34.18 97.4402 33.5H100.26C100.313 33.9267 100.52 34.28 100.88 34.56C101.253 34.84 101.713 34.98 102.26 34.98C102.793 34.98 103.207 34.8733 103.5 34.66C103.807 34.4467 103.96 34.1733 103.96 33.84C103.96 33.48 103.773 33.2133 103.4 33.04C103.04 32.8533 102.46 32.6533 101.66 32.44C100.833 32.24 100.153 32.0333 99.6202 31.82C99.1002 31.6067 98.6468 31.28 98.2602 30.84C97.8868 30.4 97.7002 29.8067 97.7002 29.06C97.7002 28.4467 97.8735 27.8867 98.2202 27.38C98.5802 26.8733 99.0868 26.4733 99.7402 26.18C100.407 25.8867 101.187 25.74 102.08 25.74C103.4 25.74 104.453 26.0733 105.24 26.74C106.027 27.3933 106.46 28.28 106.54 29.4H103.86C103.82 28.96 103.633 28.6133 103.3 28.36C102.98 28.0933 102.547 27.96 102 27.96C101.493 27.96 101.1 28.0533 100.82 28.24C100.553 28.4267 100.42 28.6867 100.42 29.02C100.42 29.3933 100.607 29.68 100.98 29.88C101.353 30.0667 101.933 30.26 102.72 30.46C103.52 30.66 104.18 30.8667 104.7 31.08C105.22 31.2933 105.667 31.6267 106.04 32.08C106.427 32.52 106.627 33.1067 106.64 33.84C106.64 34.48 106.46 35.0533 106.1 35.56C105.753 36.0667 105.247 36.4667 104.58 36.76C103.927 37.04 103.16 37.18 102.28 37.18ZM112.199 28.22V33.58C112.199 33.9533 112.285 34.2267 112.459 34.4C112.645 34.56 112.952 34.64 113.379 34.64H114.679V37H112.919C110.559 37 109.379 35.8533 109.379 33.56V28.22H108.059V25.92H109.379V23.18H112.199V25.92H114.679V28.22H112.199ZM120.738 31.42C120.738 30.3 120.958 29.3067 121.398 28.44C121.851 27.5733 122.458 26.9067 123.218 26.44C123.991 25.9733 124.851 25.74 125.798 25.74C126.625 25.74 127.345 25.9067 127.958 26.24C128.585 26.5733 129.085 26.9933 129.458 27.5V25.92H132.278V37H129.458V35.38C129.098 35.9 128.598 36.3333 127.958 36.68C127.331 37.0133 126.605 37.18 125.778 37.18C124.845 37.18 123.991 36.94 123.218 36.46C122.458 35.98 121.851 35.3067 121.398 34.44C120.958 33.56 120.738 32.5533 120.738 31.42ZM129.458 31.46C129.458 30.78 129.325 30.2 129.058 29.72C128.791 29.2267 128.431 28.8533 127.978 28.6C127.525 28.3333 127.038 28.2 126.518 28.2C125.998 28.2 125.518 28.3267 125.078 28.58C124.638 28.8333 124.278 29.2067 123.998 29.7C123.731 30.18 123.598 30.7533 123.598 31.42C123.598 32.0867 123.731 32.6733 123.998 33.18C124.278 33.6733 124.638 34.0533 125.078 34.32C125.531 34.5867 126.011 34.72 126.518 34.72C127.038 34.72 127.525 34.5933 127.978 34.34C128.431 34.0733 128.791 33.7 129.058 33.22C129.325 32.7267 129.458 32.14 129.458 31.46ZM141.153 25.76C142.473 25.76 143.539 26.18 144.353 27.02C145.166 27.8467 145.573 29.0067 145.573 30.5V37H142.773V30.88C142.773 30 142.553 29.3267 142.113 28.86C141.673 28.38 141.073 28.14 140.313 28.14C139.539 28.14 138.926 28.38 138.473 28.86C138.033 29.3267 137.813 30 137.813 30.88V37H135.013V25.92H137.813V27.3C138.186 26.82 138.659 26.4467 139.233 26.18C139.819 25.9 140.459 25.76 141.153 25.76ZM147.515 31.42C147.515 30.3 147.735 29.3067 148.175 28.44C148.629 27.5733 149.242 26.9067 150.015 26.44C150.789 25.9733 151.649 25.74 152.595 25.74C153.315 25.74 154.002 25.9 154.655 26.22C155.309 26.5267 155.829 26.94 156.215 27.46V22.2H159.055V37H156.215V35.36C155.869 35.9067 155.382 36.3467 154.755 36.68C154.129 37.0133 153.402 37.18 152.575 37.18C151.642 37.18 150.789 36.94 150.015 36.46C149.242 35.98 148.629 35.3067 148.175 34.44C147.735 33.56 147.515 32.5533 147.515 31.42ZM156.235 31.46C156.235 30.78 156.102 30.2 155.835 29.72C155.569 29.2267 155.209 28.8533 154.755 28.6C154.302 28.3333 153.815 28.2 153.295 28.2C152.775 28.2 152.295 28.3267 151.855 28.58C151.415 28.8333 151.055 29.2067 150.775 29.7C150.509 30.18 150.375 30.7533 150.375 31.42C150.375 32.0867 150.509 32.6733 150.775 33.18C151.055 33.6733 151.415 34.0533 151.855 34.32C152.309 34.5867 152.789 34.72 153.295 34.72C153.815 34.72 154.302 34.5933 154.755 34.34C155.209 34.0733 155.569 33.7 155.835 33.22C156.102 32.7267 156.235 32.14 156.235 31.46ZM169.356 27.64C169.716 27.0533 170.182 26.5933 170.756 26.26C171.342 25.9267 172.009 25.76 172.756 25.76V28.7H172.016C171.136 28.7 170.469 28.9067 170.016 29.32C169.576 29.7333 169.356 30.4533 169.356 31.48V37H166.556V25.92H169.356V27.64ZM184.942 31.22C184.942 31.62 184.915 31.98 184.862 32.3H176.762C176.828 33.1 177.108 33.7267 177.602 34.18C178.095 34.6333 178.702 34.86 179.422 34.86C180.462 34.86 181.202 34.4133 181.642 33.52H184.662C184.342 34.5867 183.728 35.4667 182.822 36.16C181.915 36.84 180.802 37.18 179.482 37.18C178.415 37.18 177.455 36.9467 176.602 36.48C175.762 36 175.102 35.3267 174.622 34.46C174.155 33.5933 173.922 32.5933 173.922 31.46C173.922 30.3133 174.155 29.3067 174.622 28.44C175.088 27.5733 175.742 26.9067 176.582 26.44C177.422 25.9733 178.388 25.74 179.482 25.74C180.535 25.74 181.475 25.9667 182.302 26.42C183.142 26.8733 183.788 27.52 184.242 28.36C184.708 29.1867 184.942 30.14 184.942 31.22ZM182.042 30.42C182.028 29.7 181.768 29.1267 181.262 28.7C180.755 28.26 180.135 28.04 179.402 28.04C178.708 28.04 178.122 28.2533 177.642 28.68C177.175 29.0933 176.888 29.6733 176.782 30.42H182.042ZM189.785 22.2V37H186.985V22.2H189.785ZM193.972 24.6C193.479 24.6 193.065 24.4467 192.732 24.14C192.412 23.82 192.252 23.4267 192.252 22.96C192.252 22.4933 192.412 22.1067 192.732 21.8C193.065 21.48 193.479 21.32 193.972 21.32C194.465 21.32 194.872 21.48 195.192 21.8C195.525 22.1067 195.692 22.4933 195.692 22.96C195.692 23.4267 195.525 23.82 195.192 24.14C194.872 24.4467 194.465 24.6 193.972 24.6ZM195.352 25.92V37H192.552V25.92H195.352ZM197.398 31.42C197.398 30.3 197.618 29.3067 198.058 28.44C198.512 27.5733 199.118 26.9067 199.878 26.44C200.652 25.9733 201.512 25.74 202.458 25.74C203.285 25.74 204.005 25.9067 204.618 26.24C205.245 26.5733 205.745 26.9933 206.118 27.5V25.92H208.938V37H206.118V35.38C205.758 35.9 205.258 36.3333 204.618 36.68C203.992 37.0133 203.265 37.18 202.438 37.18C201.505 37.18 200.652 36.94 199.878 36.46C199.118 35.98 198.512 35.3067 198.058 34.44C197.618 33.56 197.398 32.5533 197.398 31.42ZM206.118 31.46C206.118 30.78 205.985 30.2 205.718 29.72C205.452 29.2267 205.092 28.8533 204.638 28.6C204.185 28.3333 203.698 28.2 203.178 28.2C202.658 28.2 202.178 28.3267 201.738 28.58C201.298 28.8333 200.938 29.2067 200.658 29.7C200.392 30.18 200.258 30.7533 200.258 31.42C200.258 32.0867 200.392 32.6733 200.658 33.18C200.938 33.6733 201.298 34.0533 201.738 34.32C202.192 34.5867 202.672 34.72 203.178 34.72C203.698 34.72 204.185 34.5933 204.638 34.34C205.092 34.0733 205.452 33.7 205.718 33.22C205.985 32.7267 206.118 32.14 206.118 31.46ZM214.473 27.54C214.833 27.0067 215.326 26.5733 215.953 26.24C216.593 25.9067 217.32 25.74 218.133 25.74C219.08 25.74 219.933 25.9733 220.693 26.44C221.466 26.9067 222.073 27.5733 222.513 28.44C222.966 29.2933 223.193 30.2867 223.193 31.42C223.193 32.5533 222.966 33.56 222.513 34.44C222.073 35.3067 221.466 35.98 220.693 36.46C219.933 36.94 219.08 37.18 218.133 37.18C217.306 37.18 216.58 37.02 215.953 36.7C215.34 36.3667 214.846 35.94 214.473 35.42V37H211.673V22.2H214.473V27.54ZM220.333 31.42C220.333 30.7533 220.193 30.18 219.913 29.7C219.646 29.2067 219.286 28.8333 218.833 28.58C218.393 28.3267 217.913 28.2 217.393 28.2C216.886 28.2 216.406 28.3333 215.953 28.6C215.513 28.8533 215.153 29.2267 214.873 29.72C214.606 30.2133 214.473 30.7933 214.473 31.46C214.473 32.1267 214.606 32.7067 214.873 33.2C215.153 33.6933 215.513 34.0733 215.953 34.34C216.406 34.5933 216.886 34.72 217.393 34.72C217.913 34.72 218.393 34.5867 218.833 34.32C219.286 34.0533 219.646 33.6733 219.913 33.18C220.193 32.6867 220.333 32.1 220.333 31.42ZM228.028 22.2V37H225.228V22.2H228.028ZM241.094 31.22C241.094 31.62 241.067 31.98 241.014 32.3H232.914C232.981 33.1 233.261 33.7267 233.754 34.18C234.247 34.6333 234.854 34.86 235.574 34.86C236.614 34.86 237.354 34.4133 237.794 33.52H240.814C240.494 34.5867 239.881 35.4667 238.974 36.16C238.067 36.84 236.954 37.18 235.634 37.18C234.567 37.18 233.607 36.9467 232.754 36.48C231.914 36 231.254 35.3267 230.774 34.46C230.307 33.5933 230.074 32.5933 230.074 31.46C230.074 30.3133 230.307 29.3067 230.774 28.44C231.241 27.5733 231.894 26.9067 232.734 26.44C233.574 25.9733 234.541 25.74 235.634 25.74C236.687 25.74 237.627 25.9667 238.454 26.42C239.294 26.8733 239.941 27.52 240.394 28.36C240.861 29.1867 241.094 30.14 241.094 31.22ZM238.194 30.42C238.181 29.7 237.921 29.1267 237.414 28.7C236.907 28.26 236.287 28.04 235.554 28.04C234.861 28.04 234.274 28.2533 233.794 28.68C233.327 29.0933 233.041 29.6733 232.934 30.42H238.194ZM252.143 37.18C251.237 37.18 250.423 37.02 249.703 36.7C248.983 36.3667 248.41 35.92 247.983 35.36C247.57 34.8 247.343 34.18 247.303 33.5H250.123C250.177 33.9267 250.383 34.28 250.743 34.56C251.117 34.84 251.577 34.98 252.123 34.98C252.657 34.98 253.07 34.8733 253.363 34.66C253.67 34.4467 253.823 34.1733 253.823 33.84C253.823 33.48 253.637 33.2133 253.263 33.04C252.903 32.8533 252.323 32.6533 251.523 32.44C250.697 32.24 250.017 32.0333 249.483 31.82C248.963 31.6067 248.51 31.28 248.123 30.84C247.75 30.4 247.563 29.8067 247.563 29.06C247.563 28.4467 247.737 27.8867 248.083 27.38C248.443 26.8733 248.95 26.4733 249.603 26.18C250.27 25.8867 251.05 25.74 251.943 25.74C253.263 25.74 254.317 26.0733 255.103 26.74C255.89 27.3933 256.323 28.28 256.403 29.4H253.723C253.683 28.96 253.497 28.6133 253.163 28.36C252.843 28.0933 252.41 27.96 251.863 27.96C251.357 27.96 250.963 28.0533 250.683 28.24C250.417 28.4267 250.283 28.6867 250.283 29.02C250.283 29.3933 250.47 29.68 250.843 29.88C251.217 30.0667 251.797 30.26 252.583 30.46C253.383 30.66 254.043 30.8667 254.563 31.08C255.083 31.2933 255.53 31.6267 255.903 32.08C256.29 32.52 256.49 33.1067 256.503 33.84C256.503 34.48 256.323 35.0533 255.963 35.56C255.617 36.0667 255.11 36.4667 254.443 36.76C253.79 37.04 253.023 37.18 252.143 37.18ZM263.722 37.18C262.655 37.18 261.695 36.9467 260.842 36.48C259.989 36 259.315 35.3267 258.822 34.46C258.342 33.5933 258.102 32.5933 258.102 31.46C258.102 30.3267 258.349 29.3267 258.842 28.46C259.349 27.5933 260.035 26.9267 260.902 26.46C261.769 25.98 262.735 25.74 263.802 25.74C264.869 25.74 265.835 25.98 266.702 26.46C267.569 26.9267 268.249 27.5933 268.742 28.46C269.249 29.3267 269.502 30.3267 269.502 31.46C269.502 32.5933 269.242 33.5933 268.722 34.46C268.215 35.3267 267.522 36 266.642 36.48C265.775 36.9467 264.802 37.18 263.722 37.18ZM263.722 34.74C264.229 34.74 264.702 34.62 265.142 34.38C265.595 34.1267 265.955 33.7533 266.222 33.26C266.489 32.7667 266.622 32.1667 266.622 31.46C266.622 30.4067 266.342 29.6 265.782 29.04C265.235 28.4667 264.562 28.18 263.762 28.18C262.962 28.18 262.289 28.4667 261.742 29.04C261.209 29.6 260.942 30.4067 260.942 31.46C260.942 32.5133 261.202 33.3267 261.722 33.9C262.255 34.46 262.922 34.74 263.722 34.74ZM276.636 28.22H274.696V37H271.856V28.22H270.596V25.92H271.856V25.36C271.856 24 272.242 23 273.016 22.36C273.789 21.72 274.956 21.42 276.516 21.46V23.82C275.836 23.8067 275.362 23.92 275.096 24.16C274.829 24.4 274.696 24.8333 274.696 25.46V25.92H276.636V28.22ZM281.71 28.22V33.58C281.71 33.9533 281.797 34.2267 281.97 34.4C282.157 34.56 282.464 34.64 282.89 34.64H284.19V37H282.43C280.07 37 278.89 35.8533 278.89 33.56V28.22H277.57V25.92H278.89V23.18H281.71V25.92H284.19V28.22H281.71ZM301.564 25.92L298.324 37H295.304L293.284 29.26L291.264 37H288.224L284.964 25.92H287.804L289.764 34.36L291.884 25.92H294.844L296.924 34.34L298.884 25.92H301.564ZM302.359 31.42C302.359 30.3 302.579 29.3067 303.019 28.44C303.473 27.5733 304.079 26.9067 304.839 26.44C305.613 25.9733 306.473 25.74 307.419 25.74C308.246 25.74 308.966 25.9067 309.579 26.24C310.206 26.5733 310.706 26.9933 311.079 27.5V25.92H313.899V37H311.079V35.38C310.719 35.9 310.219 36.3333 309.579 36.68C308.953 37.0133 308.226 37.18 307.399 37.18C306.466 37.18 305.613 36.94 304.839 36.46C304.079 35.98 303.473 35.3067 303.019 34.44C302.579 33.56 302.359 32.5533 302.359 31.42ZM311.079 31.46C311.079 30.78 310.946 30.2 310.679 29.72C310.413 29.2267 310.053 28.8533 309.599 28.6C309.146 28.3333 308.659 28.2 308.139 28.2C307.619 28.2 307.139 28.3267 306.699 28.58C306.259 28.8333 305.899 29.2067 305.619 29.7C305.353 30.18 305.219 30.7533 305.219 31.42C305.219 32.0867 305.353 32.6733 305.619 33.18C305.899 33.6733 306.259 34.0533 306.699 34.32C307.153 34.5867 307.633 34.72 308.139 34.72C308.659 34.72 309.146 34.5933 309.599 34.34C310.053 34.0733 310.413 33.7 310.679 33.22C310.946 32.7267 311.079 32.14 311.079 31.46ZM319.434 27.64C319.794 27.0533 320.261 26.5933 320.834 26.26C321.421 25.9267 322.087 25.76 322.834 25.76V28.7H322.094C321.214 28.7 320.547 28.9067 320.094 29.32C319.654 29.7333 319.434 30.4533 319.434 31.48V37H316.634V25.92H319.434V27.64ZM335.02 31.22C335.02 31.62 334.993 31.98 334.94 32.3H326.84C326.907 33.1 327.187 33.7267 327.68 34.18C328.173 34.6333 328.78 34.86 329.5 34.86C330.54 34.86 331.28 34.4133 331.72 33.52H334.74C334.42 34.5867 333.807 35.4667 332.9 36.16C331.993 36.84 330.88 37.18 329.56 37.18C328.493 37.18 327.533 36.9467 326.68 36.48C325.84 36 325.18 35.3267 324.7 34.46C324.233 33.5933 324 32.5933 324 31.46C324 30.3133 324.233 29.3067 324.7 28.44C325.167 27.5733 325.82 26.9067 326.66 26.44C327.5 25.9733 328.467 25.74 329.56 25.74C330.613 25.74 331.553 25.9667 332.38 26.42C333.22 26.8733 333.867 27.52 334.32 28.36C334.787 29.1867 335.02 30.14 335.02 31.22ZM332.12 30.42C332.107 29.7 331.847 29.1267 331.34 28.7C330.833 28.26 330.213 28.04 329.48 28.04C328.787 28.04 328.2 28.2533 327.72 28.68C327.253 29.0933 326.967 29.6733 326.86 30.42H332.12ZM45.62 57.18C44.7133 57.18 43.9 57.02 43.18 56.7C42.46 56.3667 41.8867 55.92 41.46 55.36C41.0467 54.8 40.82 54.18 40.78 53.5H43.6C43.6533 53.9267 43.86 54.28 44.22 54.56C44.5933 54.84 45.0533 54.98 45.6 54.98C46.1333 54.98 46.5467 54.8733 46.84 54.66C47.1467 54.4467 47.3 54.1733 47.3 53.84C47.3 53.48 47.1133 53.2133 46.74 53.04C46.38 52.8533 45.8 52.6533 45 52.44C44.1733 52.24 43.4933 52.0333 42.96 51.82C42.44 51.6067 41.9867 51.28 41.6 50.84C41.2267 50.4 41.04 49.8067 41.04 49.06C41.04 48.4467 41.2133 47.8867 41.56 47.38C41.92 46.8733 42.4267 46.4733 43.08 46.18C43.7467 45.8867 44.5267 45.74 45.42 45.74C46.74 45.74 47.7933 46.0733 48.58 46.74C49.3667 47.3933 49.8 48.28 49.88 49.4H47.2C47.16 48.96 46.9733 48.6133 46.64 48.36C46.32 48.0933 45.8867 47.96 45.34 47.96C44.8333 47.96 44.44 48.0533 44.16 48.24C43.8933 48.4267 43.76 48.6867 43.76 49.02C43.76 49.3933 43.9467 49.68 44.32 49.88C44.6933 50.0667 45.2733 50.26 46.06 50.46C46.86 50.66 47.52 50.8667 48.04 51.08C48.56 51.2933 49.0067 51.6267 49.38 52.08C49.7667 52.52 49.9667 53.1067 49.98 53.84C49.98 54.48 49.8 55.0533 49.44 55.56C49.0933 56.0667 48.5867 56.4667 47.92 56.76C47.2667 57.04 46.5 57.18 45.62 57.18ZM57.1984 57.18C56.1318 57.18 55.1718 56.9467 54.3184 56.48C53.4651 56 52.7918 55.3267 52.2984 54.46C51.8184 53.5933 51.5784 52.5933 51.5784 51.46C51.5784 50.3267 51.8251 49.3267 52.3184 48.46C52.8251 47.5933 53.5118 46.9267 54.3784 46.46C55.2451 45.98 56.2118 45.74 57.2784 45.74C58.3451 45.74 59.3118 45.98 60.1784 46.46C61.0451 46.9267 61.7251 47.5933 62.2184 48.46C62.7251 49.3267 62.9784 50.3267 62.9784 51.46C62.9784 52.5933 62.7184 53.5933 62.1984 54.46C61.6918 55.3267 60.9984 56 60.1184 56.48C59.2518 56.9467 58.2784 57.18 57.1984 57.18ZM57.1984 54.74C57.7051 54.74 58.1784 54.62 58.6184 54.38C59.0718 54.1267 59.4318 53.7533 59.6984 53.26C59.9651 52.7667 60.0984 52.1667 60.0984 51.46C60.0984 50.4067 59.8184 49.6 59.2584 49.04C58.7118 48.4667 58.0384 48.18 57.2384 48.18C56.4384 48.18 55.7651 48.4667 55.2184 49.04C54.6851 49.6 54.4184 50.4067 54.4184 51.46C54.4184 52.5133 54.6784 53.3267 55.1984 53.9C55.7318 54.46 56.3984 54.74 57.1984 54.74ZM67.8323 42.2V57H65.0323V42.2H67.8323ZM81.0588 45.92V57H78.2388V55.6C77.8788 56.08 77.4054 56.46 76.8188 56.74C76.2454 57.0067 75.6188 57.14 74.9388 57.14C74.0721 57.14 73.3054 56.96 72.6388 56.6C71.9721 56.2267 71.4454 55.6867 71.0588 54.98C70.6854 54.26 70.4988 53.4067 70.4988 52.42V45.92H73.2988V52.02C73.2988 52.9 73.5188 53.58 73.9588 54.06C74.3988 54.5267 74.9988 54.76 75.7588 54.76C76.5321 54.76 77.1388 54.5267 77.5788 54.06C78.0188 53.58 78.2388 52.9 78.2388 52.02V45.92H81.0588ZM87.0814 48.22V53.58C87.0814 53.9533 87.1681 54.2267 87.3414 54.4C87.5281 54.56 87.8347 54.64 88.2614 54.64H89.5614V57H87.8014C85.4414 57 84.2614 55.8533 84.2614 53.56V48.22H82.9414V45.92H84.2614V43.18H87.0814V45.92H89.5614V48.22H87.0814ZM92.9953 44.6C92.502 44.6 92.0886 44.4467 91.7553 44.14C91.4353 43.82 91.2753 43.4267 91.2753 42.96C91.2753 42.4933 91.4353 42.1067 91.7553 41.8C92.0886 41.48 92.502 41.32 92.9953 41.32C93.4886 41.32 93.8953 41.48 94.2153 41.8C94.5486 42.1067 94.7153 42.4933 94.7153 42.96C94.7153 43.4267 94.5486 43.82 94.2153 44.14C93.8953 44.4467 93.4886 44.6 92.9953 44.6ZM94.3753 45.92V57H91.5753V45.92H94.3753ZM102.062 57.18C100.995 57.18 100.035 56.9467 99.1817 56.48C98.3284 56 97.6551 55.3267 97.1617 54.46C96.6817 53.5933 96.4417 52.5933 96.4417 51.46C96.4417 50.3267 96.6884 49.3267 97.1817 48.46C97.6884 47.5933 98.3751 46.9267 99.2417 46.46C100.108 45.98 101.075 45.74 102.142 45.74C103.208 45.74 104.175 45.98 105.042 46.46C105.908 46.9267 106.588 47.5933 107.082 48.46C107.588 49.3267 107.842 50.3267 107.842 51.46C107.842 52.5933 107.582 53.5933 107.062 54.46C106.555 55.3267 105.862 56 104.982 56.48C104.115 56.9467 103.142 57.18 102.062 57.18ZM102.062 54.74C102.568 54.74 103.042 54.62 103.482 54.38C103.935 54.1267 104.295 53.7533 104.562 53.26C104.828 52.7667 104.962 52.1667 104.962 51.46C104.962 50.4067 104.682 49.6 104.122 49.04C103.575 48.4667 102.902 48.18 102.102 48.18C101.302 48.18 100.628 48.4667 100.082 49.04C99.5484 49.6 99.2817 50.4067 99.2817 51.46C99.2817 52.5133 99.5417 53.3267 100.062 53.9C100.595 54.46 101.262 54.74 102.062 54.74ZM116.036 45.76C117.356 45.76 118.422 46.18 119.236 47.02C120.049 47.8467 120.456 49.0067 120.456 50.5V57H117.656V50.88C117.656 50 117.436 49.3267 116.996 48.86C116.556 48.38 115.956 48.14 115.196 48.14C114.422 48.14 113.809 48.38 113.356 48.86C112.916 49.3267 112.696 50 112.696 50.88V57H109.896V45.92H112.696V47.3C113.069 46.82 113.542 46.4467 114.116 46.18C114.702 45.9 115.342 45.76 116.036 45.76ZM127.358 57.18C126.452 57.18 125.638 57.02 124.918 56.7C124.198 56.3667 123.625 55.92 123.198 55.36C122.785 54.8 122.558 54.18 122.518 53.5H125.338C125.392 53.9267 125.598 54.28 125.958 54.56C126.332 54.84 126.792 54.98 127.338 54.98C127.872 54.98 128.285 54.8733 128.578 54.66C128.885 54.4467 129.038 54.1733 129.038 53.84C129.038 53.48 128.852 53.2133 128.478 53.04C128.118 52.8533 127.538 52.6533 126.738 52.44C125.912 52.24 125.232 52.0333 124.698 51.82C124.178 51.6067 123.725 51.28 123.338 50.84C122.965 50.4 122.778 49.8067 122.778 49.06C122.778 48.4467 122.952 47.8867 123.298 47.38C123.658 46.8733 124.165 46.4733 124.818 46.18C125.485 45.8867 126.265 45.74 127.158 45.74C128.478 45.74 129.532 46.0733 130.318 46.74C131.105 47.3933 131.538 48.28 131.618 49.4H128.938C128.898 48.96 128.712 48.6133 128.378 48.36C128.058 48.0933 127.625 47.96 127.078 47.96C126.572 47.96 126.178 48.0533 125.898 48.24C125.632 48.4267 125.498 48.6867 125.498 49.02C125.498 49.3933 125.685 49.68 126.058 49.88C126.432 50.0667 127.012 50.26 127.798 50.46C128.598 50.66 129.258 50.8667 129.778 51.08C130.298 51.2933 130.745 51.6267 131.118 52.08C131.505 52.52 131.705 53.1067 131.718 53.84C131.718 54.48 131.538 55.0533 131.178 55.56C130.832 56.0667 130.325 56.4667 129.658 56.76C129.005 57.04 128.238 57.18 127.358 57.18ZM143.862 48.22H141.922V57H139.082V48.22H137.822V45.92H139.082V45.36C139.082 44 139.469 43 140.242 42.36C141.016 41.72 142.182 41.42 143.742 41.46V43.82C143.062 43.8067 142.589 43.92 142.322 44.16C142.056 44.4 141.922 44.8333 141.922 45.46V45.92H143.862V48.22ZM150.597 57.18C149.53 57.18 148.57 56.9467 147.717 56.48C146.864 56 146.19 55.3267 145.697 54.46C145.217 53.5933 144.977 52.5933 144.977 51.46C144.977 50.3267 145.224 49.3267 145.717 48.46C146.224 47.5933 146.91 46.9267 147.777 46.46C148.644 45.98 149.61 45.74 150.677 45.74C151.744 45.74 152.71 45.98 153.577 46.46C154.444 46.9267 155.124 47.5933 155.617 48.46C156.124 49.3267 156.377 50.3267 156.377 51.46C156.377 52.5933 156.117 53.5933 155.597 54.46C155.09 55.3267 154.397 56 153.517 56.48C152.65 56.9467 151.677 57.18 150.597 57.18ZM150.597 54.74C151.104 54.74 151.577 54.62 152.017 54.38C152.47 54.1267 152.83 53.7533 153.097 53.26C153.364 52.7667 153.497 52.1667 153.497 51.46C153.497 50.4067 153.217 49.6 152.657 49.04C152.11 48.4667 151.437 48.18 150.637 48.18C149.837 48.18 149.164 48.4667 148.617 49.04C148.084 49.6 147.817 50.4067 147.817 51.46C147.817 52.5133 148.077 53.3267 148.597 53.9C149.13 54.46 149.797 54.74 150.597 54.74ZM161.231 47.64C161.591 47.0533 162.057 46.5933 162.631 46.26C163.217 45.9267 163.884 45.76 164.631 45.76V48.7H163.891C163.011 48.7 162.344 48.9067 161.891 49.32C161.451 49.7333 161.231 50.4533 161.231 51.48V57H158.431V45.92H161.231V47.64ZM181.882 45.92L175.022 62.24H172.042L174.442 56.72L170.002 45.92H173.142L176.002 53.66L178.902 45.92H181.882ZM188.312 57.18C187.245 57.18 186.285 56.9467 185.432 56.48C184.578 56 183.905 55.3267 183.412 54.46C182.932 53.5933 182.692 52.5933 182.692 51.46C182.692 50.3267 182.938 49.3267 183.432 48.46C183.938 47.5933 184.625 46.9267 185.492 46.46C186.358 45.98 187.325 45.74 188.392 45.74C189.458 45.74 190.425 45.98 191.292 46.46C192.158 46.9267 192.838 47.5933 193.332 48.46C193.838 49.3267 194.092 50.3267 194.092 51.46C194.092 52.5933 193.832 53.5933 193.312 54.46C192.805 55.3267 192.112 56 191.232 56.48C190.365 56.9467 189.392 57.18 188.312 57.18ZM188.312 54.74C188.818 54.74 189.292 54.62 189.732 54.38C190.185 54.1267 190.545 53.7533 190.812 53.26C191.078 52.7667 191.212 52.1667 191.212 51.46C191.212 50.4067 190.932 49.6 190.372 49.04C189.825 48.4667 189.152 48.18 188.352 48.18C187.552 48.18 186.878 48.4667 186.332 49.04C185.798 49.6 185.532 50.4067 185.532 51.46C185.532 52.5133 185.792 53.3267 186.312 53.9C186.845 54.46 187.512 54.74 188.312 54.74ZM206.606 45.92V57H203.786V55.6C203.426 56.08 202.952 56.46 202.366 56.74C201.792 57.0067 201.166 57.14 200.486 57.14C199.619 57.14 198.852 56.96 198.186 56.6C197.519 56.2267 196.992 55.6867 196.606 54.98C196.232 54.26 196.046 53.4067 196.046 52.42V45.92H198.846V52.02C198.846 52.9 199.066 53.58 199.506 54.06C199.946 54.5267 200.546 54.76 201.306 54.76C202.079 54.76 202.686 54.5267 203.126 54.06C203.566 53.58 203.786 52.9 203.786 52.02V45.92H206.606ZM212.168 47.64C212.528 47.0533 212.995 46.5933 213.568 46.26C214.155 45.9267 214.822 45.76 215.568 45.76V48.7H214.828C213.948 48.7 213.282 48.9067 212.828 49.32C212.388 49.7333 212.168 50.4533 212.168 51.48V57H209.368V45.92H212.168V47.64ZM221.5 51.46C221.5 50.3133 221.733 49.3133 222.2 48.46C222.667 47.5933 223.313 46.9267 224.14 46.46C224.967 45.98 225.913 45.74 226.98 45.74C228.353 45.74 229.487 46.0867 230.38 46.78C231.287 47.46 231.893 48.42 232.2 49.66H229.18C229.02 49.18 228.747 48.8067 228.36 48.54C227.987 48.26 227.52 48.12 226.96 48.12C226.16 48.12 225.527 48.4133 225.06 49C224.593 49.5733 224.36 50.3933 224.36 51.46C224.36 52.5133 224.593 53.3333 225.06 53.92C225.527 54.4933 226.16 54.78 226.96 54.78C228.093 54.78 228.833 54.2733 229.18 53.26H232.2C231.893 54.46 231.287 55.4133 230.38 56.12C229.473 56.8267 228.34 57.18 226.98 57.18C225.913 57.18 224.967 56.9467 224.14 56.48C223.313 56 222.667 55.3333 222.2 54.48C221.733 53.6133 221.5 52.6067 221.5 51.46ZM239.171 57.18C238.104 57.18 237.144 56.9467 236.291 56.48C235.438 56 234.764 55.3267 234.271 54.46C233.791 53.5933 233.551 52.5933 233.551 51.46C233.551 50.3267 233.798 49.3267 234.291 48.46C234.798 47.5933 235.484 46.9267 236.351 46.46C237.218 45.98 238.184 45.74 239.251 45.74C240.318 45.74 241.284 45.98 242.151 46.46C243.018 46.9267 243.698 47.5933 244.191 48.46C244.698 49.3267 244.951 50.3267 244.951 51.46C244.951 52.5933 244.691 53.5933 244.171 54.46C243.664 55.3267 242.971 56 242.091 56.48C241.224 56.9467 240.251 57.18 239.171 57.18ZM239.171 54.74C239.678 54.74 240.151 54.62 240.591 54.38C241.044 54.1267 241.404 53.7533 241.671 53.26C241.938 52.7667 242.071 52.1667 242.071 51.46C242.071 50.4067 241.791 49.6 241.231 49.04C240.684 48.4667 240.011 48.18 239.211 48.18C238.411 48.18 237.738 48.4667 237.191 49.04C236.658 49.6 236.391 50.4067 236.391 51.46C236.391 52.5133 236.651 53.3267 237.171 53.9C237.704 54.46 238.371 54.74 239.171 54.74ZM260.765 45.76C262.125 45.76 263.218 46.18 264.045 47.02C264.885 47.8467 265.305 49.0067 265.305 50.5V57H262.505V50.88C262.505 50.0133 262.285 49.3533 261.845 48.9C261.405 48.4333 260.805 48.2 260.045 48.2C259.285 48.2 258.678 48.4333 258.225 48.9C257.785 49.3533 257.565 50.0133 257.565 50.88V57H254.765V50.88C254.765 50.0133 254.545 49.3533 254.105 48.9C253.665 48.4333 253.065 48.2 252.305 48.2C251.532 48.2 250.918 48.4333 250.465 48.9C250.025 49.3533 249.805 50.0133 249.805 50.88V57H247.005V45.92H249.805V47.26C250.165 46.7933 250.625 46.4267 251.185 46.16C251.758 45.8933 252.385 45.76 253.065 45.76C253.932 45.76 254.705 45.9467 255.385 46.32C256.065 46.68 256.592 47.2 256.965 47.88C257.325 47.24 257.845 46.7267 258.525 46.34C259.218 45.9533 259.965 45.76 260.765 45.76ZM270.762 47.52C271.122 47.0133 271.615 46.5933 272.242 46.26C272.882 45.9133 273.609 45.74 274.422 45.74C275.369 45.74 276.222 45.9733 276.982 46.44C277.755 46.9067 278.362 47.5733 278.802 48.44C279.255 49.2933 279.482 50.2867 279.482 51.42C279.482 52.5533 279.255 53.56 278.802 54.44C278.362 55.3067 277.755 55.98 276.982 56.46C276.222 56.94 275.369 57.18 274.422 57.18C273.609 57.18 272.889 57.0133 272.262 56.68C271.649 56.3467 271.149 55.9267 270.762 55.42V62.28H267.962V45.92H270.762V47.52ZM276.622 51.42C276.622 50.7533 276.482 50.18 276.202 49.7C275.935 49.2067 275.575 48.8333 275.122 48.58C274.682 48.3267 274.202 48.2 273.682 48.2C273.175 48.2 272.695 48.3333 272.242 48.6C271.802 48.8533 271.442 49.2267 271.162 49.72C270.895 50.2133 270.762 50.7933 270.762 51.46C270.762 52.1267 270.895 52.7067 271.162 53.2C271.442 53.6933 271.802 54.0733 272.242 54.34C272.695 54.5933 273.175 54.72 273.682 54.72C274.202 54.72 274.682 54.5867 275.122 54.32C275.575 54.0533 275.935 53.6733 276.202 53.18C276.482 52.6867 276.622 52.1 276.622 51.42ZM280.797 51.42C280.797 50.3 281.017 49.3067 281.457 48.44C281.91 47.5733 282.517 46.9067 283.277 46.44C284.05 45.9733 284.91 45.74 285.857 45.74C286.683 45.74 287.403 45.9067 288.017 46.24C288.643 46.5733 289.143 46.9933 289.517 47.5V45.92H292.337V57H289.517V55.38C289.157 55.9 288.657 56.3333 288.017 56.68C287.39 57.0133 286.663 57.18 285.837 57.18C284.903 57.18 284.05 56.94 283.277 56.46C282.517 55.98 281.91 55.3067 281.457 54.44C281.017 53.56 280.797 52.5533 280.797 51.42ZM289.517 51.46C289.517 50.78 289.383 50.2 289.117 49.72C288.85 49.2267 288.49 48.8533 288.037 48.6C287.583 48.3333 287.097 48.2 286.577 48.2C286.057 48.2 285.577 48.3267 285.137 48.58C284.697 48.8333 284.337 49.2067 284.057 49.7C283.79 50.18 283.657 50.7533 283.657 51.42C283.657 52.0867 283.79 52.6733 284.057 53.18C284.337 53.6733 284.697 54.0533 285.137 54.32C285.59 54.5867 286.07 54.72 286.577 54.72C287.097 54.72 287.583 54.5933 288.037 54.34C288.49 54.0733 288.85 53.7 289.117 53.22C289.383 52.7267 289.517 52.14 289.517 51.46ZM301.211 45.76C302.531 45.76 303.598 46.18 304.411 47.02C305.225 47.8467 305.631 49.0067 305.631 50.5V57H302.831V50.88C302.831 50 302.611 49.3267 302.171 48.86C301.731 48.38 301.131 48.14 300.371 48.14C299.598 48.14 298.985 48.38 298.531 48.86C298.091 49.3267 297.871 50 297.871 50.88V57H295.071V45.92H297.871V47.3C298.245 46.82 298.718 46.4467 299.291 46.18C299.878 45.9 300.518 45.76 301.211 45.76ZM318.894 45.92L312.034 62.24H309.054L311.454 56.72L307.014 45.92H310.154L313.014 53.66L315.914 45.92H318.894ZM323.463 54.06L321.123 59.68H319.323L320.623 54.06H323.463ZM335.167 57.18C334.101 57.18 333.141 56.9467 332.287 56.48C331.434 56 330.761 55.3267 330.267 54.46C329.787 53.5933 329.547 52.5933 329.547 51.46C329.547 50.3267 329.794 49.3267 330.287 48.46C330.794 47.5933 331.481 46.9267 332.347 46.46C333.214 45.98 334.181 45.74 335.247 45.74C336.314 45.74 337.281 45.98 338.147 46.46C339.014 46.9267 339.694 47.5933 340.187 48.46C340.694 49.3267 340.947 50.3267 340.947 51.46C340.947 52.5933 340.687 53.5933 340.167 54.46C339.661 55.3267 338.967 56 338.087 56.48C337.221 56.9467 336.247 57.18 335.167 57.18ZM335.167 54.74C335.674 54.74 336.147 54.62 336.587 54.38C337.041 54.1267 337.401 53.7533 337.667 53.26C337.934 52.7667 338.067 52.1667 338.067 51.46C338.067 50.4067 337.787 49.6 337.227 49.04C336.681 48.4667 336.007 48.18 335.207 48.18C334.407 48.18 333.734 48.4667 333.187 49.04C332.654 49.6 332.387 50.4067 332.387 51.46C332.387 52.5133 332.647 53.3267 333.167 53.9C333.701 54.46 334.367 54.74 335.167 54.74ZM353.461 45.92V57H350.641V55.6C350.281 56.08 349.808 56.46 349.221 56.74C348.648 57.0067 348.021 57.14 347.341 57.14C346.474 57.14 345.708 56.96 345.041 56.6C344.374 56.2267 343.848 55.6867 343.461 54.98C343.088 54.26 342.901 53.4067 342.901 52.42V45.92H345.701V52.02C345.701 52.9 345.921 53.58 346.361 54.06C346.801 54.5267 347.401 54.76 348.161 54.76C348.934 54.76 349.541 54.5267 349.981 54.06C350.421 53.58 350.641 52.9 350.641 52.02V45.92H353.461ZM359.024 47.64C359.384 47.0533 359.85 46.5933 360.424 46.26C361.01 45.9267 361.677 45.76 362.424 45.76V48.7H361.684C360.804 48.7 360.137 48.9067 359.684 49.32C359.244 49.7333 359.024 50.4533 359.024 51.48V57H356.224V45.92H359.024V47.64ZM51.68 71.22C51.68 71.62 51.6533 71.98 51.6 72.3H43.5C43.5667 73.1 43.8467 73.7267 44.34 74.18C44.8333 74.6333 45.44 74.86 46.16 74.86C47.2 74.86 47.94 74.4133 48.38 73.52H51.4C51.08 74.5867 50.4667 75.4667 49.56 76.16C48.6533 76.84 47.54 77.18 46.22 77.18C45.1533 77.18 44.1933 76.9467 43.34 76.48C42.5 76 41.84 75.3267 41.36 74.46C40.8933 73.5933 40.66 72.5933 40.66 71.46C40.66 70.3133 40.8933 69.3067 41.36 68.44C41.8267 67.5733 42.48 66.9067 43.32 66.44C44.16 65.9733 45.1267 65.74 46.22 65.74C47.2733 65.74 48.2133 65.9667 49.04 66.42C49.88 66.8733 50.5267 67.52 50.98 68.36C51.4467 69.1867 51.68 70.14 51.68 71.22ZM48.78 70.42C48.7667 69.7 48.5067 69.1267 48 68.7C47.4933 68.26 46.8733 68.04 46.14 68.04C45.4467 68.04 44.86 68.2533 44.38 68.68C43.9133 69.0933 43.6267 69.6733 43.52 70.42H48.78ZM59.8438 77L57.5638 73.56L55.5438 77H52.5438L56.1638 71.44L52.5038 65.92H55.6638L57.9238 69.34L59.9638 65.92H62.9638L59.3238 71.44L63.0038 77H59.8438ZM67.3245 67.52C67.6845 67.0133 68.1779 66.5933 68.8045 66.26C69.4445 65.9133 70.1712 65.74 70.9845 65.74C71.9312 65.74 72.7845 65.9733 73.5445 66.44C74.3179 66.9067 74.9245 67.5733 75.3645 68.44C75.8179 69.2933 76.0445 70.2867 76.0445 71.42C76.0445 72.5533 75.8179 73.56 75.3645 74.44C74.9245 75.3067 74.3179 75.98 73.5445 76.46C72.7845 76.94 71.9312 77.18 70.9845 77.18C70.1712 77.18 69.4512 77.0133 68.8245 76.68C68.2112 76.3467 67.7112 75.9267 67.3245 75.42V82.28H64.5245V65.92H67.3245V67.52ZM73.1845 71.42C73.1845 70.7533 73.0445 70.18 72.7645 69.7C72.4979 69.2067 72.1379 68.8333 71.6845 68.58C71.2445 68.3267 70.7645 68.2 70.2445 68.2C69.7379 68.2 69.2579 68.3333 68.8045 68.6C68.3645 68.8533 68.0045 69.2267 67.7245 69.72C67.4579 70.2133 67.3245 70.7933 67.3245 71.46C67.3245 72.1267 67.4579 72.7067 67.7245 73.2C68.0045 73.6933 68.3645 74.0733 68.8045 74.34C69.2579 74.5933 69.7379 74.72 70.2445 74.72C70.7645 74.72 71.2445 74.5867 71.6845 74.32C72.1379 74.0533 72.4979 73.6733 72.7645 73.18C73.0445 72.6867 73.1845 72.1 73.1845 71.42ZM88.3792 71.22C88.3792 71.62 88.3526 71.98 88.2992 72.3H80.1992C80.2659 73.1 80.5459 73.7267 81.0392 74.18C81.5326 74.6333 82.1392 74.86 82.8592 74.86C83.8992 74.86 84.6392 74.4133 85.0792 73.52H88.0992C87.7792 74.5867 87.1659 75.4667 86.2592 76.16C85.3526 76.84 84.2392 77.18 82.9192 77.18C81.8526 77.18 80.8926 76.9467 80.0392 76.48C79.1992 76 78.5392 75.3267 78.0592 74.46C77.5926 73.5933 77.3592 72.5933 77.3592 71.46C77.3592 70.3133 77.5926 69.3067 78.0592 68.44C78.5259 67.5733 79.1792 66.9067 80.0192 66.44C80.8592 65.9733 81.8259 65.74 82.9192 65.74C83.9726 65.74 84.9126 65.9667 85.7392 66.42C86.5792 66.8733 87.2259 67.52 87.6792 68.36C88.1459 69.1867 88.3792 70.14 88.3792 71.22ZM85.4792 70.42C85.4659 69.7 85.2059 69.1267 84.6992 68.7C84.1926 68.26 83.5726 68.04 82.8392 68.04C82.1459 68.04 81.5592 68.2533 81.0792 68.68C80.6126 69.0933 80.3259 69.6733 80.2192 70.42H85.4792ZM93.223 67.64C93.583 67.0533 94.0496 66.5933 94.623 66.26C95.2096 65.9267 95.8763 65.76 96.623 65.76V68.7H95.883C95.003 68.7 94.3363 68.9067 93.883 69.32C93.443 69.7333 93.223 70.4533 93.223 71.48V77H90.423V65.92H93.223V67.64ZM101.769 68.22V73.58C101.769 73.9533 101.856 74.2267 102.029 74.4C102.216 74.56 102.522 74.64 102.949 74.64H104.249V77H102.489C100.129 77 98.9489 75.8533 98.9489 73.56V68.22H97.6289V65.92H98.9489V63.18H101.769V65.92H104.249V68.22H101.769ZM114.288 68.22V73.58C114.288 73.9533 114.375 74.2267 114.548 74.4C114.735 74.56 115.042 74.64 115.468 74.64H116.768V77H115.008C112.648 77 111.468 75.8533 111.468 73.56V68.22H110.148V65.92H111.468V63.18H114.288V65.92H116.768V68.22H114.288ZM129.082 71.22C129.082 71.62 129.056 71.98 129.002 72.3H120.902C120.969 73.1 121.249 73.7267 121.742 74.18C122.236 74.6333 122.842 74.86 123.562 74.86C124.602 74.86 125.342 74.4133 125.782 73.52H128.802C128.482 74.5867 127.869 75.4667 126.962 76.16C126.056 76.84 124.942 77.18 123.622 77.18C122.556 77.18 121.596 76.9467 120.742 76.48C119.902 76 119.242 75.3267 118.762 74.46C118.296 73.5933 118.062 72.5933 118.062 71.46C118.062 70.3133 118.296 69.3067 118.762 68.44C119.229 67.5733 119.882 66.9067 120.722 66.44C121.562 65.9733 122.529 65.74 123.622 65.74C124.676 65.74 125.616 65.9667 126.442 66.42C127.282 66.8733 127.929 67.52 128.382 68.36C128.849 69.1867 129.082 70.14 129.082 71.22ZM126.182 70.42C126.169 69.7 125.909 69.1267 125.402 68.7C124.896 68.26 124.276 68.04 123.542 68.04C122.849 68.04 122.262 68.2533 121.782 68.68C121.316 69.0933 121.029 69.6733 120.922 70.42H126.182ZM130.406 71.42C130.406 70.3 130.626 69.3067 131.066 68.44C131.519 67.5733 132.126 66.9067 132.886 66.44C133.659 65.9733 134.519 65.74 135.466 65.74C136.293 65.74 137.013 65.9067 137.626 66.24C138.253 66.5733 138.753 66.9933 139.126 67.5V65.92H141.946V77H139.126V75.38C138.766 75.9 138.266 76.3333 137.626 76.68C136.999 77.0133 136.273 77.18 135.446 77.18C134.513 77.18 133.659 76.94 132.886 76.46C132.126 75.98 131.519 75.3067 131.066 74.44C130.626 73.56 130.406 72.5533 130.406 71.42ZM139.126 71.46C139.126 70.78 138.993 70.2 138.726 69.72C138.459 69.2267 138.099 68.8533 137.646 68.6C137.193 68.3333 136.706 68.2 136.186 68.2C135.666 68.2 135.186 68.3267 134.746 68.58C134.306 68.8333 133.946 69.2067 133.666 69.7C133.399 70.18 133.266 70.7533 133.266 71.42C133.266 72.0867 133.399 72.6733 133.666 73.18C133.946 73.6733 134.306 74.0533 134.746 74.32C135.199 74.5867 135.679 74.72 136.186 74.72C136.706 74.72 137.193 74.5933 137.646 74.34C138.099 74.0733 138.459 73.7 138.726 73.22C138.993 72.7267 139.126 72.14 139.126 71.46ZM158.441 65.76C159.801 65.76 160.894 66.18 161.721 67.02C162.561 67.8467 162.981 69.0067 162.981 70.5V77H160.181V70.88C160.181 70.0133 159.961 69.3533 159.521 68.9C159.081 68.4333 158.481 68.2 157.721 68.2C156.961 68.2 156.354 68.4333 155.901 68.9C155.461 69.3533 155.241 70.0133 155.241 70.88V77H152.441V70.88C152.441 70.0133 152.221 69.3533 151.781 68.9C151.341 68.4333 150.741 68.2 149.981 68.2C149.207 68.2 148.594 68.4333 148.141 68.9C147.701 69.3533 147.481 70.0133 147.481 70.88V77H144.681V65.92H147.481V67.26C147.841 66.7933 148.301 66.4267 148.861 66.16C149.434 65.8933 150.061 65.76 150.741 65.76C151.607 65.76 152.381 65.9467 153.061 66.32C153.741 66.68 154.267 67.2 154.641 67.88C155.001 67.24 155.521 66.7267 156.201 66.34C156.894 65.9533 157.641 65.76 158.441 65.76ZM169.683 71.42C169.683 70.3 169.903 69.3067 170.343 68.44C170.797 67.5733 171.41 66.9067 172.183 66.44C172.957 65.9733 173.817 65.74 174.763 65.74C175.483 65.74 176.17 65.9 176.823 66.22C177.477 66.5267 177.997 66.94 178.383 67.46V62.2H181.223V77H178.383V75.36C178.037 75.9067 177.55 76.3467 176.923 76.68C176.297 77.0133 175.57 77.18 174.743 77.18C173.81 77.18 172.957 76.94 172.183 76.46C171.41 75.98 170.797 75.3067 170.343 74.44C169.903 73.56 169.683 72.5533 169.683 71.42ZM178.403 71.46C178.403 70.78 178.27 70.2 178.003 69.72C177.737 69.2267 177.377 68.8533 176.923 68.6C176.47 68.3333 175.983 68.2 175.463 68.2C174.943 68.2 174.463 68.3267 174.023 68.58C173.583 68.8333 173.223 69.2067 172.943 69.7C172.677 70.18 172.543 70.7533 172.543 71.42C172.543 72.0867 172.677 72.6733 172.943 73.18C173.223 73.6733 173.583 74.0533 174.023 74.32C174.477 74.5867 174.957 74.72 175.463 74.72C175.983 74.72 176.47 74.5933 176.923 74.34C177.377 74.0733 177.737 73.7 178.003 73.22C178.27 72.7267 178.403 72.14 178.403 71.46ZM194.258 71.22C194.258 71.62 194.231 71.98 194.178 72.3H186.078C186.145 73.1 186.425 73.7267 186.918 74.18C187.411 74.6333 188.018 74.86 188.738 74.86C189.778 74.86 190.518 74.4133 190.958 73.52H193.978C193.658 74.5867 193.045 75.4667 192.138 76.16C191.231 76.84 190.118 77.18 188.798 77.18C187.731 77.18 186.771 76.9467 185.918 76.48C185.078 76 184.418 75.3267 183.938 74.46C183.471 73.5933 183.238 72.5933 183.238 71.46C183.238 70.3133 183.471 69.3067 183.938 68.44C184.405 67.5733 185.058 66.9067 185.898 66.44C186.738 65.9733 187.705 65.74 188.798 65.74C189.851 65.74 190.791 65.9667 191.618 66.42C192.458 66.8733 193.105 67.52 193.558 68.36C194.025 69.1867 194.258 70.14 194.258 71.22ZM191.358 70.42C191.345 69.7 191.085 69.1267 190.578 68.7C190.071 68.26 189.451 68.04 188.718 68.04C188.025 68.04 187.438 68.2533 186.958 68.68C186.491 69.0933 186.205 69.6733 186.098 70.42H191.358ZM199.102 62.2V77H196.302V62.2H199.102ZM203.288 64.6C202.795 64.6 202.382 64.4467 202.048 64.14C201.728 63.82 201.568 63.4267 201.568 62.96C201.568 62.4933 201.728 62.1067 202.048 61.8C202.382 61.48 202.795 61.32 203.288 61.32C203.782 61.32 204.188 61.48 204.508 61.8C204.842 62.1067 205.008 62.4933 205.008 62.96C205.008 63.4267 204.842 63.82 204.508 64.14C204.188 64.4467 203.782 64.6 203.288 64.6ZM204.668 65.92V77H201.868V65.92H204.668ZM212.055 74.42L214.855 65.92H217.835L213.735 77H210.335L206.255 65.92H209.255L212.055 74.42ZM229.707 71.22C229.707 71.62 229.681 71.98 229.627 72.3H221.527C221.594 73.1 221.874 73.7267 222.367 74.18C222.861 74.6333 223.467 74.86 224.187 74.86C225.227 74.86 225.967 74.4133 226.407 73.52H229.427C229.107 74.5867 228.494 75.4667 227.587 76.16C226.681 76.84 225.567 77.18 224.247 77.18C223.181 77.18 222.221 76.9467 221.367 76.48C220.527 76 219.867 75.3267 219.387 74.46C218.921 73.5933 218.687 72.5933 218.687 71.46C218.687 70.3133 218.921 69.3067 219.387 68.44C219.854 67.5733 220.507 66.9067 221.347 66.44C222.187 65.9733 223.154 65.74 224.247 65.74C225.301 65.74 226.241 65.9667 227.067 66.42C227.907 66.8733 228.554 67.52 229.007 68.36C229.474 69.1867 229.707 70.14 229.707 71.22ZM226.807 70.42C226.794 69.7 226.534 69.1267 226.027 68.7C225.521 68.26 224.901 68.04 224.167 68.04C223.474 68.04 222.887 68.2533 222.407 68.68C221.941 69.0933 221.654 69.6733 221.547 70.42H226.807ZM234.551 67.64C234.911 67.0533 235.378 66.5933 235.951 66.26C236.538 65.9267 237.204 65.76 237.951 65.76V68.7H237.211C236.331 68.7 235.664 68.9067 235.211 69.32C234.771 69.7333 234.551 70.4533 234.551 71.48V77H231.751V65.92H234.551V67.64ZM244.077 77.18C243.17 77.18 242.357 77.02 241.637 76.7C240.917 76.3667 240.344 75.92 239.917 75.36C239.504 74.8 239.277 74.18 239.237 73.5H242.057C242.11 73.9267 242.317 74.28 242.677 74.56C243.05 74.84 243.51 74.98 244.057 74.98C244.59 74.98 245.004 74.8733 245.297 74.66C245.604 74.4467 245.757 74.1733 245.757 73.84C245.757 73.48 245.57 73.2133 245.197 73.04C244.837 72.8533 244.257 72.6533 243.457 72.44C242.63 72.24 241.95 72.0333 241.417 71.82C240.897 71.6067 240.444 71.28 240.057 70.84C239.684 70.4 239.497 69.8067 239.497 69.06C239.497 68.4467 239.67 67.8867 240.017 67.38C240.377 66.8733 240.884 66.4733 241.537 66.18C242.204 65.8867 242.984 65.74 243.877 65.74C245.197 65.74 246.25 66.0733 247.037 66.74C247.824 67.3933 248.257 68.28 248.337 69.4H245.657C245.617 68.96 245.43 68.6133 245.097 68.36C244.777 68.0933 244.344 67.96 243.797 67.96C243.29 67.96 242.897 68.0533 242.617 68.24C242.35 68.4267 242.217 68.6867 242.217 69.02C242.217 69.3933 242.404 69.68 242.777 69.88C243.15 70.0667 243.73 70.26 244.517 70.46C245.317 70.66 245.977 70.8667 246.497 71.08C247.017 71.2933 247.464 71.6267 247.837 72.08C248.224 72.52 248.424 73.1067 248.437 73.84C248.437 74.48 248.257 75.0533 247.897 75.56C247.55 76.0667 247.044 76.4667 246.377 76.76C245.724 77.04 244.957 77.18 244.077 77.18ZM256.921 64.6C256.428 64.6 256.014 64.4467 255.681 64.14C255.361 63.82 255.201 63.4267 255.201 62.96C255.201 62.4933 255.361 62.1067 255.681 61.8C256.014 61.48 256.428 61.32 256.921 61.32C257.414 61.32 257.821 61.48 258.141 61.8C258.474 62.1067 258.641 62.4933 258.641 62.96C258.641 63.4267 258.474 63.82 258.141 64.14C257.821 64.4467 257.414 64.6 256.921 64.6ZM258.301 65.92V77H255.501V65.92H258.301ZM267.208 65.76C268.528 65.76 269.594 66.18 270.408 67.02C271.221 67.8467 271.628 69.0067 271.628 70.5V77H268.828V70.88C268.828 70 268.608 69.3267 268.168 68.86C267.728 68.38 267.128 68.14 266.368 68.14C265.594 68.14 264.981 68.38 264.528 68.86C264.088 69.3267 263.868 70 263.868 70.88V77H261.068V65.92H263.868V67.3C264.241 66.82 264.714 66.4467 265.288 66.18C265.874 65.9 266.514 65.76 267.208 65.76ZM280.43 65.76C281.75 65.76 282.817 66.18 283.63 67.02C284.443 67.8467 284.85 69.0067 284.85 70.5V77H282.05V70.88C282.05 70 281.83 69.3267 281.39 68.86C280.95 68.38 280.35 68.14 279.59 68.14C278.817 68.14 278.203 68.38 277.75 68.86C277.31 69.3267 277.09 70 277.09 70.88V77H274.29V65.92H277.09V67.3C277.463 66.82 277.937 66.4467 278.51 66.18C279.097 65.9 279.737 65.76 280.43 65.76ZM292.433 77.18C291.366 77.18 290.406 76.9467 289.553 76.48C288.699 76 288.026 75.3267 287.533 74.46C287.053 73.5933 286.813 72.5933 286.813 71.46C286.813 70.3267 287.059 69.3267 287.553 68.46C288.059 67.5933 288.746 66.9267 289.613 66.46C290.479 65.98 291.446 65.74 292.513 65.74C293.579 65.74 294.546 65.98 295.413 66.46C296.279 66.9267 296.959 67.5933 297.453 68.46C297.959 69.3267 298.213 70.3267 298.213 71.46C298.213 72.5933 297.953 73.5933 297.433 74.46C296.926 75.3267 296.233 76 295.353 76.48C294.486 76.9467 293.513 77.18 292.433 77.18ZM292.433 74.74C292.939 74.74 293.413 74.62 293.853 74.38C294.306 74.1267 294.666 73.7533 294.933 73.26C295.199 72.7667 295.333 72.1667 295.333 71.46C295.333 70.4067 295.053 69.6 294.493 69.04C293.946 68.4667 293.273 68.18 292.473 68.18C291.673 68.18 290.999 68.4667 290.453 69.04C289.919 69.6 289.653 70.4067 289.653 71.46C289.653 72.5133 289.913 73.3267 290.433 73.9C290.966 74.46 291.633 74.74 292.433 74.74ZM304.887 74.42L307.687 65.92H310.667L306.567 77H303.167L299.087 65.92H302.087L304.887 74.42ZM311.519 71.42C311.519 70.3 311.739 69.3067 312.179 68.44C312.633 67.5733 313.239 66.9067 313.999 66.44C314.773 65.9733 315.633 65.74 316.579 65.74C317.406 65.74 318.126 65.9067 318.739 66.24C319.366 66.5733 319.866 66.9933 320.239 67.5V65.92H323.059V77H320.239V75.38C319.879 75.9 319.379 76.3333 318.739 76.68C318.113 77.0133 317.386 77.18 316.559 77.18C315.626 77.18 314.773 76.94 313.999 76.46C313.239 75.98 312.633 75.3067 312.179 74.44C311.739 73.56 311.519 72.5533 311.519 71.42ZM320.239 71.46C320.239 70.78 320.106 70.2 319.839 69.72C319.573 69.2267 319.213 68.8533 318.759 68.6C318.306 68.3333 317.819 68.2 317.299 68.2C316.779 68.2 316.299 68.3267 315.859 68.58C315.419 68.8333 315.059 69.2067 314.779 69.7C314.513 70.18 314.379 70.7533 314.379 71.42C314.379 72.0867 314.513 72.6733 314.779 73.18C315.059 73.6733 315.419 74.0533 315.859 74.32C316.313 74.5867 316.793 74.72 317.299 74.72C317.819 74.72 318.306 74.5933 318.759 74.34C319.213 74.0733 319.573 73.7 319.839 73.22C320.106 72.7267 320.239 72.14 320.239 71.46ZM329.054 68.22V73.58C329.054 73.9533 329.141 74.2267 329.314 74.4C329.501 74.56 329.807 74.64 330.234 74.64H331.534V77H329.774C327.414 77 326.234 75.8533 326.234 73.56V68.22H324.914V65.92H326.234V63.18H329.054V65.92H331.534V68.22H329.054ZM334.968 64.6C334.475 64.6 334.061 64.4467 333.728 64.14C333.408 63.82 333.248 63.4267 333.248 62.96C333.248 62.4933 333.408 62.1067 333.728 61.8C334.061 61.48 334.475 61.32 334.968 61.32C335.461 61.32 335.868 61.48 336.188 61.8C336.521 62.1067 336.688 62.4933 336.688 62.96C336.688 63.4267 336.521 63.82 336.188 64.14C335.868 64.4467 335.461 64.6 334.968 64.6ZM336.348 65.92V77H333.548V65.92H336.348ZM343.734 74.42L346.534 65.92H349.514L345.414 77H342.014L337.934 65.92H340.934L343.734 74.42ZM361.387 71.22C361.387 71.62 361.36 71.98 361.307 72.3H353.207C353.274 73.1 353.554 73.7267 354.047 74.18C354.54 74.6333 355.147 74.86 355.867 74.86C356.907 74.86 357.647 74.4133 358.087 73.52H361.107C360.787 74.5867 360.174 75.4667 359.267 76.16C358.36 76.84 357.247 77.18 355.927 77.18C354.86 77.18 353.9 76.9467 353.047 76.48C352.207 76 351.547 75.3267 351.067 74.46C350.6 73.5933 350.367 72.5933 350.367 71.46C350.367 70.3133 350.6 69.3067 351.067 68.44C351.534 67.5733 352.187 66.9067 353.027 66.44C353.867 65.9733 354.834 65.74 355.927 65.74C356.98 65.74 357.92 65.9667 358.747 66.42C359.587 66.8733 360.234 67.52 360.687 68.36C361.154 69.1867 361.387 70.14 361.387 71.22ZM358.487 70.42C358.474 69.7 358.214 69.1267 357.707 68.7C357.2 68.26 356.58 68.04 355.847 68.04C355.154 68.04 354.567 68.2533 354.087 68.68C353.62 69.0933 353.334 69.6733 353.227 70.42H358.487ZM45.62 97.18C44.7133 97.18 43.9 97.02 43.18 96.7C42.46 96.3667 41.8867 95.92 41.46 95.36C41.0467 94.8 40.82 94.18 40.78 93.5H43.6C43.6533 93.9267 43.86 94.28 44.22 94.56C44.5933 94.84 45.0533 94.98 45.6 94.98C46.1333 94.98 46.5467 94.8733 46.84 94.66C47.1467 94.4467 47.3 94.1733 47.3 93.84C47.3 93.48 47.1133 93.2133 46.74 93.04C46.38 92.8533 45.8 92.6533 45 92.44C44.1733 92.24 43.4933 92.0333 42.96 91.82C42.44 91.6067 41.9867 91.28 41.6 90.84C41.2267 90.4 41.04 89.8067 41.04 89.06C41.04 88.4467 41.2133 87.8867 41.56 87.38C41.92 86.8733 42.4267 86.4733 43.08 86.18C43.7467 85.8867 44.5267 85.74 45.42 85.74C46.74 85.74 47.7933 86.0733 48.58 86.74C49.3667 87.3933 49.8 88.28 49.88 89.4H47.2C47.16 88.96 46.9733 88.6133 46.64 88.36C46.32 88.0933 45.8867 87.96 45.34 87.96C44.8333 87.96 44.44 88.0533 44.16 88.24C43.8933 88.4267 43.76 88.6867 43.76 89.02C43.76 89.3933 43.9467 89.68 44.32 89.88C44.6933 90.0667 45.2733 90.26 46.06 90.46C46.86 90.66 47.52 90.8667 48.04 91.08C48.56 91.2933 49.0067 91.6267 49.38 92.08C49.7667 92.52 49.9667 93.1067 49.98 93.84C49.98 94.48 49.8 95.0533 49.44 95.56C49.0933 96.0667 48.5867 96.4667 47.92 96.76C47.2667 97.04 46.5 97.18 45.62 97.18ZM57.1984 97.18C56.1318 97.18 55.1718 96.9467 54.3184 96.48C53.4651 96 52.7918 95.3267 52.2984 94.46C51.8184 93.5933 51.5784 92.5933 51.5784 91.46C51.5784 90.3267 51.8251 89.3267 52.3184 88.46C52.8251 87.5933 53.5118 86.9267 54.3784 86.46C55.2451 85.98 56.2118 85.74 57.2784 85.74C58.3451 85.74 59.3118 85.98 60.1784 86.46C61.0451 86.9267 61.7251 87.5933 62.2184 88.46C62.7251 89.3267 62.9784 90.3267 62.9784 91.46C62.9784 92.5933 62.7184 93.5933 62.1984 94.46C61.6918 95.3267 60.9984 96 60.1184 96.48C59.2518 96.9467 58.2784 97.18 57.1984 97.18ZM57.1984 94.74C57.7051 94.74 58.1784 94.62 58.6184 94.38C59.0718 94.1267 59.4318 93.7533 59.6984 93.26C59.9651 92.7667 60.0984 92.1667 60.0984 91.46C60.0984 90.4067 59.8184 89.6 59.2584 89.04C58.7118 88.4667 58.0384 88.18 57.2384 88.18C56.4384 88.18 55.7651 88.4667 55.2184 89.04C54.6851 89.6 54.4184 90.4067 54.4184 91.46C54.4184 92.5133 54.6784 93.3267 55.1984 93.9C55.7318 94.46 56.3984 94.74 57.1984 94.74ZM67.8323 82.2V97H65.0323V82.2H67.8323ZM81.0588 85.92V97H78.2388V95.6C77.8788 96.08 77.4054 96.46 76.8188 96.74C76.2454 97.0067 75.6188 97.14 74.9388 97.14C74.0721 97.14 73.3054 96.96 72.6388 96.6C71.9721 96.2267 71.4454 95.6867 71.0588 94.98C70.6854 94.26 70.4988 93.4067 70.4988 92.42V85.92H73.2988V92.02C73.2988 92.9 73.5188 93.58 73.9588 94.06C74.3988 94.5267 74.9988 94.76 75.7588 94.76C76.5321 94.76 77.1388 94.5267 77.5788 94.06C78.0188 93.58 78.2388 92.9 78.2388 92.02V85.92H81.0588ZM87.0814 88.22V93.58C87.0814 93.9533 87.1681 94.2267 87.3414 94.4C87.5281 94.56 87.8347 94.64 88.2614 94.64H89.5614V97H87.8014C85.4414 97 84.2614 95.8533 84.2614 93.56V88.22H82.9414V85.92H84.2614V83.18H87.0814V85.92H89.5614V88.22H87.0814ZM92.9953 84.6C92.502 84.6 92.0886 84.4467 91.7553 84.14C91.4353 83.82 91.2753 83.4267 91.2753 82.96C91.2753 82.4933 91.4353 82.1067 91.7553 81.8C92.0886 81.48 92.502 81.32 92.9953 81.32C93.4886 81.32 93.8953 81.48 94.2153 81.8C94.5486 82.1067 94.7153 82.4933 94.7153 82.96C94.7153 83.4267 94.5486 83.82 94.2153 84.14C93.8953 84.4467 93.4886 84.6 92.9953 84.6ZM94.3753 85.92V97H91.5753V85.92H94.3753ZM102.062 97.18C100.995 97.18 100.035 96.9467 99.1817 96.48C98.3284 96 97.6551 95.3267 97.1617 94.46C96.6817 93.5933 96.4417 92.5933 96.4417 91.46C96.4417 90.3267 96.6884 89.3267 97.1817 88.46C97.6884 87.5933 98.3751 86.9267 99.2417 86.46C100.108 85.98 101.075 85.74 102.142 85.74C103.208 85.74 104.175 85.98 105.042 86.46C105.908 86.9267 106.588 87.5933 107.082 88.46C107.588 89.3267 107.842 90.3267 107.842 91.46C107.842 92.5933 107.582 93.5933 107.062 94.46C106.555 95.3267 105.862 96 104.982 96.48C104.115 96.9467 103.142 97.18 102.062 97.18ZM102.062 94.74C102.568 94.74 103.042 94.62 103.482 94.38C103.935 94.1267 104.295 93.7533 104.562 93.26C104.828 92.7667 104.962 92.1667 104.962 91.46C104.962 90.4067 104.682 89.6 104.122 89.04C103.575 88.4667 102.902 88.18 102.102 88.18C101.302 88.18 100.628 88.4667 100.082 89.04C99.5484 89.6 99.2817 90.4067 99.2817 91.46C99.2817 92.5133 99.5417 93.3267 100.062 93.9C100.595 94.46 101.262 94.74 102.062 94.74ZM116.036 85.76C117.356 85.76 118.422 86.18 119.236 87.02C120.049 87.8467 120.456 89.0067 120.456 90.5V97H117.656V90.88C117.656 90 117.436 89.3267 116.996 88.86C116.556 88.38 115.956 88.14 115.196 88.14C114.422 88.14 113.809 88.38 113.356 88.86C112.916 89.3267 112.696 90 112.696 90.88V97H109.896V85.92H112.696V87.3C113.069 86.82 113.542 86.4467 114.116 86.18C114.702 85.9 115.342 85.76 116.036 85.76ZM127.358 97.18C126.452 97.18 125.638 97.02 124.918 96.7C124.198 96.3667 123.625 95.92 123.198 95.36C122.785 94.8 122.558 94.18 122.518 93.5H125.338C125.392 93.9267 125.598 94.28 125.958 94.56C126.332 94.84 126.792 94.98 127.338 94.98C127.872 94.98 128.285 94.8733 128.578 94.66C128.885 94.4467 129.038 94.1733 129.038 93.84C129.038 93.48 128.852 93.2133 128.478 93.04C128.118 92.8533 127.538 92.6533 126.738 92.44C125.912 92.24 125.232 92.0333 124.698 91.82C124.178 91.6067 123.725 91.28 123.338 90.84C122.965 90.4 122.778 89.8067 122.778 89.06C122.778 88.4467 122.952 87.8867 123.298 87.38C123.658 86.8733 124.165 86.4733 124.818 86.18C125.485 85.8867 126.265 85.74 127.158 85.74C128.478 85.74 129.532 86.0733 130.318 86.74C131.105 87.3933 131.538 88.28 131.618 89.4H128.938C128.898 88.96 128.712 88.6133 128.378 88.36C128.058 88.0933 127.625 87.96 127.078 87.96C126.572 87.96 126.178 88.0533 125.898 88.24C125.632 88.4267 125.498 88.6867 125.498 89.02C125.498 89.3933 125.685 89.68 126.058 89.88C126.432 90.0667 127.012 90.26 127.798 90.46C128.598 90.66 129.258 90.8667 129.778 91.08C130.298 91.2933 130.745 91.6267 131.118 92.08C131.505 92.52 131.705 93.1067 131.718 93.84C131.718 94.48 131.538 95.0533 131.178 95.56C130.832 96.0667 130.325 96.4667 129.658 96.76C129.005 97.04 128.238 97.18 127.358 97.18ZM138.062 91.42C138.062 90.3 138.282 89.3067 138.722 88.44C139.176 87.5733 139.789 86.9067 140.562 86.44C141.336 85.9733 142.196 85.74 143.142 85.74C143.862 85.74 144.549 85.9 145.202 86.22C145.856 86.5267 146.376 86.94 146.762 87.46V82.2H149.602V97H146.762V95.36C146.416 95.9067 145.929 96.3467 145.302 96.68C144.676 97.0133 143.949 97.18 143.122 97.18C142.189 97.18 141.336 96.94 140.562 96.46C139.789 95.98 139.176 95.3067 138.722 94.44C138.282 93.56 138.062 92.5533 138.062 91.42ZM146.782 91.46C146.782 90.78 146.649 90.2 146.382 89.72C146.116 89.2267 145.756 88.8533 145.302 88.6C144.849 88.3333 144.362 88.2 143.842 88.2C143.322 88.2 142.842 88.3267 142.402 88.58C141.962 88.8333 141.602 89.2067 141.322 89.7C141.056 90.18 140.922 90.7533 140.922 91.42C140.922 92.0867 141.056 92.6733 141.322 93.18C141.602 93.6733 141.962 94.0533 142.402 94.32C142.856 94.5867 143.336 94.72 143.842 94.72C144.362 94.72 144.849 94.5933 145.302 94.34C145.756 94.0733 146.116 93.7 146.382 93.22C146.649 92.7267 146.782 92.14 146.782 91.46ZM162.637 91.22C162.637 91.62 162.61 91.98 162.557 92.3H154.457C154.524 93.1 154.804 93.7267 155.297 94.18C155.79 94.6333 156.397 94.86 157.117 94.86C158.157 94.86 158.897 94.4133 159.337 93.52H162.357C162.037 94.5867 161.424 95.4667 160.517 96.16C159.61 96.84 158.497 97.18 157.177 97.18C156.11 97.18 155.15 96.9467 154.297 96.48C153.457 96 152.797 95.3267 152.317 94.46C151.85 93.5933 151.617 92.5933 151.617 91.46C151.617 90.3133 151.85 89.3067 152.317 88.44C152.784 87.5733 153.437 86.9067 154.277 86.44C155.117 85.9733 156.084 85.74 157.177 85.74C158.23 85.74 159.17 85.9667 159.997 86.42C160.837 86.8733 161.484 87.52 161.937 88.36C162.404 89.1867 162.637 90.14 162.637 91.22ZM159.737 90.42C159.724 89.7 159.464 89.1267 158.957 88.7C158.45 88.26 157.83 88.04 157.097 88.04C156.404 88.04 155.817 88.2533 155.337 88.68C154.87 89.0933 154.584 89.6733 154.477 90.42H159.737ZM168.921 97.18C168.014 97.18 167.201 97.02 166.481 96.7C165.761 96.3667 165.187 95.92 164.761 95.36C164.347 94.8 164.121 94.18 164.081 93.5H166.901C166.954 93.9267 167.161 94.28 167.521 94.56C167.894 94.84 168.354 94.98 168.901 94.98C169.434 94.98 169.847 94.8733 170.141 94.66C170.447 94.4467 170.601 94.1733 170.601 93.84C170.601 93.48 170.414 93.2133 170.041 93.04C169.681 92.8533 169.101 92.6533 168.301 92.44C167.474 92.24 166.794 92.0333 166.261 91.82C165.741 91.6067 165.287 91.28 164.901 90.84C164.527 90.4 164.341 89.8067 164.341 89.06C164.341 88.4467 164.514 87.8867 164.861 87.38C165.221 86.8733 165.727 86.4733 166.381 86.18C167.047 85.8867 167.827 85.74 168.721 85.74C170.041 85.74 171.094 86.0733 171.881 86.74C172.667 87.3933 173.101 88.28 173.181 89.4H170.501C170.461 88.96 170.274 88.6133 169.941 88.36C169.621 88.0933 169.187 87.96 168.641 87.96C168.134 87.96 167.741 88.0533 167.461 88.24C167.194 88.4267 167.061 88.6867 167.061 89.02C167.061 89.3933 167.247 89.68 167.621 89.88C167.994 90.0667 168.574 90.26 169.361 90.46C170.161 90.66 170.821 90.8667 171.341 91.08C171.861 91.2933 172.307 91.6267 172.681 92.08C173.067 92.52 173.267 93.1067 173.281 93.84C173.281 94.48 173.101 95.0533 172.741 95.56C172.394 96.0667 171.887 96.4667 171.221 96.76C170.567 97.04 169.801 97.18 168.921 97.18ZM176.999 84.6C176.506 84.6 176.093 84.4467 175.759 84.14C175.439 83.82 175.279 83.4267 175.279 82.96C175.279 82.4933 175.439 82.1067 175.759 81.8C176.093 81.48 176.506 81.32 176.999 81.32C177.493 81.32 177.899 81.48 178.219 81.8C178.553 82.1067 178.719 82.4933 178.719 82.96C178.719 83.4267 178.553 83.82 178.219 84.14C177.899 84.4467 177.493 84.6 176.999 84.6ZM178.379 85.92V97H175.579V85.92H178.379ZM185.486 85.74C186.312 85.74 187.039 85.9067 187.666 86.24C188.292 86.56 188.786 86.98 189.146 87.5V85.92H191.966V97.08C191.966 98.1067 191.759 99.02 191.346 99.82C190.932 100.633 190.312 101.273 189.486 101.74C188.659 102.22 187.659 102.46 186.486 102.46C184.912 102.46 183.619 102.093 182.606 101.36C181.606 100.627 181.039 99.6267 180.906 98.36H183.686C183.832 98.8667 184.146 99.2667 184.626 99.56C185.119 99.8667 185.712 100.02 186.406 100.02C187.219 100.02 187.879 99.7733 188.386 99.28C188.892 98.8 189.146 98.0667 189.146 97.08V95.36C188.786 95.88 188.286 96.3133 187.646 96.66C187.019 97.0067 186.299 97.18 185.486 97.18C184.552 97.18 183.699 96.94 182.926 96.46C182.152 95.98 181.539 95.3067 181.086 94.44C180.646 93.56 180.426 92.5533 180.426 91.42C180.426 90.3 180.646 89.3067 181.086 88.44C181.539 87.5733 182.146 86.9067 182.906 86.44C183.679 85.9733 184.539 85.74 185.486 85.74ZM189.146 91.46C189.146 90.78 189.012 90.2 188.746 89.72C188.479 89.2267 188.119 88.8533 187.666 88.6C187.212 88.3333 186.726 88.2 186.206 88.2C185.686 88.2 185.206 88.3267 184.766 88.58C184.326 88.8333 183.966 89.2067 183.686 89.7C183.419 90.18 183.286 90.7533 183.286 91.42C183.286 92.0867 183.419 92.6733 183.686 93.18C183.966 93.6733 184.326 94.0533 184.766 94.32C185.219 94.5867 185.699 94.72 186.206 94.72C186.726 94.72 187.212 94.5933 187.666 94.34C188.119 94.0733 188.479 93.7 188.746 93.22C189.012 92.7267 189.146 92.14 189.146 91.46ZM200.84 85.76C202.16 85.76 203.227 86.18 204.04 87.02C204.854 87.8467 205.26 89.0067 205.26 90.5V97H202.46V90.88C202.46 90 202.24 89.3267 201.8 88.86C201.36 88.38 200.76 88.14 200 88.14C199.227 88.14 198.614 88.38 198.16 88.86C197.72 89.3267 197.5 90 197.5 90.88V97H194.7V85.92H197.5V87.3C197.874 86.82 198.347 86.4467 198.92 86.18C199.507 85.9 200.147 85.76 200.84 85.76ZM218.223 91.22C218.223 91.62 218.196 91.98 218.143 92.3H210.043C210.11 93.1 210.39 93.7267 210.883 94.18C211.376 94.6333 211.983 94.86 212.703 94.86C213.743 94.86 214.483 94.4133 214.923 93.52H217.943C217.623 94.5867 217.01 95.4667 216.103 96.16C215.196 96.84 214.083 97.18 212.763 97.18C211.696 97.18 210.736 96.9467 209.883 96.48C209.043 96 208.383 95.3267 207.903 94.46C207.436 93.5933 207.203 92.5933 207.203 91.46C207.203 90.3133 207.436 89.3067 207.903 88.44C208.37 87.5733 209.023 86.9067 209.863 86.44C210.703 85.9733 211.67 85.74 212.763 85.74C213.816 85.74 214.756 85.9667 215.583 86.42C216.423 86.8733 217.07 87.52 217.523 88.36C217.99 89.1867 218.223 90.14 218.223 91.22ZM215.323 90.42C215.31 89.7 215.05 89.1267 214.543 88.7C214.036 88.26 213.416 88.04 212.683 88.04C211.99 88.04 211.403 88.2533 210.923 88.68C210.456 89.0933 210.17 89.6733 210.063 90.42H215.323ZM219.547 91.42C219.547 90.3 219.767 89.3067 220.207 88.44C220.66 87.5733 221.273 86.9067 222.047 86.44C222.82 85.9733 223.68 85.74 224.627 85.74C225.347 85.74 226.033 85.9 226.687 86.22C227.34 86.5267 227.86 86.94 228.247 87.46V82.2H231.087V97H228.247V95.36C227.9 95.9067 227.413 96.3467 226.787 96.68C226.16 97.0133 225.433 97.18 224.607 97.18C223.673 97.18 222.82 96.94 222.047 96.46C221.273 95.98 220.66 95.3067 220.207 94.44C219.767 93.56 219.547 92.5533 219.547 91.42ZM228.267 91.46C228.267 90.78 228.133 90.2 227.867 89.72C227.6 89.2267 227.24 88.8533 226.787 88.6C226.333 88.3333 225.847 88.2 225.327 88.2C224.807 88.2 224.327 88.3267 223.887 88.58C223.447 88.8333 223.087 89.2067 222.807 89.7C222.54 90.18 222.407 90.7533 222.407 91.42C222.407 92.0867 222.54 92.6733 222.807 93.18C223.087 93.6733 223.447 94.0533 223.887 94.32C224.34 94.5867 224.82 94.72 225.327 94.72C225.847 94.72 226.333 94.5933 226.787 94.34C227.24 94.0733 227.6 93.7 227.867 93.22C228.133 92.7267 228.267 92.14 228.267 91.46ZM241.847 88.22V93.58C241.847 93.9533 241.934 94.2267 242.107 94.4C242.294 94.56 242.6 94.64 243.027 94.64H244.327V97H242.567C240.207 97 239.027 95.8533 239.027 93.56V88.22H237.707V85.92H239.027V83.18H241.847V85.92H244.327V88.22H241.847ZM251.261 97.18C250.194 97.18 249.234 96.9467 248.381 96.48C247.528 96 246.854 95.3267 246.361 94.46C245.881 93.5933 245.641 92.5933 245.641 91.46C245.641 90.3267 245.888 89.3267 246.381 88.46C246.888 87.5933 247.574 86.9267 248.441 86.46C249.308 85.98 250.274 85.74 251.341 85.74C252.408 85.74 253.374 85.98 254.241 86.46C255.108 86.9267 255.788 87.5933 256.281 88.46C256.788 89.3267 257.041 90.3267 257.041 91.46C257.041 92.5933 256.781 93.5933 256.261 94.46C255.754 95.3267 255.061 96 254.181 96.48C253.314 96.9467 252.341 97.18 251.261 97.18ZM251.261 94.74C251.768 94.74 252.241 94.62 252.681 94.38C253.134 94.1267 253.494 93.7533 253.761 93.26C254.028 92.7667 254.161 92.1667 254.161 91.46C254.161 90.4067 253.881 89.6 253.321 89.04C252.774 88.4667 252.101 88.18 251.301 88.18C250.501 88.18 249.828 88.4667 249.281 89.04C248.748 89.6 248.481 90.4067 248.481 91.46C248.481 92.5133 248.741 93.3267 249.261 93.9C249.794 94.46 250.461 94.74 251.261 94.74ZM277.62 85.76C278.98 85.76 280.074 86.18 280.9 87.02C281.74 87.8467 282.16 89.0067 282.16 90.5V97H279.36V90.88C279.36 90.0133 279.14 89.3533 278.7 88.9C278.26 88.4333 277.66 88.2 276.9 88.2C276.14 88.2 275.534 88.4333 275.08 88.9C274.64 89.3533 274.42 90.0133 274.42 90.88V97H271.62V90.88C271.62 90.0133 271.4 89.3533 270.96 88.9C270.52 88.4333 269.92 88.2 269.16 88.2C268.387 88.2 267.774 88.4333 267.32 88.9C266.88 89.3533 266.66 90.0133 266.66 90.88V97H263.86V85.92H266.66V87.26C267.02 86.7933 267.48 86.4267 268.04 86.16C268.614 85.8933 269.24 85.76 269.92 85.76C270.787 85.76 271.56 85.9467 272.24 86.32C272.92 86.68 273.447 87.2 273.82 87.88C274.18 87.24 274.7 86.7267 275.38 86.34C276.074 85.9533 276.82 85.76 277.62 85.76ZM295.118 91.22C295.118 91.62 295.091 91.98 295.038 92.3H286.938C287.004 93.1 287.284 93.7267 287.778 94.18C288.271 94.6333 288.878 94.86 289.598 94.86C290.638 94.86 291.378 94.4133 291.818 93.52H294.838C294.518 94.5867 293.904 95.4667 292.998 96.16C292.091 96.84 290.978 97.18 289.658 97.18C288.591 97.18 287.631 96.9467 286.778 96.48C285.938 96 285.278 95.3267 284.798 94.46C284.331 93.5933 284.097 92.5933 284.097 91.46C284.097 90.3133 284.331 89.3067 284.798 88.44C285.264 87.5733 285.918 86.9067 286.758 86.44C287.598 85.9733 288.564 85.74 289.658 85.74C290.711 85.74 291.651 85.9667 292.478 86.42C293.318 86.8733 293.964 87.52 294.418 88.36C294.884 89.1867 295.118 90.14 295.118 91.22ZM292.218 90.42C292.204 89.7 291.944 89.1267 291.438 88.7C290.931 88.26 290.311 88.04 289.578 88.04C288.884 88.04 288.298 88.2533 287.818 88.68C287.351 89.0933 287.064 89.6733 286.958 90.42H292.218ZM307.461 91.22C307.461 91.62 307.435 91.98 307.381 92.3H299.281C299.348 93.1 299.628 93.7267 300.121 94.18C300.615 94.6333 301.221 94.86 301.941 94.86C302.981 94.86 303.721 94.4133 304.161 93.52H307.181C306.861 94.5867 306.248 95.4667 305.341 96.16C304.435 96.84 303.321 97.18 302.001 97.18C300.935 97.18 299.975 96.9467 299.121 96.48C298.281 96 297.621 95.3267 297.141 94.46C296.675 93.5933 296.441 92.5933 296.441 91.46C296.441 90.3133 296.675 89.3067 297.141 88.44C297.608 87.5733 298.261 86.9067 299.101 86.44C299.941 85.9733 300.908 85.74 302.001 85.74C303.055 85.74 303.995 85.9667 304.821 86.42C305.661 86.8733 306.308 87.52 306.761 88.36C307.228 89.1867 307.461 90.14 307.461 91.22ZM304.561 90.42C304.548 89.7 304.288 89.1267 303.781 88.7C303.275 88.26 302.655 88.04 301.921 88.04C301.228 88.04 300.641 88.2533 300.161 88.68C299.695 89.0933 299.408 89.6733 299.301 90.42H304.561ZM312.765 88.22V93.58C312.765 93.9533 312.852 94.2267 313.025 94.4C313.212 94.56 313.518 94.64 313.945 94.64H315.245V97H313.485C311.125 97 309.945 95.8533 309.945 93.56V88.22H308.625V85.92H309.945V83.18H312.765V85.92H315.245V88.22H312.765ZM332.625 85.92L325.765 102.24H322.785L325.185 96.72L320.745 85.92H323.885L326.745 93.66L329.645 85.92H332.625ZM339.054 97.18C337.987 97.18 337.027 96.9467 336.174 96.48C335.321 96 334.647 95.3267 334.154 94.46C333.674 93.5933 333.434 92.5933 333.434 91.46C333.434 90.3267 333.681 89.3267 334.174 88.46C334.681 87.5933 335.367 86.9267 336.234 86.46C337.101 85.98 338.067 85.74 339.134 85.74C340.201 85.74 341.167 85.98 342.034 86.46C342.901 86.9267 343.581 87.5933 344.074 88.46C344.581 89.3267 344.834 90.3267 344.834 91.46C344.834 92.5933 344.574 93.5933 344.054 94.46C343.547 95.3267 342.854 96 341.974 96.48C341.107 96.9467 340.134 97.18 339.054 97.18ZM339.054 94.74C339.561 94.74 340.034 94.62 340.474 94.38C340.927 94.1267 341.287 93.7533 341.554 93.26C341.821 92.7667 341.954 92.1667 341.954 91.46C341.954 90.4067 341.674 89.6 341.114 89.04C340.567 88.4667 339.894 88.18 339.094 88.18C338.294 88.18 337.621 88.4667 337.074 89.04C336.541 89.6 336.274 90.4067 336.274 91.46C336.274 92.5133 336.534 93.3267 337.054 93.9C337.587 94.46 338.254 94.74 339.054 94.74ZM357.348 85.92V97H354.528V95.6C354.168 96.08 353.694 96.46 353.108 96.74C352.534 97.0067 351.908 97.14 351.228 97.14C350.361 97.14 349.594 96.96 348.928 96.6C348.261 96.2267 347.734 95.6867 347.348 94.98C346.974 94.26 346.788 93.4067 346.788 92.42V85.92H349.588V92.02C349.588 92.9 349.808 93.58 350.248 94.06C350.688 94.5267 351.288 94.76 352.048 94.76C352.821 94.76 353.428 94.5267 353.868 94.06C354.308 93.58 354.528 92.9 354.528 92.02V85.92H357.348ZM362.91 87.64C363.27 87.0533 363.737 86.5933 364.31 86.26C364.897 85.9267 365.564 85.76 366.31 85.76V88.7H365.57C364.69 88.7 364.024 88.9067 363.57 89.32C363.13 89.7333 362.91 90.4533 362.91 91.48V97H360.11V85.92H362.91V87.64ZM47.52 105.76C48.84 105.76 49.9067 106.18 50.72 107.02C51.5333 107.847 51.94 109.007 51.94 110.5V117H49.14V110.88C49.14 110 48.92 109.327 48.48 108.86C48.04 108.38 47.44 108.14 46.68 108.14C45.9067 108.14 45.2933 108.38 44.84 108.86C44.4 109.327 44.18 110 44.18 110.88V117H41.38V105.92H44.18V107.3C44.5533 106.82 45.0267 106.447 45.6 106.18C46.1867 105.9 46.8267 105.76 47.52 105.76ZM64.9027 111.22C64.9027 111.62 64.876 111.98 64.8227 112.3H56.7227C56.7893 113.1 57.0693 113.727 57.5627 114.18C58.056 114.633 58.6627 114.86 59.3827 114.86C60.4227 114.86 61.1627 114.413 61.6027 113.52H64.6227C64.3027 114.587 63.6893 115.467 62.7827 116.16C61.876 116.84 60.7627 117.18 59.4427 117.18C58.376 117.18 57.416 116.947 56.5627 116.48C55.7227 116 55.0627 115.327 54.5827 114.46C54.116 113.593 53.8827 112.593 53.8827 111.46C53.8827 110.313 54.116 109.307 54.5827 108.44C55.0493 107.573 55.7027 106.907 56.5427 106.44C57.3827 105.973 58.3493 105.74 59.4427 105.74C60.496 105.74 61.436 105.967 62.2627 106.42C63.1027 106.873 63.7493 107.52 64.2027 108.36C64.6693 109.187 64.9027 110.14 64.9027 111.22ZM62.0027 110.42C61.9893 109.7 61.7293 109.127 61.2227 108.7C60.716 108.26 60.096 108.04 59.3627 108.04C58.6693 108.04 58.0827 108.253 57.6027 108.68C57.136 109.093 56.8493 109.673 56.7427 110.42H62.0027ZM77.2464 111.22C77.2464 111.62 77.2197 111.98 77.1664 112.3H69.0664C69.1331 113.1 69.4131 113.727 69.9064 114.18C70.3997 114.633 71.0064 114.86 71.7264 114.86C72.7664 114.86 73.5064 114.413 73.9464 113.52H76.9664C76.6464 114.587 76.0331 115.467 75.1264 116.16C74.2197 116.84 73.1064 117.18 71.7864 117.18C70.7197 117.18 69.7597 116.947 68.9064 116.48C68.0664 116 67.4064 115.327 66.9264 114.46C66.4597 113.593 66.2264 112.593 66.2264 111.46C66.2264 110.313 66.4597 109.307 66.9264 108.44C67.3931 107.573 68.0464 106.907 68.8864 106.44C69.7264 105.973 70.6931 105.74 71.7864 105.74C72.8397 105.74 73.7797 105.967 74.6064 106.42C75.4464 106.873 76.0931 107.52 76.5464 108.36C77.0131 109.187 77.2464 110.14 77.2464 111.22ZM74.3464 110.42C74.3331 109.7 74.0731 109.127 73.5664 108.7C73.0597 108.26 72.4397 108.04 71.7064 108.04C71.0131 108.04 70.4264 108.253 69.9464 108.68C69.4797 109.093 69.1931 109.673 69.0864 110.42H74.3464ZM78.5702 111.42C78.5702 110.3 78.7902 109.307 79.2302 108.44C79.6835 107.573 80.2968 106.907 81.0702 106.44C81.8435 105.973 82.7035 105.74 83.6502 105.74C84.3702 105.74 85.0568 105.9 85.7102 106.22C86.3635 106.527 86.8835 106.94 87.2702 107.46V102.2H90.1102V117H87.2702V115.36C86.9235 115.907 86.4368 116.347 85.8102 116.68C85.1835 117.013 84.4568 117.18 83.6302 117.18C82.6968 117.18 81.8435 116.94 81.0702 116.46C80.2968 115.98 79.6835 115.307 79.2302 114.44C78.7902 113.56 78.5702 112.553 78.5702 111.42ZM87.2902 111.46C87.2902 110.78 87.1568 110.2 86.8902 109.72C86.6235 109.227 86.2635 108.853 85.8102 108.6C85.3568 108.333 84.8702 108.2 84.3502 108.2C83.8302 108.2 83.3502 108.327 82.9102 108.58C82.4702 108.833 82.1102 109.207 81.8302 109.7C81.5635 110.18 81.4302 110.753 81.4302 111.42C81.4302 112.087 81.5635 112.673 81.8302 113.18C82.1102 113.673 82.4702 114.053 82.9102 114.32C83.3635 114.587 83.8435 114.72 84.3502 114.72C84.8702 114.72 85.3568 114.593 85.8102 114.34C86.2635 114.073 86.6235 113.7 86.8902 113.22C87.1568 112.727 87.2902 112.14 87.2902 111.46ZM97.0848 117.18C96.1782 117.18 95.3648 117.02 94.6448 116.7C93.9248 116.367 93.3515 115.92 92.9248 115.36C92.5115 114.8 92.2848 114.18 92.2448 113.5H95.0648C95.1182 113.927 95.3248 114.28 95.6848 114.56C96.0582 114.84 96.5182 114.98 97.0648 114.98C97.5982 114.98 98.0115 114.873 98.3048 114.66C98.6115 114.447 98.7648 114.173 98.7648 113.84C98.7648 113.48 98.5782 113.213 98.2048 113.04C97.8448 112.853 97.2648 112.653 96.4648 112.44C95.6382 112.24 94.9582 112.033 94.4248 111.82C93.9048 111.607 93.4515 111.28 93.0648 110.84C92.6915 110.4 92.5048 109.807 92.5048 109.06C92.5048 108.447 92.6782 107.887 93.0248 107.38C93.3848 106.873 93.8915 106.473 94.5448 106.18C95.2115 105.887 95.9915 105.74 96.8848 105.74C98.2048 105.74 99.2582 106.073 100.045 106.74C100.832 107.393 101.265 108.28 101.345 109.4H98.6648C98.6248 108.96 98.4382 108.613 98.1048 108.36C97.7848 108.093 97.3515 107.96 96.8048 107.96C96.2982 107.96 95.9048 108.053 95.6248 108.24C95.3582 108.427 95.2248 108.687 95.2248 109.02C95.2248 109.393 95.4115 109.68 95.7848 109.88C96.1582 110.067 96.7382 110.26 97.5248 110.46C98.3248 110.66 98.9848 110.867 99.5048 111.08C100.025 111.293 100.472 111.627 100.845 112.08C101.232 112.52 101.432 113.107 101.445 113.84C101.445 114.48 101.265 115.053 100.905 115.56C100.558 116.067 100.052 116.467 99.3848 116.76C98.7315 117.04 97.9648 117.18 97.0848 117.18Z" fill="white"/>
<path d="M482.394 16.9369V12.8708H459.159V16.9369V30.3073V31.5264C460.097 32.7599 461.258 33.8429 462.603 34.7124C464.909 36.2108 467.731 37.0962 470.777 37.0962C475.59 37.0962 479.847 34.894 482.394 31.5264V30.3073V16.9369Z" fill="#656D78"/>
<path d="M470.796 41.6216C460.271 41.6216 451.709 33.8142 451.709 24.2162C451.709 23.7977 452.08 23.4595 452.539 23.4595C452.998 23.4595 453.369 23.7977 453.369 24.2162C453.369 32.9787 461.187 40.1081 470.796 40.1081C471.255 40.1081 471.626 40.4464 471.626 40.8649C471.626 41.2834 471.255 41.6216 470.796 41.6216Z" fill="#CCD1D9"/>
<path d="M489.052 24.973C488.593 24.973 488.222 24.6347 488.222 24.2162C488.222 15.4537 480.404 8.32431 470.796 8.32431C470.337 8.32431 469.966 7.98604 469.966 7.56755C469.966 7.14906 470.337 6.81079 470.796 6.81079C481.321 6.81079 489.882 14.6183 489.882 24.2162C489.882 24.6347 489.511 24.973 489.052 24.973Z" fill="#CCD1D9"/>
<path d="M479.923 9.84387L482.413 12.8709H459.177L461.667 9.84387H479.923Z" fill="#545C66"/>
<path d="M470.795 37.0796C467.749 37.0796 464.928 36.1942 462.621 34.6958C461.277 33.8263 460.114 32.7434 459.177 31.5098V31.0331H482.413V31.5098C479.865 34.8774 475.608 37.0796 470.795 37.0796Z" fill="#545C66"/>
<path d="M482.413 18.9249H459.177V24.979H482.413V18.9249Z" fill="#545C66"/>
<path d="M479.95 16.6547C479.491 16.6547 479.116 16.3165 479.116 15.898C479.116 15.4795 479.482 15.1412 479.94 15.1412H479.95C480.408 15.1412 480.779 15.4795 480.779 15.898C480.779 16.3165 480.408 16.6547 479.95 16.6547Z" fill="#5D9CEC"/>
<path d="M462.477 17.4281C462.265 17.4281 462.053 17.3539 461.891 17.2064C461.566 16.9105 461.566 16.4322 461.891 16.1363L463.55 14.6228C463.875 14.3269 464.399 14.3269 464.724 14.6228C465.048 14.9187 465.048 15.397 464.724 15.6929L463.064 17.2064C462.901 17.3547 462.689 17.4281 462.477 17.4281Z" fill="#545C66"/>
<path d="M466.645 17.4115C466.432 17.4115 466.22 17.3373 466.058 17.1898C465.734 16.8939 465.734 16.4156 466.058 16.1197L467.718 14.6062C468.042 14.3103 468.567 14.3103 468.891 14.6062C469.216 14.9021 469.216 15.3804 468.891 15.6763L467.232 17.1898C467.07 17.3373 466.857 17.4115 466.645 17.4115Z" fill="#545C66"/>
<path d="M470.794 17.4115C470.582 17.4115 470.369 17.3373 470.207 17.1898C469.883 16.8939 469.883 16.4156 470.207 16.1197L471.867 14.6062C472.191 14.3103 472.716 14.3103 473.04 14.6062C473.365 14.9021 473.365 15.3804 473.04 15.6763L471.381 17.1898C471.219 17.3373 471.006 17.4115 470.794 17.4115Z" fill="#545C66"/>
<path d="M479.95 22.7087C479.491 22.7087 479.116 22.3704 479.116 21.9519C479.116 21.5335 479.482 21.1952 479.94 21.1952H479.95C480.408 21.1952 480.779 21.5335 480.779 21.9519C480.779 22.3704 480.408 22.7087 479.95 22.7087Z" fill="#5D9CEC"/>
<path d="M462.496 23.4654C462.283 23.4654 462.071 23.3913 461.909 23.2437C461.585 22.9478 461.585 22.4696 461.909 22.1737L463.569 20.6602C463.893 20.3643 464.418 20.3643 464.742 20.6602C465.066 20.956 465.066 21.4343 464.742 21.7302L463.082 23.2437C462.921 23.3913 462.708 23.4654 462.496 23.4654Z" fill="#434A54"/>
<path d="M466.645 23.4654C466.432 23.4654 466.22 23.3913 466.058 23.2437C465.734 22.9478 465.734 22.4696 466.058 22.1737L467.718 20.6602C468.042 20.3643 468.567 20.3643 468.891 20.6602C469.216 20.956 469.216 21.4343 468.891 21.7302L467.232 23.2437C467.07 23.3913 466.857 23.4654 466.645 23.4654Z" fill="#434A54"/>
<path d="M470.794 23.4654C470.582 23.4654 470.369 23.3913 470.207 23.2437C469.883 22.9478 469.883 22.4696 470.207 22.1737L471.867 20.6602C472.191 20.3643 472.716 20.3643 473.04 20.6602C473.365 20.956 473.365 21.4343 473.04 21.7302L471.381 23.2437C471.219 23.3913 471.006 23.4654 470.794 23.4654Z" fill="#434A54"/>
<path d="M479.95 28.7628C479.491 28.7628 479.116 28.4245 479.116 28.006C479.116 27.5875 479.482 27.2493 479.94 27.2493H479.95C480.408 27.2493 480.779 27.5875 480.779 28.006C480.779 28.4245 480.408 28.7628 479.95 28.7628Z" fill="#5D9CEC"/>
<path d="M462.496 29.5195C462.283 29.5195 462.071 29.4454 461.909 29.2978C461.585 29.0019 461.585 28.5236 461.909 28.2277L463.569 26.7142C463.893 26.4183 464.418 26.4183 464.742 26.7142C465.066 27.0101 465.066 27.4884 464.742 27.7843L463.082 29.2978C462.921 29.4454 462.708 29.5195 462.496 29.5195Z" fill="#545C66"/>
<path d="M466.645 29.5195C466.432 29.5195 466.22 29.4454 466.058 29.2978C465.734 29.0019 465.734 28.5236 466.058 28.2277L467.718 26.7142C468.042 26.4183 468.567 26.4183 468.891 26.7142C469.216 27.0101 469.216 27.4884 468.891 27.7843L467.232 29.2978C467.07 29.4454 466.857 29.5195 466.645 29.5195Z" fill="#545C66"/>
<path d="M470.794 29.5195C470.582 29.5195 470.369 29.4454 470.207 29.2978C469.883 29.0019 469.883 28.5236 470.207 28.2277L471.867 26.7142C472.191 26.4183 472.716 26.4183 473.04 26.7142C473.365 27.0101 473.365 27.4884 473.04 27.7843L471.381 29.2978C471.219 29.4454 471.006 29.5195 470.794 29.5195Z" fill="#545C66"/>
<path d="M466.645 35.5736C466.432 35.5736 466.22 35.4994 466.058 35.3519C465.734 35.056 465.734 34.5777 466.058 34.2818L467.718 32.7683C468.042 32.4724 468.567 32.4724 468.891 32.7683C469.216 33.0642 469.216 33.5425 468.891 33.8384L467.232 35.3519C467.07 35.4994 466.857 35.5736 466.645 35.5736Z" fill="#434A54"/>
<path d="M470.794 35.5736C470.582 35.5736 470.369 35.4994 470.207 35.3519C469.883 35.056 469.883 34.5777 470.207 34.2818L471.867 32.7683C472.191 32.4724 472.716 32.4724 473.04 32.7683C473.365 33.0642 473.365 33.5425 473.04 33.8384L471.381 35.3519C471.219 35.4994 471.006 35.5736 470.794 35.5736Z" fill="#434A54"/>
<path d="M463.569 32.7683L462.038 34.1638C462.014 34.1865 462.003 34.2167 461.982 34.2425C462.193 34.3961 462.401 34.5535 462.622 34.6965C462.852 34.8463 463.092 34.9863 463.334 35.1233L464.742 33.8391C465.066 33.5432 465.066 33.0649 464.742 32.7691C464.418 32.4732 463.893 32.4724 463.569 32.7683Z" fill="#434A54"/>
<path d="M479.95 33.3033H479.94C479.482 33.3033 479.116 33.6416 479.116 34.0601C479.116 34.2213 479.184 34.362 479.278 34.4846C479.714 34.185 480.13 33.8626 480.525 33.519C480.376 33.3858 480.175 33.3033 479.95 33.3033Z" fill="#5D9CEC"/>
<path d="M510.482 57.5571H510.418H494.72C494.64 57.5727 494.544 57.5727 494.464 57.5727H492.867H476.897H464.105H446.554C446.474 57.5727 446.394 57.5727 446.316 57.5571H430.568C428.811 57.5571 427.374 58.9416 427.374 60.6682V108.889H459.314H481.672H513.613V60.6682C513.613 58.9571 512.223 57.5882 510.482 57.5571Z" fill="#5D9CEC"/>
<path d="M427.376 62.2206C426.493 62.2206 425.779 61.5253 425.779 60.6651C425.779 58.0922 427.928 55.9984 430.57 55.9984C431.453 55.9984 432.167 56.6937 432.167 57.554C432.167 58.4142 431.453 59.1095 430.57 59.1095C429.688 59.1095 428.973 59.8064 428.973 60.6651C428.973 61.5253 428.259 62.2206 427.376 62.2206Z" fill="#545C66"/>
<path d="M427.376 110.437C426.493 110.437 425.779 109.741 425.779 108.881V60.6652C425.779 59.805 426.493 59.1096 427.376 59.1096C428.259 59.1096 428.973 59.805 428.973 60.6652V108.881C428.973 109.741 428.259 110.437 427.376 110.437Z" fill="#545C66"/>
<path d="M513.614 62.2208C512.731 62.2208 512.017 61.5254 512.017 60.6652C512.017 59.8065 511.301 59.1096 510.42 59.1096C509.537 59.1096 508.823 58.4143 508.823 57.5541C508.823 56.6939 509.537 55.9985 510.42 55.9985C513.061 55.9985 515.211 58.0923 515.211 60.6652C515.211 61.5254 514.497 62.2208 513.614 62.2208Z" fill="#545C66"/>
<path d="M513.614 110.437C512.731 110.437 512.017 109.741 512.017 108.881V60.6651C512.017 59.8048 512.731 59.1095 513.614 59.1095C514.497 59.1095 515.211 59.8048 515.211 60.6651V108.881C515.211 109.741 514.497 110.437 513.614 110.437Z" fill="#545C66"/>
<path d="M510.486 59.1095H430.57C429.687 59.1095 428.973 58.4142 428.973 57.554C428.973 56.6937 429.687 55.9984 430.57 55.9984H510.486C511.369 55.9984 512.083 56.6937 512.083 57.554C512.083 58.4142 511.369 59.1095 510.486 59.1095Z" fill="#545C66"/>
<path d="M456.373 83.8542H456.394V97.4411H438V83.8542H456.373Z" fill="#E6E9ED"/>
<path d="M456.373 81.7745V83.8543H438H437.978V81.764V81.7536C437.978 81.1798 438.428 80.7189 439.001 80.7189H439.011H455.33C455.913 80.7189 456.363 81.1798 456.374 81.764V81.7745H456.373Z" fill="#CCD1D9"/>
<path d="M478.881 84.9203V86.9897H460.496H460.486V84.8994C460.486 84.3256 460.936 83.8542 461.499 83.8542H461.519H477.838C478.412 83.8542 478.871 84.3256 478.882 84.8994V84.9203H478.881Z" fill="#CCD1D9"/>
<path d="M501.389 83.8542H501.41V97.4411H483.004V83.8542H501.389Z" fill="#E6E9ED"/>
<path d="M501.389 81.7745V83.8543H483.004H482.994V81.764V81.7536C482.994 81.1798 483.444 80.7189 484.007 80.7189H484.027H500.346C500.929 80.7189 501.379 81.1798 501.39 81.764V81.7745H501.389Z" fill="#CCD1D9"/>
<path d="M478.881 86.9897H478.902V100.577H460.496V86.9897H478.881Z" fill="#E6E9ED"/>
<path d="M500.353 98.4883H484.033C483.468 98.4883 483.01 98.0212 483.01 97.4432C483.01 96.8652 483.468 96.3981 484.033 96.3981H500.353C500.919 96.3981 501.376 96.8652 501.376 97.4432C501.376 98.0212 500.919 98.4883 500.353 98.4883Z" fill="#E6E9ED"/>
<path d="M477.862 101.622H461.543C460.977 101.622 460.52 101.154 460.52 100.577C460.52 99.9985 460.977 99.5314 461.543 99.5314H477.862C478.428 99.5314 478.885 99.9985 478.885 100.577C478.885 101.154 478.428 101.622 477.862 101.622Z" fill="#E6E9ED"/>
<path d="M455.356 98.4883H439.037C438.471 98.4883 438.014 98.0212 438.014 97.4432C438.014 96.8652 438.471 96.3981 439.037 96.3981H455.356C455.922 96.3981 456.379 96.8652 456.379 97.4432C456.379 98.0212 455.922 98.4883 455.356 98.4883Z" fill="#E6E9ED"/>
<path d="M497.315 89.0779H487.084C486.519 89.0779 486.061 88.6108 486.061 88.0328C486.061 87.4548 486.519 86.9877 487.084 86.9877H497.315C497.881 86.9877 498.338 87.4548 498.338 88.0328C498.338 88.6108 497.881 89.0779 497.315 89.0779Z" fill="#CCD1D9"/>
<path d="M497.315 92.2133H487.084C486.519 92.2133 486.061 91.7461 486.061 91.1682C486.061 90.5902 486.519 90.123 487.084 90.123H497.315C497.881 90.123 498.338 90.5902 498.338 91.1682C498.338 91.7461 497.881 92.2133 497.315 92.2133Z" fill="#CCD1D9"/>
<path d="M494.243 95.3487H490.157C489.591 95.3487 489.134 94.8815 489.134 94.3036C489.134 93.7256 489.591 93.2584 490.157 93.2584H494.243C494.809 93.2584 495.266 93.7256 495.266 94.3036C495.266 94.8815 494.809 95.3487 494.243 95.3487Z" fill="#CCD1D9"/>
<path d="M474.807 92.2175H464.576C464.011 92.2175 463.553 91.7503 463.553 91.1723C463.553 90.5944 464.011 90.1272 464.576 90.1272H474.807C475.373 90.1272 475.83 90.5944 475.83 91.1723C475.83 91.7503 475.373 92.2175 474.807 92.2175Z" fill="#CCD1D9"/>
<path d="M474.807 95.353H464.576C464.011 95.353 463.553 94.8858 463.553 94.3078C463.553 93.7299 464.011 93.2627 464.576 93.2627H474.807C475.373 93.2627 475.83 93.7299 475.83 94.3078C475.83 94.8858 475.373 95.353 474.807 95.353Z" fill="#CCD1D9"/>
<path d="M471.735 98.4883H467.649C467.083 98.4883 466.626 98.0212 466.626 97.4432C466.626 96.8652 467.083 96.3981 467.649 96.3981H471.735C472.301 96.3981 472.758 96.8652 472.758 97.4432C472.758 98.0212 472.301 98.4883 471.735 98.4883Z" fill="#CCD1D9"/>
<path d="M452.301 89.0779H442.07C441.505 89.0779 441.047 88.6108 441.047 88.0328C441.047 87.4548 441.505 86.9877 442.07 86.9877H452.301C452.867 86.9877 453.324 87.4548 453.324 88.0328C453.324 88.6108 452.867 89.0779 452.301 89.0779Z" fill="#CCD1D9"/>
<path d="M452.301 92.2133H442.07C441.505 92.2133 441.047 91.7461 441.047 91.1682C441.047 90.5902 441.505 90.123 442.07 90.123H452.301C452.867 90.123 453.324 90.5902 453.324 91.1682C453.324 91.7461 452.867 92.2133 452.301 92.2133Z" fill="#CCD1D9"/>
<path d="M449.229 95.3487H445.143C444.577 95.3487 444.12 94.8815 444.12 94.3036C444.12 93.7256 444.577 93.2584 445.143 93.2584H449.229C449.795 93.2584 450.252 93.7256 450.252 94.3036C450.252 94.8815 449.795 95.3487 449.229 95.3487Z" fill="#CCD1D9"/>
<path d="M469.703 80.721C469.137 80.721 468.68 80.2538 468.68 79.6758V68.1814C468.68 67.6034 469.137 67.1362 469.703 67.1362C470.269 67.1362 470.726 67.6034 470.726 68.1814V79.6758C470.726 80.2538 470.269 80.721 469.703 80.721Z" fill="#656D78"/>
<path d="M492.203 77.5855C491.637 77.5855 491.18 77.1184 491.18 76.5404V72.3598C491.18 71.7819 491.637 71.3147 492.203 71.3147C492.769 71.3147 493.226 71.7819 493.226 72.3598V76.5404C493.226 77.1184 492.769 77.5855 492.203 77.5855Z" fill="#656D78"/>
<path d="M492.203 73.405H475.833C475.268 73.405 474.81 72.9378 474.81 72.3598C474.81 71.7819 475.268 71.3147 475.833 71.3147H492.203C492.769 71.3147 493.226 71.7819 493.226 72.3598C493.226 72.9378 492.769 73.405 492.203 73.405Z" fill="#656D78"/>
<path d="M475.833 73.405C475.268 73.405 474.81 72.9378 474.81 72.3598V68.1814C474.81 67.6034 475.268 67.1362 475.833 67.1362C476.399 67.1362 476.856 67.6034 476.856 68.1814V72.3598C476.856 72.9378 476.399 73.405 475.833 73.405Z" fill="#656D78"/>
<path d="M447.159 77.5855C446.593 77.5855 446.136 77.1184 446.136 76.5404V72.3598C446.136 71.7819 446.593 71.3147 447.159 71.3147C447.725 71.3147 448.182 71.7819 448.182 72.3598V76.5404C448.182 77.1184 447.724 77.5855 447.159 77.5855Z" fill="#656D78"/>
<path d="M463.529 73.405H447.159C446.593 73.405 446.136 72.9378 446.136 72.3598C446.136 71.7819 446.593 71.3147 447.159 71.3147H463.529C464.094 71.3147 464.552 71.7819 464.552 72.3598C464.552 72.9378 464.093 73.405 463.529 73.405Z" fill="#656D78"/>
<path d="M463.529 73.405C462.963 73.405 462.506 72.9378 462.506 72.3598V68.1814C462.506 67.6034 462.963 67.1362 463.529 67.1362C464.094 67.1362 464.552 67.6034 464.552 68.1814V72.3598C464.552 72.9378 464.093 73.405 463.529 73.405Z" fill="#656D78"/>
<path d="M513.612 108.889H481.672H459.313H427.373H422.585L420.985 110.438V115.111C420.985 116.838 422.422 118.222 424.179 118.222H516.806C518.579 118.222 520 116.838 520 115.111V110.438L518.403 108.889H513.612Z" fill="#656D78"/>
<path d="M481.672 108.888V110.443C481.672 111.299 480.953 111.999 480.075 111.999H460.91C460.032 111.999 459.313 111.299 459.313 110.443V108.888" fill="#545C66"/>
<path d="M464.108 66.8954C463.225 66.8954 462.511 66.2 462.511 65.3398V46.6793C462.511 45.8191 463.225 45.1238 464.108 45.1238C464.991 45.1238 465.705 45.8191 465.705 46.6793V65.3398C465.705 66.2 464.991 66.8954 464.108 66.8954Z" fill="#E6E9ED"/>
<path d="M467.299 51.3429C466.891 51.3429 466.482 51.1905 466.17 50.8871L462.979 47.7791C462.355 47.1709 462.355 46.1878 462.979 45.5796C463.604 44.9714 464.613 44.9714 465.238 45.5796L468.428 48.6876C469.053 49.2958 469.053 50.2789 468.428 50.8871C468.117 51.1905 467.708 51.3429 467.299 51.3429Z" fill="#E6E9ED"/>
<path d="M460.918 51.3429C460.509 51.3429 460.101 51.1905 459.789 50.8871C459.165 50.2789 459.165 49.2958 459.789 48.6876L462.98 45.5796C463.604 44.9714 464.614 44.9714 465.238 45.5796C465.863 46.1878 465.863 47.1709 465.238 47.7791L462.047 50.8871C461.736 51.1905 461.327 51.3429 460.918 51.3429Z" fill="#E6E9ED"/>
<path d="M476.896 66.8954C476.013 66.8954 475.299 66.2 475.299 65.3398V46.6793C475.299 45.8191 476.013 45.1238 476.896 45.1238C477.779 45.1238 478.493 45.8191 478.493 46.6793V65.3398C478.493 66.2 477.779 66.8954 476.896 66.8954Z" fill="#E6E9ED"/>
<path d="M476.897 66.8955C476.488 66.8955 476.079 66.7431 475.768 66.4398L472.577 63.3318C471.953 62.7235 471.953 61.7404 472.577 61.1322C473.202 60.524 474.211 60.524 474.835 61.1322L478.026 64.2402C478.651 64.8484 478.651 65.8315 478.026 66.4398C477.713 66.7431 477.306 66.8955 476.897 66.8955Z" fill="#E6E9ED"/>
<path d="M476.897 66.8955C476.488 66.8955 476.079 66.7431 475.768 66.4398C475.143 65.8315 475.143 64.8484 475.768 64.2402L478.958 61.1322C479.583 60.524 480.592 60.524 481.217 61.1322C481.841 61.7404 481.841 62.7235 481.217 63.3318L478.026 66.4398C477.713 66.7431 477.305 66.8955 476.897 66.8955Z" fill="#E6E9ED"/>
<path d="M422.583 111.993C423.465 111.993 424.18 111.296 424.18 110.437C424.18 109.578 423.465 108.881 422.583 108.881C421.701 108.881 420.986 109.578 420.986 110.437C420.986 111.296 421.701 111.993 422.583 111.993Z" fill="#656D78"/>
<path d="M427.376 124.444H413V166.445H427.376C428.253 166.445 428.973 165.743 428.973 164.889C428.973 164.032 428.973 162.632 428.973 161.778V129.111C428.973 128.254 428.973 126.854 428.973 126C428.973 125.143 428.253 124.444 427.376 124.444Z" fill="#656D78"/>
<path d="M473.687 138.444L504.541 133.873C504.891 133.809 505.258 133.778 505.627 133.778C509.155 133.778 512.015 136.561 512.015 140C512.015 142.302 510.736 144.309 508.821 145.384L465.701 168L428.97 163.333V127.556H443.343L468.399 132.317C471.403 132.815 473.687 135.363 473.687 138.444Z" fill="#EAC6BB"/>
<path d="M421.032 163.333C420.148 163.333 419.428 162.638 419.428 161.778C419.428 160.918 420.132 160.222 421.016 160.222H421.032C421.915 160.222 422.629 160.918 422.629 161.778C422.629 162.638 421.915 163.333 421.032 163.333Z" fill="#FFCE54"/>
<path d="M476.837 137.976L473.686 138.445C473.686 141.881 470.826 144.667 467.298 144.667C467.118 144.667 466.936 144.651 466.758 144.639C466.755 144.636 466.755 144.636 466.752 144.636L446.661 143.113C445.788 143.058 445.015 143.69 444.943 144.544C444.878 145.401 445.532 146.148 446.412 146.215L466.35 147.725V147.731C466.664 147.762 466.982 147.776 467.298 147.776C472.583 147.776 476.88 143.59 476.88 138.443C476.88 138.283 476.847 138.135 476.837 137.976Z" fill="#D3B1A9"/>
</svg>
