<svg width="609" height="201" viewBox="0 0 609 201" fill="none" xmlns="http://www.w3.org/2000/svg">
<rect width="609" height="176" rx="20" fill="#312F2F"/>
<path d="M51.14 56.96C51.14 57.6267 50.98 58.2533 50.66 58.84C50.3533 59.4267 49.8933 59.92 49.28 60.32C48.68 60.72 47.96 60.9733 47.12 61.08V62C47.8533 62 48.4667 62.1867 48.96 62.56C49.4667 62.9333 49.72 63.4733 49.72 64.18C49.72 64.9 49.46 65.4533 48.94 65.84C48.4333 66.2267 47.8067 66.42 47.06 66.42H44.22V64.78H46.6C46.92 64.78 47.16 64.7333 47.32 64.64C47.4933 64.5467 47.58 64.38 47.58 64.14C47.58 63.9 47.4933 63.7333 47.32 63.64C47.16 63.56 46.92 63.52 46.6 63.52H45.36V61.1C44.08 60.9533 43.04 60.52 42.24 59.8C41.44 59.08 41.0333 58.14 41.02 56.98H44.02C44.06 57.5533 44.26 58.0067 44.62 58.34C44.9933 58.6733 45.5 58.84 46.14 58.84C46.7933 58.84 47.3067 58.6867 47.68 58.38C48.0533 58.06 48.24 57.6467 48.24 57.14C48.24 56.7267 48.1133 56.3867 47.86 56.12C47.6067 55.8533 47.2867 55.6467 46.9 55.5C46.5267 55.34 46.0067 55.1667 45.34 54.98C44.4333 54.7133 43.6933 54.4533 43.12 54.2C42.56 53.9333 42.0733 53.54 41.66 53.02C41.26 52.4867 41.06 51.78 41.06 50.9C41.06 50.0733 41.2667 49.3533 41.68 48.74C42.0933 48.1267 42.6733 47.66 43.42 47.34C44.1667 47.0067 45.02 46.84 45.98 46.84C47.42 46.84 48.5867 47.1933 49.48 47.9C50.3867 48.5933 50.8867 49.5667 50.98 50.82H47.9C47.8733 50.34 47.6667 49.9467 47.28 49.64C46.9067 49.32 46.4067 49.16 45.78 49.16C45.2333 49.16 44.7933 49.3 44.46 49.58C44.14 49.86 43.98 50.2667 43.98 50.8C43.98 51.1733 44.1 51.4867 44.34 51.74C44.5933 51.98 44.9 52.18 45.26 52.34C45.6333 52.4867 46.1533 52.66 46.82 52.86C47.7267 53.1267 48.4667 53.3933 49.04 53.66C49.6133 53.9267 50.1067 54.3267 50.52 54.86C50.9333 55.3933 51.14 56.0933 51.14 56.96ZM54.9875 48.6C54.4942 48.6 54.0808 48.4467 53.7475 48.14C53.4275 47.82 53.2675 47.4267 53.2675 46.96C53.2675 46.4933 53.4275 46.1067 53.7475 45.8C54.0808 45.48 54.4942 45.32 54.9875 45.32C55.4808 45.32 55.8875 45.48 56.2075 45.8C56.5408 46.1067 56.7075 46.4933 56.7075 46.96C56.7075 47.4267 56.5408 47.82 56.2075 48.14C55.8875 48.4467 55.4808 48.6 54.9875 48.6ZM56.3675 49.92V61H53.5675V49.92H56.3675ZM61.9339 51.64C62.2939 51.0533 62.7606 50.5933 63.3339 50.26C63.9206 49.9267 64.5872 49.76 65.3339 49.76V52.7H64.5939C63.7139 52.7 63.0472 52.9067 62.5939 53.32C62.1539 53.7333 61.9339 54.4533 61.9339 55.48V61H59.1339V49.92H61.9339V51.64ZM73.7798 61L70.0198 56.28V61H67.2198V46.2H70.0198V54.62L73.7398 49.92H77.3798L72.4998 55.48L77.4198 61H73.7798ZM89.1995 55.22C89.1995 55.62 89.1729 55.98 89.1195 56.3H81.0195C81.0862 57.1 81.3662 57.7267 81.8595 58.18C82.3529 58.6333 82.9595 58.86 83.6795 58.86C84.7195 58.86 85.4595 58.4133 85.8995 57.52H88.9195C88.5995 58.5867 87.9862 59.4667 87.0795 60.16C86.1729 60.84 85.0595 61.18 83.7395 61.18C82.6729 61.18 81.7129 60.9467 80.8595 60.48C80.0195 60 79.3595 59.3267 78.8795 58.46C78.4129 57.5933 78.1795 56.5933 78.1795 55.46C78.1795 54.3133 78.4129 53.3067 78.8795 52.44C79.3462 51.5733 79.9995 50.9067 80.8395 50.44C81.6795 49.9733 82.6462 49.74 83.7395 49.74C84.7929 49.74 85.7329 49.9667 86.5595 50.42C87.3995 50.8733 88.0462 51.52 88.4995 52.36C88.9662 53.1867 89.1995 54.14 89.1995 55.22ZM86.2995 54.42C86.2862 53.7 86.0262 53.1267 85.5195 52.7C85.0129 52.26 84.3929 52.04 83.6595 52.04C82.9662 52.04 82.3795 52.2533 81.8995 52.68C81.4329 53.0933 81.1462 53.6733 81.0395 54.42H86.2995ZM94.5033 52.22V57.58C94.5033 57.9533 94.5899 58.2267 94.7633 58.4C94.9499 58.56 95.2566 58.64 95.6833 58.64H96.9833V61H95.2233C92.8633 61 91.6833 59.8533 91.6833 57.56V52.22H90.3633V49.92H91.6833V47.18H94.5033V49.92H96.9833V52.22H94.5033ZM100.417 48.6C99.9239 48.6 99.5105 48.4467 99.1772 48.14C98.8572 47.82 98.6972 47.4267 98.6972 46.96C98.6972 46.4933 98.8572 46.1067 99.1772 45.8C99.5105 45.48 99.9239 45.32 100.417 45.32C100.911 45.32 101.317 45.48 101.637 45.8C101.971 46.1067 102.137 46.4933 102.137 46.96C102.137 47.4267 101.971 47.82 101.637 48.14C101.317 48.4467 100.911 48.6 100.417 48.6ZM101.797 49.92V61H98.9972V49.92H101.797ZM110.704 49.76C112.024 49.76 113.09 50.18 113.904 51.02C114.717 51.8467 115.124 53.0067 115.124 54.5V61H112.324V54.88C112.324 54 112.104 53.3267 111.664 52.86C111.224 52.38 110.624 52.14 109.864 52.14C109.09 52.14 108.477 52.38 108.024 52.86C107.584 53.3267 107.364 54 107.364 54.88V61H104.564V49.92H107.364V51.3C107.737 50.82 108.21 50.4467 108.784 50.18C109.37 49.9 110.01 49.76 110.704 49.76ZM119.206 48.6C118.713 48.6 118.3 48.4467 117.966 48.14C117.646 47.82 117.486 47.4267 117.486 46.96C117.486 46.4933 117.646 46.1067 117.966 45.8C118.3 45.48 118.713 45.32 119.206 45.32C119.7 45.32 120.106 45.48 120.426 45.8C120.76 46.1067 120.926 46.4933 120.926 46.96C120.926 47.4267 120.76 47.82 120.426 48.14C120.106 48.4467 119.7 48.6 119.206 48.6ZM120.586 49.92V61H117.786V49.92H120.586ZM125.913 58.7H130.853V61H122.733V58.74L127.573 52.22H122.753V49.92H130.793V52.18L125.913 58.7ZM139.206 48.6C138.713 48.6 138.3 48.4467 137.966 48.14C137.646 47.82 137.486 47.4267 137.486 46.96C137.486 46.4933 137.646 46.1067 137.966 45.8C138.3 45.48 138.713 45.32 139.206 45.32C139.7 45.32 140.106 45.48 140.426 45.8C140.76 46.1067 140.926 46.4933 140.926 46.96C140.926 47.4267 140.76 47.82 140.426 48.14C140.106 48.4467 139.7 48.6 139.206 48.6ZM140.586 49.92V61H137.786V49.92H140.586ZM148.093 58.78C149.226 58.78 149.966 58.2733 150.313 57.26H153.333C153.053 58.34 152.533 59.22 151.773 59.9C151.026 60.58 150.086 60.9867 148.953 61.12V61.9C149.686 61.9 150.299 62.0867 150.793 62.46C151.299 62.8333 151.553 63.3733 151.553 64.08C151.553 64.8 151.293 65.3533 150.773 65.74C150.266 66.1267 149.639 66.32 148.893 66.32H146.053V64.68H148.433C148.753 64.68 148.993 64.6333 149.153 64.54C149.326 64.4467 149.413 64.28 149.413 64.04C149.413 63.8 149.326 63.6333 149.153 63.54C148.993 63.46 148.753 63.42 148.433 63.42H147.193V61.12C146.286 60.9867 145.486 60.6733 144.793 60.18C144.113 59.6733 143.579 59.02 143.193 58.22C142.819 57.4067 142.633 56.4867 142.633 55.46C142.633 54.3133 142.866 53.3133 143.333 52.46C143.799 51.5933 144.446 50.9267 145.273 50.46C146.099 49.98 147.046 49.74 148.113 49.74C149.486 49.74 150.619 50.0867 151.513 50.78C152.419 51.46 153.026 52.42 153.333 53.66H150.313C150.153 53.18 149.879 52.8067 149.493 52.54C149.119 52.26 148.653 52.12 148.093 52.12C147.293 52.12 146.659 52.4133 146.193 53C145.726 53.5733 145.493 54.3933 145.493 55.46C145.493 56.5133 145.726 57.3333 146.193 57.92C146.659 58.4933 147.293 58.78 148.093 58.78ZM156.804 48.6C156.311 48.6 155.897 48.4467 155.564 48.14C155.244 47.82 155.084 47.4267 155.084 46.96C155.084 46.4933 155.244 46.1067 155.564 45.8C155.897 45.48 156.311 45.32 156.804 45.32C157.297 45.32 157.704 45.48 158.024 45.8C158.357 46.1067 158.524 46.4933 158.524 46.96C158.524 47.4267 158.357 47.82 158.024 48.14C157.704 48.4467 157.297 48.6 156.804 48.6ZM158.184 49.92V61H155.384V49.92H158.184ZM167.09 49.76C168.41 49.76 169.477 50.18 170.29 51.02C171.104 51.8467 171.51 53.0067 171.51 54.5V61H168.71V54.88C168.71 54 168.49 53.3267 168.05 52.86C167.61 52.38 167.01 52.14 166.25 52.14C165.477 52.14 164.864 52.38 164.41 52.86C163.97 53.3267 163.75 54 163.75 54.88V61H160.95V49.92H163.75V51.3C164.124 50.82 164.597 50.4467 165.17 50.18C165.757 49.9 166.397 49.76 167.09 49.76ZM185.179 49.76C186.019 49.76 186.765 49.9467 187.419 50.32C188.072 50.68 188.579 51.22 188.939 51.94C189.312 52.6467 189.499 53.5 189.499 54.5V61H186.699V54.88C186.699 54 186.479 53.3267 186.039 52.86C185.599 52.38 184.999 52.14 184.239 52.14C183.465 52.14 182.852 52.38 182.399 52.86C181.959 53.3267 181.739 54 181.739 54.88V61H178.939V46.2H181.739V51.3C182.099 50.82 182.579 50.4467 183.179 50.18C183.779 49.9 184.445 49.76 185.179 49.76ZM195.081 49.92V61H192.281V49.92H195.081ZM200.522 58.7H205.462V61H197.342V58.74L202.182 52.22H197.362V49.92H205.402V52.18L200.522 58.7ZM210.43 46.2V61H207.63V46.2H210.43ZM216.116 49.92V61H213.316V49.92H216.116ZM228.383 58.42L231.183 49.92H234.163L230.063 61H226.663L222.583 49.92H225.583L228.383 58.42ZM246.035 55.22C246.035 55.62 246.009 55.98 245.955 56.3H237.855C237.922 57.1 238.202 57.7267 238.695 58.18C239.189 58.6333 239.795 58.86 240.515 58.86C241.555 58.86 242.295 58.4133 242.735 57.52H245.755C245.435 58.5867 244.822 59.4667 243.915 60.16C243.009 60.84 241.895 61.18 240.575 61.18C239.509 61.18 238.549 60.9467 237.695 60.48C236.855 60 236.195 59.3267 235.715 58.46C235.249 57.5933 235.015 56.5933 235.015 55.46C235.015 54.3133 235.249 53.3067 235.715 52.44C236.182 51.5733 236.835 50.9067 237.675 50.44C238.515 49.9733 239.482 49.74 240.575 49.74C241.629 49.74 242.569 49.9667 243.395 50.42C244.235 50.8733 244.882 51.52 245.335 52.36C245.802 53.1867 246.035 54.14 246.035 55.22ZM243.135 54.42C243.122 53.7 242.862 53.1267 242.355 52.7C241.849 52.26 241.229 52.04 240.495 52.04C239.802 52.04 239.215 52.2533 238.735 52.68C238.269 53.0933 237.982 53.6733 237.875 54.42H243.135ZM257.185 49.74C258.012 49.74 258.738 49.9067 259.365 50.24C259.992 50.56 260.485 50.98 260.845 51.5V49.92H263.665V61.08C263.665 62.1067 263.458 63.02 263.045 63.82C262.632 64.6333 262.012 65.2733 261.185 65.74C260.358 66.22 259.358 66.46 258.185 66.46C256.612 66.46 255.318 66.0933 254.305 65.36C253.305 64.6267 252.738 63.6267 252.605 62.36H255.385C255.532 62.8667 255.845 63.2667 256.325 63.56C256.818 63.8667 257.412 64.02 258.105 64.02C258.918 64.02 259.578 63.7733 260.085 63.28C260.592 62.8 260.845 62.0667 260.845 61.08V59.36C260.485 59.88 259.985 60.3133 259.345 60.66C258.718 61.0067 257.998 61.18 257.185 61.18C256.252 61.18 255.398 60.94 254.625 60.46C253.852 59.98 253.238 59.3067 252.785 58.44C252.345 57.56 252.125 56.5533 252.125 55.42C252.125 54.3 252.345 53.3067 252.785 52.44C253.238 51.5733 253.845 50.9067 254.605 50.44C255.378 49.9733 256.238 49.74 257.185 49.74ZM260.845 55.46C260.845 54.78 260.712 54.2 260.445 53.72C260.178 53.2267 259.818 52.8533 259.365 52.6C258.912 52.3333 258.425 52.2 257.905 52.2C257.385 52.2 256.905 52.3267 256.465 52.58C256.025 52.8333 255.665 53.2067 255.385 53.7C255.118 54.18 254.985 54.7533 254.985 55.42C254.985 56.0867 255.118 56.6733 255.385 57.18C255.665 57.6733 256.025 58.0533 256.465 58.32C256.918 58.5867 257.398 58.72 257.905 58.72C258.425 58.72 258.912 58.5933 259.365 58.34C259.818 58.0733 260.178 57.7 260.445 57.22C260.712 56.7267 260.845 56.14 260.845 55.46ZM276.86 49.92V61H274.04V59.6C273.68 60.08 273.206 60.46 272.62 60.74C272.046 61.0067 271.42 61.14 270.74 61.14C269.873 61.14 269.106 60.96 268.44 60.6C267.773 60.2267 267.246 59.6867 266.86 58.98C266.486 58.26 266.3 57.4067 266.3 56.42V49.92H269.1V56.02C269.1 56.9 269.32 57.58 269.76 58.06C270.2 58.5267 270.8 58.76 271.56 58.76C272.333 58.76 272.94 58.5267 273.38 58.06C273.82 57.58 274.04 56.9 274.04 56.02V49.92H276.86ZM269.78 48.6C269.406 48.6 269.093 48.4733 268.84 48.22C268.586 47.9667 268.46 47.6533 268.46 47.28C268.46 46.9067 268.586 46.5933 268.84 46.34C269.093 46.0733 269.406 45.94 269.78 45.94C270.153 45.94 270.466 46.0733 270.72 46.34C270.986 46.5933 271.12 46.9067 271.12 47.28C271.12 47.6533 270.986 47.9667 270.72 48.22C270.466 48.4733 270.153 48.6 269.78 48.6ZM273.48 48.6C273.106 48.6 272.793 48.4733 272.54 48.22C272.286 47.9667 272.16 47.6533 272.16 47.28C272.16 46.9067 272.286 46.5933 272.54 46.34C272.793 46.0733 273.106 45.94 273.48 45.94C273.853 45.94 274.166 46.0733 274.42 46.34C274.686 46.5933 274.82 46.9067 274.82 47.28C274.82 47.6533 274.686 47.9667 274.42 48.22C274.166 48.4733 273.853 48.6 273.48 48.6ZM284.242 58.42L287.042 49.92H290.022L285.922 61H282.522L278.442 49.92H281.442L284.242 58.42ZM301.895 55.22C301.895 55.62 301.868 55.98 301.815 56.3H293.715C293.782 57.1 294.062 57.7267 294.555 58.18C295.048 58.6333 295.655 58.86 296.375 58.86C297.415 58.86 298.155 58.4133 298.595 57.52H301.615C301.295 58.5867 300.682 59.4667 299.775 60.16C298.868 60.84 297.755 61.18 296.435 61.18C295.368 61.18 294.408 60.9467 293.555 60.48C292.715 60 292.055 59.3267 291.575 58.46C291.108 57.5933 290.875 56.5933 290.875 55.46C290.875 54.3133 291.108 53.3067 291.575 52.44C292.042 51.5733 292.695 50.9067 293.535 50.44C294.375 49.9733 295.342 49.74 296.435 49.74C297.488 49.74 298.428 49.9667 299.255 50.42C300.095 50.8733 300.742 51.52 301.195 52.36C301.662 53.1867 301.895 54.14 301.895 55.22ZM298.995 54.42C298.982 53.7 298.722 53.1267 298.215 52.7C297.708 52.26 297.088 52.04 296.355 52.04C295.662 52.04 295.075 52.2533 294.595 52.68C294.128 53.0933 293.842 53.6733 293.735 54.42H298.995ZM310.079 49.76C311.399 49.76 312.465 50.18 313.279 51.02C314.092 51.8467 314.499 53.0067 314.499 54.5V61H311.699V54.88C311.699 54 311.479 53.3267 311.039 52.86C310.599 52.38 309.999 52.14 309.239 52.14C308.465 52.14 307.852 52.38 307.399 52.86C306.959 53.3267 306.739 54 306.739 54.88V61H303.939V49.92H306.739V51.3C307.112 50.82 307.585 50.4467 308.159 50.18C308.745 49.9 309.385 49.76 310.079 49.76ZM318.581 48.6C318.088 48.6 317.675 48.4467 317.341 48.14C317.021 47.82 316.861 47.4267 316.861 46.96C316.861 46.4933 317.021 46.1067 317.341 45.8C317.675 45.48 318.088 45.32 318.581 45.32C319.075 45.32 319.481 45.48 319.801 45.8C320.135 46.1067 320.301 46.4933 320.301 46.96C320.301 47.4267 320.135 47.82 319.801 48.14C319.481 48.4467 319.075 48.6 318.581 48.6ZM319.961 49.92V61H317.161V49.92H319.961ZM325.528 46.2V61H322.728V46.2H325.528ZM329.714 48.6C329.221 48.6 328.807 48.4467 328.474 48.14C328.154 47.82 327.994 47.4267 327.994 46.96C327.994 46.4933 328.154 46.1067 328.474 45.8C328.807 45.48 329.221 45.32 329.714 45.32C330.207 45.32 330.614 45.48 330.934 45.8C331.267 46.1067 331.434 46.4933 331.434 46.96C331.434 47.4267 331.267 47.82 330.934 48.14C330.614 48.4467 330.207 48.6 329.714 48.6ZM331.094 49.92V61H328.294V49.92H331.094ZM336.66 51.64C337.02 51.0533 337.487 50.5933 338.06 50.26C338.647 49.9267 339.314 49.76 340.06 49.76V52.7H339.32C338.44 52.7 337.774 52.9067 337.32 53.32C336.88 53.7333 336.66 54.4533 336.66 55.48V61H333.86V49.92H336.66V51.64ZM51.98 73.92L45.12 90.24H42.14L44.54 84.72L40.1 73.92H43.24L46.1 81.66L49 73.92H51.98ZM52.7694 79.42C52.7694 78.3 52.9894 77.3067 53.4294 76.44C53.8827 75.5733 54.4894 74.9067 55.2494 74.44C56.0227 73.9733 56.8827 73.74 57.8294 73.74C58.656 73.74 59.376 73.9067 59.9894 74.24C60.616 74.5733 61.116 74.9933 61.4894 75.5V73.92H64.3094V85H61.4894V83.38C61.1294 83.9 60.6294 84.3333 59.9894 84.68C59.3627 85.0133 58.636 85.18 57.8094 85.18C56.876 85.18 56.0227 84.94 55.2494 84.46C54.4894 83.98 53.8827 83.3067 53.4294 82.44C52.9894 81.56 52.7694 80.5533 52.7694 79.42ZM61.4894 79.46C61.4894 78.78 61.356 78.2 61.0894 77.72C60.8227 77.2267 60.4627 76.8533 60.0094 76.6C59.556 76.3333 59.0694 76.2 58.5494 76.2C58.0294 76.2 57.5494 76.3267 57.1094 76.58C56.6694 76.8333 56.3094 77.2067 56.0294 77.7C55.7627 78.18 55.6294 78.7533 55.6294 79.42C55.6294 80.0867 55.7627 80.6733 56.0294 81.18C56.3094 81.6733 56.6694 82.0533 57.1094 82.32C57.5627 82.5867 58.0427 82.72 58.5494 82.72C59.0694 82.72 59.556 82.5933 60.0094 82.34C60.4627 82.0733 60.8227 81.7 61.0894 81.22C61.356 80.7267 61.4894 80.14 61.4894 79.46ZM69.6041 82.7H74.5441V85H66.4241V82.74L71.2641 76.22H66.4441V73.92H74.4841V76.18L69.6041 82.7ZM79.632 73.92V85H76.832V73.92H79.632ZM85.3128 70.2V85H82.5128V70.2H85.3128ZM90.9992 73.92V85H88.1992V73.92H90.9992ZM107.64 73.76C109 73.76 110.093 74.18 110.92 75.02C111.76 75.8467 112.18 77.0067 112.18 78.5V85H109.38V78.88C109.38 78.0133 109.16 77.3533 108.72 76.9C108.28 76.4333 107.68 76.2 106.92 76.2C106.16 76.2 105.553 76.4333 105.1 76.9C104.66 77.3533 104.44 78.0133 104.44 78.88V85H101.64V78.88C101.64 78.0133 101.42 77.3533 100.98 76.9C100.54 76.4333 99.94 76.2 99.18 76.2C98.4067 76.2 97.7933 76.4333 97.34 76.9C96.9 77.3533 96.68 78.0133 96.68 78.88V85H93.88V73.92H96.68V75.26C97.04 74.7933 97.5 74.4267 98.06 74.16C98.6333 73.8933 99.26 73.76 99.94 73.76C100.807 73.76 101.58 73.9467 102.26 74.32C102.94 74.68 103.467 75.2 103.84 75.88C104.2 75.24 104.72 74.7267 105.4 74.34C106.093 73.9533 106.84 73.76 107.64 73.76ZM124.343 82.78C125.476 82.78 126.216 82.2733 126.563 81.26H129.583C129.303 82.34 128.783 83.22 128.023 83.9C127.276 84.58 126.336 84.9867 125.203 85.12V85.9C125.936 85.9 126.549 86.0867 127.043 86.46C127.549 86.8333 127.803 87.3733 127.803 88.08C127.803 88.8 127.543 89.3533 127.023 89.74C126.516 90.1267 125.889 90.32 125.143 90.32H122.303V88.68H124.683C125.003 88.68 125.243 88.6333 125.403 88.54C125.576 88.4467 125.663 88.28 125.663 88.04C125.663 87.8 125.576 87.6333 125.403 87.54C125.243 87.46 125.003 87.42 124.683 87.42H123.443V85.12C122.536 84.9867 121.736 84.6733 121.043 84.18C120.363 83.6733 119.829 83.02 119.443 82.22C119.069 81.4067 118.883 80.4867 118.883 79.46C118.883 78.3133 119.116 77.3133 119.583 76.46C120.049 75.5933 120.696 74.9267 121.523 74.46C122.349 73.98 123.296 73.74 124.363 73.74C125.736 73.74 126.869 74.0867 127.763 74.78C128.669 75.46 129.276 76.42 129.583 77.66H126.563C126.403 77.18 126.129 76.8067 125.743 76.54C125.369 76.26 124.903 76.12 124.343 76.12C123.543 76.12 122.909 76.4133 122.443 77C121.976 77.5733 121.743 78.3933 121.743 79.46C121.743 80.5133 121.976 81.3333 122.443 81.92C122.909 82.4933 123.543 82.78 124.343 82.78ZM136.554 85.18C135.487 85.18 134.527 84.9467 133.674 84.48C132.821 84 132.147 83.3267 131.654 82.46C131.174 81.5933 130.934 80.5933 130.934 79.46C130.934 78.3267 131.181 77.3267 131.674 76.46C132.181 75.5933 132.867 74.9267 133.734 74.46C134.601 73.98 135.567 73.74 136.634 73.74C137.701 73.74 138.667 73.98 139.534 74.46C140.401 74.9267 141.081 75.5933 141.574 76.46C142.081 77.3267 142.334 78.3267 142.334 79.46C142.334 80.5933 142.074 81.5933 141.554 82.46C141.047 83.3267 140.354 84 139.474 84.48C138.607 84.9467 137.634 85.18 136.554 85.18ZM136.554 82.74C137.061 82.74 137.534 82.62 137.974 82.38C138.427 82.1267 138.787 81.7533 139.054 81.26C139.321 80.7667 139.454 80.1667 139.454 79.46C139.454 78.4067 139.174 77.6 138.614 77.04C138.067 76.4667 137.394 76.18 136.594 76.18C135.794 76.18 135.121 76.4667 134.574 77.04C134.041 77.6 133.774 78.4067 133.774 79.46C133.774 80.5133 134.034 81.3267 134.554 81.9C135.087 82.46 135.754 82.74 136.554 82.74ZM134.894 72.46C134.521 72.46 134.207 72.3333 133.954 72.08C133.701 71.8267 133.574 71.5133 133.574 71.14C133.574 70.7667 133.701 70.4533 133.954 70.2C134.207 69.9333 134.521 69.8 134.894 69.8C135.267 69.8 135.581 69.9333 135.834 70.2C136.101 70.4533 136.234 70.7667 136.234 71.14C136.234 71.5133 136.101 71.8267 135.834 72.08C135.581 72.3333 135.267 72.46 134.894 72.46ZM138.594 72.46C138.221 72.46 137.907 72.3333 137.654 72.08C137.401 71.8267 137.274 71.5133 137.274 71.14C137.274 70.7667 137.401 70.4533 137.654 70.2C137.907 69.9333 138.221 69.8 138.594 69.8C138.967 69.8 139.281 69.9333 139.534 70.2C139.801 70.4533 139.934 70.7667 139.934 71.14C139.934 71.5133 139.801 71.8267 139.534 72.08C139.281 72.3333 138.967 72.46 138.594 72.46ZM146.948 82.7H151.888V85H143.768V82.74L148.608 76.22H143.788V73.92H151.828V76.18L146.948 82.7ZM164.516 73.92V85H161.696V83.6C161.336 84.08 160.862 84.46 160.276 84.74C159.702 85.0067 159.076 85.14 158.396 85.14C157.529 85.14 156.762 84.96 156.096 84.6C155.429 84.2267 154.902 83.6867 154.516 82.98C154.142 82.26 153.956 81.4067 153.956 80.42V73.92H156.756V80.02C156.756 80.9 156.976 81.58 157.416 82.06C157.856 82.5267 158.456 82.76 159.216 82.76C159.989 82.76 160.596 82.5267 161.036 82.06C161.476 81.58 161.696 80.9 161.696 80.02V73.92H164.516ZM157.436 72.6C157.062 72.6 156.749 72.4733 156.496 72.22C156.242 71.9667 156.116 71.6533 156.116 71.28C156.116 70.9067 156.242 70.5933 156.496 70.34C156.749 70.0733 157.062 69.94 157.436 69.94C157.809 69.94 158.122 70.0733 158.376 70.34C158.642 70.5933 158.776 70.9067 158.776 71.28C158.776 71.6533 158.642 71.9667 158.376 72.22C158.122 72.4733 157.809 72.6 157.436 72.6ZM161.136 72.6C160.762 72.6 160.449 72.4733 160.196 72.22C159.942 71.9667 159.816 71.6533 159.816 71.28C159.816 70.9067 159.942 70.5933 160.196 70.34C160.449 70.0733 160.762 69.94 161.136 69.94C161.509 69.94 161.822 70.0733 162.076 70.34C162.342 70.5933 162.476 70.9067 162.476 71.28C162.476 71.6533 162.342 71.9667 162.076 72.22C161.822 72.4733 161.509 72.6 161.136 72.6ZM181.038 73.76C182.398 73.76 183.492 74.18 184.318 75.02C185.158 75.8467 185.578 77.0067 185.578 78.5V85H182.778V78.88C182.778 78.0133 182.558 77.3533 182.118 76.9C181.678 76.4333 181.078 76.2 180.318 76.2C179.558 76.2 178.952 76.4333 178.498 76.9C178.058 77.3533 177.838 78.0133 177.838 78.88V85H175.038V78.88C175.038 78.0133 174.818 77.3533 174.378 76.9C173.938 76.4333 173.338 76.2 172.578 76.2C171.805 76.2 171.192 76.4333 170.738 76.9C170.298 77.3533 170.078 78.0133 170.078 78.88V85H167.278V73.92H170.078V75.26C170.438 74.7933 170.898 74.4267 171.458 74.16C172.032 73.8933 172.658 73.76 173.338 73.76C174.205 73.76 174.978 73.9467 175.658 74.32C176.338 74.68 176.865 75.2 177.238 75.88C177.598 75.24 178.118 74.7267 178.798 74.34C179.492 73.9533 180.238 73.76 181.038 73.76ZM191.035 70.2V85H188.235V70.2H191.035ZM204.102 79.22C204.102 79.62 204.075 79.98 204.022 80.3H195.922C195.989 81.1 196.269 81.7267 196.762 82.18C197.255 82.6333 197.862 82.86 198.582 82.86C199.622 82.86 200.362 82.4133 200.802 81.52H203.822C203.502 82.5867 202.889 83.4667 201.982 84.16C201.075 84.84 199.962 85.18 198.642 85.18C197.575 85.18 196.615 84.9467 195.762 84.48C194.922 84 194.262 83.3267 193.782 82.46C193.315 81.5933 193.082 80.5933 193.082 79.46C193.082 78.3133 193.315 77.3067 193.782 76.44C194.249 75.5733 194.902 74.9067 195.742 74.44C196.582 73.9733 197.549 73.74 198.642 73.74C199.695 73.74 200.635 73.9667 201.462 74.42C202.302 74.8733 202.949 75.52 203.402 76.36C203.869 77.1867 204.102 78.14 204.102 79.22ZM201.202 78.42C201.189 77.7 200.929 77.1267 200.422 76.7C199.915 76.26 199.295 76.04 198.562 76.04C197.869 76.04 197.282 76.2533 196.802 76.68C196.335 77.0933 196.049 77.6733 195.942 78.42H201.202ZM208.946 75.64C209.306 75.0533 209.772 74.5933 210.346 74.26C210.932 73.9267 211.599 73.76 212.346 73.76V76.7H211.606C210.726 76.7 210.059 76.9067 209.606 77.32C209.166 77.7333 208.946 78.4533 208.946 79.48V85H206.146V73.92H208.946V75.64ZM215.652 72.6C215.158 72.6 214.745 72.4467 214.412 72.14C214.092 71.82 213.932 71.4267 213.932 70.96C213.932 70.4933 214.092 70.1067 214.412 69.8C214.745 69.48 215.158 69.32 215.652 69.32C216.145 69.32 216.552 69.48 216.872 69.8C217.205 70.1067 217.372 70.4933 217.372 70.96C217.372 71.4267 217.205 71.82 216.872 72.14C216.552 72.4467 216.145 72.6 215.652 72.6ZM217.032 73.92V85H214.232V73.92H217.032ZM223.844 79.42C223.844 78.3 224.064 77.3067 224.504 76.44C224.957 75.5733 225.564 74.9067 226.324 74.44C227.097 73.9733 227.957 73.74 228.904 73.74C229.73 73.74 230.45 73.9067 231.064 74.24C231.69 74.5733 232.19 74.9933 232.564 75.5V73.92H235.384V85H232.564V83.38C232.204 83.9 231.704 84.3333 231.064 84.68C230.437 85.0133 229.71 85.18 228.884 85.18C227.95 85.18 227.097 84.94 226.324 84.46C225.564 83.98 224.957 83.3067 224.504 82.44C224.064 81.56 223.844 80.5533 223.844 79.42ZM232.564 79.46C232.564 78.78 232.43 78.2 232.164 77.72C231.897 77.2267 231.537 76.8533 231.084 76.6C230.63 76.3333 230.144 76.2 229.624 76.2C229.104 76.2 228.624 76.3267 228.184 76.58C227.744 76.8333 227.384 77.2067 227.104 77.7C226.837 78.18 226.704 78.7533 226.704 79.42C226.704 80.0867 226.837 80.6733 227.104 81.18C227.384 81.6733 227.744 82.0533 228.184 82.32C228.637 82.5867 229.117 82.72 229.624 82.72C230.144 82.72 230.63 82.5933 231.084 82.34C231.537 82.0733 231.897 81.7 232.164 81.22C232.43 80.7267 232.564 80.14 232.564 79.46ZM240.918 75.64C241.278 75.0533 241.745 74.5933 242.318 74.26C242.905 73.9267 243.572 73.76 244.318 73.76V76.7H243.578C242.698 76.7 242.032 76.9067 241.578 77.32C241.138 77.7333 240.918 78.4533 240.918 79.48V85H238.118V73.92H240.918V75.64ZM249.124 73.92V85H246.324V73.92H249.124ZM262.605 73.92L255.745 90.24H252.765L255.165 84.72L250.725 73.92H253.865L256.725 81.66L259.625 73.92H262.605ZM269.034 85.18C267.968 85.18 267.008 84.9467 266.154 84.48C265.301 84 264.628 83.3267 264.134 82.46C263.654 81.5933 263.414 80.5933 263.414 79.46C263.414 78.3267 263.661 77.3267 264.154 76.46C264.661 75.5933 265.348 74.9267 266.214 74.46C267.081 73.98 268.048 73.74 269.114 73.74C270.181 73.74 271.148 73.98 272.014 74.46C272.881 74.9267 273.561 75.5933 274.054 76.46C274.561 77.3267 274.814 78.3267 274.814 79.46C274.814 80.5933 274.554 81.5933 274.034 82.46C273.528 83.3267 272.834 84 271.954 84.48C271.088 84.9467 270.114 85.18 269.034 85.18ZM269.034 82.74C269.541 82.74 270.014 82.62 270.454 82.38C270.908 82.1267 271.268 81.7533 271.534 81.26C271.801 80.7667 271.934 80.1667 271.934 79.46C271.934 78.4067 271.654 77.6 271.094 77.04C270.548 76.4667 269.874 76.18 269.074 76.18C268.274 76.18 267.601 76.4667 267.054 77.04C266.521 77.6 266.254 78.4067 266.254 79.46C266.254 80.5133 266.514 81.3267 267.034 81.9C267.568 82.46 268.234 82.74 269.034 82.74ZM279.668 75.64C280.028 75.0533 280.495 74.5933 281.068 74.26C281.655 73.9267 282.322 73.76 283.068 73.76V76.7H282.328C281.448 76.7 280.782 76.9067 280.328 77.32C279.888 77.7333 279.668 78.4533 279.668 79.48V85H276.868V73.92H279.668V75.64ZM289.194 85.18C288.288 85.18 287.474 85.02 286.754 84.7C286.034 84.3667 285.461 83.92 285.034 83.36C284.621 82.8 284.394 82.18 284.354 81.5H287.174C287.228 81.9267 287.434 82.28 287.794 82.56C288.168 82.84 288.628 82.98 289.174 82.98C289.708 82.98 290.121 82.8733 290.414 82.66C290.721 82.4467 290.874 82.1733 290.874 81.84C290.874 81.48 290.688 81.2133 290.314 81.04C289.954 80.8533 289.374 80.6533 288.574 80.44C287.748 80.24 287.068 80.0333 286.534 79.82C286.014 79.6067 285.561 79.28 285.174 78.84C284.801 78.4 284.614 77.8067 284.614 77.06C284.614 76.4467 284.788 75.8867 285.134 75.38C285.494 74.8733 286.001 74.4733 286.654 74.18C287.321 73.8867 288.101 73.74 288.994 73.74C290.314 73.74 291.368 74.0733 292.154 74.74C292.941 75.3933 293.374 76.28 293.454 77.4H290.774C290.734 76.96 290.548 76.6133 290.214 76.36C289.894 76.0933 289.461 75.96 288.914 75.96C288.408 75.96 288.014 76.0533 287.734 76.24C287.468 76.4267 287.334 76.6867 287.334 77.02C287.334 77.3933 287.521 77.68 287.894 77.88C288.268 78.0667 288.848 78.26 289.634 78.46C290.434 78.66 291.094 78.8667 291.614 79.08C292.134 79.2933 292.581 79.6267 292.954 80.08C293.341 80.52 293.541 81.1067 293.554 81.84C293.554 82.48 293.374 83.0533 293.014 83.56C292.668 84.0667 292.161 84.4667 291.494 84.76C290.841 85.04 290.074 85.18 289.194 85.18ZM295.133 79.42C295.133 78.3 295.353 77.3067 295.793 76.44C296.246 75.5733 296.853 74.9067 297.613 74.44C298.386 73.9733 299.246 73.74 300.193 73.74C301.019 73.74 301.739 73.9067 302.353 74.24C302.979 74.5733 303.479 74.9933 303.853 75.5V73.92H306.673V85H303.853V83.38C303.493 83.9 302.993 84.3333 302.353 84.68C301.726 85.0133 300.999 85.18 300.173 85.18C299.239 85.18 298.386 84.94 297.613 84.46C296.853 83.98 296.246 83.3067 295.793 82.44C295.353 81.56 295.133 80.5533 295.133 79.42ZM303.853 79.46C303.853 78.78 303.719 78.2 303.453 77.72C303.186 77.2267 302.826 76.8533 302.373 76.6C301.919 76.3333 301.433 76.2 300.913 76.2C300.393 76.2 299.913 76.3267 299.473 76.58C299.033 76.8333 298.673 77.2067 298.393 77.7C298.126 78.18 297.993 78.7533 297.993 79.42C297.993 80.0867 298.126 80.6733 298.393 81.18C298.673 81.6733 299.033 82.0533 299.473 82.32C299.926 82.5867 300.406 82.72 300.913 82.72C301.433 82.72 301.919 82.5933 302.373 82.34C302.826 82.0733 303.186 81.7 303.453 81.22C303.719 80.7267 303.853 80.14 303.853 79.46ZM315.547 73.76C316.867 73.76 317.934 74.18 318.747 75.02C319.561 75.8467 319.967 77.0067 319.967 78.5V85H317.167V78.88C317.167 78 316.947 77.3267 316.507 76.86C316.067 76.38 315.467 76.14 314.707 76.14C313.934 76.14 313.321 76.38 312.867 76.86C312.427 77.3267 312.207 78 312.207 78.88V85H309.407V73.92H312.207V75.3C312.581 74.82 313.054 74.4467 313.627 74.18C314.214 73.9 314.854 73.76 315.547 73.76ZM325.55 73.92V85H322.75V73.92H325.55ZM330.991 82.7H335.931V85H327.811V82.74L332.651 76.22H327.831V73.92H335.871V76.18L330.991 82.7ZM341.159 82.06L338.819 87.68H337.019L338.319 82.06H341.159ZM51.84 97.92V109H49.02V107.6C48.66 108.08 48.1867 108.46 47.6 108.74C47.0267 109.007 46.4 109.14 45.72 109.14C44.8533 109.14 44.0867 108.96 43.42 108.6C42.7533 108.227 42.2267 107.687 41.84 106.98C41.4667 106.26 41.28 105.407 41.28 104.42V97.92H44.08V104.02C44.08 104.9 44.3 105.58 44.74 106.06C45.18 106.527 45.78 106.76 46.54 106.76C47.3133 106.76 47.92 106.527 48.36 106.06C48.8 105.58 49.02 104.9 49.02 104.02V97.92H51.84ZM57.1627 106.7H62.1027V109H53.9827V106.74L58.8227 100.22H54.0027V97.92H62.0427V100.18L57.1627 106.7ZM78.0306 97.76C79.3906 97.76 80.484 98.18 81.3106 99.02C82.1506 99.8467 82.5706 101.007 82.5706 102.5V109H79.7706V102.88C79.7706 102.013 79.5506 101.353 79.1106 100.9C78.6706 100.433 78.0706 100.2 77.3106 100.2C76.5506 100.2 75.944 100.433 75.4906 100.9C75.0506 101.353 74.8306 102.013 74.8306 102.88V109H72.0306V102.88C72.0306 102.013 71.8106 101.353 71.3706 100.9C70.9306 100.433 70.3306 100.2 69.5706 100.2C68.7973 100.2 68.184 100.433 67.7306 100.9C67.2906 101.353 67.0706 102.013 67.0706 102.88V109H64.2706V97.92H67.0706V99.26C67.4306 98.7933 67.8906 98.4267 68.4506 98.16C69.024 97.8933 69.6506 97.76 70.3306 97.76C71.1973 97.76 71.9706 97.9467 72.6506 98.32C73.3306 98.68 73.8573 99.2 74.2306 99.88C74.5906 99.24 75.1106 98.7267 75.7906 98.34C76.484 97.9533 77.2306 97.76 78.0306 97.76ZM84.5077 103.42C84.5077 102.3 84.7277 101.307 85.1677 100.44C85.621 99.5733 86.2277 98.9067 86.9877 98.44C87.761 97.9733 88.621 97.74 89.5677 97.74C90.3943 97.74 91.1143 97.9067 91.7277 98.24C92.3543 98.5733 92.8543 98.9933 93.2277 99.5V97.92H96.0477V109H93.2277V107.38C92.8677 107.9 92.3677 108.333 91.7277 108.68C91.101 109.013 90.3743 109.18 89.5477 109.18C88.6143 109.18 87.761 108.94 86.9877 108.46C86.2277 107.98 85.621 107.307 85.1677 106.44C84.7277 105.56 84.5077 104.553 84.5077 103.42ZM93.2277 103.46C93.2277 102.78 93.0943 102.2 92.8277 101.72C92.561 101.227 92.201 100.853 91.7477 100.6C91.2943 100.333 90.8077 100.2 90.2877 100.2C89.7677 100.2 89.2877 100.327 88.8477 100.58C88.4077 100.833 88.0477 101.207 87.7677 101.7C87.501 102.18 87.3677 102.753 87.3677 103.42C87.3677 104.087 87.501 104.673 87.7677 105.18C88.0477 105.673 88.4077 106.053 88.8477 106.32C89.301 106.587 89.781 106.72 90.2877 106.72C90.8077 106.72 91.2943 106.593 91.7477 106.34C92.201 106.073 92.561 105.7 92.8277 105.22C93.0943 104.727 93.2277 104.14 93.2277 103.46ZM104.922 97.76C106.242 97.76 107.309 98.18 108.122 99.02C108.936 99.8467 109.342 101.007 109.342 102.5V109H106.542V102.88C106.542 102 106.322 101.327 105.882 100.86C105.442 100.38 104.842 100.14 104.082 100.14C103.309 100.14 102.696 100.38 102.242 100.86C101.802 101.327 101.582 102 101.582 102.88V109H98.7823V97.92H101.582V99.3C101.956 98.82 102.429 98.4467 103.002 98.18C103.589 97.9 104.229 97.76 104.922 97.76ZM127.071 103.22C127.071 103.62 127.044 103.98 126.991 104.3H118.891C118.957 105.1 119.237 105.727 119.731 106.18C120.224 106.633 120.831 106.86 121.551 106.86C122.591 106.86 123.331 106.413 123.771 105.52H126.791C126.471 106.587 125.857 107.467 124.951 108.16C124.044 108.84 122.931 109.18 121.611 109.18C120.544 109.18 119.584 108.947 118.731 108.48C117.891 108 117.231 107.327 116.751 106.46C116.284 105.593 116.051 104.593 116.051 103.46C116.051 102.313 116.284 101.307 116.751 100.44C117.217 99.5733 117.871 98.9067 118.711 98.44C119.551 97.9733 120.517 97.74 121.611 97.74C122.664 97.74 123.604 97.9667 124.431 98.42C125.271 98.8733 125.917 99.52 126.371 100.36C126.837 101.187 127.071 102.14 127.071 103.22ZM124.171 102.42C124.157 101.7 123.897 101.127 123.391 100.7C122.884 100.26 122.264 100.04 121.531 100.04C120.837 100.04 120.251 100.253 119.771 100.68C119.304 101.093 119.017 101.673 118.911 102.42H124.171ZM135.674 109L131.914 104.28V109H129.114V94.2H131.914V102.62L135.634 97.92H139.274L134.394 103.48L139.314 109H135.674ZM142.214 96.6C141.721 96.6 141.307 96.4467 140.974 96.14C140.654 95.82 140.494 95.4267 140.494 94.96C140.494 94.4933 140.654 94.1067 140.974 93.8C141.307 93.48 141.721 93.32 142.214 93.32C142.707 93.32 143.114 93.48 143.434 93.8C143.767 94.1067 143.934 94.4933 143.934 94.96C143.934 95.4267 143.767 95.82 143.434 96.14C143.114 96.4467 142.707 96.6 142.214 96.6ZM143.594 97.92V109H140.794V97.92H143.594ZM149.16 99.54C149.52 99.0067 150.014 98.5733 150.64 98.24C151.28 97.9067 152.007 97.74 152.82 97.74C153.767 97.74 154.62 97.9733 155.38 98.44C156.154 98.9067 156.76 99.5733 157.2 100.44C157.654 101.293 157.88 102.287 157.88 103.42C157.88 104.553 157.654 105.56 157.2 106.44C156.76 107.307 156.154 107.98 155.38 108.46C154.62 108.94 153.767 109.18 152.82 109.18C151.994 109.18 151.267 109.02 150.64 108.7C150.027 108.367 149.534 107.94 149.16 107.42V109H146.36V94.2H149.16V99.54ZM155.02 103.42C155.02 102.753 154.88 102.18 154.6 101.7C154.334 101.207 153.974 100.833 153.52 100.58C153.08 100.327 152.6 100.2 152.08 100.2C151.574 100.2 151.094 100.333 150.64 100.6C150.2 100.853 149.84 101.227 149.56 101.72C149.294 102.213 149.16 102.793 149.16 103.46C149.16 104.127 149.294 104.707 149.56 105.2C149.84 105.693 150.2 106.073 150.64 106.34C151.094 106.593 151.574 106.72 152.08 106.72C152.6 106.72 153.08 106.587 153.52 106.32C153.974 106.053 154.334 105.673 154.6 105.18C154.88 104.687 155.02 104.1 155.02 103.42ZM161.335 96.6C160.842 96.6 160.428 96.4467 160.095 96.14C159.775 95.82 159.615 95.4267 159.615 94.96C159.615 94.4933 159.775 94.1067 160.095 93.8C160.428 93.48 160.842 93.32 161.335 93.32C161.828 93.32 162.235 93.48 162.555 93.8C162.888 94.1067 163.055 94.4933 163.055 94.96C163.055 95.4267 162.888 95.82 162.555 96.14C162.235 96.4467 161.828 96.6 161.335 96.6ZM162.715 97.92V109H159.915V97.92H162.715ZM179.242 97.76C180.602 97.76 181.695 98.18 182.522 99.02C183.362 99.8467 183.782 101.007 183.782 102.5V109H180.982V102.88C180.982 102.013 180.762 101.353 180.322 100.9C179.882 100.433 179.282 100.2 178.522 100.2C177.762 100.2 177.155 100.433 176.702 100.9C176.262 101.353 176.042 102.013 176.042 102.88V109H173.242V102.88C173.242 102.013 173.022 101.353 172.582 100.9C172.142 100.433 171.542 100.2 170.782 100.2C170.008 100.2 169.395 100.433 168.942 100.9C168.502 101.353 168.282 102.013 168.282 102.88V109H165.482V97.92H168.282V99.26C168.642 98.7933 169.102 98.4267 169.662 98.16C170.235 97.8933 170.862 97.76 171.542 97.76C172.408 97.76 173.182 97.9467 173.862 98.32C174.542 98.68 175.068 99.2 175.442 99.88C175.802 99.24 176.322 98.7267 177.002 98.34C177.695 97.9533 178.442 97.76 179.242 97.76ZM187.859 96.6C187.365 96.6 186.952 96.4467 186.619 96.14C186.299 95.82 186.139 95.4267 186.139 94.96C186.139 94.4933 186.299 94.1067 186.619 93.8C186.952 93.48 187.365 93.32 187.859 93.32C188.352 93.32 188.759 93.48 189.079 93.8C189.412 94.1067 189.579 94.4933 189.579 94.96C189.579 95.4267 189.412 95.82 189.079 96.14C188.759 96.4467 188.352 96.6 187.859 96.6ZM189.239 97.92V109H186.439V97.92H189.239ZM194.565 106.7H199.505V109H191.385V106.74L196.225 100.22H191.405V97.92H199.445V100.18L194.565 106.7ZM204.473 94.2V109H201.673V94.2H204.473ZM217.539 103.22C217.539 103.62 217.513 103.98 217.459 104.3H209.359C209.426 105.1 209.706 105.727 210.199 106.18C210.693 106.633 211.299 106.86 212.019 106.86C213.059 106.86 213.799 106.413 214.239 105.52H217.259C216.939 106.587 216.326 107.467 215.419 108.16C214.513 108.84 213.399 109.18 212.079 109.18C211.013 109.18 210.053 108.947 209.199 108.48C208.359 108 207.699 107.327 207.219 106.46C206.753 105.593 206.519 104.593 206.519 103.46C206.519 102.313 206.753 101.307 207.219 100.44C207.686 99.5733 208.339 98.9067 209.179 98.44C210.019 97.9733 210.986 97.74 212.079 97.74C213.133 97.74 214.073 97.9667 214.899 98.42C215.739 98.8733 216.386 99.52 216.839 100.36C217.306 101.187 217.539 102.14 217.539 103.22ZM214.639 102.42C214.626 101.7 214.366 101.127 213.859 100.7C213.353 100.26 212.733 100.04 211.999 100.04C211.306 100.04 210.719 100.253 210.239 100.68C209.773 101.093 209.486 101.673 209.379 102.42H214.639ZM225.769 96.6C225.275 96.6 224.862 96.4467 224.529 96.14C224.209 95.82 224.049 95.4267 224.049 94.96C224.049 94.4933 224.209 94.1067 224.529 93.8C224.862 93.48 225.275 93.32 225.769 93.32C226.262 93.32 226.669 93.48 226.989 93.8C227.322 94.1067 227.489 94.4933 227.489 94.96C227.489 95.4267 227.322 95.82 226.989 96.14C226.669 96.4467 226.262 96.6 225.769 96.6ZM227.149 97.92V109H224.349V97.92H227.149ZM236.155 97.76C236.995 97.76 237.742 97.9467 238.395 98.32C239.048 98.68 239.555 99.22 239.915 99.94C240.288 100.647 240.475 101.5 240.475 102.5V109H237.675V102.88C237.675 102 237.455 101.327 237.015 100.86C236.575 100.38 235.975 100.14 235.215 100.14C234.442 100.14 233.828 100.38 233.375 100.86C232.935 101.327 232.715 102 232.715 102.88V109H229.915V94.2H232.715V99.3C233.075 98.82 233.555 98.4467 234.155 98.18C234.755 97.9 235.422 97.76 236.155 97.76ZM246.398 100.22V105.58C246.398 105.953 246.484 106.227 246.658 106.4C246.844 106.56 247.151 106.64 247.578 106.64H248.878V109H247.118C244.758 109 243.578 107.853 243.578 105.56V100.22H242.258V97.92H243.578V95.18H246.398V97.92H248.878V100.22H246.398ZM252.312 96.6C251.818 96.6 251.405 96.4467 251.072 96.14C250.752 95.82 250.592 95.4267 250.592 94.96C250.592 94.4933 250.752 94.1067 251.072 93.8C251.405 93.48 251.818 93.32 252.312 93.32C252.805 93.32 253.212 93.48 253.532 93.8C253.865 94.1067 254.032 94.4933 254.032 94.96C254.032 95.4267 253.865 95.82 253.532 96.14C253.212 96.4467 252.805 96.6 252.312 96.6ZM253.692 97.92V109H250.892V97.92H253.692ZM267.058 97.92L260.198 114.24H257.218L259.618 108.72L255.178 97.92H258.318L261.178 105.66L264.078 97.92H267.058ZM267.847 103.42C267.847 102.3 268.067 101.307 268.507 100.44C268.961 99.5733 269.568 98.9067 270.328 98.44C271.101 97.9733 271.961 97.74 272.908 97.74C273.734 97.74 274.454 97.9067 275.068 98.24C275.694 98.5733 276.194 98.9933 276.568 99.5V97.92H279.388V109H276.568V107.38C276.208 107.9 275.708 108.333 275.068 108.68C274.441 109.013 273.714 109.18 272.888 109.18C271.954 109.18 271.101 108.94 270.328 108.46C269.568 107.98 268.961 107.307 268.507 106.44C268.067 105.56 267.847 104.553 267.847 103.42ZM276.568 103.46C276.568 102.78 276.434 102.2 276.168 101.72C275.901 101.227 275.541 100.853 275.088 100.6C274.634 100.333 274.148 100.2 273.628 100.2C273.108 100.2 272.628 100.327 272.188 100.58C271.748 100.833 271.388 101.207 271.108 101.7C270.841 102.18 270.708 102.753 270.708 103.42C270.708 104.087 270.841 104.673 271.108 105.18C271.388 105.673 271.748 106.053 272.188 106.32C272.641 106.587 273.121 106.72 273.628 106.72C274.148 106.72 274.634 106.593 275.088 106.34C275.541 106.073 275.901 105.7 276.168 105.22C276.434 104.727 276.568 104.14 276.568 103.46ZM286.862 106.78C287.996 106.78 288.736 106.273 289.082 105.26H292.102C291.822 106.34 291.302 107.22 290.542 107.9C289.796 108.58 288.856 108.987 287.722 109.12V109.9C288.456 109.9 289.069 110.087 289.562 110.46C290.069 110.833 290.322 111.373 290.322 112.08C290.322 112.8 290.062 113.353 289.542 113.74C289.036 114.127 288.409 114.32 287.662 114.32H284.822V112.68H287.202C287.522 112.68 287.762 112.633 287.922 112.54C288.096 112.447 288.182 112.28 288.182 112.04C288.182 111.8 288.096 111.633 287.922 111.54C287.762 111.46 287.522 111.42 287.202 111.42H285.962V109.12C285.056 108.987 284.256 108.673 283.562 108.18C282.882 107.673 282.349 107.02 281.962 106.22C281.589 105.407 281.402 104.487 281.402 103.46C281.402 102.313 281.636 101.313 282.102 100.46C282.569 99.5933 283.216 98.9267 284.042 98.46C284.869 97.98 285.816 97.74 286.882 97.74C288.256 97.74 289.389 98.0867 290.282 98.78C291.189 99.46 291.796 100.42 292.102 101.66H289.082C288.922 101.18 288.649 100.807 288.262 100.54C287.889 100.26 287.422 100.12 286.862 100.12C286.062 100.12 285.429 100.413 284.962 101C284.496 101.573 284.262 102.393 284.262 103.46C284.262 104.513 284.496 105.333 284.962 105.92C285.429 106.493 286.062 106.78 286.862 106.78ZM296.953 94.2V109H294.153V94.2H296.953ZM299 103.42C299 102.3 299.22 101.307 299.66 100.44C300.113 99.5733 300.72 98.9067 301.48 98.44C302.253 97.9733 303.113 97.74 304.06 97.74C304.887 97.74 305.607 97.9067 306.22 98.24C306.847 98.5733 307.347 98.9933 307.72 99.5V97.92H310.54V109H307.72V107.38C307.36 107.9 306.86 108.333 306.22 108.68C305.593 109.013 304.867 109.18 304.04 109.18C303.107 109.18 302.253 108.94 301.48 108.46C300.72 107.98 300.113 107.307 299.66 106.44C299.22 105.56 299 104.553 299 103.42ZM307.72 103.46C307.72 102.78 307.587 102.2 307.32 101.72C307.053 101.227 306.693 100.853 306.24 100.6C305.787 100.333 305.3 100.2 304.78 100.2C304.26 100.2 303.78 100.327 303.34 100.58C302.9 100.833 302.54 101.207 302.26 101.7C301.993 102.18 301.86 102.753 301.86 103.42C301.86 104.087 301.993 104.673 302.26 105.18C302.54 105.673 302.9 106.053 303.34 106.32C303.793 106.587 304.273 106.72 304.78 106.72C305.3 106.72 305.787 106.593 306.24 106.34C306.693 106.073 307.053 105.7 307.32 105.22C307.587 104.727 307.72 104.14 307.72 103.46ZM316.075 99.64C316.435 99.0533 316.901 98.5933 317.475 98.26C318.061 97.9267 318.728 97.76 319.475 97.76V100.7H318.735C317.855 100.7 317.188 100.907 316.735 101.32C316.295 101.733 316.075 102.453 316.075 103.48V109H313.275V97.92H316.075V99.64ZM324.28 97.92V109H321.48V97.92H324.28ZM333.301 97.76C334.621 97.76 335.688 98.18 336.501 99.02C337.315 99.8467 337.721 101.007 337.721 102.5V109H334.921V102.88C334.921 102 334.701 101.327 334.261 100.86C333.821 100.38 333.221 100.14 332.461 100.14C331.688 100.14 331.075 100.38 330.621 100.86C330.181 101.327 329.961 102 329.961 102.88V109H327.161V97.92H329.961V99.3C330.335 98.82 330.808 98.4467 331.381 98.18C331.968 97.9 332.608 97.76 333.301 97.76ZM343.304 97.92V109H340.504V97.92H343.304ZM348.745 106.7H353.685V109H345.565V106.74L350.405 100.22H345.585V97.92H353.625V100.18L348.745 106.7ZM355.133 103.42C355.133 102.3 355.353 101.307 355.793 100.44C356.246 99.5733 356.853 98.9067 357.613 98.44C358.386 97.9733 359.246 97.74 360.193 97.74C361.019 97.74 361.739 97.9067 362.353 98.24C362.979 98.5733 363.479 98.9933 363.853 99.5V97.92H366.673V109H363.853V107.38C363.493 107.9 362.993 108.333 362.353 108.68C361.726 109.013 360.999 109.18 360.173 109.18C359.239 109.18 358.386 108.94 357.613 108.46C356.853 107.98 356.246 107.307 355.793 106.44C355.353 105.56 355.133 104.553 355.133 103.42ZM363.853 103.46C363.853 102.78 363.719 102.2 363.453 101.72C363.186 101.227 362.826 100.853 362.373 100.6C361.919 100.333 361.433 100.2 360.913 100.2C360.393 100.2 359.913 100.327 359.473 100.58C359.033 100.833 358.673 101.207 358.393 101.7C358.126 102.18 357.993 102.753 357.993 103.42C357.993 104.087 358.126 104.673 358.393 105.18C358.673 105.673 359.033 106.053 359.473 106.32C359.926 106.587 360.406 106.72 360.913 106.72C361.433 106.72 361.919 106.593 362.373 106.34C362.826 106.073 363.186 105.7 363.453 105.22C363.719 104.727 363.853 104.14 363.853 103.46ZM51.98 121.92L45.12 138.24H42.14L44.54 132.72L40.1 121.92H43.24L46.1 129.66L49 121.92H51.98ZM58.4094 133.18C57.3427 133.18 56.3827 132.947 55.5294 132.48C54.676 132 54.0027 131.327 53.5094 130.46C53.0294 129.593 52.7894 128.593 52.7894 127.46C52.7894 126.327 53.036 125.327 53.5294 124.46C54.036 123.593 54.7227 122.927 55.5894 122.46C56.456 121.98 57.4227 121.74 58.4894 121.74C59.556 121.74 60.5227 121.98 61.3894 122.46C62.256 122.927 62.936 123.593 63.4294 124.46C63.936 125.327 64.1894 126.327 64.1894 127.46C64.1894 128.593 63.9294 129.593 63.4094 130.46C62.9027 131.327 62.2094 132 61.3294 132.48C60.4627 132.947 59.4894 133.18 58.4094 133.18ZM58.4094 130.74C58.916 130.74 59.3894 130.62 59.8294 130.38C60.2827 130.127 60.6427 129.753 60.9094 129.26C61.176 128.767 61.3094 128.167 61.3094 127.46C61.3094 126.407 61.0294 125.6 60.4694 125.04C59.9227 124.467 59.2494 124.18 58.4494 124.18C57.6494 124.18 56.976 124.467 56.4294 125.04C55.896 125.6 55.6294 126.407 55.6294 127.46C55.6294 128.513 55.8894 129.327 56.4094 129.9C56.9427 130.46 57.6094 130.74 58.4094 130.74ZM56.7494 120.46C56.376 120.46 56.0627 120.333 55.8094 120.08C55.556 119.827 55.4294 119.513 55.4294 119.14C55.4294 118.767 55.556 118.453 55.8094 118.2C56.0627 117.933 56.376 117.8 56.7494 117.8C57.1227 117.8 57.436 117.933 57.6894 118.2C57.956 118.453 58.0894 118.767 58.0894 119.14C58.0894 119.513 57.956 119.827 57.6894 120.08C57.436 120.333 57.1227 120.46 56.7494 120.46ZM60.4494 120.46C60.076 120.46 59.7627 120.333 59.5094 120.08C59.256 119.827 59.1294 119.513 59.1294 119.14C59.1294 118.767 59.256 118.453 59.5094 118.2C59.7627 117.933 60.076 117.8 60.4494 117.8C60.8227 117.8 61.136 117.933 61.3894 118.2C61.656 118.453 61.7894 118.767 61.7894 119.14C61.7894 119.513 61.656 119.827 61.3894 120.08C61.136 120.333 60.8227 120.46 60.4494 120.46ZM72.3833 121.76C73.7033 121.76 74.7699 122.18 75.5833 123.02C76.3966 123.847 76.8033 125.007 76.8033 126.5V133H74.0033V126.88C74.0033 126 73.7833 125.327 73.3433 124.86C72.9033 124.38 72.3033 124.14 71.5433 124.14C70.7699 124.14 70.1566 124.38 69.7033 124.86C69.2633 125.327 69.0433 126 69.0433 126.88V133H66.2433V121.92H69.0433V123.3C69.4166 122.82 69.8899 122.447 70.4633 122.18C71.0499 121.9 71.6899 121.76 72.3833 121.76ZM89.7659 127.22C89.7659 127.62 89.7393 127.98 89.6859 128.3H81.5859C81.6526 129.1 81.9326 129.727 82.4259 130.18C82.9193 130.633 83.5259 130.86 84.2459 130.86C85.2859 130.86 86.0259 130.413 86.4659 129.52H89.4859C89.1659 130.587 88.5526 131.467 87.6459 132.16C86.7393 132.84 85.6259 133.18 84.3059 133.18C83.2393 133.18 82.2793 132.947 81.4259 132.48C80.5859 132 79.9259 131.327 79.4459 130.46C78.9793 129.593 78.7459 128.593 78.7459 127.46C78.7459 126.313 78.9793 125.307 79.4459 124.44C79.9126 123.573 80.5659 122.907 81.4059 122.44C82.2459 121.973 83.2126 121.74 84.3059 121.74C85.3593 121.74 86.2993 121.967 87.1259 122.42C87.9659 122.873 88.6126 123.52 89.0659 124.36C89.5326 125.187 89.7659 126.14 89.7659 127.22ZM86.8659 126.42C86.8526 125.7 86.5926 125.127 86.0859 124.7C85.5793 124.26 84.9593 124.04 84.2259 124.04C83.5326 124.04 82.9459 124.253 82.4659 124.68C81.9993 125.093 81.7126 125.673 81.6059 126.42H86.8659ZM94.6097 118.2V133H91.8097V118.2H94.6097ZM98.7961 120.6C98.3028 120.6 97.8894 120.447 97.5561 120.14C97.2361 119.82 97.0761 119.427 97.0761 118.96C97.0761 118.493 97.2361 118.107 97.5561 117.8C97.8894 117.48 98.3028 117.32 98.7961 117.32C99.2894 117.32 99.6961 117.48 100.016 117.8C100.349 118.107 100.516 118.493 100.516 118.96C100.516 119.427 100.349 119.82 100.016 120.14C99.6961 120.447 99.2894 120.6 98.7961 120.6ZM100.176 121.92V133H97.3761V121.92H100.176ZM109.503 133L105.743 128.28V133H102.943V118.2H105.743V126.62L109.463 121.92H113.103L108.223 127.48L113.143 133H109.503ZM129.988 121.92L123.128 138.24H120.148L122.548 132.72L118.108 121.92H121.248L124.108 129.66L127.008 121.92H129.988ZM141.797 127.22C141.797 127.62 141.771 127.98 141.717 128.3H133.617C133.684 129.1 133.964 129.727 134.457 130.18C134.951 130.633 135.557 130.86 136.277 130.86C137.317 130.86 138.057 130.413 138.497 129.52H141.517C141.197 130.587 140.584 131.467 139.677 132.16C138.771 132.84 137.657 133.18 136.337 133.18C135.271 133.18 134.311 132.947 133.457 132.48C132.617 132 131.957 131.327 131.477 130.46C131.011 129.593 130.777 128.593 130.777 127.46C130.777 126.313 131.011 125.307 131.477 124.44C131.944 123.573 132.597 122.907 133.437 122.44C134.277 121.973 135.244 121.74 136.337 121.74C137.391 121.74 138.331 121.967 139.157 122.42C139.997 122.873 140.644 123.52 141.097 124.36C141.564 125.187 141.797 126.14 141.797 127.22ZM138.897 126.42C138.884 125.7 138.624 125.127 138.117 124.7C137.611 124.26 136.991 124.04 136.257 124.04C135.564 124.04 134.977 124.253 134.497 124.68C134.031 125.093 133.744 125.673 133.637 126.42H138.897ZM149.981 121.76C151.301 121.76 152.368 122.18 153.181 123.02C153.994 123.847 154.401 125.007 154.401 126.5V133H151.601V126.88C151.601 126 151.381 125.327 150.941 124.86C150.501 124.38 149.901 124.14 149.141 124.14C148.368 124.14 147.754 124.38 147.301 124.86C146.861 125.327 146.641 126 146.641 126.88V133H143.841V121.92H146.641V123.3C147.014 122.82 147.488 122.447 148.061 122.18C148.648 121.9 149.288 121.76 149.981 121.76ZM158.484 120.6C157.99 120.6 157.577 120.447 157.244 120.14C156.924 119.82 156.764 119.427 156.764 118.96C156.764 118.493 156.924 118.107 157.244 117.8C157.577 117.48 157.99 117.32 158.484 117.32C158.977 117.32 159.384 117.48 159.704 117.8C160.037 118.107 160.204 118.493 160.204 118.96C160.204 119.427 160.037 119.82 159.704 120.14C159.384 120.447 158.977 120.6 158.484 120.6ZM159.864 121.92V133H157.064V121.92H159.864ZM165.43 118.2V133H162.63V118.2H165.43ZM169.616 120.6C169.123 120.6 168.71 120.447 168.376 120.14C168.056 119.82 167.896 119.427 167.896 118.96C167.896 118.493 168.056 118.107 168.376 117.8C168.71 117.48 169.123 117.32 169.616 117.32C170.11 117.32 170.516 117.48 170.836 117.8C171.17 118.107 171.336 118.493 171.336 118.96C171.336 119.427 171.17 119.82 170.836 120.14C170.516 120.447 170.11 120.6 169.616 120.6ZM170.996 121.92V133H168.196V121.92H170.996ZM180.323 133L176.563 128.28V133H173.763V118.2H176.563V126.62L180.283 121.92H183.923L179.043 127.48L183.963 133H180.323ZM190.183 130.78C191.316 130.78 192.056 130.273 192.403 129.26H195.423C195.143 130.34 194.623 131.22 193.863 131.9C193.116 132.58 192.176 132.987 191.043 133.12V133.9C191.776 133.9 192.389 134.087 192.883 134.46C193.389 134.833 193.643 135.373 193.643 136.08C193.643 136.8 193.383 137.353 192.863 137.74C192.356 138.127 191.729 138.32 190.983 138.32H188.143V136.68H190.523C190.843 136.68 191.083 136.633 191.243 136.54C191.416 136.447 191.503 136.28 191.503 136.04C191.503 135.8 191.416 135.633 191.243 135.54C191.083 135.46 190.843 135.42 190.523 135.42H189.283V133.12C188.376 132.987 187.576 132.673 186.883 132.18C186.203 131.673 185.669 131.02 185.283 130.22C184.909 129.407 184.722 128.487 184.722 127.46C184.722 126.313 184.956 125.313 185.423 124.46C185.889 123.593 186.536 122.927 187.363 122.46C188.189 121.98 189.136 121.74 190.203 121.74C191.576 121.74 192.709 122.087 193.603 122.78C194.509 123.46 195.116 124.42 195.423 125.66H192.403C192.243 125.18 191.969 124.807 191.583 124.54C191.209 124.26 190.743 124.12 190.183 124.12C189.383 124.12 188.749 124.413 188.283 125C187.816 125.573 187.583 126.393 187.583 127.46C187.583 128.513 187.816 129.333 188.283 129.92C188.749 130.493 189.383 130.78 190.183 130.78ZM198.894 120.6C198.4 120.6 197.987 120.447 197.654 120.14C197.334 119.82 197.174 119.427 197.174 118.96C197.174 118.493 197.334 118.107 197.654 117.8C197.987 117.48 198.4 117.32 198.894 117.32C199.387 117.32 199.794 117.48 200.114 117.8C200.447 118.107 200.614 118.493 200.614 118.96C200.614 119.427 200.447 119.82 200.114 120.14C199.794 120.447 199.387 120.6 198.894 120.6ZM200.274 121.92V133H197.474V121.92H200.274ZM212.546 130.78C213.679 130.78 214.419 130.273 214.766 129.26H217.786C217.506 130.34 216.986 131.22 216.226 131.9C215.479 132.58 214.539 132.987 213.406 133.12V133.9C214.139 133.9 214.752 134.087 215.246 134.46C215.752 134.833 216.006 135.373 216.006 136.08C216.006 136.8 215.746 137.353 215.226 137.74C214.719 138.127 214.092 138.32 213.346 138.32H210.506V136.68H212.886C213.206 136.68 213.446 136.633 213.606 136.54C213.779 136.447 213.866 136.28 213.866 136.04C213.866 135.8 213.779 135.633 213.606 135.54C213.446 135.46 213.206 135.42 212.886 135.42H211.646V133.12C210.739 132.987 209.939 132.673 209.246 132.18C208.566 131.673 208.032 131.02 207.646 130.22C207.272 129.407 207.086 128.487 207.086 127.46C207.086 126.313 207.319 125.313 207.786 124.46C208.252 123.593 208.899 122.927 209.726 122.46C210.552 121.98 211.499 121.74 212.566 121.74C213.939 121.74 215.072 122.087 215.966 122.78C216.872 123.46 217.479 124.42 217.786 125.66H214.766C214.606 125.18 214.332 124.807 213.946 124.54C213.572 124.26 213.106 124.12 212.546 124.12C211.746 124.12 211.112 124.413 210.646 125C210.179 125.573 209.946 126.393 209.946 127.46C209.946 128.513 210.179 129.333 210.646 129.92C211.112 130.493 211.746 130.78 212.546 130.78ZM224.757 133.18C223.69 133.18 222.73 132.947 221.877 132.48C221.024 132 220.35 131.327 219.857 130.46C219.377 129.593 219.137 128.593 219.137 127.46C219.137 126.327 219.384 125.327 219.877 124.46C220.384 123.593 221.07 122.927 221.937 122.46C222.804 121.98 223.77 121.74 224.837 121.74C225.904 121.74 226.87 121.98 227.737 122.46C228.604 122.927 229.284 123.593 229.777 124.46C230.284 125.327 230.537 126.327 230.537 127.46C230.537 128.593 230.277 129.593 229.757 130.46C229.25 131.327 228.557 132 227.677 132.48C226.81 132.947 225.837 133.18 224.757 133.18ZM224.757 130.74C225.264 130.74 225.737 130.62 226.177 130.38C226.63 130.127 226.99 129.753 227.257 129.26C227.524 128.767 227.657 128.167 227.657 127.46C227.657 126.407 227.377 125.6 226.817 125.04C226.27 124.467 225.597 124.18 224.797 124.18C223.997 124.18 223.324 124.467 222.777 125.04C222.244 125.6 221.977 126.407 221.977 127.46C221.977 128.513 222.237 129.327 222.757 129.9C223.29 130.46 223.957 130.74 224.757 130.74ZM223.097 120.46C222.724 120.46 222.41 120.333 222.157 120.08C221.904 119.827 221.777 119.513 221.777 119.14C221.777 118.767 221.904 118.453 222.157 118.2C222.41 117.933 222.724 117.8 223.097 117.8C223.47 117.8 223.784 117.933 224.037 118.2C224.304 118.453 224.437 118.767 224.437 119.14C224.437 119.513 224.304 119.827 224.037 120.08C223.784 120.333 223.47 120.46 223.097 120.46ZM226.797 120.46C226.424 120.46 226.11 120.333 225.857 120.08C225.604 119.827 225.477 119.513 225.477 119.14C225.477 118.767 225.604 118.453 225.857 118.2C226.11 117.933 226.424 117.8 226.797 117.8C227.17 117.8 227.484 117.933 227.737 118.2C228.004 118.453 228.137 118.767 228.137 119.14C228.137 119.513 228.004 119.827 227.737 120.08C227.484 120.333 227.17 120.46 226.797 120.46ZM235.151 130.7H240.091V133H231.971V130.74L236.811 124.22H231.991V121.92H240.031V124.18L235.151 130.7ZM252.719 121.92V133H249.899V131.6C249.539 132.08 249.066 132.46 248.479 132.74C247.906 133.007 247.279 133.14 246.599 133.14C245.732 133.14 244.966 132.96 244.299 132.6C243.632 132.227 243.106 131.687 242.719 130.98C242.346 130.26 242.159 129.407 242.159 128.42V121.92H244.959V128.02C244.959 128.9 245.179 129.58 245.619 130.06C246.059 130.527 246.659 130.76 247.419 130.76C248.192 130.76 248.799 130.527 249.239 130.06C249.679 129.58 249.899 128.9 249.899 128.02V121.92H252.719ZM245.639 120.6C245.266 120.6 244.952 120.473 244.699 120.22C244.446 119.967 244.319 119.653 244.319 119.28C244.319 118.907 244.446 118.593 244.699 118.34C244.952 118.073 245.266 117.94 245.639 117.94C246.012 117.94 246.326 118.073 246.579 118.34C246.846 118.593 246.979 118.907 246.979 119.28C246.979 119.653 246.846 119.967 246.579 120.22C246.326 120.473 246.012 120.6 245.639 120.6ZM249.339 120.6C248.966 120.6 248.652 120.473 248.399 120.22C248.146 119.967 248.019 119.653 248.019 119.28C248.019 118.907 248.146 118.593 248.399 118.34C248.652 118.073 248.966 117.94 249.339 117.94C249.712 117.94 250.026 118.073 250.279 118.34C250.546 118.593 250.679 118.907 250.679 119.28C250.679 119.653 250.546 119.967 250.279 120.22C250.026 120.473 249.712 120.6 249.339 120.6ZM269.242 121.76C270.602 121.76 271.695 122.18 272.522 123.02C273.362 123.847 273.782 125.007 273.782 126.5V133H270.982V126.88C270.982 126.013 270.762 125.353 270.322 124.9C269.882 124.433 269.282 124.2 268.522 124.2C267.762 124.2 267.155 124.433 266.702 124.9C266.262 125.353 266.042 126.013 266.042 126.88V133H263.242V126.88C263.242 126.013 263.022 125.353 262.582 124.9C262.142 124.433 261.542 124.2 260.782 124.2C260.008 124.2 259.395 124.433 258.942 124.9C258.502 125.353 258.282 126.013 258.282 126.88V133H255.482V121.92H258.282V123.26C258.642 122.793 259.102 122.427 259.662 122.16C260.235 121.893 260.862 121.76 261.542 121.76C262.408 121.76 263.182 121.947 263.862 122.32C264.542 122.68 265.068 123.2 265.442 123.88C265.802 123.24 266.322 122.727 267.002 122.34C267.695 121.953 268.442 121.76 269.242 121.76ZM279.239 118.2V133H276.439V118.2H279.239ZM292.305 127.22C292.305 127.62 292.278 127.98 292.225 128.3H284.125C284.192 129.1 284.472 129.727 284.965 130.18C285.458 130.633 286.065 130.86 286.785 130.86C287.825 130.86 288.565 130.413 289.005 129.52H292.025C291.705 130.587 291.092 131.467 290.185 132.16C289.278 132.84 288.165 133.18 286.845 133.18C285.778 133.18 284.818 132.947 283.965 132.48C283.125 132 282.465 131.327 281.985 130.46C281.518 129.593 281.285 128.593 281.285 127.46C281.285 126.313 281.518 125.307 281.985 124.44C282.452 123.573 283.105 122.907 283.945 122.44C284.785 121.973 285.752 121.74 286.845 121.74C287.898 121.74 288.838 121.967 289.665 122.42C290.505 122.873 291.152 123.52 291.605 124.36C292.072 125.187 292.305 126.14 292.305 127.22ZM289.405 126.42C289.392 125.7 289.132 125.127 288.625 124.7C288.118 124.26 287.498 124.04 286.765 124.04C286.072 124.04 285.485 124.253 285.005 124.68C284.538 125.093 284.252 125.673 284.145 126.42H289.405ZM297.149 123.64C297.509 123.053 297.975 122.593 298.549 122.26C299.135 121.927 299.802 121.76 300.549 121.76V124.7H299.809C298.929 124.7 298.262 124.907 297.809 125.32C297.369 125.733 297.149 126.453 297.149 127.48V133H294.349V121.92H297.149V123.64ZM45.62 157.18C44.7133 157.18 43.9 157.02 43.18 156.7C42.46 156.367 41.8867 155.92 41.46 155.36C41.0467 154.8 40.82 154.18 40.78 153.5H43.6C43.6533 153.927 43.86 154.28 44.22 154.56C44.5933 154.84 45.0533 154.98 45.6 154.98C46.1333 154.98 46.5467 154.873 46.84 154.66C47.1467 154.447 47.3 154.173 47.3 153.84C47.3 153.48 47.1133 153.213 46.74 153.04C46.38 152.853 45.8 152.653 45 152.44C44.1733 152.24 43.4933 152.033 42.96 151.82C42.44 151.607 41.9867 151.28 41.6 150.84C41.2267 150.4 41.04 149.807 41.04 149.06C41.04 148.447 41.2133 147.887 41.56 147.38C41.92 146.873 42.4267 146.473 43.08 146.18C43.7467 145.887 44.5267 145.74 45.42 145.74C46.74 145.74 47.7933 146.073 48.58 146.74C49.3667 147.393 49.8 148.28 49.88 149.4H47.2C47.16 148.96 46.9733 148.613 46.64 148.36C46.32 148.093 45.8867 147.96 45.34 147.96C44.8333 147.96 44.44 148.053 44.16 148.24C43.8933 148.427 43.76 148.687 43.76 149.02C43.76 149.393 43.9467 149.68 44.32 149.88C44.6933 150.067 45.2733 150.26 46.06 150.46C46.86 150.66 47.52 150.867 48.04 151.08C48.56 151.293 49.0067 151.627 49.38 152.08C49.7667 152.52 49.9667 153.107 49.98 153.84C49.98 154.48 49.8 155.053 49.44 155.56C49.0933 156.067 48.5867 156.467 47.92 156.76C47.2667 157.04 46.5 157.18 45.62 157.18ZM62.7384 145.92V157H59.9184V155.6C59.5584 156.08 59.0851 156.46 58.4984 156.74C57.9251 157.007 57.2984 157.14 56.6184 157.14C55.7518 157.14 54.9851 156.96 54.3184 156.6C53.6518 156.227 53.1251 155.687 52.7384 154.98C52.3651 154.26 52.1784 153.407 52.1784 152.42V145.92H54.9784V152.02C54.9784 152.9 55.1984 153.58 55.6384 154.06C56.0784 154.527 56.6784 154.76 57.4384 154.76C58.2118 154.76 58.8184 154.527 59.2584 154.06C59.6984 153.58 59.9184 152.9 59.9184 152.02V145.92H62.7384ZM71.6411 145.76C72.9611 145.76 74.0278 146.18 74.8411 147.02C75.6544 147.847 76.0611 149.007 76.0611 150.5V157H73.2611V150.88C73.2611 150 73.0411 149.327 72.6011 148.86C72.1611 148.38 71.5611 148.14 70.8011 148.14C70.0278 148.14 69.4144 148.38 68.9611 148.86C68.5211 149.327 68.3011 150 68.3011 150.88V157H65.5011V145.92H68.3011V147.3C68.6744 146.82 69.1478 146.447 69.7211 146.18C70.3078 145.9 70.9478 145.76 71.6411 145.76ZM89.1838 145.92V157H86.3638V155.6C86.0038 156.08 85.5304 156.46 84.9438 156.74C84.3704 157.007 83.7438 157.14 83.0638 157.14C82.1971 157.14 81.4304 156.96 80.7638 156.6C80.0971 156.227 79.5704 155.687 79.1838 154.98C78.8104 154.26 78.6238 153.407 78.6238 152.42V145.92H81.4238V152.02C81.4238 152.9 81.6438 153.58 82.0838 154.06C82.5238 154.527 83.1238 154.76 83.8838 154.76C84.6571 154.76 85.2638 154.527 85.7038 154.06C86.1438 153.58 86.3638 152.9 86.3638 152.02V145.92H89.1838ZM102.546 145.92L95.6864 162.24H92.7064L95.1064 156.72L90.6664 145.92H93.8064L96.6664 153.66L99.5664 145.92H102.546ZM108.976 157.18C107.909 157.18 106.949 156.947 106.096 156.48C105.242 156 104.569 155.327 104.076 154.46C103.596 153.593 103.356 152.593 103.356 151.46C103.356 150.327 103.602 149.327 104.096 148.46C104.602 147.593 105.289 146.927 106.156 146.46C107.022 145.98 107.989 145.74 109.056 145.74C110.122 145.74 111.089 145.98 111.956 146.46C112.822 146.927 113.502 147.593 113.996 148.46C114.502 149.327 114.756 150.327 114.756 151.46C114.756 152.593 114.496 153.593 113.976 154.46C113.469 155.327 112.776 156 111.896 156.48C111.029 156.947 110.056 157.18 108.976 157.18ZM108.976 154.74C109.482 154.74 109.956 154.62 110.396 154.38C110.849 154.127 111.209 153.753 111.476 153.26C111.742 152.767 111.876 152.167 111.876 151.46C111.876 150.407 111.596 149.6 111.036 149.04C110.489 148.467 109.816 148.18 109.016 148.18C108.216 148.18 107.542 148.467 106.996 149.04C106.462 149.6 106.196 150.407 106.196 151.46C106.196 152.513 106.456 153.327 106.976 153.9C107.509 154.46 108.176 154.74 108.976 154.74ZM119.61 147.64C119.97 147.053 120.436 146.593 121.01 146.26C121.596 145.927 122.263 145.76 123.01 145.76V148.7H122.27C121.39 148.7 120.723 148.907 120.27 149.32C119.83 149.733 119.61 150.453 119.61 151.48V157H116.81V145.92H119.61V147.64ZM135.356 145.92V157H132.536V155.6C132.176 156.08 131.702 156.46 131.116 156.74C130.542 157.007 129.916 157.14 129.236 157.14C128.369 157.14 127.602 156.96 126.936 156.6C126.269 156.227 125.742 155.687 125.356 154.98C124.982 154.26 124.796 153.407 124.796 152.42V145.92H127.596V152.02C127.596 152.9 127.816 153.58 128.256 154.06C128.696 154.527 129.296 154.76 130.056 154.76C130.829 154.76 131.436 154.527 131.876 154.06C132.316 153.58 132.536 152.9 132.536 152.02V145.92H135.356ZM140.678 154.7H145.618V157H137.498V154.74L142.338 148.22H137.518V145.92H145.558V148.18L140.678 154.7Z" fill="white"/>
<path d="M482.394 16.9369V12.8708H459.159V16.9369V30.3073V31.5264C460.097 32.7599 461.258 33.8429 462.603 34.7124C464.909 36.2108 467.731 37.0962 470.777 37.0962C475.59 37.0962 479.847 34.894 482.394 31.5264V30.3073V16.9369Z" fill="#656D78"/>
<path d="M470.796 41.6216C460.271 41.6216 451.709 33.8142 451.709 24.2162C451.709 23.7977 452.08 23.4595 452.539 23.4595C452.998 23.4595 453.369 23.7977 453.369 24.2162C453.369 32.9787 461.187 40.1081 470.796 40.1081C471.255 40.1081 471.626 40.4464 471.626 40.8649C471.626 41.2834 471.255 41.6216 470.796 41.6216Z" fill="#CCD1D9"/>
<path d="M489.052 24.973C488.593 24.973 488.222 24.6347 488.222 24.2162C488.222 15.4537 480.404 8.32431 470.796 8.32431C470.337 8.32431 469.966 7.98604 469.966 7.56755C469.966 7.14906 470.337 6.81079 470.796 6.81079C481.32 6.81079 489.882 14.6183 489.882 24.2162C489.882 24.6347 489.511 24.973 489.052 24.973Z" fill="#CCD1D9"/>
<path d="M479.923 9.84399L482.413 12.871H459.177L461.667 9.84399H479.923Z" fill="#545C66"/>
<path d="M470.795 37.0795C467.749 37.0795 464.928 36.194 462.621 34.6957C461.277 33.8262 460.114 32.7432 459.177 31.5097V31.033H482.413V31.5097C479.865 34.8773 475.608 37.0795 470.795 37.0795Z" fill="#545C66"/>
<path d="M482.413 18.925H459.177V24.9791H482.413V18.925Z" fill="#545C66"/>
<path d="M479.95 16.6546C479.491 16.6546 479.116 16.3164 479.116 15.8979C479.116 15.4794 479.483 15.1411 479.941 15.1411H479.95C480.408 15.1411 480.78 15.4794 480.78 15.8979C480.78 16.3164 480.408 16.6546 479.95 16.6546Z" fill="#5D9CEC"/>
<path d="M462.478 17.4281C462.265 17.4281 462.053 17.3539 461.891 17.2064C461.566 16.9105 461.566 16.4322 461.891 16.1363L463.55 14.6228C463.875 14.3269 464.399 14.3269 464.724 14.6228C465.048 14.9187 465.048 15.397 464.724 15.6929L463.064 17.2064C462.902 17.3547 462.689 17.4281 462.478 17.4281Z" fill="#545C66"/>
<path d="M466.645 17.4115C466.433 17.4115 466.22 17.3373 466.058 17.1898C465.734 16.8939 465.734 16.4156 466.058 16.1197L467.718 14.6062C468.042 14.3103 468.567 14.3103 468.891 14.6062C469.216 14.9021 469.216 15.3804 468.891 15.6763L467.232 17.1898C467.07 17.3373 466.857 17.4115 466.645 17.4115Z" fill="#545C66"/>
<path d="M470.794 17.4115C470.582 17.4115 470.369 17.3373 470.207 17.1898C469.883 16.8939 469.883 16.4156 470.207 16.1197L471.867 14.6062C472.192 14.3103 472.716 14.3103 473.041 14.6062C473.365 14.9021 473.365 15.3804 473.041 15.6763L471.381 17.1898C471.219 17.3373 471.007 17.4115 470.794 17.4115Z" fill="#545C66"/>
<path d="M479.95 22.7088C479.491 22.7088 479.116 22.3706 479.116 21.9521C479.116 21.5336 479.483 21.1953 479.941 21.1953H479.95C480.408 21.1953 480.78 21.5336 480.78 21.9521C480.78 22.3706 480.408 22.7088 479.95 22.7088Z" fill="#5D9CEC"/>
<path d="M462.496 23.4654C462.283 23.4654 462.071 23.3913 461.909 23.2437C461.584 22.9478 461.584 22.4696 461.909 22.1737L463.569 20.6602C463.893 20.3643 464.417 20.3643 464.742 20.6602C465.066 20.956 465.066 21.4343 464.742 21.7302L463.082 23.2437C462.92 23.3913 462.708 23.4654 462.496 23.4654Z" fill="#434A54"/>
<path d="M466.645 23.4654C466.433 23.4654 466.22 23.3913 466.058 23.2437C465.734 22.9478 465.734 22.4696 466.058 22.1737L467.718 20.6602C468.042 20.3643 468.567 20.3643 468.891 20.6602C469.216 20.956 469.216 21.4343 468.891 21.7302L467.232 23.2437C467.07 23.3913 466.857 23.4654 466.645 23.4654Z" fill="#434A54"/>
<path d="M470.794 23.4654C470.582 23.4654 470.369 23.3913 470.207 23.2437C469.883 22.9478 469.883 22.4696 470.207 22.1737L471.867 20.6602C472.192 20.3643 472.716 20.3643 473.041 20.6602C473.365 20.956 473.365 21.4343 473.041 21.7302L471.381 23.2437C471.219 23.3913 471.007 23.4654 470.794 23.4654Z" fill="#434A54"/>
<path d="M479.95 28.7628C479.491 28.7628 479.116 28.4245 479.116 28.006C479.116 27.5875 479.483 27.2493 479.941 27.2493H479.95C480.408 27.2493 480.78 27.5875 480.78 28.006C480.78 28.4245 480.408 28.7628 479.95 28.7628Z" fill="#5D9CEC"/>
<path d="M462.496 29.5197C462.283 29.5197 462.071 29.4455 461.909 29.2979C461.584 29.002 461.584 28.5238 461.909 28.2279L463.569 26.7144C463.893 26.4185 464.417 26.4185 464.742 26.7144C465.066 27.0102 465.066 27.4885 464.742 27.7844L463.082 29.2979C462.92 29.4455 462.708 29.5197 462.496 29.5197Z" fill="#545C66"/>
<path d="M466.645 29.5197C466.433 29.5197 466.22 29.4455 466.058 29.2979C465.734 29.002 465.734 28.5238 466.058 28.2279L467.718 26.7144C468.042 26.4185 468.567 26.4185 468.891 26.7144C469.216 27.0102 469.216 27.4885 468.891 27.7844L467.232 29.2979C467.07 29.4455 466.857 29.5197 466.645 29.5197Z" fill="#545C66"/>
<path d="M470.794 29.5197C470.582 29.5197 470.369 29.4455 470.207 29.2979C469.883 29.002 469.883 28.5238 470.207 28.2279L471.867 26.7144C472.192 26.4185 472.716 26.4185 473.041 26.7144C473.365 27.0102 473.365 27.4885 473.041 27.7844L471.381 29.2979C471.219 29.4455 471.007 29.5197 470.794 29.5197Z" fill="#545C66"/>
<path d="M466.645 35.5736C466.433 35.5736 466.22 35.4994 466.058 35.3519C465.734 35.056 465.734 34.5777 466.058 34.2818L467.718 32.7683C468.042 32.4724 468.567 32.4724 468.891 32.7683C469.216 33.0642 469.216 33.5425 468.891 33.8384L467.232 35.3519C467.07 35.4994 466.857 35.5736 466.645 35.5736Z" fill="#434A54"/>
<path d="M470.794 35.5736C470.582 35.5736 470.369 35.4994 470.207 35.3519C469.883 35.056 469.883 34.5777 470.207 34.2818L471.867 32.7683C472.192 32.4724 472.716 32.4724 473.041 32.7683C473.365 33.0642 473.365 33.5425 473.041 33.8384L471.381 35.3519C471.219 35.4994 471.007 35.5736 470.794 35.5736Z" fill="#434A54"/>
<path d="M463.569 32.7684L462.038 34.1639C462.013 34.1866 462.003 34.2169 461.982 34.2426C462.193 34.3962 462.401 34.5536 462.622 34.6966C462.852 34.8465 463.092 34.9865 463.334 35.1234L464.742 33.8392C465.066 33.5433 465.066 33.0651 464.742 32.7692C464.418 32.4733 463.893 32.4725 463.569 32.7684Z" fill="#434A54"/>
<path d="M479.95 33.3035H479.941C479.483 33.3035 479.116 33.6417 479.116 34.0602C479.116 34.2214 479.184 34.3622 479.278 34.4848C479.714 34.1851 480.13 33.8627 480.525 33.5191C480.376 33.386 480.175 33.3035 479.95 33.3035Z" fill="#5D9CEC"/>
<path d="M510.482 57.5569H510.418H494.72C494.64 57.5724 494.544 57.5724 494.464 57.5724H492.867H476.897H464.105H446.554C446.474 57.5724 446.394 57.5724 446.316 57.5569H430.568C428.811 57.5569 427.374 58.9413 427.374 60.668V108.889H459.314H481.672H513.613V60.668C513.613 58.9569 512.223 57.588 510.482 57.5569Z" fill="#5D9CEC"/>
<path d="M427.376 62.2205C426.492 62.2205 425.779 61.5252 425.779 60.665C425.779 58.0921 427.928 55.9983 430.57 55.9983C431.453 55.9983 432.167 56.6936 432.167 57.5538C432.167 58.4141 431.453 59.1094 430.57 59.1094C429.688 59.1094 428.973 59.8063 428.973 60.665C428.973 61.5252 428.259 62.2205 427.376 62.2205Z" fill="#545C66"/>
<path d="M427.376 110.437C426.492 110.437 425.779 109.741 425.779 108.881V60.6649C425.779 59.8047 426.492 59.1094 427.376 59.1094C428.259 59.1094 428.973 59.8047 428.973 60.6649V108.881C428.973 109.741 428.259 110.437 427.376 110.437Z" fill="#545C66"/>
<path d="M513.614 62.2205C512.73 62.2205 512.017 61.5252 512.017 60.665C512.017 59.8063 511.301 59.1094 510.42 59.1094C509.536 59.1094 508.823 58.4141 508.823 57.5538C508.823 56.6936 509.536 55.9983 510.42 55.9983C513.061 55.9983 515.211 58.0921 515.211 60.665C515.211 61.5252 514.497 62.2205 513.614 62.2205Z" fill="#545C66"/>
<path d="M513.614 110.437C512.731 110.437 512.017 109.741 512.017 108.881V60.6649C512.017 59.8047 512.731 59.1094 513.614 59.1094C514.497 59.1094 515.211 59.8047 515.211 60.6649V108.881C515.211 109.741 514.497 110.437 513.614 110.437Z" fill="#545C66"/>
<path d="M510.486 59.1094H430.57C429.687 59.1094 428.973 58.4141 428.973 57.5538C428.973 56.6936 429.687 55.9983 430.57 55.9983H510.486C511.369 55.9983 512.083 56.6936 512.083 57.5538C512.083 58.4141 511.369 59.1094 510.486 59.1094Z" fill="#545C66"/>
<path d="M456.373 83.8542H456.394V97.4411H438V83.8542H456.373Z" fill="#E6E9ED"/>
<path d="M456.373 81.7743V83.8542H438H437.978V81.7639V81.7534C437.978 81.1797 438.428 80.7188 439.001 80.7188H439.011H455.33C455.913 80.7188 456.363 81.1797 456.374 81.7639V81.7743H456.373Z" fill="#CCD1D9"/>
<path d="M478.881 84.9203V86.9897H460.496H460.486V84.8994C460.486 84.3256 460.936 83.8542 461.499 83.8542H461.519H477.838C478.412 83.8542 478.871 84.3256 478.882 84.8994V84.9203H478.881Z" fill="#CCD1D9"/>
<path d="M501.389 83.8542H501.41V97.4411H483.004V83.8542H501.389Z" fill="#E6E9ED"/>
<path d="M501.389 81.7743V83.8542H483.004H482.994V81.7639V81.7534C482.994 81.1797 483.444 80.7188 484.007 80.7188H484.027H500.345C500.929 80.7188 501.379 81.1797 501.39 81.7639V81.7743H501.389Z" fill="#CCD1D9"/>
<path d="M478.881 86.9895H478.902V100.576H460.496V86.9895H478.881Z" fill="#E6E9ED"/>
<path d="M500.353 98.4882H484.033C483.468 98.4882 483.01 98.0211 483.01 97.4431C483.01 96.8651 483.468 96.3979 484.033 96.3979H500.353C500.918 96.3979 501.376 96.8651 501.376 97.4431C501.376 98.0211 500.918 98.4882 500.353 98.4882Z" fill="#E6E9ED"/>
<path d="M477.862 101.622H461.543C460.977 101.622 460.52 101.155 460.52 100.577C460.52 99.9987 460.977 99.5315 461.543 99.5315H477.862C478.428 99.5315 478.885 99.9987 478.885 100.577C478.885 101.155 478.428 101.622 477.862 101.622Z" fill="#E6E9ED"/>
<path d="M455.356 98.4882H439.037C438.471 98.4882 438.014 98.0211 438.014 97.4431C438.014 96.8651 438.471 96.3979 439.037 96.3979H455.356C455.922 96.3979 456.379 96.8651 456.379 97.4431C456.379 98.0211 455.922 98.4882 455.356 98.4882Z" fill="#E6E9ED"/>
<path d="M497.315 89.0778H487.084C486.519 89.0778 486.061 88.6107 486.061 88.0327C486.061 87.4547 486.519 86.9875 487.084 86.9875H497.315C497.881 86.9875 498.338 87.4547 498.338 88.0327C498.338 88.6107 497.881 89.0778 497.315 89.0778Z" fill="#CCD1D9"/>
<path d="M497.315 92.2133H487.084C486.519 92.2133 486.061 91.7461 486.061 91.1682C486.061 90.5902 486.519 90.123 487.084 90.123H497.315C497.881 90.123 498.338 90.5902 498.338 91.1682C498.338 91.7461 497.881 92.2133 497.315 92.2133Z" fill="#CCD1D9"/>
<path d="M494.243 95.3488H490.157C489.591 95.3488 489.134 94.8816 489.134 94.3037C489.134 93.7257 489.591 93.2585 490.157 93.2585H494.243C494.809 93.2585 495.266 93.7257 495.266 94.3037C495.266 94.8816 494.809 95.3488 494.243 95.3488Z" fill="#CCD1D9"/>
<path d="M474.807 92.2175H464.576C464.011 92.2175 463.553 91.7503 463.553 91.1723C463.553 90.5944 464.011 90.1272 464.576 90.1272H474.807C475.373 90.1272 475.83 90.5944 475.83 91.1723C475.83 91.7503 475.373 92.2175 474.807 92.2175Z" fill="#CCD1D9"/>
<path d="M474.807 95.353H464.576C464.011 95.353 463.553 94.8858 463.553 94.3078C463.553 93.7299 464.011 93.2627 464.576 93.2627H474.807C475.373 93.2627 475.83 93.7299 475.83 94.3078C475.83 94.8858 475.373 95.353 474.807 95.353Z" fill="#CCD1D9"/>
<path d="M471.735 98.4882H467.649C467.083 98.4882 466.625 98.0211 466.625 97.4431C466.625 96.8651 467.083 96.3979 467.649 96.3979H471.735C472.301 96.3979 472.758 96.8651 472.758 97.4431C472.758 98.0211 472.301 98.4882 471.735 98.4882Z" fill="#CCD1D9"/>
<path d="M452.301 89.0778H442.07C441.505 89.0778 441.047 88.6107 441.047 88.0327C441.047 87.4547 441.505 86.9875 442.07 86.9875H452.301C452.867 86.9875 453.324 87.4547 453.324 88.0327C453.324 88.6107 452.867 89.0778 452.301 89.0778Z" fill="#CCD1D9"/>
<path d="M452.301 92.2133H442.07C441.505 92.2133 441.047 91.7461 441.047 91.1682C441.047 90.5902 441.505 90.123 442.07 90.123H452.301C452.867 90.123 453.324 90.5902 453.324 91.1682C453.324 91.7461 452.867 92.2133 452.301 92.2133Z" fill="#CCD1D9"/>
<path d="M449.229 95.3488H445.143C444.577 95.3488 444.12 94.8816 444.12 94.3037C444.12 93.7257 444.577 93.2585 445.143 93.2585H449.229C449.795 93.2585 450.252 93.7257 450.252 94.3037C450.252 94.8816 449.795 95.3488 449.229 95.3488Z" fill="#CCD1D9"/>
<path d="M469.703 80.721C469.137 80.721 468.68 80.2538 468.68 79.6758V68.1814C468.68 67.6034 469.137 67.1362 469.703 67.1362C470.269 67.1362 470.726 67.6034 470.726 68.1814V79.6758C470.726 80.2538 470.269 80.721 469.703 80.721Z" fill="#656D78"/>
<path d="M492.203 77.5855C491.637 77.5855 491.18 77.1184 491.18 76.5404V72.3598C491.18 71.7819 491.637 71.3147 492.203 71.3147C492.769 71.3147 493.226 71.7819 493.226 72.3598V76.5404C493.226 77.1184 492.769 77.5855 492.203 77.5855Z" fill="#656D78"/>
<path d="M492.203 73.405H475.833C475.268 73.405 474.81 72.9378 474.81 72.3598C474.81 71.7819 475.268 71.3147 475.833 71.3147H492.203C492.769 71.3147 493.226 71.7819 493.226 72.3598C493.226 72.9378 492.769 73.405 492.203 73.405Z" fill="#656D78"/>
<path d="M475.833 73.405C475.268 73.405 474.81 72.9378 474.81 72.3598V68.1814C474.81 67.6034 475.268 67.1362 475.833 67.1362C476.399 67.1362 476.856 67.6034 476.856 68.1814V72.3598C476.856 72.9378 476.399 73.405 475.833 73.405Z" fill="#656D78"/>
<path d="M447.159 77.5855C446.594 77.5855 446.136 77.1184 446.136 76.5404V72.3598C446.136 71.7819 446.594 71.3147 447.159 71.3147C447.725 71.3147 448.182 71.7819 448.182 72.3598V76.5404C448.182 77.1184 447.724 77.5855 447.159 77.5855Z" fill="#656D78"/>
<path d="M463.529 73.405H447.159C446.594 73.405 446.136 72.9378 446.136 72.3598C446.136 71.7819 446.594 71.3147 447.159 71.3147H463.529C464.095 71.3147 464.552 71.7819 464.552 72.3598C464.552 72.9378 464.094 73.405 463.529 73.405Z" fill="#656D78"/>
<path d="M463.529 73.405C462.963 73.405 462.506 72.9378 462.506 72.3598V68.1814C462.506 67.6034 462.963 67.1362 463.529 67.1362C464.094 67.1362 464.552 67.6034 464.552 68.1814V72.3598C464.552 72.9378 464.093 73.405 463.529 73.405Z" fill="#656D78"/>
<path d="M513.612 108.889H481.672H459.313H427.373H422.585L420.985 110.438V115.111C420.985 116.838 422.422 118.222 424.179 118.222H516.806C518.579 118.222 520 116.838 520 115.111V110.438L518.403 108.889H513.612Z" fill="#656D78"/>
<path d="M481.671 108.887V110.443C481.671 111.299 480.953 111.999 480.074 111.999H460.91C460.032 111.999 459.313 111.299 459.313 110.443V108.887" fill="#545C66"/>
<path d="M464.108 66.8951C463.225 66.8951 462.511 66.1998 462.511 65.3396V46.6791C462.511 45.8189 463.225 45.1235 464.108 45.1235C464.991 45.1235 465.705 45.8189 465.705 46.6791V65.3396C465.705 66.1998 464.991 66.8951 464.108 66.8951Z" fill="#E6E9ED"/>
<path d="M467.299 51.3428C466.891 51.3428 466.482 51.1904 466.17 50.887L462.98 47.779C462.355 47.1708 462.355 46.1877 462.98 45.5795C463.604 44.9712 464.613 44.9712 465.238 45.5795L468.429 48.6875C469.053 49.2957 469.053 50.2788 468.429 50.887C468.117 51.1904 467.708 51.3428 467.299 51.3428Z" fill="#E6E9ED"/>
<path d="M460.918 51.3428C460.509 51.3428 460.101 51.1904 459.789 50.887C459.165 50.2788 459.165 49.2957 459.789 48.6875L462.98 45.5795C463.604 44.9712 464.614 44.9712 465.238 45.5795C465.863 46.1877 465.863 47.1708 465.238 47.779L462.047 50.887C461.736 51.1904 461.327 51.3428 460.918 51.3428Z" fill="#E6E9ED"/>
<path d="M476.896 66.8951C476.013 66.8951 475.299 66.1998 475.299 65.3396V46.6791C475.299 45.8189 476.013 45.1235 476.896 45.1235C477.779 45.1235 478.493 45.8189 478.493 46.6791V65.3396C478.493 66.1998 477.779 66.8951 476.896 66.8951Z" fill="#E6E9ED"/>
<path d="M476.897 66.8953C476.488 66.8953 476.079 66.7428 475.768 66.4395L472.577 63.3315C471.953 62.7233 471.953 61.7402 472.577 61.1319C473.202 60.5237 474.211 60.5237 474.835 61.1319L478.026 64.24C478.651 64.8482 478.651 65.8313 478.026 66.4395C477.713 66.7428 477.306 66.8953 476.897 66.8953Z" fill="#E6E9ED"/>
<path d="M476.897 66.8953C476.488 66.8953 476.079 66.7428 475.768 66.4395C475.143 65.8313 475.143 64.8482 475.768 64.24L478.958 61.1319C479.583 60.5237 480.592 60.5237 481.217 61.1319C481.841 61.7402 481.841 62.7233 481.217 63.3315L478.026 66.4395C477.713 66.7428 477.306 66.8953 476.897 66.8953Z" fill="#E6E9ED"/>
<path d="M422.583 111.992C423.465 111.992 424.18 111.296 424.18 110.437C424.18 109.578 423.465 108.881 422.583 108.881C421.701 108.881 420.986 109.578 420.986 110.437C420.986 111.296 421.701 111.992 422.583 111.992Z" fill="#656D78"/>
<path d="M427.376 124.444H413V166.444H427.376C428.253 166.444 428.973 165.743 428.973 164.889C428.973 164.032 428.973 162.632 428.973 161.778V129.111C428.973 128.254 428.973 126.854 428.973 126C428.973 125.143 428.253 124.444 427.376 124.444Z" fill="#656D78"/>
<path d="M473.686 138.444L504.541 133.873C504.891 133.809 505.258 133.778 505.627 133.778C509.155 133.778 512.015 136.561 512.015 140C512.015 142.302 510.736 144.309 508.821 145.384L465.701 168L428.97 163.333V127.555H443.343L468.399 132.317C471.403 132.815 473.686 135.363 473.686 138.444Z" fill="#EAC6BB"/>
<path d="M421.032 163.333C420.148 163.333 419.428 162.638 419.428 161.778C419.428 160.918 420.133 160.222 421.016 160.222H421.032C421.915 160.222 422.629 160.918 422.629 161.778C422.629 162.638 421.915 163.333 421.032 163.333Z" fill="#FFCE54"/>
<path d="M476.837 137.976L473.686 138.444C473.686 141.881 470.826 144.667 467.298 144.667C467.118 144.667 466.936 144.651 466.758 144.639C466.755 144.635 466.755 144.635 466.752 144.635L446.661 143.113C445.788 143.058 445.015 143.69 444.943 144.544C444.878 145.401 445.532 146.147 446.412 146.214L466.349 147.725V147.731C466.664 147.762 466.982 147.776 467.298 147.776C472.583 147.776 476.88 143.59 476.88 138.443C476.88 138.283 476.847 138.135 476.837 137.976Z" fill="#D3B1A9"/>
</svg>
