<svg width="609" height="201" viewBox="0 0 609 201" fill="none" xmlns="http://www.w3.org/2000/svg">
<rect width="609" height="176" rx="20" fill="#312F2F"/>
<path d="M51.14 32.96C51.14 33.6267 50.98 34.2533 50.66 34.84C50.3533 35.4267 49.8933 35.92 49.28 36.32C48.68 36.72 47.96 36.9733 47.12 37.08V38C47.8533 38 48.4667 38.1867 48.96 38.56C49.4667 38.9333 49.72 39.4733 49.72 40.18C49.72 40.9 49.46 41.4533 48.94 41.84C48.4333 42.2267 47.8067 42.42 47.06 42.42H44.22V40.78H46.6C46.92 40.78 47.16 40.7333 47.32 40.64C47.4933 40.5467 47.58 40.38 47.58 40.14C47.58 39.9 47.4933 39.7333 47.32 39.64C47.16 39.56 46.92 39.52 46.6 39.52H45.36V37.1C44.08 36.9533 43.04 36.52 42.24 35.8C41.44 35.08 41.0333 34.14 41.02 32.98H44.02C44.06 33.5533 44.26 34.0067 44.62 34.34C44.9933 34.6733 45.5 34.84 46.14 34.84C46.7933 34.84 47.3067 34.6867 47.68 34.38C48.0533 34.06 48.24 33.6467 48.24 33.14C48.24 32.7267 48.1133 32.3867 47.86 32.12C47.6067 31.8533 47.2867 31.6467 46.9 31.5C46.5267 31.34 46.0067 31.1667 45.34 30.98C44.4333 30.7133 43.6933 30.4533 43.12 30.2C42.56 29.9333 42.0733 29.54 41.66 29.02C41.26 28.4867 41.06 27.78 41.06 26.9C41.06 26.0733 41.2667 25.3533 41.68 24.74C42.0933 24.1267 42.6733 23.66 43.42 23.34C44.1667 23.0067 45.02 22.84 45.98 22.84C47.42 22.84 48.5867 23.1933 49.48 23.9C50.3867 24.5933 50.8867 25.5667 50.98 26.82H47.9C47.8733 26.34 47.6667 25.9467 47.28 25.64C46.9067 25.32 46.4067 25.16 45.78 25.16C45.2333 25.16 44.7933 25.3 44.46 25.58C44.14 25.86 43.98 26.2667 43.98 26.8C43.98 27.1733 44.1 27.4867 44.34 27.74C44.5933 27.98 44.9 28.18 45.26 28.34C45.6333 28.4867 46.1533 28.66 46.82 28.86C47.7267 29.1267 48.4667 29.3933 49.04 29.66C49.6133 29.9267 50.1067 30.3267 50.52 30.86C50.9333 31.3933 51.14 32.0933 51.14 32.96ZM54.9875 24.6C54.4942 24.6 54.0808 24.4467 53.7475 24.14C53.4275 23.82 53.2675 23.4267 53.2675 22.96C53.2675 22.4933 53.4275 22.1067 53.7475 21.8C54.0808 21.48 54.4942 21.32 54.9875 21.32C55.4808 21.32 55.8875 21.48 56.2075 21.8C56.5408 22.1067 56.7075 22.4933 56.7075 22.96C56.7075 23.4267 56.5408 23.82 56.2075 24.14C55.8875 24.4467 55.4808 24.6 54.9875 24.6ZM56.3675 25.92V37H53.5675V25.92H56.3675ZM61.9339 27.64C62.2939 27.0533 62.7606 26.5933 63.3339 26.26C63.9206 25.9267 64.5872 25.76 65.3339 25.76V28.7H64.5939C63.7139 28.7 63.0472 28.9067 62.5939 29.32C62.1539 29.7333 61.9339 30.4533 61.9339 31.48V37H59.1339V25.92H61.9339V27.64ZM73.7798 37L70.0198 32.28V37H67.2198V22.2H70.0198V30.62L73.7398 25.92H77.3798L72.4998 31.48L77.4198 37H73.7798ZM89.1995 31.22C89.1995 31.62 89.1729 31.98 89.1195 32.3H81.0195C81.0862 33.1 81.3662 33.7267 81.8595 34.18C82.3529 34.6333 82.9595 34.86 83.6795 34.86C84.7195 34.86 85.4595 34.4133 85.8995 33.52H88.9195C88.5995 34.5867 87.9862 35.4667 87.0795 36.16C86.1729 36.84 85.0595 37.18 83.7395 37.18C82.6729 37.18 81.7129 36.9467 80.8595 36.48C80.0195 36 79.3595 35.3267 78.8795 34.46C78.4129 33.5933 78.1795 32.5933 78.1795 31.46C78.1795 30.3133 78.4129 29.3067 78.8795 28.44C79.3462 27.5733 79.9995 26.9067 80.8395 26.44C81.6795 25.9733 82.6462 25.74 83.7395 25.74C84.7929 25.74 85.7329 25.9667 86.5595 26.42C87.3995 26.8733 88.0462 27.52 88.4995 28.36C88.9662 29.1867 89.1995 30.14 89.1995 31.22ZM86.2995 30.42C86.2862 29.7 86.0262 29.1267 85.5195 28.7C85.0129 28.26 84.3929 28.04 83.6595 28.04C82.9662 28.04 82.3795 28.2533 81.8995 28.68C81.4329 29.0933 81.1462 29.6733 81.0395 30.42H86.2995ZM94.5033 28.22V33.58C94.5033 33.9533 94.5899 34.2267 94.7633 34.4C94.9499 34.56 95.2566 34.64 95.6833 34.64H96.9833V37H95.2233C92.8633 37 91.6833 35.8533 91.6833 33.56V28.22H90.3633V25.92H91.6833V23.18H94.5033V25.92H96.9833V28.22H94.5033ZM100.417 24.6C99.9239 24.6 99.5105 24.4467 99.1772 24.14C98.8572 23.82 98.6972 23.4267 98.6972 22.96C98.6972 22.4933 98.8572 22.1067 99.1772 21.8C99.5105 21.48 99.9239 21.32 100.417 21.32C100.911 21.32 101.317 21.48 101.637 21.8C101.971 22.1067 102.137 22.4933 102.137 22.96C102.137 23.4267 101.971 23.82 101.637 24.14C101.317 24.4467 100.911 24.6 100.417 24.6ZM101.797 25.92V37H98.9972V25.92H101.797ZM110.704 25.76C112.024 25.76 113.09 26.18 113.904 27.02C114.717 27.8467 115.124 29.0067 115.124 30.5V37H112.324V30.88C112.324 30 112.104 29.3267 111.664 28.86C111.224 28.38 110.624 28.14 109.864 28.14C109.09 28.14 108.477 28.38 108.024 28.86C107.584 29.3267 107.364 30 107.364 30.88V37H104.564V25.92H107.364V27.3C107.737 26.82 108.21 26.4467 108.784 26.18C109.37 25.9 110.01 25.76 110.704 25.76ZM119.206 24.6C118.713 24.6 118.3 24.4467 117.966 24.14C117.646 23.82 117.486 23.4267 117.486 22.96C117.486 22.4933 117.646 22.1067 117.966 21.8C118.3 21.48 118.713 21.32 119.206 21.32C119.7 21.32 120.106 21.48 120.426 21.8C120.76 22.1067 120.926 22.4933 120.926 22.96C120.926 23.4267 120.76 23.82 120.426 24.14C120.106 24.4467 119.7 24.6 119.206 24.6ZM120.586 25.92V37H117.786V25.92H120.586ZM125.913 34.7H130.853V37H122.733V34.74L127.573 28.22H122.753V25.92H130.793V28.18L125.913 34.7ZM139.206 24.6C138.713 24.6 138.3 24.4467 137.966 24.14C137.646 23.82 137.486 23.4267 137.486 22.96C137.486 22.4933 137.646 22.1067 137.966 21.8C138.3 21.48 138.713 21.32 139.206 21.32C139.7 21.32 140.106 21.48 140.426 21.8C140.76 22.1067 140.926 22.4933 140.926 22.96C140.926 23.4267 140.76 23.82 140.426 24.14C140.106 24.4467 139.7 24.6 139.206 24.6ZM140.586 25.92V37H137.786V25.92H140.586ZM148.093 34.78C149.226 34.78 149.966 34.2733 150.313 33.26H153.333C153.053 34.34 152.533 35.22 151.773 35.9C151.026 36.58 150.086 36.9867 148.953 37.12V37.9C149.686 37.9 150.299 38.0867 150.793 38.46C151.299 38.8333 151.553 39.3733 151.553 40.08C151.553 40.8 151.293 41.3533 150.773 41.74C150.266 42.1267 149.639 42.32 148.893 42.32H146.053V40.68H148.433C148.753 40.68 148.993 40.6333 149.153 40.54C149.326 40.4467 149.413 40.28 149.413 40.04C149.413 39.8 149.326 39.6333 149.153 39.54C148.993 39.46 148.753 39.42 148.433 39.42H147.193V37.12C146.286 36.9867 145.486 36.6733 144.793 36.18C144.113 35.6733 143.579 35.02 143.193 34.22C142.819 33.4067 142.633 32.4867 142.633 31.46C142.633 30.3133 142.866 29.3133 143.333 28.46C143.799 27.5933 144.446 26.9267 145.273 26.46C146.099 25.98 147.046 25.74 148.113 25.74C149.486 25.74 150.619 26.0867 151.513 26.78C152.419 27.46 153.026 28.42 153.333 29.66H150.313C150.153 29.18 149.879 28.8067 149.493 28.54C149.119 28.26 148.653 28.12 148.093 28.12C147.293 28.12 146.659 28.4133 146.193 29C145.726 29.5733 145.493 30.3933 145.493 31.46C145.493 32.5133 145.726 33.3333 146.193 33.92C146.659 34.4933 147.293 34.78 148.093 34.78ZM156.804 24.6C156.311 24.6 155.897 24.4467 155.564 24.14C155.244 23.82 155.084 23.4267 155.084 22.96C155.084 22.4933 155.244 22.1067 155.564 21.8C155.897 21.48 156.311 21.32 156.804 21.32C157.297 21.32 157.704 21.48 158.024 21.8C158.357 22.1067 158.524 22.4933 158.524 22.96C158.524 23.4267 158.357 23.82 158.024 24.14C157.704 24.4467 157.297 24.6 156.804 24.6ZM158.184 25.92V37H155.384V25.92H158.184ZM167.09 25.76C168.41 25.76 169.477 26.18 170.29 27.02C171.104 27.8467 171.51 29.0067 171.51 30.5V37H168.71V30.88C168.71 30 168.49 29.3267 168.05 28.86C167.61 28.38 167.01 28.14 166.25 28.14C165.477 28.14 164.864 28.38 164.41 28.86C163.97 29.3267 163.75 30 163.75 30.88V37H160.95V25.92H163.75V27.3C164.124 26.82 164.597 26.4467 165.17 26.18C165.757 25.9 166.397 25.76 167.09 25.76ZM185.179 25.76C186.019 25.76 186.765 25.9467 187.419 26.32C188.072 26.68 188.579 27.22 188.939 27.94C189.312 28.6467 189.499 29.5 189.499 30.5V37H186.699V30.88C186.699 30 186.479 29.3267 186.039 28.86C185.599 28.38 184.999 28.14 184.239 28.14C183.465 28.14 182.852 28.38 182.399 28.86C181.959 29.3267 181.739 30 181.739 30.88V37H178.939V22.2H181.739V27.3C182.099 26.82 182.579 26.4467 183.179 26.18C183.779 25.9 184.445 25.76 185.179 25.76ZM195.081 25.92V37H192.281V25.92H195.081ZM200.522 34.7H205.462V37H197.342V34.74L202.182 28.22H197.362V25.92H205.402V28.18L200.522 34.7ZM210.43 22.2V37H207.63V22.2H210.43ZM216.116 25.92V37H213.316V25.92H216.116ZM228.383 34.42L231.183 25.92H234.163L230.063 37H226.663L222.583 25.92H225.583L228.383 34.42ZM246.035 31.22C246.035 31.62 246.009 31.98 245.955 32.3H237.855C237.922 33.1 238.202 33.7267 238.695 34.18C239.189 34.6333 239.795 34.86 240.515 34.86C241.555 34.86 242.295 34.4133 242.735 33.52H245.755C245.435 34.5867 244.822 35.4667 243.915 36.16C243.009 36.84 241.895 37.18 240.575 37.18C239.509 37.18 238.549 36.9467 237.695 36.48C236.855 36 236.195 35.3267 235.715 34.46C235.249 33.5933 235.015 32.5933 235.015 31.46C235.015 30.3133 235.249 29.3067 235.715 28.44C236.182 27.5733 236.835 26.9067 237.675 26.44C238.515 25.9733 239.482 25.74 240.575 25.74C241.629 25.74 242.569 25.9667 243.395 26.42C244.235 26.8733 244.882 27.52 245.335 28.36C245.802 29.1867 246.035 30.14 246.035 31.22ZM243.135 30.42C243.122 29.7 242.862 29.1267 242.355 28.7C241.849 28.26 241.229 28.04 240.495 28.04C239.802 28.04 239.215 28.2533 238.735 28.68C238.269 29.0933 237.982 29.6733 237.875 30.42H243.135ZM45.72 49.74C46.5467 49.74 47.2733 49.9067 47.9 50.24C48.5267 50.56 49.02 50.98 49.38 51.5V49.92H52.2V61.08C52.2 62.1067 51.9933 63.02 51.58 63.82C51.1667 64.6333 50.5467 65.2733 49.72 65.74C48.8933 66.22 47.8933 66.46 46.72 66.46C45.1467 66.46 43.8533 66.0933 42.84 65.36C41.84 64.6267 41.2733 63.6267 41.14 62.36H43.92C44.0667 62.8667 44.38 63.2667 44.86 63.56C45.3533 63.8667 45.9467 64.02 46.64 64.02C47.4533 64.02 48.1133 63.7733 48.62 63.28C49.1267 62.8 49.38 62.0667 49.38 61.08V59.36C49.02 59.88 48.52 60.3133 47.88 60.66C47.2533 61.0067 46.5333 61.18 45.72 61.18C44.7867 61.18 43.9333 60.94 43.16 60.46C42.3867 59.98 41.7733 59.3067 41.32 58.44C40.88 57.56 40.66 56.5533 40.66 55.42C40.66 54.3 40.88 53.3067 41.32 52.44C41.7733 51.5733 42.38 50.9067 43.14 50.44C43.9133 49.9733 44.7733 49.74 45.72 49.74ZM49.38 55.46C49.38 54.78 49.2467 54.2 48.98 53.72C48.7133 53.2267 48.3533 52.8533 47.9 52.6C47.4467 52.3333 46.96 52.2 46.44 52.2C45.92 52.2 45.44 52.3267 45 52.58C44.56 52.8333 44.2 53.2067 43.92 53.7C43.6533 54.18 43.52 54.7533 43.52 55.42C43.52 56.0867 43.6533 56.6733 43.92 57.18C44.2 57.6733 44.56 58.0533 45 58.32C45.4533 58.5867 45.9333 58.72 46.44 58.72C46.96 58.72 47.4467 58.5933 47.9 58.34C48.3533 58.0733 48.7133 57.7 48.98 57.22C49.2467 56.7267 49.38 56.14 49.38 55.46ZM65.3947 49.92V61H62.5747V59.6C62.2147 60.08 61.7414 60.46 61.1547 60.74C60.5814 61.0067 59.9547 61.14 59.2747 61.14C58.408 61.14 57.6414 60.96 56.9747 60.6C56.308 60.2267 55.7814 59.6867 55.3947 58.98C55.0214 58.26 54.8347 57.4067 54.8347 56.42V49.92H57.6347V56.02C57.6347 56.9 57.8547 57.58 58.2947 58.06C58.7347 58.5267 59.3347 58.76 60.0947 58.76C60.868 58.76 61.4747 58.5267 61.9147 58.06C62.3547 57.58 62.5747 56.9 62.5747 56.02V49.92H65.3947ZM58.3147 48.6C57.9414 48.6 57.628 48.4733 57.3747 48.22C57.1214 47.9667 56.9947 47.6533 56.9947 47.28C56.9947 46.9067 57.1214 46.5933 57.3747 46.34C57.628 46.0733 57.9414 45.94 58.3147 45.94C58.688 45.94 59.0014 46.0733 59.2547 46.34C59.5214 46.5933 59.6547 46.9067 59.6547 47.28C59.6547 47.6533 59.5214 47.9667 59.2547 48.22C59.0014 48.4733 58.688 48.6 58.3147 48.6ZM62.0147 48.6C61.6414 48.6 61.328 48.4733 61.0747 48.22C60.8214 47.9667 60.6947 47.6533 60.6947 47.28C60.6947 46.9067 60.8214 46.5933 61.0747 46.34C61.328 46.0733 61.6414 45.94 62.0147 45.94C62.388 45.94 62.7014 46.0733 62.9547 46.34C63.2214 46.5933 63.3547 46.9067 63.3547 47.28C63.3547 47.6533 63.2214 47.9667 62.9547 48.22C62.7014 48.4733 62.388 48.6 62.0147 48.6ZM72.7773 58.42L75.5773 49.92H78.5573L74.4573 61H71.0573L66.9773 49.92H69.9773L72.7773 58.42ZM90.43 55.22C90.43 55.62 90.4033 55.98 90.35 56.3H82.25C82.3167 57.1 82.5967 57.7267 83.09 58.18C83.5833 58.6333 84.19 58.86 84.91 58.86C85.95 58.86 86.69 58.4133 87.13 57.52H90.15C89.83 58.5867 89.2167 59.4667 88.31 60.16C87.4033 60.84 86.29 61.18 84.97 61.18C83.9033 61.18 82.9433 60.9467 82.09 60.48C81.25 60 80.59 59.3267 80.11 58.46C79.6433 57.5933 79.41 56.5933 79.41 55.46C79.41 54.3133 79.6433 53.3067 80.11 52.44C80.5767 51.5733 81.23 50.9067 82.07 50.44C82.91 49.9733 83.8767 49.74 84.97 49.74C86.0233 49.74 86.9633 49.9667 87.79 50.42C88.63 50.8733 89.2767 51.52 89.73 52.36C90.1967 53.1867 90.43 54.14 90.43 55.22ZM87.53 54.42C87.5167 53.7 87.2567 53.1267 86.75 52.7C86.2433 52.26 85.6233 52.04 84.89 52.04C84.1967 52.04 83.61 52.2533 83.13 52.68C82.6633 53.0933 82.3767 53.6733 82.27 54.42H87.53ZM98.6138 49.76C99.9338 49.76 101 50.18 101.814 51.02C102.627 51.8467 103.034 53.0067 103.034 54.5V61H100.234V54.88C100.234 54 100.014 53.3267 99.5738 52.86C99.1338 52.38 98.5338 52.14 97.7738 52.14C97.0004 52.14 96.3871 52.38 95.9338 52.86C95.4938 53.3267 95.2738 54 95.2738 54.88V61H92.4738V49.92H95.2738V51.3C95.6471 50.82 96.1204 50.4467 96.6938 50.18C97.2804 49.9 97.9204 49.76 98.6138 49.76ZM107.116 48.6C106.623 48.6 106.21 48.4467 105.876 48.14C105.556 47.82 105.396 47.4267 105.396 46.96C105.396 46.4933 105.556 46.1067 105.876 45.8C106.21 45.48 106.623 45.32 107.116 45.32C107.61 45.32 108.016 45.48 108.336 45.8C108.67 46.1067 108.836 46.4933 108.836 46.96C108.836 47.4267 108.67 47.82 108.336 48.14C108.016 48.4467 107.61 48.6 107.116 48.6ZM108.496 49.92V61H105.696V49.92H108.496ZM114.063 46.2V61H111.263V46.2H114.063ZM118.249 48.6C117.756 48.6 117.343 48.4467 117.009 48.14C116.689 47.82 116.529 47.4267 116.529 46.96C116.529 46.4933 116.689 46.1067 117.009 45.8C117.343 45.48 117.756 45.32 118.249 45.32C118.743 45.32 119.149 45.48 119.469 45.8C119.803 46.1067 119.969 46.4933 119.969 46.96C119.969 47.4267 119.803 47.82 119.469 48.14C119.149 48.4467 118.743 48.6 118.249 48.6ZM119.629 49.92V61H116.829V49.92H119.629ZM125.196 51.64C125.556 51.0533 126.022 50.5933 126.596 50.26C127.182 49.9267 127.849 49.76 128.596 49.76V52.7H127.856C126.976 52.7 126.309 52.9067 125.856 53.32C125.416 53.7333 125.196 54.4533 125.196 55.48V61H122.396V49.92H125.196V51.64ZM145.847 49.92L138.987 66.24H136.007L138.407 60.72L133.967 49.92H137.107L139.967 57.66L142.867 49.92H145.847ZM146.637 55.42C146.637 54.3 146.857 53.3067 147.297 52.44C147.75 51.5733 148.357 50.9067 149.117 50.44C149.89 49.9733 150.75 49.74 151.697 49.74C152.523 49.74 153.243 49.9067 153.857 50.24C154.483 50.5733 154.983 50.9933 155.357 51.5V49.92H158.177V61H155.357V59.38C154.997 59.9 154.497 60.3333 153.857 60.68C153.23 61.0133 152.503 61.18 151.677 61.18C150.743 61.18 149.89 60.94 149.117 60.46C148.357 59.98 147.75 59.3067 147.297 58.44C146.857 57.56 146.637 56.5533 146.637 55.42ZM155.357 55.46C155.357 54.78 155.223 54.2 154.957 53.72C154.69 53.2267 154.33 52.8533 153.877 52.6C153.423 52.3333 152.937 52.2 152.417 52.2C151.897 52.2 151.417 52.3267 150.977 52.58C150.537 52.8333 150.177 53.2067 149.897 53.7C149.63 54.18 149.497 54.7533 149.497 55.42C149.497 56.0867 149.63 56.6733 149.897 57.18C150.177 57.6733 150.537 58.0533 150.977 58.32C151.43 58.5867 151.91 58.72 152.417 58.72C152.937 58.72 153.423 58.5933 153.877 58.34C154.33 58.0733 154.69 57.7 154.957 57.22C155.223 56.7267 155.357 56.14 155.357 55.46ZM163.471 58.7H168.411V61H160.291V58.74L165.131 52.22H160.311V49.92H168.351V52.18L163.471 58.7ZM173.499 49.92V61H170.699V49.92H173.499ZM179.18 46.2V61H176.38V46.2H179.18ZM184.866 49.92V61H182.066V49.92H184.866ZM201.507 49.76C202.867 49.76 203.961 50.18 204.787 51.02C205.627 51.8467 206.047 53.0067 206.047 54.5V61H203.247V54.88C203.247 54.0133 203.027 53.3533 202.587 52.9C202.147 52.4333 201.547 52.2 200.787 52.2C200.027 52.2 199.421 52.4333 198.967 52.9C198.527 53.3533 198.307 54.0133 198.307 54.88V61H195.507V54.88C195.507 54.0133 195.287 53.3533 194.847 52.9C194.407 52.4333 193.807 52.2 193.047 52.2C192.274 52.2 191.661 52.4333 191.207 52.9C190.767 53.3533 190.547 54.0133 190.547 54.88V61H187.747V49.92H190.547V51.26C190.907 50.7933 191.367 50.4267 191.927 50.16C192.501 49.8933 193.127 49.76 193.807 49.76C194.674 49.76 195.447 49.9467 196.127 50.32C196.807 50.68 197.334 51.2 197.707 51.88C198.067 51.24 198.587 50.7267 199.267 50.34C199.961 49.9533 200.707 49.76 201.507 49.76ZM218.21 58.78C219.343 58.78 220.083 58.2733 220.43 57.26H223.45C223.17 58.34 222.65 59.22 221.89 59.9C221.143 60.58 220.203 60.9867 219.07 61.12V61.9C219.803 61.9 220.417 62.0867 220.91 62.46C221.417 62.8333 221.67 63.3733 221.67 64.08C221.67 64.8 221.41 65.3533 220.89 65.74C220.383 66.1267 219.757 66.32 219.01 66.32H216.17V64.68H218.55C218.87 64.68 219.11 64.6333 219.27 64.54C219.443 64.4467 219.53 64.28 219.53 64.04C219.53 63.8 219.443 63.6333 219.27 63.54C219.11 63.46 218.87 63.42 218.55 63.42H217.31V61.12C216.403 60.9867 215.603 60.6733 214.91 60.18C214.23 59.6733 213.697 59.02 213.31 58.22C212.937 57.4067 212.75 56.4867 212.75 55.46C212.75 54.3133 212.983 53.3133 213.45 52.46C213.917 51.5933 214.563 50.9267 215.39 50.46C216.217 49.98 217.163 49.74 218.23 49.74C219.603 49.74 220.737 50.0867 221.63 50.78C222.537 51.46 223.143 52.42 223.45 53.66H220.43C220.27 53.18 219.997 52.8067 219.61 52.54C219.237 52.26 218.77 52.12 218.21 52.12C217.41 52.12 216.777 52.4133 216.31 53C215.843 53.5733 215.61 54.3933 215.61 55.46C215.61 56.5133 215.843 57.3333 216.31 57.92C216.777 58.4933 217.41 58.78 218.21 58.78ZM230.421 61.18C229.354 61.18 228.394 60.9467 227.541 60.48C226.688 60 226.014 59.3267 225.521 58.46C225.041 57.5933 224.801 56.5933 224.801 55.46C224.801 54.3267 225.048 53.3267 225.541 52.46C226.048 51.5933 226.734 50.9267 227.601 50.46C228.468 49.98 229.434 49.74 230.501 49.74C231.568 49.74 232.534 49.98 233.401 50.46C234.268 50.9267 234.948 51.5933 235.441 52.46C235.948 53.3267 236.201 54.3267 236.201 55.46C236.201 56.5933 235.941 57.5933 235.421 58.46C234.914 59.3267 234.221 60 233.341 60.48C232.474 60.9467 231.501 61.18 230.421 61.18ZM230.421 58.74C230.928 58.74 231.401 58.62 231.841 58.38C232.294 58.1267 232.654 57.7533 232.921 57.26C233.188 56.7667 233.321 56.1667 233.321 55.46C233.321 54.4067 233.041 53.6 232.481 53.04C231.934 52.4667 231.261 52.18 230.461 52.18C229.661 52.18 228.988 52.4667 228.441 53.04C227.908 53.6 227.641 54.4067 227.641 55.46C227.641 56.5133 227.901 57.3267 228.421 57.9C228.954 58.46 229.621 58.74 230.421 58.74ZM228.761 48.46C228.388 48.46 228.074 48.3333 227.821 48.08C227.568 47.8267 227.441 47.5133 227.441 47.14C227.441 46.7667 227.568 46.4533 227.821 46.2C228.074 45.9333 228.388 45.8 228.761 45.8C229.134 45.8 229.448 45.9333 229.701 46.2C229.968 46.4533 230.101 46.7667 230.101 47.14C230.101 47.5133 229.968 47.8267 229.701 48.08C229.448 48.3333 229.134 48.46 228.761 48.46ZM232.461 48.46C232.088 48.46 231.774 48.3333 231.521 48.08C231.268 47.8267 231.141 47.5133 231.141 47.14C231.141 46.7667 231.268 46.4533 231.521 46.2C231.774 45.9333 232.088 45.8 232.461 45.8C232.834 45.8 233.148 45.9333 233.401 46.2C233.668 46.4533 233.801 46.7667 233.801 47.14C233.801 47.5133 233.668 47.8267 233.401 48.08C233.148 48.3333 232.834 48.46 232.461 48.46ZM240.815 58.7H245.755V61H237.635V58.74L242.475 52.22H237.655V49.92H245.695V52.18L240.815 58.7ZM258.383 49.92V61H255.563V59.6C255.203 60.08 254.73 60.46 254.143 60.74C253.57 61.0067 252.943 61.14 252.263 61.14C251.396 61.14 250.63 60.96 249.963 60.6C249.296 60.2267 248.77 59.6867 248.383 58.98C248.01 58.26 247.823 57.4067 247.823 56.42V49.92H250.623V56.02C250.623 56.9 250.843 57.58 251.283 58.06C251.723 58.5267 252.323 58.76 253.083 58.76C253.856 58.76 254.463 58.5267 254.903 58.06C255.343 57.58 255.563 56.9 255.563 56.02V49.92H258.383ZM251.303 48.6C250.93 48.6 250.616 48.4733 250.363 48.22C250.11 47.9667 249.983 47.6533 249.983 47.28C249.983 46.9067 250.11 46.5933 250.363 46.34C250.616 46.0733 250.93 45.94 251.303 45.94C251.676 45.94 251.99 46.0733 252.243 46.34C252.51 46.5933 252.643 46.9067 252.643 47.28C252.643 47.6533 252.51 47.9667 252.243 48.22C251.99 48.4733 251.676 48.6 251.303 48.6ZM255.003 48.6C254.63 48.6 254.316 48.4733 254.063 48.22C253.81 47.9667 253.683 47.6533 253.683 47.28C253.683 46.9067 253.81 46.5933 254.063 46.34C254.316 46.0733 254.63 45.94 255.003 45.94C255.376 45.94 255.69 46.0733 255.943 46.34C256.21 46.5933 256.343 46.9067 256.343 47.28C256.343 47.6533 256.21 47.9667 255.943 48.22C255.69 48.4733 255.376 48.6 255.003 48.6ZM274.906 49.76C276.266 49.76 277.359 50.18 278.186 51.02C279.026 51.8467 279.446 53.0067 279.446 54.5V61H276.646V54.88C276.646 54.0133 276.426 53.3533 275.986 52.9C275.546 52.4333 274.946 52.2 274.186 52.2C273.426 52.2 272.819 52.4333 272.366 52.9C271.926 53.3533 271.706 54.0133 271.706 54.88V61H268.906V54.88C268.906 54.0133 268.686 53.3533 268.246 52.9C267.806 52.4333 267.206 52.2 266.446 52.2C265.672 52.2 265.059 52.4333 264.606 52.9C264.166 53.3533 263.946 54.0133 263.946 54.88V61H261.146V49.92H263.946V51.26C264.306 50.7933 264.766 50.4267 265.326 50.16C265.899 49.8933 266.526 49.76 267.206 49.76C268.072 49.76 268.846 49.9467 269.526 50.32C270.206 50.68 270.732 51.2 271.106 51.88C271.466 51.24 271.986 50.7267 272.666 50.34C273.359 49.9533 274.106 49.76 274.906 49.76ZM284.903 46.2V61H282.103V46.2H284.903ZM297.969 55.22C297.969 55.62 297.942 55.98 297.889 56.3H289.789C289.856 57.1 290.136 57.7267 290.629 58.18C291.122 58.6333 291.729 58.86 292.449 58.86C293.489 58.86 294.229 58.4133 294.669 57.52H297.689C297.369 58.5867 296.756 59.4667 295.849 60.16C294.942 60.84 293.829 61.18 292.509 61.18C291.442 61.18 290.482 60.9467 289.629 60.48C288.789 60 288.129 59.3267 287.649 58.46C287.182 57.5933 286.949 56.5933 286.949 55.46C286.949 54.3133 287.182 53.3067 287.649 52.44C288.116 51.5733 288.769 50.9067 289.609 50.44C290.449 49.9733 291.416 49.74 292.509 49.74C293.562 49.74 294.502 49.9667 295.329 50.42C296.169 50.8733 296.816 51.52 297.269 52.36C297.736 53.1867 297.969 54.14 297.969 55.22ZM295.069 54.42C295.056 53.7 294.796 53.1267 294.289 52.7C293.782 52.26 293.162 52.04 292.429 52.04C291.736 52.04 291.149 52.2533 290.669 52.68C290.202 53.0933 289.916 53.6733 289.809 54.42H295.069ZM302.813 51.64C303.173 51.0533 303.639 50.5933 304.213 50.26C304.799 49.9267 305.466 49.76 306.213 49.76V52.7H305.473C304.593 52.7 303.926 52.9067 303.473 53.32C303.033 53.7333 302.813 54.4533 302.813 55.48V61H300.013V49.92H302.813V51.64ZM309.519 48.6C309.025 48.6 308.612 48.4467 308.279 48.14C307.959 47.82 307.799 47.4267 307.799 46.96C307.799 46.4933 307.959 46.1067 308.279 45.8C308.612 45.48 309.025 45.32 309.519 45.32C310.012 45.32 310.419 45.48 310.739 45.8C311.072 46.1067 311.239 46.4933 311.239 46.96C311.239 47.4267 311.072 47.82 310.739 48.14C310.419 48.4467 310.012 48.6 309.519 48.6ZM310.899 49.92V61H308.099V49.92H310.899ZM40.66 75.42C40.66 74.3 40.88 73.3067 41.32 72.44C41.7733 71.5733 42.38 70.9067 43.14 70.44C43.9133 69.9733 44.7733 69.74 45.72 69.74C46.5467 69.74 47.2667 69.9067 47.88 70.24C48.5067 70.5733 49.0067 70.9933 49.38 71.5V69.92H52.2V81H49.38V79.38C49.02 79.9 48.52 80.3333 47.88 80.68C47.2533 81.0133 46.5267 81.18 45.7 81.18C44.7667 81.18 43.9133 80.94 43.14 80.46C42.38 79.98 41.7733 79.3067 41.32 78.44C40.88 77.56 40.66 76.5533 40.66 75.42ZM49.38 75.46C49.38 74.78 49.2467 74.2 48.98 73.72C48.7133 73.2267 48.3533 72.8533 47.9 72.6C47.4467 72.3333 46.96 72.2 46.44 72.2C45.92 72.2 45.44 72.3267 45 72.58C44.56 72.8333 44.2 73.2067 43.92 73.7C43.6533 74.18 43.52 74.7533 43.52 75.42C43.52 76.0867 43.6533 76.6733 43.92 77.18C44.2 77.6733 44.56 78.0533 45 78.32C45.4533 78.5867 45.9333 78.72 46.44 78.72C46.96 78.72 47.4467 78.5933 47.9 78.34C48.3533 78.0733 48.7133 77.7 48.98 77.22C49.2467 76.7267 49.38 76.14 49.38 75.46ZM57.7347 71.64C58.0947 71.0533 58.5614 70.5933 59.1347 70.26C59.7214 69.9267 60.388 69.76 61.1347 69.76V72.7H60.3947C59.5147 72.7 58.848 72.9067 58.3947 73.32C57.9547 73.7333 57.7347 74.4533 57.7347 75.48V81H54.9347V69.92H57.7347V71.64ZM65.9406 69.92V81H63.1406V69.92H65.9406ZM79.4214 69.92L72.5614 86.24H69.5814L71.9814 80.72L67.5414 69.92H70.6814L73.5414 77.66L76.4414 69.92H79.4214ZM85.8508 81.18C84.7841 81.18 83.8241 80.9467 82.9708 80.48C82.1174 80 81.4441 79.3267 80.9508 78.46C80.4708 77.5933 80.2308 76.5933 80.2308 75.46C80.2308 74.3267 80.4774 73.3267 80.9708 72.46C81.4774 71.5933 82.1641 70.9267 83.0308 70.46C83.8974 69.98 84.8641 69.74 85.9308 69.74C86.9974 69.74 87.9641 69.98 88.8308 70.46C89.6974 70.9267 90.3774 71.5933 90.8708 72.46C91.3774 73.3267 91.6308 74.3267 91.6308 75.46C91.6308 76.5933 91.3708 77.5933 90.8508 78.46C90.3441 79.3267 89.6508 80 88.7708 80.48C87.9041 80.9467 86.9308 81.18 85.8508 81.18ZM85.8508 78.74C86.3574 78.74 86.8308 78.62 87.2708 78.38C87.7241 78.1267 88.0841 77.7533 88.3508 77.26C88.6174 76.7667 88.7508 76.1667 88.7508 75.46C88.7508 74.4067 88.4708 73.6 87.9108 73.04C87.3641 72.4667 86.6908 72.18 85.8908 72.18C85.0908 72.18 84.4174 72.4667 83.8708 73.04C83.3374 73.6 83.0708 74.4067 83.0708 75.46C83.0708 76.5133 83.3308 77.3267 83.8508 77.9C84.3841 78.46 85.0508 78.74 85.8508 78.74ZM96.4847 71.64C96.8447 71.0533 97.3114 70.5933 97.8847 70.26C98.4714 69.9267 99.138 69.76 99.8847 69.76V72.7H99.1447C98.2647 72.7 97.598 72.9067 97.1447 73.32C96.7047 73.7333 96.4847 74.4533 96.4847 75.48V81H93.6847V69.92H96.4847V71.64ZM106.011 81.18C105.104 81.18 104.291 81.02 103.571 80.7C102.851 80.3667 102.277 79.92 101.851 79.36C101.437 78.8 101.211 78.18 101.171 77.5H103.991C104.044 77.9267 104.251 78.28 104.611 78.56C104.984 78.84 105.444 78.98 105.991 78.98C106.524 78.98 106.937 78.8733 107.231 78.66C107.537 78.4467 107.691 78.1733 107.691 77.84C107.691 77.48 107.504 77.2133 107.131 77.04C106.771 76.8533 106.191 76.6533 105.391 76.44C104.564 76.24 103.884 76.0333 103.351 75.82C102.831 75.6067 102.377 75.28 101.991 74.84C101.617 74.4 101.431 73.8067 101.431 73.06C101.431 72.4467 101.604 71.8867 101.951 71.38C102.311 70.8733 102.817 70.4733 103.471 70.18C104.137 69.8867 104.917 69.74 105.811 69.74C107.131 69.74 108.184 70.0733 108.971 70.74C109.757 71.3933 110.191 72.28 110.271 73.4H107.591C107.551 72.96 107.364 72.6133 107.031 72.36C106.711 72.0933 106.277 71.96 105.731 71.96C105.224 71.96 104.831 72.0533 104.551 72.24C104.284 72.4267 104.151 72.6867 104.151 73.02C104.151 73.3933 104.337 73.68 104.711 73.88C105.084 74.0667 105.664 74.26 106.451 74.46C107.251 74.66 107.911 74.8667 108.431 75.08C108.951 75.2933 109.397 75.6267 109.771 76.08C110.157 76.52 110.357 77.1067 110.371 77.84C110.371 78.48 110.191 79.0533 109.831 79.56C109.484 80.0667 108.977 80.4667 108.311 80.76C107.657 81.04 106.891 81.18 106.011 81.18ZM111.949 75.42C111.949 74.3 112.169 73.3067 112.609 72.44C113.062 71.5733 113.669 70.9067 114.429 70.44C115.202 69.9733 116.062 69.74 117.009 69.74C117.836 69.74 118.556 69.9067 119.169 70.24C119.796 70.5733 120.296 70.9933 120.669 71.5V69.92H123.489V81H120.669V79.38C120.309 79.9 119.809 80.3333 119.169 80.68C118.542 81.0133 117.816 81.18 116.989 81.18C116.056 81.18 115.202 80.94 114.429 80.46C113.669 79.98 113.062 79.3067 112.609 78.44C112.169 77.56 111.949 76.5533 111.949 75.42ZM120.669 75.46C120.669 74.78 120.536 74.2 120.269 73.72C120.002 73.2267 119.642 72.8533 119.189 72.6C118.736 72.3333 118.249 72.2 117.729 72.2C117.209 72.2 116.729 72.3267 116.289 72.58C115.849 72.8333 115.489 73.2067 115.209 73.7C114.942 74.18 114.809 74.7533 114.809 75.42C114.809 76.0867 114.942 76.6733 115.209 77.18C115.489 77.6733 115.849 78.0533 116.289 78.32C116.742 78.5867 117.222 78.72 117.729 78.72C118.249 78.72 118.736 78.5933 119.189 78.34C119.642 78.0733 120.002 77.7 120.269 77.22C120.536 76.7267 120.669 76.14 120.669 75.46ZM132.364 69.76C133.684 69.76 134.75 70.18 135.564 71.02C136.377 71.8467 136.784 73.0067 136.784 74.5V81H133.984V74.88C133.984 74 133.764 73.3267 133.324 72.86C132.884 72.38 132.284 72.14 131.524 72.14C130.75 72.14 130.137 72.38 129.684 72.86C129.244 73.3267 129.024 74 129.024 74.88V81H126.224V69.92H129.024V71.3C129.397 70.82 129.87 70.4467 130.444 70.18C131.03 69.9 131.67 69.76 132.364 69.76ZM142.366 69.92V81H139.566V69.92H142.366ZM147.807 78.7H152.747V81H144.627V78.74L149.467 72.22H144.647V69.92H152.687V72.18L147.807 78.7ZM157.975 78.06L155.635 83.68H153.835L155.135 78.06H157.975ZM175.219 69.92V81H172.399V79.6C172.039 80.08 171.566 80.46 170.979 80.74C170.406 81.0067 169.779 81.14 169.099 81.14C168.232 81.14 167.466 80.96 166.799 80.6C166.132 80.2267 165.606 79.6867 165.219 78.98C164.846 78.26 164.659 77.4067 164.659 76.42V69.92H167.459V76.02C167.459 76.9 167.679 77.58 168.119 78.06C168.559 78.5267 169.159 78.76 169.919 78.76C170.692 78.76 171.299 78.5267 171.739 78.06C172.179 77.58 172.399 76.9 172.399 76.02V69.92H175.219ZM180.542 78.7H185.482V81H177.362V78.74L182.202 72.22H177.382V69.92H185.422V72.18L180.542 78.7ZM201.41 69.76C202.77 69.76 203.863 70.18 204.69 71.02C205.53 71.8467 205.95 73.0067 205.95 74.5V81H203.15V74.88C203.15 74.0133 202.93 73.3533 202.49 72.9C202.05 72.4333 201.45 72.2 200.69 72.2C199.93 72.2 199.323 72.4333 198.87 72.9C198.43 73.3533 198.21 74.0133 198.21 74.88V81H195.41V74.88C195.41 74.0133 195.19 73.3533 194.75 72.9C194.31 72.4333 193.71 72.2 192.95 72.2C192.176 72.2 191.563 72.4333 191.11 72.9C190.67 73.3533 190.45 74.0133 190.45 74.88V81H187.65V69.92H190.45V71.26C190.81 70.7933 191.27 70.4267 191.83 70.16C192.403 69.8933 193.03 69.76 193.71 69.76C194.576 69.76 195.35 69.9467 196.03 70.32C196.71 70.68 197.236 71.2 197.61 71.88C197.97 71.24 198.49 70.7267 199.17 70.34C199.863 69.9533 200.61 69.76 201.41 69.76ZM207.887 75.42C207.887 74.3 208.107 73.3067 208.547 72.44C209 71.5733 209.607 70.9067 210.367 70.44C211.14 69.9733 212 69.74 212.947 69.74C213.773 69.74 214.493 69.9067 215.107 70.24C215.733 70.5733 216.233 70.9933 216.607 71.5V69.92H219.427V81H216.607V79.38C216.247 79.9 215.747 80.3333 215.107 80.68C214.48 81.0133 213.753 81.18 212.927 81.18C211.993 81.18 211.14 80.94 210.367 80.46C209.607 79.98 209 79.3067 208.547 78.44C208.107 77.56 207.887 76.5533 207.887 75.42ZM216.607 75.46C216.607 74.78 216.473 74.2 216.207 73.72C215.94 73.2267 215.58 72.8533 215.127 72.6C214.673 72.3333 214.187 72.2 213.667 72.2C213.147 72.2 212.667 72.3267 212.227 72.58C211.787 72.8333 211.427 73.2067 211.147 73.7C210.88 74.18 210.747 74.7533 210.747 75.42C210.747 76.0867 210.88 76.6733 211.147 77.18C211.427 77.6733 211.787 78.0533 212.227 78.32C212.68 78.5867 213.16 78.72 213.667 78.72C214.187 78.72 214.673 78.5933 215.127 78.34C215.58 78.0733 215.94 77.7 216.207 77.22C216.473 76.7267 216.607 76.14 216.607 75.46ZM228.301 69.76C229.621 69.76 230.688 70.18 231.501 71.02C232.315 71.8467 232.721 73.0067 232.721 74.5V81H229.921V74.88C229.921 74 229.701 73.3267 229.261 72.86C228.821 72.38 228.221 72.14 227.461 72.14C226.688 72.14 226.075 72.38 225.621 72.86C225.181 73.3267 224.961 74 224.961 74.88V81H222.161V69.92H224.961V71.3C225.335 70.82 225.808 70.4467 226.381 70.18C226.968 69.9 227.608 69.76 228.301 69.76ZM51.68 99.22C51.68 99.62 51.6533 99.98 51.6 100.3H43.5C43.5667 101.1 43.8467 101.727 44.34 102.18C44.8333 102.633 45.44 102.86 46.16 102.86C47.2 102.86 47.94 102.413 48.38 101.52H51.4C51.08 102.587 50.4667 103.467 49.56 104.16C48.6533 104.84 47.54 105.18 46.22 105.18C45.1533 105.18 44.1933 104.947 43.34 104.48C42.5 104 41.84 103.327 41.36 102.46C40.8933 101.593 40.66 100.593 40.66 99.46C40.66 98.3133 40.8933 97.3067 41.36 96.44C41.8267 95.5733 42.48 94.9067 43.32 94.44C44.16 93.9733 45.1267 93.74 46.22 93.74C47.2733 93.74 48.2133 93.9667 49.04 94.42C49.88 94.8733 50.5267 95.52 50.98 96.36C51.4467 97.1867 51.68 98.14 51.68 99.22ZM48.78 98.42C48.7667 97.7 48.5067 97.1267 48 96.7C47.4933 96.26 46.8733 96.04 46.14 96.04C45.4467 96.04 44.86 96.2533 44.38 96.68C43.9133 97.0933 43.6267 97.6733 43.52 98.42H48.78ZM60.2838 105L56.5238 100.28V105H53.7238V90.2H56.5238V98.62L60.2438 93.92H63.8838L59.0038 99.48L63.9238 105H60.2838ZM66.8234 92.6C66.3301 92.6 65.9168 92.4467 65.5834 92.14C65.2634 91.82 65.1034 91.4267 65.1034 90.96C65.1034 90.4933 65.2634 90.1067 65.5834 89.8C65.9168 89.48 66.3301 89.32 66.8234 89.32C67.3168 89.32 67.7234 89.48 68.0434 89.8C68.3768 90.1067 68.5434 90.4933 68.5434 90.96C68.5434 91.4267 68.3768 91.82 68.0434 92.14C67.7234 92.4467 67.3168 92.6 66.8234 92.6ZM68.2034 93.92V105H65.4034V93.92H68.2034ZM73.7698 95.54C74.1298 95.0067 74.6232 94.5733 75.2498 94.24C75.8898 93.9067 76.6165 93.74 77.4298 93.74C78.3765 93.74 79.2298 93.9733 79.9898 94.44C80.7632 94.9067 81.3698 95.5733 81.8098 96.44C82.2632 97.2933 82.4898 98.2867 82.4898 99.42C82.4898 100.553 82.2632 101.56 81.8098 102.44C81.3698 103.307 80.7632 103.98 79.9898 104.46C79.2298 104.94 78.3765 105.18 77.4298 105.18C76.6032 105.18 75.8765 105.02 75.2498 104.7C74.6365 104.367 74.1432 103.94 73.7698 103.42V105H70.9698V90.2H73.7698V95.54ZM79.6298 99.42C79.6298 98.7533 79.4898 98.18 79.2098 97.7C78.9432 97.2067 78.5832 96.8333 78.1298 96.58C77.6898 96.3267 77.2098 96.2 76.6898 96.2C76.1832 96.2 75.7032 96.3333 75.2498 96.6C74.8098 96.8533 74.4498 97.2267 74.1698 97.72C73.9032 98.2133 73.7698 98.7933 73.7698 99.46C73.7698 100.127 73.9032 100.707 74.1698 101.2C74.4498 101.693 74.8098 102.073 75.2498 102.34C75.7032 102.593 76.1832 102.72 76.6898 102.72C77.2098 102.72 77.6898 102.587 78.1298 102.32C78.5832 102.053 78.9432 101.673 79.2098 101.18C79.4898 100.687 79.6298 100.1 79.6298 99.42ZM85.9445 92.6C85.4512 92.6 85.0379 92.4467 84.7045 92.14C84.3845 91.82 84.2245 91.4267 84.2245 90.96C84.2245 90.4933 84.3845 90.1067 84.7045 89.8C85.0379 89.48 85.4512 89.32 85.9445 89.32C86.4379 89.32 86.8445 89.48 87.1645 89.8C87.4979 90.1067 87.6645 90.4933 87.6645 90.96C87.6645 91.4267 87.4979 91.82 87.1645 92.14C86.8445 92.4467 86.4379 92.6 85.9445 92.6ZM87.3245 93.92V105H84.5245V93.92H87.3245ZM103.851 93.76C105.211 93.76 106.304 94.18 107.131 95.02C107.971 95.8467 108.391 97.0067 108.391 98.5V105H105.591V98.88C105.591 98.0133 105.371 97.3533 104.931 96.9C104.491 96.4333 103.891 96.2 103.131 96.2C102.371 96.2 101.764 96.4333 101.311 96.9C100.871 97.3533 100.651 98.0133 100.651 98.88V105H97.8509V98.88C97.8509 98.0133 97.6309 97.3533 97.1909 96.9C96.7509 96.4333 96.1509 96.2 95.3909 96.2C94.6176 96.2 94.0043 96.4333 93.5509 96.9C93.1109 97.3533 92.8909 98.0133 92.8909 98.88V105H90.0909V93.92H92.8909V95.26C93.2509 94.7933 93.7109 94.4267 94.2709 94.16C94.8443 93.8933 95.4709 93.76 96.1509 93.76C97.0176 93.76 97.7909 93.9467 98.4709 94.32C99.1509 94.68 99.6776 95.2 100.051 95.88C100.411 95.24 100.931 94.7267 101.611 94.34C102.304 93.9533 103.051 93.76 103.851 93.76ZM112.468 92.6C111.975 92.6 111.561 92.4467 111.228 92.14C110.908 91.82 110.748 91.4267 110.748 90.96C110.748 90.4933 110.908 90.1067 111.228 89.8C111.561 89.48 111.975 89.32 112.468 89.32C112.961 89.32 113.368 89.48 113.688 89.8C114.021 90.1067 114.188 90.4933 114.188 90.96C114.188 91.4267 114.021 91.82 113.688 92.14C113.368 92.4467 112.961 92.6 112.468 92.6ZM113.848 93.92V105H111.048V93.92H113.848ZM119.174 102.7H124.114V105H115.994V102.74L120.834 96.22H116.014V93.92H124.054V96.18L119.174 102.7ZM129.082 90.2V105H126.282V90.2H129.082ZM142.149 99.22C142.149 99.62 142.122 99.98 142.069 100.3H133.969C134.035 101.1 134.315 101.727 134.809 102.18C135.302 102.633 135.909 102.86 136.629 102.86C137.669 102.86 138.409 102.413 138.849 101.52H141.869C141.549 102.587 140.935 103.467 140.029 104.16C139.122 104.84 138.009 105.18 136.689 105.18C135.622 105.18 134.662 104.947 133.809 104.48C132.969 104 132.309 103.327 131.829 102.46C131.362 101.593 131.129 100.593 131.129 99.46C131.129 98.3133 131.362 97.3067 131.829 96.44C132.295 95.5733 132.949 94.9067 133.789 94.44C134.629 93.9733 135.595 93.74 136.689 93.74C137.742 93.74 138.682 93.9667 139.509 94.42C140.349 94.8733 140.995 95.52 141.449 96.36C141.915 97.1867 142.149 98.14 142.149 99.22ZM139.249 98.42C139.235 97.7 138.975 97.1267 138.469 96.7C137.962 96.26 137.342 96.04 136.609 96.04C135.915 96.04 135.329 96.2533 134.849 96.68C134.382 97.0933 134.095 97.6733 133.989 98.42H139.249ZM150.378 92.6C149.885 92.6 149.471 92.4467 149.138 92.14C148.818 91.82 148.658 91.4267 148.658 90.96C148.658 90.4933 148.818 90.1067 149.138 89.8C149.471 89.48 149.885 89.32 150.378 89.32C150.871 89.32 151.278 89.48 151.598 89.8C151.931 90.1067 152.098 90.4933 152.098 90.96C152.098 91.4267 151.931 91.82 151.598 92.14C151.278 92.4467 150.871 92.6 150.378 92.6ZM151.758 93.92V105H148.958V93.92H151.758ZM160.765 93.76C161.605 93.76 162.351 93.9467 163.005 94.32C163.658 94.68 164.165 95.22 164.525 95.94C164.898 96.6467 165.085 97.5 165.085 98.5V105H162.285V98.88C162.285 98 162.065 97.3267 161.625 96.86C161.185 96.38 160.585 96.14 159.825 96.14C159.051 96.14 158.438 96.38 157.985 96.86C157.545 97.3267 157.325 98 157.325 98.88V105H154.525V90.2H157.325V95.3C157.685 94.82 158.165 94.4467 158.765 94.18C159.365 93.9 160.031 93.76 160.765 93.76ZM171.007 96.22V101.58C171.007 101.953 171.094 102.227 171.267 102.4C171.454 102.56 171.761 102.64 172.187 102.64H173.487V105H171.727C169.367 105 168.187 103.853 168.187 101.56V96.22H166.867V93.92H168.187V91.18H171.007V93.92H173.487V96.22H171.007ZM176.921 92.6C176.428 92.6 176.014 92.4467 175.681 92.14C175.361 91.82 175.201 91.4267 175.201 90.96C175.201 90.4933 175.361 90.1067 175.681 89.8C176.014 89.48 176.428 89.32 176.921 89.32C177.414 89.32 177.821 89.48 178.141 89.8C178.474 90.1067 178.641 90.4933 178.641 90.96C178.641 91.4267 178.474 91.82 178.141 92.14C177.821 92.4467 177.414 92.6 176.921 92.6ZM178.301 93.92V105H175.501V93.92H178.301ZM191.668 93.92L184.808 110.24H181.828L184.228 104.72L179.788 93.92H182.928L185.788 101.66L188.688 93.92H191.668ZM192.457 99.42C192.457 98.3 192.677 97.3067 193.117 96.44C193.57 95.5733 194.177 94.9067 194.937 94.44C195.71 93.9733 196.57 93.74 197.517 93.74C198.344 93.74 199.064 93.9067 199.677 94.24C200.304 94.5733 200.804 94.9933 201.177 95.5V93.92H203.997V105H201.177V103.38C200.817 103.9 200.317 104.333 199.677 104.68C199.05 105.013 198.324 105.18 197.497 105.18C196.564 105.18 195.71 104.94 194.937 104.46C194.177 103.98 193.57 103.307 193.117 102.44C192.677 101.56 192.457 100.553 192.457 99.42ZM201.177 99.46C201.177 98.78 201.044 98.2 200.777 97.72C200.51 97.2267 200.15 96.8533 199.697 96.6C199.244 96.3333 198.757 96.2 198.237 96.2C197.717 96.2 197.237 96.3267 196.797 96.58C196.357 96.8333 195.997 97.2067 195.717 97.7C195.45 98.18 195.317 98.7533 195.317 99.42C195.317 100.087 195.45 100.673 195.717 101.18C195.997 101.673 196.357 102.053 196.797 102.32C197.25 102.587 197.73 102.72 198.237 102.72C198.757 102.72 199.244 102.593 199.697 102.34C200.15 102.073 200.51 101.7 200.777 101.22C201.044 100.727 201.177 100.14 201.177 99.46ZM211.472 102.78C212.605 102.78 213.345 102.273 213.692 101.26H216.712C216.432 102.34 215.912 103.22 215.152 103.9C214.405 104.58 213.465 104.987 212.332 105.12V105.9C213.065 105.9 213.678 106.087 214.172 106.46C214.678 106.833 214.932 107.373 214.932 108.08C214.932 108.8 214.672 109.353 214.152 109.74C213.645 110.127 213.018 110.32 212.272 110.32H209.432V108.68H211.812C212.132 108.68 212.372 108.633 212.532 108.54C212.705 108.447 212.792 108.28 212.792 108.04C212.792 107.8 212.705 107.633 212.532 107.54C212.372 107.46 212.132 107.42 211.812 107.42H210.572V105.12C209.665 104.987 208.865 104.673 208.172 104.18C207.492 103.673 206.958 103.02 206.572 102.22C206.198 101.407 206.012 100.487 206.012 99.46C206.012 98.3133 206.245 97.3133 206.712 96.46C207.178 95.5933 207.825 94.9267 208.652 94.46C209.478 93.98 210.425 93.74 211.492 93.74C212.865 93.74 213.998 94.0867 214.892 94.78C215.798 95.46 216.405 96.42 216.712 97.66H213.692C213.532 97.18 213.258 96.8067 212.872 96.54C212.498 96.26 212.032 96.12 211.472 96.12C210.672 96.12 210.038 96.4133 209.572 97C209.105 97.5733 208.872 98.3933 208.872 99.46C208.872 100.513 209.105 101.333 209.572 101.92C210.038 102.493 210.672 102.78 211.472 102.78ZM221.563 90.2V105H218.763V90.2H221.563ZM223.609 99.42C223.609 98.3 223.829 97.3067 224.269 96.44C224.723 95.5733 225.329 94.9067 226.089 94.44C226.863 93.9733 227.723 93.74 228.669 93.74C229.496 93.74 230.216 93.9067 230.829 94.24C231.456 94.5733 231.956 94.9933 232.329 95.5V93.92H235.149V105H232.329V103.38C231.969 103.9 231.469 104.333 230.829 104.68C230.203 105.013 229.476 105.18 228.649 105.18C227.716 105.18 226.863 104.94 226.089 104.46C225.329 103.98 224.723 103.307 224.269 102.44C223.829 101.56 223.609 100.553 223.609 99.42ZM232.329 99.46C232.329 98.78 232.196 98.2 231.929 97.72C231.663 97.2267 231.303 96.8533 230.849 96.6C230.396 96.3333 229.909 96.2 229.389 96.2C228.869 96.2 228.389 96.3267 227.949 96.58C227.509 96.8333 227.149 97.2067 226.869 97.7C226.603 98.18 226.469 98.7533 226.469 99.42C226.469 100.087 226.603 100.673 226.869 101.18C227.149 101.673 227.509 102.053 227.949 102.32C228.403 102.587 228.883 102.72 229.389 102.72C229.909 102.72 230.396 102.593 230.849 102.34C231.303 102.073 231.663 101.7 231.929 101.22C232.196 100.727 232.329 100.14 232.329 99.46ZM240.684 95.64C241.044 95.0533 241.511 94.5933 242.084 94.26C242.671 93.9267 243.337 93.76 244.084 93.76V96.7H243.344C242.464 96.7 241.797 96.9067 241.344 97.32C240.904 97.7333 240.684 98.4533 240.684 99.48V105H237.884V93.92H240.684V95.64ZM248.89 93.92V105H246.09V93.92H248.89ZM257.911 93.76C259.231 93.76 260.297 94.18 261.111 95.02C261.924 95.8467 262.331 97.0067 262.331 98.5V105H259.531V98.88C259.531 98 259.311 97.3267 258.871 96.86C258.431 96.38 257.831 96.14 257.071 96.14C256.297 96.14 255.684 96.38 255.231 96.86C254.791 97.3267 254.571 98 254.571 98.88V105H251.771V93.92H254.571V95.3C254.944 94.82 255.417 94.4467 255.991 94.18C256.577 93.9 257.217 93.76 257.911 93.76ZM267.913 93.92V105H265.113V93.92H267.913ZM273.354 102.7H278.294V105H270.174V102.74L275.014 96.22H270.194V93.92H278.234V96.18L273.354 102.7ZM279.742 99.42C279.742 98.3 279.962 97.3067 280.402 96.44C280.855 95.5733 281.462 94.9067 282.222 94.44C282.995 93.9733 283.855 93.74 284.802 93.74C285.629 93.74 286.349 93.9067 286.962 94.24C287.589 94.5733 288.089 94.9933 288.462 95.5V93.92H291.282V105H288.462V103.38C288.102 103.9 287.602 104.333 286.962 104.68C286.335 105.013 285.609 105.18 284.782 105.18C283.849 105.18 282.995 104.94 282.222 104.46C281.462 103.98 280.855 103.307 280.402 102.44C279.962 101.56 279.742 100.553 279.742 99.42ZM288.462 99.46C288.462 98.78 288.329 98.2 288.062 97.72C287.795 97.2267 287.435 96.8533 286.982 96.6C286.529 96.3333 286.042 96.2 285.522 96.2C285.002 96.2 284.522 96.3267 284.082 96.58C283.642 96.8333 283.282 97.2067 283.002 97.7C282.735 98.18 282.602 98.7533 282.602 99.42C282.602 100.087 282.735 100.673 283.002 101.18C283.282 101.673 283.642 102.053 284.082 102.32C284.535 102.587 285.015 102.72 285.522 102.72C286.042 102.72 286.529 102.593 286.982 102.34C287.435 102.073 287.795 101.7 288.062 101.22C288.329 100.727 288.462 100.14 288.462 99.46ZM309.382 93.92L302.522 110.24H299.542L301.942 104.72L297.502 93.92H300.642L303.502 101.66L306.402 93.92H309.382ZM315.812 105.18C314.745 105.18 313.785 104.947 312.932 104.48C312.078 104 311.405 103.327 310.912 102.46C310.432 101.593 310.192 100.593 310.192 99.46C310.192 98.3267 310.438 97.3267 310.932 96.46C311.438 95.5933 312.125 94.9267 312.992 94.46C313.858 93.98 314.825 93.74 315.892 93.74C316.958 93.74 317.925 93.98 318.792 94.46C319.658 94.9267 320.338 95.5933 320.832 96.46C321.338 97.3267 321.592 98.3267 321.592 99.46C321.592 100.593 321.332 101.593 320.812 102.46C320.305 103.327 319.612 104 318.732 104.48C317.865 104.947 316.892 105.18 315.812 105.18ZM315.812 102.74C316.318 102.74 316.792 102.62 317.232 102.38C317.685 102.127 318.045 101.753 318.312 101.26C318.578 100.767 318.712 100.167 318.712 99.46C318.712 98.4067 318.432 97.6 317.872 97.04C317.325 96.4667 316.652 96.18 315.852 96.18C315.052 96.18 314.378 96.4667 313.832 97.04C313.298 97.6 313.032 98.4067 313.032 99.46C313.032 100.513 313.292 101.327 313.812 101.9C314.345 102.46 315.012 102.74 315.812 102.74ZM314.152 92.46C313.778 92.46 313.465 92.3333 313.212 92.08C312.958 91.8267 312.832 91.5133 312.832 91.14C312.832 90.7667 312.958 90.4533 313.212 90.2C313.465 89.9333 313.778 89.8 314.152 89.8C314.525 89.8 314.838 89.9333 315.092 90.2C315.358 90.4533 315.492 90.7667 315.492 91.14C315.492 91.5133 315.358 91.8267 315.092 92.08C314.838 92.3333 314.525 92.46 314.152 92.46ZM317.852 92.46C317.478 92.46 317.165 92.3333 316.912 92.08C316.658 91.8267 316.532 91.5133 316.532 91.14C316.532 90.7667 316.658 90.4533 316.912 90.2C317.165 89.9333 317.478 89.8 317.852 89.8C318.225 89.8 318.538 89.9333 318.792 90.2C319.058 90.4533 319.192 90.7667 319.192 91.14C319.192 91.5133 319.058 91.8267 318.792 92.08C318.538 92.3333 318.225 92.46 317.852 92.46ZM329.786 93.76C331.106 93.76 332.172 94.18 332.986 95.02C333.799 95.8467 334.206 97.0067 334.206 98.5V105H331.406V98.88C331.406 98 331.186 97.3267 330.746 96.86C330.306 96.38 329.706 96.14 328.946 96.14C328.172 96.14 327.559 96.38 327.106 96.86C326.666 97.3267 326.446 98 326.446 98.88V105H323.646V93.92H326.446V95.3C326.819 94.82 327.292 94.4467 327.866 94.18C328.452 93.9 329.092 93.76 329.786 93.76ZM347.168 99.22C347.168 99.62 347.142 99.98 347.088 100.3H338.988C339.055 101.1 339.335 101.727 339.828 102.18C340.322 102.633 340.928 102.86 341.648 102.86C342.688 102.86 343.428 102.413 343.868 101.52H346.888C346.568 102.587 345.955 103.467 345.048 104.16C344.142 104.84 343.028 105.18 341.708 105.18C340.642 105.18 339.682 104.947 338.828 104.48C337.988 104 337.328 103.327 336.848 102.46C336.382 101.593 336.148 100.593 336.148 99.46C336.148 98.3133 336.382 97.3067 336.848 96.44C337.315 95.5733 337.968 94.9067 338.808 94.44C339.648 93.9733 340.615 93.74 341.708 93.74C342.762 93.74 343.702 93.9667 344.528 94.42C345.368 94.8733 346.015 95.52 346.468 96.36C346.935 97.1867 347.168 98.14 347.168 99.22ZM344.268 98.42C344.255 97.7 343.995 97.1267 343.488 96.7C342.982 96.26 342.362 96.04 341.628 96.04C340.935 96.04 340.348 96.2533 339.868 96.68C339.402 97.0933 339.115 97.6733 339.008 98.42H344.268ZM352.012 90.2V105H349.212V90.2H352.012ZM356.198 92.6C355.705 92.6 355.292 92.4467 354.958 92.14C354.638 91.82 354.478 91.4267 354.478 90.96C354.478 90.4933 354.638 90.1067 354.958 89.8C355.292 89.48 355.705 89.32 356.198 89.32C356.692 89.32 357.098 89.48 357.418 89.8C357.752 90.1067 357.918 90.4933 357.918 90.96C357.918 91.4267 357.752 91.82 357.418 92.14C357.098 92.4467 356.692 92.6 356.198 92.6ZM357.578 93.92V105H354.778V93.92H357.578ZM366.905 105L363.145 100.28V105H360.345V90.2H363.145V98.62L366.865 93.92H370.505L365.625 99.48L370.545 105H366.905ZM51.98 113.92L45.12 130.24H42.14L44.54 124.72L40.1 113.92H43.24L46.1 121.66L49 113.92H51.98ZM63.7894 119.22C63.7894 119.62 63.7627 119.98 63.7094 120.3H55.6094C55.676 121.1 55.956 121.727 56.4494 122.18C56.9427 122.633 57.5494 122.86 58.2694 122.86C59.3094 122.86 60.0494 122.413 60.4894 121.52H63.5094C63.1894 122.587 62.576 123.467 61.6694 124.16C60.7627 124.84 59.6494 125.18 58.3294 125.18C57.2627 125.18 56.3027 124.947 55.4494 124.48C54.6094 124 53.9494 123.327 53.4694 122.46C53.0027 121.593 52.7694 120.593 52.7694 119.46C52.7694 118.313 53.0027 117.307 53.4694 116.44C53.936 115.573 54.5894 114.907 55.4294 114.44C56.2694 113.973 57.236 113.74 58.3294 113.74C59.3827 113.74 60.3227 113.967 61.1494 114.42C61.9894 114.873 62.636 115.52 63.0894 116.36C63.556 117.187 63.7894 118.14 63.7894 119.22ZM60.8894 118.42C60.876 117.7 60.616 117.127 60.1094 116.7C59.6027 116.26 58.9827 116.04 58.2494 116.04C57.556 116.04 56.9694 116.253 56.4894 116.68C56.0227 117.093 55.736 117.673 55.6294 118.42H60.8894ZM71.9731 113.76C73.2931 113.76 74.3598 114.18 75.1731 115.02C75.9865 115.847 76.3931 117.007 76.3931 118.5V125H73.5931V118.88C73.5931 118 73.3731 117.327 72.9331 116.86C72.4931 116.38 71.8931 116.14 71.1331 116.14C70.3598 116.14 69.7465 116.38 69.2931 116.86C68.8531 117.327 68.6331 118 68.6331 118.88V125H65.8331V113.92H68.6331V115.3C69.0065 114.82 69.4798 114.447 70.0531 114.18C70.6398 113.9 71.2798 113.76 71.9731 113.76ZM80.4758 112.6C79.9824 112.6 79.5691 112.447 79.2358 112.14C78.9158 111.82 78.7558 111.427 78.7558 110.96C78.7558 110.493 78.9158 110.107 79.2358 109.8C79.5691 109.48 79.9824 109.32 80.4758 109.32C80.9691 109.32 81.3758 109.48 81.6958 109.8C82.0291 110.107 82.1958 110.493 82.1958 110.96C82.1958 111.427 82.0291 111.82 81.6958 112.14C81.3758 112.447 80.9691 112.6 80.4758 112.6ZM81.8558 113.92V125H79.0558V113.92H81.8558ZM87.4222 110.2V125H84.6222V110.2H87.4222ZM91.6086 112.6C91.1153 112.6 90.7019 112.447 90.3686 112.14C90.0486 111.82 89.8886 111.427 89.8886 110.96C89.8886 110.493 90.0486 110.107 90.3686 109.8C90.7019 109.48 91.1153 109.32 91.6086 109.32C92.1019 109.32 92.5086 109.48 92.8286 109.8C93.1619 110.107 93.3286 110.493 93.3286 110.96C93.3286 111.427 93.1619 111.82 92.8286 112.14C92.5086 112.447 92.1019 112.6 91.6086 112.6ZM92.9886 113.92V125H90.1886V113.92H92.9886ZM102.315 125L98.555 120.28V125H95.755V110.2H98.555V118.62L102.275 113.92H105.915L101.035 119.48L105.955 125H102.315ZM112.175 122.78C113.308 122.78 114.048 122.273 114.395 121.26H117.415C117.135 122.34 116.615 123.22 115.855 123.9C115.108 124.58 114.168 124.987 113.035 125.12V125.9C113.768 125.9 114.381 126.087 114.875 126.46C115.381 126.833 115.635 127.373 115.635 128.08C115.635 128.8 115.375 129.353 114.855 129.74C114.348 130.127 113.721 130.32 112.975 130.32H110.135V128.68H112.515C112.835 128.68 113.075 128.633 113.235 128.54C113.408 128.447 113.495 128.28 113.495 128.04C113.495 127.8 113.408 127.633 113.235 127.54C113.075 127.46 112.835 127.42 112.515 127.42H111.275V125.12C110.368 124.987 109.568 124.673 108.875 124.18C108.195 123.673 107.661 123.02 107.275 122.22C106.901 121.407 106.715 120.487 106.715 119.46C106.715 118.313 106.948 117.313 107.415 116.46C107.881 115.593 108.528 114.927 109.355 114.46C110.181 113.98 111.128 113.74 112.195 113.74C113.568 113.74 114.701 114.087 115.595 114.78C116.501 115.46 117.108 116.42 117.415 117.66H114.395C114.235 117.18 113.961 116.807 113.575 116.54C113.201 116.26 112.735 116.12 112.175 116.12C111.375 116.12 110.741 116.413 110.275 117C109.808 117.573 109.575 118.393 109.575 119.46C109.575 120.513 109.808 121.333 110.275 121.92C110.741 122.493 111.375 122.78 112.175 122.78ZM120.886 112.6C120.393 112.6 119.979 112.447 119.646 112.14C119.326 111.82 119.166 111.427 119.166 110.96C119.166 110.493 119.326 110.107 119.646 109.8C119.979 109.48 120.393 109.32 120.886 109.32C121.379 109.32 121.786 109.48 122.106 109.8C122.439 110.107 122.606 110.493 122.606 110.96C122.606 111.427 122.439 111.82 122.106 112.14C121.786 112.447 121.379 112.6 120.886 112.6ZM122.266 113.92V125H119.466V113.92H122.266ZM134.538 122.78C135.671 122.78 136.411 122.273 136.758 121.26H139.778C139.498 122.34 138.978 123.22 138.218 123.9C137.471 124.58 136.531 124.987 135.398 125.12V125.9C136.131 125.9 136.745 126.087 137.238 126.46C137.745 126.833 137.998 127.373 137.998 128.08C137.998 128.8 137.738 129.353 137.218 129.74C136.711 130.127 136.085 130.32 135.338 130.32H132.498V128.68H134.878C135.198 128.68 135.438 128.633 135.598 128.54C135.771 128.447 135.858 128.28 135.858 128.04C135.858 127.8 135.771 127.633 135.598 127.54C135.438 127.46 135.198 127.42 134.878 127.42H133.638V125.12C132.731 124.987 131.931 124.673 131.238 124.18C130.558 123.673 130.025 123.02 129.638 122.22C129.265 121.407 129.078 120.487 129.078 119.46C129.078 118.313 129.311 117.313 129.778 116.46C130.245 115.593 130.891 114.927 131.718 114.46C132.545 113.98 133.491 113.74 134.558 113.74C135.931 113.74 137.065 114.087 137.958 114.78C138.865 115.46 139.471 116.42 139.778 117.66H136.758C136.598 117.18 136.325 116.807 135.938 116.54C135.565 116.26 135.098 116.12 134.538 116.12C133.738 116.12 133.105 116.413 132.638 117C132.171 117.573 131.938 118.393 131.938 119.46C131.938 120.513 132.171 121.333 132.638 121.92C133.105 122.493 133.738 122.78 134.538 122.78ZM146.749 125.18C145.683 125.18 144.723 124.947 143.869 124.48C143.016 124 142.343 123.327 141.849 122.46C141.369 121.593 141.129 120.593 141.129 119.46C141.129 118.327 141.376 117.327 141.869 116.46C142.376 115.593 143.063 114.927 143.929 114.46C144.796 113.98 145.763 113.74 146.829 113.74C147.896 113.74 148.863 113.98 149.729 114.46C150.596 114.927 151.276 115.593 151.769 116.46C152.276 117.327 152.529 118.327 152.529 119.46C152.529 120.593 152.269 121.593 151.749 122.46C151.243 123.327 150.549 124 149.669 124.48C148.803 124.947 147.829 125.18 146.749 125.18ZM146.749 122.74C147.256 122.74 147.729 122.62 148.169 122.38C148.623 122.127 148.983 121.753 149.249 121.26C149.516 120.767 149.649 120.167 149.649 119.46C149.649 118.407 149.369 117.6 148.809 117.04C148.263 116.467 147.589 116.18 146.789 116.18C145.989 116.18 145.316 116.467 144.769 117.04C144.236 117.6 143.969 118.407 143.969 119.46C143.969 120.513 144.229 121.327 144.749 121.9C145.283 122.46 145.949 122.74 146.749 122.74ZM145.089 112.46C144.716 112.46 144.403 112.333 144.149 112.08C143.896 111.827 143.769 111.513 143.769 111.14C143.769 110.767 143.896 110.453 144.149 110.2C144.403 109.933 144.716 109.8 145.089 109.8C145.463 109.8 145.776 109.933 146.029 110.2C146.296 110.453 146.429 110.767 146.429 111.14C146.429 111.513 146.296 111.827 146.029 112.08C145.776 112.333 145.463 112.46 145.089 112.46ZM148.789 112.46C148.416 112.46 148.103 112.333 147.849 112.08C147.596 111.827 147.469 111.513 147.469 111.14C147.469 110.767 147.596 110.453 147.849 110.2C148.103 109.933 148.416 109.8 148.789 109.8C149.163 109.8 149.476 109.933 149.729 110.2C149.996 110.453 150.129 110.767 150.129 111.14C150.129 111.513 149.996 111.827 149.729 112.08C149.476 112.333 149.163 112.46 148.789 112.46ZM157.143 122.7H162.083V125H153.963V122.74L158.803 116.22H153.983V113.92H162.023V116.18L157.143 122.7ZM174.711 113.92V125H171.891V123.6C171.531 124.08 171.058 124.46 170.471 124.74C169.898 125.007 169.271 125.14 168.591 125.14C167.724 125.14 166.958 124.96 166.291 124.6C165.624 124.227 165.098 123.687 164.711 122.98C164.338 122.26 164.151 121.407 164.151 120.42V113.92H166.951V120.02C166.951 120.9 167.171 121.58 167.611 122.06C168.051 122.527 168.651 122.76 169.411 122.76C170.184 122.76 170.791 122.527 171.231 122.06C171.671 121.58 171.891 120.9 171.891 120.02V113.92H174.711ZM167.631 112.6C167.258 112.6 166.944 112.473 166.691 112.22C166.438 111.967 166.311 111.653 166.311 111.28C166.311 110.907 166.438 110.593 166.691 110.34C166.944 110.073 167.258 109.94 167.631 109.94C168.004 109.94 168.318 110.073 168.571 110.34C168.838 110.593 168.971 110.907 168.971 111.28C168.971 111.653 168.838 111.967 168.571 112.22C168.318 112.473 168.004 112.6 167.631 112.6ZM171.331 112.6C170.958 112.6 170.644 112.473 170.391 112.22C170.138 111.967 170.011 111.653 170.011 111.28C170.011 110.907 170.138 110.593 170.391 110.34C170.644 110.073 170.958 109.94 171.331 109.94C171.704 109.94 172.018 110.073 172.271 110.34C172.538 110.593 172.671 110.907 172.671 111.28C172.671 111.653 172.538 111.967 172.271 112.22C172.018 112.473 171.704 112.6 171.331 112.6ZM191.234 113.76C192.594 113.76 193.687 114.18 194.514 115.02C195.354 115.847 195.774 117.007 195.774 118.5V125H192.974V118.88C192.974 118.013 192.754 117.353 192.314 116.9C191.874 116.433 191.274 116.2 190.514 116.2C189.754 116.2 189.147 116.433 188.694 116.9C188.254 117.353 188.034 118.013 188.034 118.88V125H185.234V118.88C185.234 118.013 185.014 117.353 184.574 116.9C184.134 116.433 183.534 116.2 182.774 116.2C182 116.2 181.387 116.433 180.934 116.9C180.494 117.353 180.274 118.013 180.274 118.88V125H177.474V113.92H180.274V115.26C180.634 114.793 181.094 114.427 181.654 114.16C182.227 113.893 182.854 113.76 183.534 113.76C184.4 113.76 185.174 113.947 185.854 114.32C186.534 114.68 187.06 115.2 187.434 115.88C187.794 115.24 188.314 114.727 188.994 114.34C189.687 113.953 190.434 113.76 191.234 113.76ZM201.231 110.2V125H198.431V110.2H201.231ZM214.297 119.22C214.297 119.62 214.271 119.98 214.217 120.3H206.117C206.184 121.1 206.464 121.727 206.957 122.18C207.451 122.633 208.057 122.86 208.777 122.86C209.817 122.86 210.557 122.413 210.997 121.52H214.017C213.697 122.587 213.084 123.467 212.177 124.16C211.271 124.84 210.157 125.18 208.837 125.18C207.771 125.18 206.811 124.947 205.957 124.48C205.117 124 204.457 123.327 203.977 122.46C203.511 121.593 203.277 120.593 203.277 119.46C203.277 118.313 203.511 117.307 203.977 116.44C204.444 115.573 205.097 114.907 205.937 114.44C206.777 113.973 207.744 113.74 208.837 113.74C209.891 113.74 210.831 113.967 211.657 114.42C212.497 114.873 213.144 115.52 213.597 116.36C214.064 117.187 214.297 118.14 214.297 119.22ZM211.397 118.42C211.384 117.7 211.124 117.127 210.617 116.7C210.111 116.26 209.491 116.04 208.757 116.04C208.064 116.04 207.477 116.253 206.997 116.68C206.531 117.093 206.244 117.673 206.137 118.42H211.397ZM219.141 115.64C219.501 115.053 219.968 114.593 220.541 114.26C221.128 113.927 221.794 113.76 222.541 113.76V116.7H221.801C220.921 116.7 220.254 116.907 219.801 117.32C219.361 117.733 219.141 118.453 219.141 119.48V125H216.341V113.92H219.141V115.64ZM233.433 125.18C232.526 125.18 231.713 125.02 230.993 124.7C230.273 124.367 229.699 123.92 229.273 123.36C228.859 122.8 228.633 122.18 228.593 121.5H231.413C231.466 121.927 231.673 122.28 232.033 122.56C232.406 122.84 232.866 122.98 233.413 122.98C233.946 122.98 234.359 122.873 234.653 122.66C234.959 122.447 235.113 122.173 235.113 121.84C235.113 121.48 234.926 121.213 234.553 121.04C234.193 120.853 233.613 120.653 232.812 120.44C231.986 120.24 231.306 120.033 230.773 119.82C230.253 119.607 229.799 119.28 229.413 118.84C229.039 118.4 228.853 117.807 228.853 117.06C228.853 116.447 229.026 115.887 229.373 115.38C229.733 114.873 230.239 114.473 230.893 114.18C231.559 113.887 232.339 113.74 233.233 113.74C234.553 113.74 235.606 114.073 236.393 114.74C237.179 115.393 237.613 116.28 237.693 117.4H235.013C234.973 116.96 234.786 116.613 234.453 116.36C234.133 116.093 233.699 115.96 233.153 115.96C232.646 115.96 232.253 116.053 231.973 116.24C231.706 116.427 231.573 116.687 231.573 117.02C231.573 117.393 231.759 117.68 232.133 117.88C232.506 118.067 233.086 118.26 233.873 118.46C234.673 118.66 235.333 118.867 235.853 119.08C236.373 119.293 236.819 119.627 237.193 120.08C237.579 120.52 237.779 121.107 237.793 121.84C237.793 122.48 237.613 123.053 237.253 123.56C236.906 124.067 236.399 124.467 235.733 124.76C235.079 125.04 234.313 125.18 233.433 125.18ZM250.551 113.92V125H247.731V123.6C247.371 124.08 246.898 124.46 246.311 124.74C245.738 125.007 245.111 125.14 244.431 125.14C243.564 125.14 242.798 124.96 242.131 124.6C241.464 124.227 240.938 123.687 240.551 122.98C240.178 122.26 239.991 121.407 239.991 120.42V113.92H242.791V120.02C242.791 120.9 243.011 121.58 243.451 122.06C243.891 122.527 244.491 122.76 245.251 122.76C246.024 122.76 246.631 122.527 247.071 122.06C247.511 121.58 247.731 120.9 247.731 120.02V113.92H250.551ZM259.454 113.76C260.774 113.76 261.84 114.18 262.654 115.02C263.467 115.847 263.874 117.007 263.874 118.5V125H261.074V118.88C261.074 118 260.854 117.327 260.414 116.86C259.974 116.38 259.374 116.14 258.614 116.14C257.84 116.14 257.227 116.38 256.774 116.86C256.334 117.327 256.114 118 256.114 118.88V125H253.314V113.92H256.114V115.3C256.487 114.82 256.96 114.447 257.534 114.18C258.12 113.9 258.76 113.76 259.454 113.76ZM280.296 113.76C281.656 113.76 282.75 114.18 283.576 115.02C284.416 115.847 284.836 117.007 284.836 118.5V125H282.036V118.88C282.036 118.013 281.816 117.353 281.376 116.9C280.936 116.433 280.336 116.2 279.576 116.2C278.816 116.2 278.21 116.433 277.756 116.9C277.316 117.353 277.096 118.013 277.096 118.88V125H274.296V118.88C274.296 118.013 274.076 117.353 273.636 116.9C273.196 116.433 272.596 116.2 271.836 116.2C271.063 116.2 270.45 116.433 269.996 116.9C269.556 117.353 269.336 118.013 269.336 118.88V125H266.536V113.92H269.336V115.26C269.696 114.793 270.156 114.427 270.716 114.16C271.29 113.893 271.916 113.76 272.596 113.76C273.463 113.76 274.236 113.947 274.916 114.32C275.596 114.68 276.123 115.2 276.496 115.88C276.856 115.24 277.376 114.727 278.056 114.34C278.75 113.953 279.496 113.76 280.296 113.76ZM286.773 119.42C286.773 118.3 286.993 117.307 287.433 116.44C287.887 115.573 288.493 114.907 289.253 114.44C290.027 113.973 290.887 113.74 291.833 113.74C292.66 113.74 293.38 113.907 293.993 114.24C294.62 114.573 295.12 114.993 295.493 115.5V113.92H298.313V125H295.493V123.38C295.133 123.9 294.633 124.333 293.993 124.68C293.367 125.013 292.64 125.18 291.813 125.18C290.88 125.18 290.027 124.94 289.253 124.46C288.493 123.98 287.887 123.307 287.433 122.44C286.993 121.56 286.773 120.553 286.773 119.42ZM295.493 119.46C295.493 118.78 295.36 118.2 295.093 117.72C294.827 117.227 294.467 116.853 294.013 116.6C293.56 116.333 293.073 116.2 292.553 116.2C292.033 116.2 291.553 116.327 291.113 116.58C290.673 116.833 290.313 117.207 290.033 117.7C289.767 118.18 289.633 118.753 289.633 119.42C289.633 120.087 289.767 120.673 290.033 121.18C290.313 121.673 290.673 122.053 291.113 122.32C291.567 122.587 292.047 122.72 292.553 122.72C293.073 122.72 293.56 122.593 294.013 122.34C294.467 122.073 294.827 121.7 295.093 121.22C295.36 120.727 295.493 120.14 295.493 119.46ZM307.608 125L303.848 120.28V125H301.048V110.2H303.848V118.62L307.568 113.92H311.208L306.328 119.48L311.248 125H307.608ZM315.988 116.22V121.58C315.988 121.953 316.074 122.227 316.248 122.4C316.434 122.56 316.741 122.64 317.168 122.64H318.468V125H316.708C314.348 125 313.168 123.853 313.168 121.56V116.22H311.848V113.92H313.168V111.18H315.988V113.92H318.468V116.22H315.988ZM319.762 119.42C319.762 118.3 319.982 117.307 320.422 116.44C320.875 115.573 321.482 114.907 322.242 114.44C323.015 113.973 323.875 113.74 324.822 113.74C325.648 113.74 326.368 113.907 326.982 114.24C327.608 114.573 328.108 114.993 328.482 115.5V113.92H331.302V125H328.482V123.38C328.122 123.9 327.622 124.333 326.982 124.68C326.355 125.013 325.628 125.18 324.802 125.18C323.868 125.18 323.015 124.94 322.242 124.46C321.482 123.98 320.875 123.307 320.422 122.44C319.982 121.56 319.762 120.553 319.762 119.42ZM328.482 119.46C328.482 118.78 328.348 118.2 328.082 117.72C327.815 117.227 327.455 116.853 327.002 116.6C326.548 116.333 326.062 116.2 325.542 116.2C325.022 116.2 324.542 116.327 324.102 116.58C323.662 116.833 323.302 117.207 323.022 117.7C322.755 118.18 322.622 118.753 322.622 119.42C322.622 120.087 322.755 120.673 323.022 121.18C323.302 121.673 323.662 122.053 324.102 122.32C324.555 122.587 325.035 122.72 325.542 122.72C326.062 122.72 326.548 122.593 327.002 122.34C327.455 122.073 327.815 121.7 328.082 121.22C328.348 120.727 328.482 120.14 328.482 119.46ZM344.636 113.92L337.776 130.24H334.796L337.196 124.72L332.756 113.92H335.896L338.756 121.66L341.656 113.92H344.636ZM349.066 113.92V125H346.266V113.92H349.066ZM354.506 122.7H359.446V125H351.326V122.74L356.166 116.22H351.346V113.92H359.386V116.18L354.506 122.7ZM362.854 125.14C362.348 125.14 361.928 124.987 361.594 124.68C361.274 124.36 361.114 123.967 361.114 123.5C361.114 123.033 361.274 122.647 361.594 122.34C361.928 122.02 362.348 121.86 362.854 121.86C363.348 121.86 363.754 122.02 364.074 122.34C364.394 122.647 364.554 123.033 364.554 123.5C364.554 123.967 364.394 124.36 364.074 124.68C363.754 124.987 363.348 125.14 362.854 125.14Z" fill="white"/>
<path d="M482.394 16.9369V12.8708H459.159V16.9369V30.3073V31.5264C460.097 32.7599 461.258 33.8429 462.603 34.7124C464.909 36.2108 467.731 37.0962 470.777 37.0962C475.59 37.0962 479.847 34.894 482.394 31.5264V30.3073V16.9369Z" fill="#656D78"/>
<path d="M470.796 41.6216C460.271 41.6216 451.709 33.8142 451.709 24.2162C451.709 23.7977 452.08 23.4595 452.539 23.4595C452.998 23.4595 453.369 23.7977 453.369 24.2162C453.369 32.9787 461.187 40.1081 470.796 40.1081C471.255 40.1081 471.626 40.4464 471.626 40.8649C471.626 41.2834 471.255 41.6216 470.796 41.6216Z" fill="#CCD1D9"/>
<path d="M489.052 24.973C488.593 24.973 488.222 24.6347 488.222 24.2162C488.222 15.4537 480.404 8.32431 470.796 8.32431C470.337 8.32431 469.966 7.98604 469.966 7.56755C469.966 7.14906 470.337 6.81079 470.796 6.81079C481.32 6.81079 489.882 14.6183 489.882 24.2162C489.882 24.6347 489.511 24.973 489.052 24.973Z" fill="#CCD1D9"/>
<path d="M479.923 9.84387L482.413 12.8709H459.177L461.667 9.84387H479.923Z" fill="#545C66"/>
<path d="M470.795 37.0796C467.749 37.0796 464.928 36.1942 462.621 34.6958C461.277 33.8263 460.114 32.7434 459.177 31.5098V31.0331H482.413V31.5098C479.865 34.8774 475.608 37.0796 470.795 37.0796Z" fill="#545C66"/>
<path d="M482.413 18.9249H459.177V24.979H482.413V18.9249Z" fill="#545C66"/>
<path d="M479.95 16.6547C479.491 16.6547 479.116 16.3165 479.116 15.898C479.116 15.4795 479.483 15.1412 479.941 15.1412H479.95C480.408 15.1412 480.78 15.4795 480.78 15.898C480.78 16.3165 480.408 16.6547 479.95 16.6547Z" fill="#5D9CEC"/>
<path d="M462.477 17.4281C462.265 17.4281 462.053 17.3539 461.891 17.2064C461.566 16.9105 461.566 16.4322 461.891 16.1363L463.55 14.6228C463.875 14.3269 464.399 14.3269 464.724 14.6228C465.048 14.9187 465.048 15.397 464.724 15.6929L463.064 17.2064C462.901 17.3547 462.689 17.4281 462.477 17.4281Z" fill="#545C66"/>
<path d="M466.645 17.4115C466.432 17.4115 466.22 17.3373 466.058 17.1898C465.734 16.8939 465.734 16.4156 466.058 16.1197L467.718 14.6062C468.042 14.3103 468.567 14.3103 468.891 14.6062C469.216 14.9021 469.216 15.3804 468.891 15.6763L467.232 17.1898C467.07 17.3373 466.857 17.4115 466.645 17.4115Z" fill="#545C66"/>
<path d="M470.794 17.4115C470.582 17.4115 470.369 17.3373 470.207 17.1898C469.883 16.8939 469.883 16.4156 470.207 16.1197L471.867 14.6062C472.191 14.3103 472.716 14.3103 473.04 14.6062C473.365 14.9021 473.365 15.3804 473.04 15.6763L471.381 17.1898C471.219 17.3373 471.006 17.4115 470.794 17.4115Z" fill="#545C66"/>
<path d="M479.95 22.7087C479.491 22.7087 479.116 22.3704 479.116 21.9519C479.116 21.5335 479.483 21.1952 479.941 21.1952H479.95C480.408 21.1952 480.78 21.5335 480.78 21.9519C480.78 22.3704 480.408 22.7087 479.95 22.7087Z" fill="#5D9CEC"/>
<path d="M462.496 23.4654C462.283 23.4654 462.071 23.3913 461.909 23.2437C461.585 22.9478 461.585 22.4696 461.909 22.1737L463.569 20.6602C463.893 20.3643 464.418 20.3643 464.742 20.6602C465.067 20.956 465.067 21.4343 464.742 21.7302L463.082 23.2437C462.921 23.3913 462.708 23.4654 462.496 23.4654Z" fill="#434A54"/>
<path d="M466.645 23.4654C466.432 23.4654 466.22 23.3913 466.058 23.2437C465.734 22.9478 465.734 22.4696 466.058 22.1737L467.718 20.6602C468.042 20.3643 468.567 20.3643 468.891 20.6602C469.216 20.956 469.216 21.4343 468.891 21.7302L467.232 23.2437C467.07 23.3913 466.857 23.4654 466.645 23.4654Z" fill="#434A54"/>
<path d="M470.794 23.4654C470.582 23.4654 470.369 23.3913 470.207 23.2437C469.883 22.9478 469.883 22.4696 470.207 22.1737L471.867 20.6602C472.191 20.3643 472.716 20.3643 473.04 20.6602C473.365 20.956 473.365 21.4343 473.04 21.7302L471.381 23.2437C471.219 23.3913 471.006 23.4654 470.794 23.4654Z" fill="#434A54"/>
<path d="M479.95 28.7628C479.491 28.7628 479.116 28.4245 479.116 28.006C479.116 27.5875 479.483 27.2493 479.941 27.2493H479.95C480.408 27.2493 480.78 27.5875 480.78 28.006C480.78 28.4245 480.408 28.7628 479.95 28.7628Z" fill="#5D9CEC"/>
<path d="M462.496 29.5195C462.283 29.5195 462.071 29.4454 461.909 29.2978C461.585 29.0019 461.585 28.5236 461.909 28.2277L463.569 26.7142C463.893 26.4183 464.418 26.4183 464.742 26.7142C465.067 27.0101 465.067 27.4884 464.742 27.7843L463.082 29.2978C462.921 29.4454 462.708 29.5195 462.496 29.5195Z" fill="#545C66"/>
<path d="M466.645 29.5195C466.432 29.5195 466.22 29.4454 466.058 29.2978C465.734 29.0019 465.734 28.5236 466.058 28.2277L467.718 26.7142C468.042 26.4183 468.567 26.4183 468.891 26.7142C469.216 27.0101 469.216 27.4884 468.891 27.7843L467.232 29.2978C467.07 29.4454 466.857 29.5195 466.645 29.5195Z" fill="#545C66"/>
<path d="M470.794 29.5195C470.582 29.5195 470.369 29.4454 470.207 29.2978C469.883 29.0019 469.883 28.5236 470.207 28.2277L471.867 26.7142C472.191 26.4183 472.716 26.4183 473.04 26.7142C473.365 27.0101 473.365 27.4884 473.04 27.7843L471.381 29.2978C471.219 29.4454 471.006 29.5195 470.794 29.5195Z" fill="#545C66"/>
<path d="M466.645 35.5736C466.432 35.5736 466.22 35.4994 466.058 35.3519C465.734 35.056 465.734 34.5777 466.058 34.2818L467.718 32.7683C468.042 32.4724 468.567 32.4724 468.891 32.7683C469.216 33.0642 469.216 33.5425 468.891 33.8384L467.232 35.3519C467.07 35.4994 466.857 35.5736 466.645 35.5736Z" fill="#434A54"/>
<path d="M470.794 35.5736C470.582 35.5736 470.369 35.4994 470.207 35.3519C469.883 35.056 469.883 34.5777 470.207 34.2818L471.867 32.7683C472.191 32.4724 472.716 32.4724 473.04 32.7683C473.365 33.0642 473.365 33.5425 473.04 33.8384L471.381 35.3519C471.219 35.4994 471.006 35.5736 470.794 35.5736Z" fill="#434A54"/>
<path d="M463.569 32.7683L462.038 34.1638C462.014 34.1865 462.003 34.2167 461.982 34.2425C462.193 34.3961 462.401 34.5535 462.622 34.6965C462.853 34.8463 463.092 34.9863 463.334 35.1233L464.742 33.8391C465.067 33.5432 465.067 33.0649 464.742 32.7691C464.418 32.4732 463.893 32.4724 463.569 32.7683Z" fill="#434A54"/>
<path d="M479.95 33.3033H479.941C479.483 33.3033 479.116 33.6416 479.116 34.0601C479.116 34.2213 479.184 34.362 479.278 34.4846C479.714 34.185 480.13 33.8626 480.525 33.519C480.376 33.3858 480.175 33.3033 479.95 33.3033Z" fill="#5D9CEC"/>
<path d="M510.482 57.5571H510.418H494.72C494.64 57.5727 494.544 57.5727 494.464 57.5727H492.867H476.897H464.105H446.554C446.474 57.5727 446.394 57.5727 446.316 57.5571H430.568C428.811 57.5571 427.374 58.9416 427.374 60.6682V108.889H459.314H481.672H513.613V60.6682C513.613 58.9571 512.223 57.5882 510.482 57.5571Z" fill="#5D9CEC"/>
<path d="M427.376 62.2206C426.493 62.2206 425.779 61.5253 425.779 60.6651C425.779 58.0922 427.928 55.9984 430.57 55.9984C431.453 55.9984 432.167 56.6937 432.167 57.554C432.167 58.4142 431.453 59.1095 430.57 59.1095C429.688 59.1095 428.973 59.8064 428.973 60.6651C428.973 61.5253 428.259 62.2206 427.376 62.2206Z" fill="#545C66"/>
<path d="M427.376 110.437C426.493 110.437 425.779 109.741 425.779 108.881V60.6652C425.779 59.805 426.493 59.1096 427.376 59.1096C428.259 59.1096 428.973 59.805 428.973 60.6652V108.881C428.973 109.741 428.259 110.437 427.376 110.437Z" fill="#545C66"/>
<path d="M513.614 62.2208C512.731 62.2208 512.017 61.5254 512.017 60.6652C512.017 59.8065 511.301 59.1096 510.42 59.1096C509.537 59.1096 508.823 58.4143 508.823 57.5541C508.823 56.6939 509.537 55.9985 510.42 55.9985C513.061 55.9985 515.211 58.0923 515.211 60.6652C515.211 61.5254 514.497 62.2208 513.614 62.2208Z" fill="#545C66"/>
<path d="M513.614 110.437C512.731 110.437 512.017 109.741 512.017 108.881V60.6651C512.017 59.8048 512.731 59.1095 513.614 59.1095C514.497 59.1095 515.211 59.8048 515.211 60.6651V108.881C515.211 109.741 514.497 110.437 513.614 110.437Z" fill="#545C66"/>
<path d="M510.486 59.1095H430.57C429.687 59.1095 428.973 58.4142 428.973 57.554C428.973 56.6937 429.687 55.9984 430.57 55.9984H510.486C511.369 55.9984 512.083 56.6937 512.083 57.554C512.083 58.4142 511.369 59.1095 510.486 59.1095Z" fill="#545C66"/>
<path d="M456.373 83.8542H456.394V97.4411H438V83.8542H456.373Z" fill="#E6E9ED"/>
<path d="M456.373 81.7745V83.8543H438H437.978V81.764V81.7536C437.978 81.1798 438.428 80.7189 439.001 80.7189H439.011H455.33C455.913 80.7189 456.363 81.1798 456.374 81.764V81.7745H456.373Z" fill="#CCD1D9"/>
<path d="M478.881 84.9203V86.9897H460.496H460.486V84.8994C460.486 84.3256 460.936 83.8542 461.499 83.8542H461.519H477.838C478.412 83.8542 478.871 84.3256 478.882 84.8994V84.9203H478.881Z" fill="#CCD1D9"/>
<path d="M501.389 83.8542H501.41V97.4411H483.004V83.8542H501.389Z" fill="#E6E9ED"/>
<path d="M501.389 81.7745V83.8543H483.004H482.994V81.764V81.7536C482.994 81.1798 483.444 80.7189 484.007 80.7189H484.027H500.346C500.929 80.7189 501.379 81.1798 501.39 81.764V81.7745H501.389Z" fill="#CCD1D9"/>
<path d="M478.881 86.9897H478.902V100.577H460.496V86.9897H478.881Z" fill="#E6E9ED"/>
<path d="M500.353 98.4883H484.033C483.468 98.4883 483.01 98.0212 483.01 97.4432C483.01 96.8652 483.468 96.3981 484.033 96.3981H500.353C500.919 96.3981 501.376 96.8652 501.376 97.4432C501.376 98.0212 500.919 98.4883 500.353 98.4883Z" fill="#E6E9ED"/>
<path d="M477.862 101.622H461.543C460.977 101.622 460.52 101.154 460.52 100.577C460.52 99.9985 460.977 99.5314 461.543 99.5314H477.862C478.428 99.5314 478.885 99.9985 478.885 100.577C478.885 101.154 478.428 101.622 477.862 101.622Z" fill="#E6E9ED"/>
<path d="M455.356 98.4883H439.037C438.471 98.4883 438.014 98.0212 438.014 97.4432C438.014 96.8652 438.471 96.3981 439.037 96.3981H455.356C455.922 96.3981 456.379 96.8652 456.379 97.4432C456.379 98.0212 455.922 98.4883 455.356 98.4883Z" fill="#E6E9ED"/>
<path d="M497.315 89.0779H487.084C486.518 89.0779 486.061 88.6108 486.061 88.0328C486.061 87.4548 486.518 86.9877 487.084 86.9877H497.315C497.881 86.9877 498.338 87.4548 498.338 88.0328C498.338 88.6108 497.881 89.0779 497.315 89.0779Z" fill="#CCD1D9"/>
<path d="M497.315 92.2133H487.084C486.518 92.2133 486.061 91.7461 486.061 91.1682C486.061 90.5902 486.518 90.123 487.084 90.123H497.315C497.881 90.123 498.338 90.5902 498.338 91.1682C498.338 91.7461 497.881 92.2133 497.315 92.2133Z" fill="#CCD1D9"/>
<path d="M494.243 95.3487H490.157C489.591 95.3487 489.134 94.8815 489.134 94.3036C489.134 93.7256 489.591 93.2584 490.157 93.2584H494.243C494.809 93.2584 495.266 93.7256 495.266 94.3036C495.266 94.8815 494.809 95.3487 494.243 95.3487Z" fill="#CCD1D9"/>
<path d="M474.807 92.2175H464.576C464.011 92.2175 463.553 91.7503 463.553 91.1723C463.553 90.5944 464.011 90.1272 464.576 90.1272H474.807C475.373 90.1272 475.83 90.5944 475.83 91.1723C475.83 91.7503 475.373 92.2175 474.807 92.2175Z" fill="#CCD1D9"/>
<path d="M474.807 95.353H464.576C464.011 95.353 463.553 94.8858 463.553 94.3078C463.553 93.7299 464.011 93.2627 464.576 93.2627H474.807C475.373 93.2627 475.83 93.7299 475.83 94.3078C475.83 94.8858 475.373 95.353 474.807 95.353Z" fill="#CCD1D9"/>
<path d="M471.735 98.4883H467.649C467.083 98.4883 466.626 98.0212 466.626 97.4432C466.626 96.8652 467.083 96.3981 467.649 96.3981H471.735C472.301 96.3981 472.758 96.8652 472.758 97.4432C472.758 98.0212 472.301 98.4883 471.735 98.4883Z" fill="#CCD1D9"/>
<path d="M452.301 89.0779H442.07C441.505 89.0779 441.047 88.6108 441.047 88.0328C441.047 87.4548 441.505 86.9877 442.07 86.9877H452.301C452.867 86.9877 453.324 87.4548 453.324 88.0328C453.324 88.6108 452.867 89.0779 452.301 89.0779Z" fill="#CCD1D9"/>
<path d="M452.301 92.2133H442.07C441.505 92.2133 441.047 91.7461 441.047 91.1682C441.047 90.5902 441.505 90.123 442.07 90.123H452.301C452.867 90.123 453.324 90.5902 453.324 91.1682C453.324 91.7461 452.867 92.2133 452.301 92.2133Z" fill="#CCD1D9"/>
<path d="M449.229 95.3487H445.143C444.577 95.3487 444.12 94.8815 444.12 94.3036C444.12 93.7256 444.577 93.2584 445.143 93.2584H449.229C449.795 93.2584 450.252 93.7256 450.252 94.3036C450.252 94.8815 449.795 95.3487 449.229 95.3487Z" fill="#CCD1D9"/>
<path d="M469.703 80.721C469.137 80.721 468.68 80.2538 468.68 79.6758V68.1814C468.68 67.6034 469.137 67.1362 469.703 67.1362C470.269 67.1362 470.726 67.6034 470.726 68.1814V79.6758C470.726 80.2538 470.269 80.721 469.703 80.721Z" fill="#656D78"/>
<path d="M492.203 77.5855C491.637 77.5855 491.18 77.1184 491.18 76.5404V72.3598C491.18 71.7819 491.637 71.3147 492.203 71.3147C492.769 71.3147 493.226 71.7819 493.226 72.3598V76.5404C493.226 77.1184 492.769 77.5855 492.203 77.5855Z" fill="#656D78"/>
<path d="M492.203 73.405H475.833C475.268 73.405 474.81 72.9378 474.81 72.3598C474.81 71.7819 475.268 71.3147 475.833 71.3147H492.203C492.769 71.3147 493.226 71.7819 493.226 72.3598C493.226 72.9378 492.769 73.405 492.203 73.405Z" fill="#656D78"/>
<path d="M475.833 73.405C475.268 73.405 474.81 72.9378 474.81 72.3598V68.1814C474.81 67.6034 475.268 67.1362 475.833 67.1362C476.399 67.1362 476.856 67.6034 476.856 68.1814V72.3598C476.856 72.9378 476.399 73.405 475.833 73.405Z" fill="#656D78"/>
<path d="M447.159 77.5855C446.593 77.5855 446.136 77.1184 446.136 76.5404V72.3598C446.136 71.7819 446.593 71.3147 447.159 71.3147C447.725 71.3147 448.182 71.7819 448.182 72.3598V76.5404C448.182 77.1184 447.724 77.5855 447.159 77.5855Z" fill="#656D78"/>
<path d="M463.529 73.405H447.159C446.593 73.405 446.136 72.9378 446.136 72.3598C446.136 71.7819 446.593 71.3147 447.159 71.3147H463.529C464.094 71.3147 464.552 71.7819 464.552 72.3598C464.552 72.9378 464.093 73.405 463.529 73.405Z" fill="#656D78"/>
<path d="M463.529 73.405C462.963 73.405 462.506 72.9378 462.506 72.3598V68.1814C462.506 67.6034 462.963 67.1362 463.529 67.1362C464.094 67.1362 464.552 67.6034 464.552 68.1814V72.3598C464.552 72.9378 464.093 73.405 463.529 73.405Z" fill="#656D78"/>
<path d="M513.612 108.889H481.672H459.313H427.373H422.585L420.985 110.438V115.111C420.985 116.838 422.422 118.222 424.179 118.222H516.806C518.579 118.222 520 116.838 520 115.111V110.438L518.403 108.889H513.612Z" fill="#656D78"/>
<path d="M481.671 108.888V110.443C481.671 111.299 480.953 111.999 480.074 111.999H460.91C460.032 111.999 459.313 111.299 459.313 110.443V108.888" fill="#545C66"/>
<path d="M464.108 66.8954C463.225 66.8954 462.511 66.2 462.511 65.3398V46.6793C462.511 45.8191 463.225 45.1238 464.108 45.1238C464.991 45.1238 465.705 45.8191 465.705 46.6793V65.3398C465.705 66.2 464.991 66.8954 464.108 66.8954Z" fill="#E6E9ED"/>
<path d="M467.299 51.3429C466.891 51.3429 466.482 51.1905 466.17 50.8871L462.979 47.7791C462.355 47.1709 462.355 46.1878 462.979 45.5796C463.604 44.9714 464.613 44.9714 465.238 45.5796L468.428 48.6876C469.053 49.2958 469.053 50.2789 468.428 50.8871C468.117 51.1905 467.708 51.3429 467.299 51.3429Z" fill="#E6E9ED"/>
<path d="M460.918 51.3429C460.509 51.3429 460.101 51.1905 459.789 50.8871C459.165 50.2789 459.165 49.2958 459.789 48.6876L462.98 45.5796C463.604 44.9714 464.614 44.9714 465.238 45.5796C465.863 46.1878 465.863 47.1709 465.238 47.7791L462.047 50.8871C461.736 51.1905 461.327 51.3429 460.918 51.3429Z" fill="#E6E9ED"/>
<path d="M476.896 66.8954C476.013 66.8954 475.299 66.2 475.299 65.3398V46.6793C475.299 45.8191 476.013 45.1238 476.896 45.1238C477.779 45.1238 478.493 45.8191 478.493 46.6793V65.3398C478.493 66.2 477.779 66.8954 476.896 66.8954Z" fill="#E6E9ED"/>
<path d="M476.897 66.8955C476.488 66.8955 476.079 66.7431 475.768 66.4398L472.577 63.3318C471.953 62.7235 471.953 61.7404 472.577 61.1322C473.202 60.524 474.211 60.524 474.835 61.1322L478.026 64.2402C478.651 64.8484 478.651 65.8315 478.026 66.4398C477.713 66.7431 477.306 66.8955 476.897 66.8955Z" fill="#E6E9ED"/>
<path d="M476.897 66.8955C476.488 66.8955 476.079 66.7431 475.768 66.4398C475.143 65.8315 475.143 64.8484 475.768 64.2402L478.958 61.1322C479.583 60.524 480.592 60.524 481.217 61.1322C481.841 61.7404 481.841 62.7235 481.217 63.3318L478.026 66.4398C477.713 66.7431 477.305 66.8955 476.897 66.8955Z" fill="#E6E9ED"/>
<path d="M422.583 111.993C423.465 111.993 424.18 111.296 424.18 110.437C424.18 109.578 423.465 108.881 422.583 108.881C421.701 108.881 420.986 109.578 420.986 110.437C420.986 111.296 421.701 111.993 422.583 111.993Z" fill="#656D78"/>
<path d="M427.376 124.444H413V166.445H427.376C428.253 166.445 428.973 165.743 428.973 164.889C428.973 164.032 428.973 162.632 428.973 161.778V129.111C428.973 128.254 428.973 126.854 428.973 126C428.973 125.143 428.253 124.444 427.376 124.444Z" fill="#656D78"/>
<path d="M473.687 138.444L504.541 133.873C504.891 133.809 505.258 133.778 505.627 133.778C509.155 133.778 512.015 136.561 512.015 140C512.015 142.302 510.736 144.309 508.821 145.384L465.702 168L428.97 163.333V127.556H443.343L468.399 132.317C471.403 132.815 473.687 135.363 473.687 138.444Z" fill="#EAC6BB"/>
<path d="M421.032 163.333C420.148 163.333 419.428 162.638 419.428 161.778C419.428 160.918 420.132 160.222 421.016 160.222H421.032C421.915 160.222 422.629 160.918 422.629 161.778C422.629 162.638 421.915 163.333 421.032 163.333Z" fill="#FFCE54"/>
<path d="M476.837 137.976L473.686 138.445C473.686 141.881 470.826 144.667 467.298 144.667C467.118 144.667 466.936 144.651 466.758 144.639C466.755 144.636 466.755 144.636 466.752 144.636L446.661 143.113C445.788 143.058 445.015 143.69 444.943 144.544C444.878 145.401 445.532 146.148 446.412 146.215L466.35 147.725V147.731C466.664 147.762 466.982 147.776 467.298 147.776C472.583 147.776 476.88 143.59 476.88 138.443C476.88 138.283 476.847 138.135 476.837 137.976Z" fill="#D3B1A9"/>
</svg>
